<svg width="269" height="225" viewBox="0 0 269 225" fill="none" xmlns="http://www.w3.org/2000/svg">
<path d="M3.76642 125.87C-13.4431 77.9895 33.0038 59.6364 107.403 32.8955C181.803 6.15458 243.684 18.1717 260.893 66.0526C278.103 113.934 197.646 191.734 123.247 218.475C48.8471 245.216 20.9759 173.751 3.76642 125.87Z" fill="white" fill-opacity="0.5"/>
<path d="M200.57 57.7012H63.0474C61.1679 57.7046 59.3073 58.0762 57.5721 58.7949C55.8369 59.5137 54.261 60.5654 52.9343 61.8902C51.6077 63.2149 50.5562 64.7867 49.8401 66.5157C49.1239 68.2448 48.757 70.0972 48.7603 71.9674V153.497C48.7603 155.367 49.1305 157.219 49.8498 158.947C50.5691 160.675 51.6233 162.245 52.9524 163.567C54.2814 164.889 55.8592 165.938 57.5957 166.654C59.3322 167.37 61.1933 167.738 63.0729 167.738H134.839L152.87 202.301L156.143 167.738H200.57C202.45 167.738 204.311 167.37 206.047 166.654C207.784 165.938 209.361 164.889 210.691 163.567C212.02 162.245 213.074 160.675 213.793 158.947C214.512 157.219 214.883 155.367 214.883 153.497V71.9674C214.886 70.0951 214.518 68.2406 213.8 66.5099C213.083 64.7792 212.029 63.2063 210.7 61.8812C209.37 60.5562 207.791 59.5049 206.053 58.7877C204.315 58.0704 202.452 57.7012 200.57 57.7012Z" fill="#263238" stroke="#263238" stroke-linecap="round" stroke-linejoin="round"/>
<path d="M195.782 51.0243H58.2596C54.4637 51.0243 50.8232 52.5247 48.1391 55.1954C45.455 57.866 43.9471 61.4882 43.9471 65.2651V146.795C43.9471 150.572 45.455 154.194 48.1391 156.865C50.8232 159.535 54.4637 161.036 58.2596 161.036H130.039L148.082 195.599L151.355 161.036H195.782C199.578 161.036 203.219 159.535 205.903 156.865C208.587 154.194 210.095 150.572 210.095 146.795V65.2651C210.095 61.4882 208.587 57.866 205.903 55.1954C203.219 52.5247 199.578 51.0243 195.782 51.0243Z" fill="white" stroke="#263238" stroke-miterlimit="10"/>
<path d="M108.188 108.393C108.19 107.438 107.908 106.503 107.376 105.708C106.845 104.912 106.088 104.292 105.202 103.924C104.316 103.557 103.34 103.46 102.398 103.644C101.456 103.829 100.59 104.288 99.9104 104.962C99.2307 105.637 98.7673 106.497 98.5791 107.434C98.3909 108.371 98.4862 109.342 98.853 110.225C99.2198 111.107 99.8416 111.862 100.64 112.393C101.438 112.924 102.376 113.207 103.336 113.207C104.621 113.207 105.853 112.701 106.762 111.798C107.672 110.896 108.185 109.671 108.188 108.393Z" fill="#263238"/>
<path d="M131.478 108.393C131.48 107.438 131.198 106.503 130.666 105.708C130.135 104.912 129.378 104.292 128.492 103.924C127.605 103.557 126.629 103.46 125.687 103.644C124.746 103.829 123.88 104.288 123.2 104.962C122.52 105.637 122.057 106.497 121.869 107.434C121.681 108.371 121.776 109.342 122.143 110.225C122.51 111.107 123.131 111.862 123.929 112.393C124.728 112.924 125.666 113.207 126.626 113.207C127.911 113.207 129.143 112.701 130.052 111.798C130.962 110.896 131.474 109.671 131.478 108.393Z" fill="#263238"/>
<path d="M154.755 108.393C154.757 107.438 154.475 106.503 153.943 105.708C153.412 104.912 152.655 104.292 151.769 103.924C150.882 103.557 149.906 103.46 148.964 103.644C148.023 103.829 147.157 104.288 146.477 104.962C145.797 105.637 145.334 106.497 145.146 107.434C144.958 108.371 145.053 109.342 145.42 110.225C145.787 111.107 146.408 111.862 147.206 112.393C148.005 112.924 148.943 113.207 149.903 113.207C151.188 113.207 152.42 112.701 153.329 111.798C154.239 110.896 154.751 109.671 154.755 108.393Z" fill="#263238"/>
</svg>
