<svg width="157" height="221" viewBox="0 0 157 221" fill="none" xmlns="http://www.w3.org/2000/svg">
<path d="M1.50499 22.8911L28.8546 215.335C29.0496 216.68 29.769 217.892 30.8556 218.708C31.9422 219.524 33.3076 219.877 34.6533 219.689L151.106 203.13C152.452 202.937 153.666 202.218 154.483 201.131C155.299 200.044 155.651 198.677 155.46 197.331L128.1 4.89714C128.006 4.23112 127.782 3.59017 127.44 3.01089C127.098 2.43161 126.645 1.92535 126.108 1.52103C125.57 1.11671 124.958 0.822234 124.307 0.654444C123.656 0.486655 122.978 0.448832 122.312 0.543128L5.84905 17.0625C5.17949 17.1563 4.53519 17.3821 3.95348 17.7266C3.37177 18.0712 2.8642 18.5278 2.46017 19.0699C2.05614 19.612 1.76367 20.2289 1.59971 20.8848C1.43575 21.5407 1.40356 22.2227 1.50499 22.8911ZM77.6754 19.5633L54.0123 22.921C53.5079 22.9923 52.9944 22.9636 52.5011 22.8364C52.0078 22.7093 51.5444 22.4862 51.1373 22.18C50.7302 21.8738 50.3875 21.4903 50.1286 21.0516C49.8696 20.6129 49.6997 20.1275 49.6284 19.6231C49.5571 19.1187 49.5858 18.6052 49.7129 18.1119C49.8401 17.6186 50.0631 17.1552 50.3694 16.7481C50.6756 16.341 51.059 15.9983 51.4977 15.7394C51.9365 15.4805 52.4219 15.3105 52.9263 15.2392L76.5794 11.8715C77.0902 11.7868 77.6128 11.8051 78.1164 11.9252C78.62 12.0452 79.0945 12.2648 79.5121 12.5708C79.9297 12.8769 80.2819 13.2633 80.5481 13.7074C80.8142 14.1515 80.989 14.6443 81.062 15.1568C81.135 15.6694 81.1049 16.1914 80.9734 16.6921C80.8418 17.1929 80.6116 17.6623 80.2961 18.0728C79.9806 18.4833 79.5863 18.8266 79.1362 19.0826C78.6862 19.3385 78.1895 19.502 77.6754 19.5633Z" fill="white"/>
<path d="M33.9061 220.227C32.5534 220.224 31.2471 219.734 30.2262 218.846C29.2053 217.959 28.538 216.734 28.3465 215.395L1.02673 22.9609C0.821732 21.4859 1.20849 19.9897 2.1026 18.7988C2.99671 17.6079 4.32558 16.819 5.79921 16.6042L122.262 0.0549873C123.737 -0.15272 125.235 0.232996 126.426 1.12759C127.618 2.02218 128.406 3.35268 128.618 4.82748L155.968 197.251C156.075 197.982 156.036 198.727 155.854 199.443C155.671 200.16 155.349 200.832 154.905 201.423C154.462 202.014 153.906 202.511 153.269 202.886C152.632 203.261 151.927 203.507 151.196 203.608L34.7231 220.167C34.4526 220.207 34.1795 220.227 33.9061 220.227ZM123.009 1.03141C122.793 1.01699 122.577 1.01699 122.361 1.03141L5.91878 17.5906C5.31748 17.6762 4.73893 17.8793 4.21618 18.1885C3.69343 18.4977 3.23672 18.9069 2.87216 19.3927C2.50761 19.8784 2.24234 20.4313 2.09152 21.0196C1.9407 21.6079 1.90729 22.2202 1.99319 22.8214L29.3528 215.255C29.528 216.468 30.1769 217.563 31.1573 218.298C32.1377 219.034 33.3697 219.352 34.5836 219.181L151.036 202.622C151.638 202.538 152.217 202.337 152.74 202.029C153.263 201.722 153.721 201.313 154.085 200.828C154.45 200.343 154.716 199.79 154.866 199.202C155.016 198.614 155.049 198.002 154.962 197.401L127.612 4.96697C127.452 3.86479 126.901 2.8569 126.06 2.12712C125.218 1.39735 124.143 0.994321 123.029 0.991552L123.009 1.03141ZM53.4443 23.499C52.343 23.4865 51.2868 23.06 50.4856 22.3043C49.6844 21.5485 49.1971 20.5189 49.1205 19.4202C49.0439 18.3215 49.3836 17.2342 50.0722 16.3746C50.7608 15.515 51.7476 14.9461 52.8366 14.781L76.4898 11.4233C77.0589 11.3391 77.6392 11.3689 78.1968 11.5109C78.7544 11.6528 79.2782 11.9042 79.7378 12.2502C80.1995 12.5948 80.5885 13.0272 80.8826 13.5226C81.1767 14.0179 81.37 14.5665 81.4514 15.1368C81.5329 15.7071 81.5009 16.2878 81.3573 16.8457C81.2137 17.4036 80.9613 17.9276 80.6146 18.3877C79.9159 19.3001 78.8841 19.8984 77.7452 20.0516L54.082 23.4192C53.8773 23.4474 53.6709 23.4607 53.4643 23.4591L53.4443 23.499ZM77.1175 12.3698C76.955 12.3554 76.7917 12.3554 76.6293 12.3698L52.9761 15.7275C52.5358 15.7929 52.1127 15.9444 51.731 16.1733C51.3492 16.4022 51.0163 16.7041 50.7513 17.0617C50.4862 17.4193 50.2941 17.8256 50.1861 18.2574C50.0781 18.6892 50.0561 19.1381 50.1215 19.5783C50.187 20.0186 50.3385 20.4417 50.5674 20.8234C50.7963 21.2052 51.0982 21.5381 51.4558 21.8031C51.8134 22.0682 52.2197 22.2602 52.6515 22.3683C53.0833 22.4763 53.5321 22.4983 53.9724 22.4329L77.6057 19.0553C78.0467 18.9964 78.4715 18.8497 78.8548 18.6238C79.2381 18.3979 79.5723 18.0974 79.8375 17.7401C80.3738 17.0203 80.6064 16.1187 80.4851 15.2293C80.3681 14.4238 79.9658 13.687 79.3514 13.153C78.737 12.6191 77.9514 12.3235 77.1374 12.32L77.1175 12.3698Z" fill="#263238"/>
<path d="M124.216 22.6047L10.1356 38.8205L34.8104 212.412L148.891 196.196L124.216 22.6047Z" fill="#89CBFB"/>
<path d="M34.8226 212.904C34.7034 212.903 34.5887 212.859 34.4991 212.78C34.4095 212.701 34.3511 212.593 34.3344 212.475L9.65499 38.8924C9.64573 38.8258 9.64977 38.7581 9.66688 38.6931C9.68398 38.6281 9.71379 38.5672 9.75461 38.5138C9.79248 38.4626 9.84019 38.4195 9.89494 38.387C9.94969 38.3545 10.0104 38.3332 10.0734 38.3245L124.165 22.104C124.23 22.0956 124.296 22.1 124.359 22.1171C124.422 22.1342 124.481 22.1636 124.533 22.2037C124.588 22.2408 124.633 22.2896 124.665 22.3465C124.698 22.4034 124.718 22.467 124.723 22.5325L149.402 196.115C149.412 196.18 149.409 196.246 149.393 196.31C149.378 196.373 149.35 196.433 149.311 196.486C149.272 196.539 149.223 196.583 149.167 196.617C149.111 196.651 149.048 196.674 148.984 196.683L34.9023 212.904H34.8226ZM10.7111 39.2411L35.251 211.848L148.346 195.767L123.806 23.1601L10.7111 39.2411Z" fill="#263238"/>
<path d="M106.77 32.513L29.681 43.4707L45.7369 156.427L122.826 145.469L106.77 32.513Z" fill="white"/>
<path d="M45.7427 156.919C45.6315 156.921 45.5227 156.886 45.4338 156.82C45.3321 156.737 45.2647 156.62 45.2445 156.491L29.1834 43.5354C29.1663 43.4035 29.2016 43.2702 29.2817 43.164C29.3618 43.0578 29.4803 42.9873 29.6119 42.9675L106.699 32.0077C106.831 31.9906 106.964 32.0259 107.07 32.106C107.177 32.1861 107.247 32.3046 107.267 32.4362L123.328 145.392C123.342 145.523 123.306 145.654 123.228 145.76C123.189 145.814 123.14 145.859 123.084 145.893C123.027 145.927 122.965 145.95 122.899 145.959L45.8124 156.919H45.7427ZM30.2396 43.8841L46.1811 155.863L122.292 145.043L106.35 33.0738L30.2396 43.8841Z" fill="#263238"/>
<path d="M45.7426 156.421C60.4486 154.428 106.868 147.454 122.83 145.461C121.514 136.235 119.781 124.239 119.572 118.49C117.489 116.996 113.853 115.711 108.612 112.941C100.392 108.607 87.051 99.5001 87.051 99.5001L81.6309 100.078L81.5811 99.7592L77.247 100.536L72.8531 100.995V101.313L67.4828 102.31C67.4828 102.31 57.2105 114.774 50.545 121.24C46.1411 125.495 43.3912 127.438 41.8668 129.51C41.9864 129.859 44.2481 145.76 45.7426 156.421Z" fill="white"/>
<path d="M45.7326 156.8C45.6419 156.798 45.5549 156.764 45.4872 156.704C45.4196 156.643 45.3758 156.561 45.3639 156.471C43.8594 145.72 41.6276 129.968 41.538 129.57C41.526 129.518 41.5261 129.464 41.5382 129.412C41.5503 129.36 41.574 129.312 41.6077 129.271C42.8392 127.768 44.2213 126.396 45.7326 125.176C46.978 124.07 48.5323 122.695 50.3257 120.951C56.9215 114.595 67.1539 102.2 67.2635 102.071C67.3207 102 67.4027 101.954 67.4927 101.941L72.4744 101.044C72.4699 101 72.4747 100.954 72.4884 100.911C72.5021 100.869 72.5245 100.829 72.5541 100.795C72.5835 100.756 72.6208 100.723 72.6637 100.699C72.7067 100.675 72.7542 100.66 72.8032 100.656L77.1971 100.197L81.5112 99.4203C81.5593 99.41 81.609 99.41 81.6571 99.4203C81.7052 99.4306 81.7506 99.451 81.7902 99.48C81.8655 99.532 81.9188 99.6102 81.9397 99.6992L87.0011 99.1612C87.0883 99.1546 87.1754 99.1755 87.2502 99.221C87.3897 99.3206 100.671 108.367 108.771 112.642C111.053 113.847 112.996 114.754 114.749 115.551C116.511 116.292 118.204 117.186 119.811 118.221C119.858 118.253 119.898 118.296 119.926 118.346C119.953 118.397 119.969 118.453 119.97 118.51C120.159 123.96 121.754 135.119 123.029 144.086L123.218 145.441C123.227 145.49 123.225 145.54 123.213 145.588C123.201 145.636 123.179 145.681 123.148 145.72C123.087 145.799 122.998 145.852 122.899 145.87C112.836 147.095 91.1359 150.264 71.9862 153.053C60.857 154.677 51.2523 156.042 45.8123 156.82L45.7326 156.8ZM42.2952 129.56C42.5841 131.383 44.7362 146.587 46.0514 156.003C51.5512 155.245 60.9965 153.87 71.8567 152.286C90.7872 149.526 112.179 146.408 122.411 145.142L122.272 144.146C121.006 135.259 119.432 124.219 119.213 118.67C117.677 117.72 116.071 116.888 114.41 116.179C112.697 115.382 110.744 114.465 108.432 113.25C100.701 109.174 88.2764 100.765 86.9513 99.8686L81.6707 100.427C81.5852 100.432 81.5003 100.41 81.4285 100.363C81.3568 100.316 81.3019 100.248 81.2721 100.168L77.2868 100.885L73.2515 101.313C73.25 101.399 73.218 101.481 73.1614 101.545C73.1048 101.609 73.0273 101.65 72.9427 101.662L67.7119 102.599C66.7155 103.834 57.1108 115.362 50.774 121.439C48.9707 123.193 47.4064 124.578 46.151 125.684C44.7535 126.859 43.4631 128.156 42.2952 129.56Z" fill="#263238"/>
<path d="M119.592 118.49C117.557 117.238 115.429 116.145 113.225 115.222L112.677 114.963L111.95 114.615L110.953 114.126L110.365 113.828C109.807 113.549 109.24 113.26 108.642 112.941C100.422 108.607 87.0809 99.5001 87.0809 99.5001L81.6608 100.078L81.611 99.7592L77.2769 100.536L72.883 100.995V101.313L67.5127 102.31C67.5127 102.31 57.2404 114.774 50.5749 121.24C50.1265 121.679 49.6981 122.087 49.2697 122.486C45.623 125.883 43.2916 127.647 41.8967 129.51C41.8967 129.649 42.1956 131.552 42.6141 134.422L119.93 123.462C119.751 121.499 119.592 119.825 119.592 118.49Z" fill="#263238"/>
<path d="M120.917 131.642L43.7898 142.602C44.1883 145.441 44.6168 148.45 45.0253 151.33L122.102 140.37C121.694 137.481 121.285 134.492 120.917 131.642Z" fill="#263238"/>
<path d="M79.8176 120.443L82.707 138.895L87.3301 138.238L82.8665 119.746C82.8665 119.746 80.1863 119.347 79.8176 120.443Z" fill="white"/>
<path d="M82.7267 139.264C82.639 139.263 82.5543 139.232 82.4871 139.176C82.4198 139.119 82.3743 139.042 82.3581 138.955L79.4687 120.503C79.454 120.444 79.454 120.383 79.4687 120.324C79.9171 118.969 82.6172 119.327 82.926 119.377C82.9983 119.388 83.0657 119.42 83.1191 119.47C83.1725 119.52 83.2094 119.585 83.2249 119.656L87.7085 138.148C87.7225 138.199 87.7253 138.252 87.7167 138.303C87.7081 138.355 87.6883 138.404 87.6587 138.447C87.6288 138.49 87.5904 138.527 87.5458 138.554C87.5012 138.581 87.4515 138.599 87.3996 138.607L82.7766 139.264H82.7267ZM80.2259 120.493L83.0356 138.427L86.8915 137.879L82.5872 120.045C81.6606 119.995 80.465 120.055 80.206 120.493H80.2259Z" fill="#263238"/>
<path d="M82.9361 125.475C82.9227 125.378 82.8904 125.286 82.841 125.202C82.7916 125.118 82.7261 125.045 82.6483 124.987C82.5705 124.928 82.4819 124.886 82.3877 124.862C82.2935 124.838 82.1954 124.833 82.0992 124.847C81.9551 124.868 81.8205 124.931 81.7124 125.029C81.6042 125.126 81.5273 125.253 81.4914 125.395C81.4555 125.536 81.4622 125.684 81.5106 125.822C81.559 125.959 81.647 126.079 81.7635 126.166C81.88 126.254 82.0198 126.305 82.1652 126.313C82.3105 126.321 82.4551 126.285 82.5805 126.211C82.7059 126.137 82.8066 126.028 82.8699 125.897C82.9332 125.766 82.9562 125.619 82.9361 125.475Z" fill="white"/>
<path d="M82.2088 126.66C81.967 126.66 81.732 126.58 81.5412 126.431C81.3065 126.254 81.1494 125.994 81.1028 125.704C81.0832 125.558 81.0924 125.41 81.13 125.268C81.1676 125.126 81.2329 124.993 81.322 124.877C81.452 124.697 81.633 124.561 81.8415 124.485C82.0499 124.41 82.2762 124.399 82.491 124.454C82.7058 124.509 82.8992 124.627 83.0461 124.793C83.1929 124.959 83.2865 125.165 83.3147 125.385C83.3386 125.53 83.3324 125.678 83.2964 125.82C83.2604 125.962 83.1954 126.096 83.1055 126.212C83.019 126.328 82.9101 126.426 82.7852 126.5C82.6602 126.573 82.5218 126.621 82.3781 126.64L82.2088 126.66ZM82.2088 125.176H82.1589C82.1113 125.18 82.0653 125.195 82.024 125.219C81.9827 125.243 81.9471 125.276 81.9198 125.315C81.8893 125.352 81.8672 125.395 81.8551 125.442C81.8431 125.488 81.8414 125.537 81.8501 125.584C81.8545 125.632 81.8693 125.678 81.8934 125.719C81.9175 125.76 81.9503 125.796 81.9896 125.823C82.0672 125.88 82.1633 125.905 82.2586 125.893C82.3062 125.889 82.3523 125.874 82.3936 125.85C82.4349 125.826 82.4704 125.793 82.4977 125.753C82.5551 125.676 82.5802 125.58 82.5674 125.484C82.5474 125.405 82.5012 125.334 82.4362 125.283C82.3712 125.233 82.2911 125.205 82.2088 125.206V125.176Z" fill="#263238"/>
<path d="M84.9288 134.252C84.9226 134.151 84.8954 134.051 84.8488 133.961C84.8023 133.87 84.7375 133.79 84.6585 133.726C84.5795 133.661 84.488 133.614 84.3898 133.587C84.2916 133.559 84.1888 133.553 84.0879 133.567C83.987 133.582 83.8903 133.617 83.8037 133.671C83.7171 133.725 83.6427 133.796 83.585 133.88C83.5273 133.964 83.4877 134.059 83.4686 134.159C83.4495 134.259 83.4514 134.362 83.4741 134.462C83.4864 134.557 83.5176 134.65 83.5659 134.734C83.6143 134.817 83.6789 134.891 83.7559 134.949C83.8329 135.007 83.9207 135.05 84.0144 135.074C84.108 135.098 84.2054 135.103 84.3011 135.089C84.3974 135.076 84.4901 135.043 84.5739 134.994C84.6576 134.945 84.7308 134.879 84.7891 134.801C84.8474 134.724 84.8898 134.635 84.9138 134.541C84.9378 134.447 84.9429 134.349 84.9288 134.252Z" fill="white"/>
<path d="M84.2016 135.468C83.9274 135.469 83.6627 135.367 83.4598 135.183C83.2569 134.999 83.1306 134.745 83.1056 134.472C83.0786 134.328 83.0834 134.181 83.1195 134.04C83.1557 133.899 83.2224 133.767 83.3148 133.655C83.4449 133.475 83.6259 133.339 83.8343 133.263C84.0428 133.188 84.269 133.177 84.4838 133.232C84.6986 133.286 84.892 133.405 85.0389 133.571C85.1858 133.737 85.2794 133.943 85.3075 134.163C85.3315 134.308 85.3252 134.456 85.2892 134.598C85.2532 134.74 85.1882 134.874 85.0983 134.99C84.9206 135.221 84.6598 135.375 84.371 135.418L84.2016 135.468ZM84.2016 133.993H84.1518C84.0913 134.001 84.0336 134.023 83.9838 134.058C83.934 134.093 83.8937 134.14 83.8664 134.194C83.8392 134.249 83.8258 134.309 83.8276 134.37C83.8294 134.431 83.8463 134.491 83.8767 134.543C83.9071 134.596 83.9502 134.641 84.002 134.673C84.0537 134.705 84.1127 134.724 84.1735 134.727C84.2343 134.731 84.2951 134.72 84.3504 134.694C84.4057 134.669 84.4539 134.63 84.4905 134.581C84.5205 134.544 84.5422 134.501 84.5543 134.454C84.5663 134.408 84.5683 134.359 84.5603 134.312C84.5504 134.224 84.5083 134.143 84.4421 134.084C84.3759 134.025 84.2902 133.993 84.2016 133.993Z" fill="#263238"/>
<path d="M68.3198 96.6704C68.3198 96.6704 65.3307 97.876 64.5038 102.977C63.6768 108.079 64.4141 120.802 64.0455 123.731C63.6768 126.66 64.5237 127.069 66.4666 126.013C68.4094 124.957 70.2128 121.031 73.2915 120.583C76.0032 120.363 78.7299 120.414 81.4317 120.732C81.4317 120.732 85.9152 117.215 88.9939 116.747C92.0726 116.278 96.7255 121.41 97.961 121.23C99.1964 121.051 96.1377 110.27 93.318 103.296C90.4984 96.3217 85.6561 93.6415 80.2659 94.4087C74.8757 95.1759 68.3198 96.6704 68.3198 96.6704Z" fill="white"/>
<path d="M64.9323 126.919C64.6849 126.925 64.4416 126.856 64.2348 126.72C63.637 126.312 63.4677 125.375 63.6769 123.681C63.8164 122.535 63.7865 119.796 63.7466 116.627C63.6868 111.895 63.6171 106.006 64.1352 102.908C65.002 97.6668 68.0508 96.3715 68.1803 96.3217H68.2401C68.3099 96.3217 74.9156 94.8471 80.266 94.0899C86.244 93.243 90.9767 96.4811 93.7166 103.206C95.9385 108.666 99.4556 119.706 98.519 121.33C98.4746 121.415 98.4109 121.488 98.333 121.543C98.255 121.598 98.1652 121.635 98.0706 121.649C97.4429 121.738 96.5961 121.151 95.0218 120.015C93.2284 118.71 90.7575 116.926 89.0438 117.175C86.1046 117.594 81.7107 121.011 81.6609 121.051C81.5847 121.111 81.4884 121.14 81.3919 121.131C78.72 120.815 76.0236 120.761 73.3414 120.971C71.5679 121.23 70.193 122.795 68.9774 124.179C68.3253 125.027 67.5375 125.761 66.646 126.351C66.1287 126.676 65.5409 126.871 64.9323 126.919ZM68.4394 97.0291C68.1604 97.1686 65.6297 98.4838 64.8725 103.007C64.3644 105.996 64.4441 111.885 64.4939 116.587C64.4939 119.786 64.5736 122.565 64.4142 123.751C64.2049 125.485 64.474 125.943 64.6533 126.072C64.8326 126.202 65.2611 126.212 66.2873 125.654C67.0932 125.1 67.8118 124.428 68.4195 123.661C69.7147 122.187 71.1893 120.503 73.2418 120.214C75.933 119.986 78.6404 120.032 81.3221 120.353C82.0793 119.766 86.0448 116.826 88.9441 116.368C90.9368 116.089 93.4576 117.893 95.4602 119.357C96.1929 119.975 97.0119 120.481 97.8913 120.862C98.3795 119.756 95.9982 110.749 93.0192 103.436C90.4287 97.059 85.9452 93.9803 80.3656 94.7774C75.2544 95.5346 68.9774 96.8996 68.4394 97.0191V97.0291Z" fill="#263238"/>
<path d="M47.2471 132.638C45.1249 128.912 43.2617 129.41 42.0861 130.646C42.654 134.571 44.4673 147.354 45.7327 156.391H46.0216C48.3929 156.072 51.5314 155.624 55.1979 155.096L55.3673 155.006C53.0259 147.364 49.5885 136.803 47.2471 132.638Z" fill="white"/>
<path d="M45.7326 156.78C45.6419 156.778 45.5549 156.744 45.4872 156.684C45.4196 156.623 45.3758 156.541 45.3639 156.451C44.1683 147.912 42.3151 134.8 41.7173 130.705C41.7076 130.648 41.7116 130.59 41.7289 130.534C41.7463 130.479 41.7764 130.428 41.8169 130.387C42.111 130.041 42.483 129.771 42.9023 129.597C43.3215 129.424 43.776 129.353 44.2281 129.39C45.3739 129.55 46.4998 130.586 47.5659 132.469C49.8973 136.574 53.2948 146.916 55.7259 154.867C55.755 154.959 55.7474 155.06 55.7048 155.147C55.6621 155.234 55.5877 155.301 55.4967 155.335L55.3473 155.405H55.2576C51.5811 155.933 48.4426 156.401 46.0713 156.7H45.7625L45.7326 156.78ZM42.4845 130.785C43.0923 135.03 44.8757 147.584 46.0514 156.003L54.8989 154.747C52.4878 146.886 49.1799 136.813 46.9282 132.828C45.9817 131.154 45.0451 130.247 44.1384 130.118C43.8302 130.097 43.5212 130.146 43.2347 130.261C42.9483 130.377 42.6917 130.556 42.4845 130.785Z" fill="#263238"/>
<path d="M114.092 146.587C116.97 146.001 119.876 145.569 122.8 145.292C121.654 137.212 120.189 127.099 119.711 120.891C113.345 123.522 113.315 137.192 114.092 146.587Z" fill="white"/>
<path d="M114.092 146.916C114.012 146.914 113.935 146.886 113.872 146.836C113.83 146.807 113.794 146.768 113.769 146.724C113.743 146.679 113.727 146.629 113.723 146.577C112.856 136.165 113.165 123.193 119.572 120.503C119.624 120.476 119.682 120.462 119.741 120.462C119.8 120.462 119.858 120.476 119.91 120.503C119.96 120.537 120.002 120.581 120.033 120.633C120.064 120.684 120.083 120.742 120.09 120.802C120.538 126.69 121.903 136.275 122.999 143.967L123.168 145.162C123.176 145.213 123.173 145.266 123.159 145.315C123.145 145.365 123.121 145.411 123.089 145.451C123.059 145.491 123.022 145.524 122.979 145.548C122.936 145.572 122.889 145.586 122.84 145.591C119.929 145.868 117.036 146.3 114.171 146.886L114.092 146.916ZM119.382 121.42C113.663 124.528 113.783 137.939 114.401 146.089C116.881 145.591 119.492 145.202 122.371 144.903L122.262 144.096C121.196 136.624 119.88 127.368 119.382 121.42Z" fill="#263238"/>
<path d="M88.4757 70.6359C88.4757 70.6359 88.8742 62.3264 92.8297 68.0554C96.7852 73.7843 89.7909 82.6418 88.8443 81.2071C87.8978 79.7724 88.4757 70.6359 88.4757 70.6359Z" fill="white"/>
<path d="M89.1135 81.7352C88.9919 81.7388 88.8715 81.7114 88.7634 81.6556C88.6553 81.5999 88.5632 81.5175 88.4957 81.4164C87.4994 79.9219 88.0374 71.5825 88.1072 70.616C88.1072 70.1378 88.3662 66.2022 90.0998 65.714C90.9965 65.4649 92.0029 66.1524 93.1686 67.8363C95.4602 71.1541 94.1649 75.1195 93.1686 77.1819C92.0228 79.6031 90.2493 81.6456 89.1832 81.7352H89.1135ZM90.4386 66.4115H90.2792C89.3426 66.6805 88.9142 69.4005 88.8544 70.636C88.5954 74.1132 88.4459 80.0016 89.1135 80.9681C89.2828 80.9681 90.1995 80.4599 91.3254 78.8259C93.318 75.9863 94.7826 71.5028 92.5209 68.2348C91.694 67.0591 90.9567 66.4115 90.4386 66.4115Z" fill="#263238"/>
<path d="M88.954 75.4284H88.8842C88.8354 75.4201 88.7888 75.402 88.7471 75.3752C88.7054 75.3485 88.6696 75.3136 88.6417 75.2727C88.6138 75.2318 88.5944 75.1856 88.5847 75.1371C88.5751 75.0885 88.5753 75.0385 88.5854 74.99C88.7448 74.1332 89.6315 69.819 90.7873 69.1216C90.9419 69.0128 91.1206 68.9433 91.3081 68.919C91.4955 68.8947 91.6861 68.9163 91.8633 68.9821C92.112 69.122 92.329 69.312 92.5005 69.5401C92.672 69.7682 92.7943 70.0294 92.8597 70.3072C92.8807 70.4036 92.8633 70.5043 92.8112 70.588C92.7591 70.6718 92.6764 70.7319 92.5807 70.7556C92.5336 70.7689 92.4842 70.7725 92.4356 70.766C92.387 70.7596 92.3403 70.7433 92.2983 70.718C92.2563 70.6928 92.2199 70.6593 92.1913 70.6195C92.1628 70.5797 92.1427 70.5344 92.1323 70.4865C92.0726 70.2673 91.8833 69.7791 91.6142 69.6795C91.6142 69.6795 91.4548 69.6098 91.2157 69.7592C90.578 70.1478 89.7411 73.1368 89.3625 75.1295C89.3414 75.2199 89.2885 75.2998 89.2136 75.3546C89.1387 75.4094 89.0466 75.4356 88.954 75.4284Z" fill="#263238"/>
<path d="M91.4447 75.3985C91.3841 75.3994 91.3242 75.3853 91.2703 75.3575C91.2164 75.3297 91.1702 75.2891 91.1358 75.2392C91.0818 75.1568 91.0619 75.0566 91.0805 74.9599C91.0992 74.8631 91.1547 74.7775 91.2355 74.721C91.4355 74.5694 91.5846 74.3604 91.6629 74.1219C91.7413 73.8834 91.7451 73.6267 91.6739 73.3859C91.664 73.3402 91.6435 73.2975 91.6141 73.2612C91.5846 73.2248 91.5471 73.1959 91.5045 73.1767C90.8739 73.0804 90.229 73.185 89.6612 73.4756C89.6168 73.4955 89.5688 73.5063 89.5202 73.5075C89.4715 73.5087 89.4231 73.5003 89.3777 73.4827C89.3323 73.4651 89.2908 73.4387 89.2557 73.405C89.2206 73.3713 89.1925 73.3309 89.173 73.2863C89.1518 73.2421 89.1398 73.1939 89.1378 73.1449C89.1359 73.0958 89.1441 73.0469 89.1618 73.0012C89.1796 72.9554 89.2065 72.9138 89.241 72.8788C89.2755 72.8439 89.3168 72.8164 89.3623 72.7981C90.1204 72.4189 90.9863 72.3133 91.8133 72.4992C91.9556 72.5596 92.0819 72.6522 92.1822 72.7698C92.2825 72.8874 92.3541 73.0267 92.3912 73.1767C92.5059 73.5682 92.4976 73.9854 92.3675 74.3721C92.2375 74.7587 91.9919 75.0962 91.6639 75.3388C91.5975 75.3781 91.5218 75.3987 91.4447 75.3985Z" fill="#263238"/>
<path d="M57.8182 74.9999C57.8182 74.9999 55.1181 67.1189 52.9162 73.7246C50.7143 80.3304 59.8906 86.8863 60.4485 85.2423C61.0065 83.5984 57.8182 74.9999 57.8182 74.9999Z" fill="white"/>
<path d="M60.0202 85.87C59.7923 85.8625 59.5669 85.8188 59.3527 85.7405C56.9216 84.9335 50.6546 79.334 52.5676 73.6051C53.2152 71.6622 53.9924 70.7157 54.919 70.7157C56.6924 70.7157 58.0176 74.422 58.167 74.8704C58.5058 75.787 61.3753 83.6283 60.8073 85.352C60.7525 85.5136 60.6453 85.6522 60.5027 85.7461C60.3602 85.8399 60.1904 85.8835 60.0202 85.87ZM54.9289 71.4629C54.371 71.4629 53.7931 72.3098 53.275 73.8442C52.0196 77.6203 54.6998 81.5061 57.3799 83.688C58.9143 84.9434 59.9505 85.2125 60.1199 85.1029C60.4786 84.0069 58.6851 78.3975 57.4696 75.1394C56.9515 73.5951 55.8256 71.4629 54.9289 71.4629Z" fill="#263238"/>
<path d="M58.6056 79.7425C58.5355 79.7414 58.467 79.7214 58.4074 79.6845C58.3477 79.6477 58.2991 79.5954 58.2668 79.5332C57.3402 77.7199 55.7062 75.0895 54.9789 74.8903C54.7099 74.8205 54.6102 74.8903 54.5803 74.8903C54.3512 75.0597 54.3014 75.5777 54.3113 75.8069C54.3141 75.9057 54.2781 76.0016 54.2111 76.0742C54.144 76.1468 54.0513 76.1903 53.9526 76.1955C53.9034 76.1982 53.8541 76.1909 53.8077 76.1742C53.7613 76.1575 53.7188 76.1317 53.6826 76.0982C53.6463 76.0648 53.6172 76.0245 53.5968 75.9795C53.5765 75.9346 53.5653 75.8861 53.5641 75.8368C53.5421 75.5569 53.5796 75.2755 53.6741 75.0111C53.7685 74.7466 53.9178 74.5051 54.1121 74.3024C54.2609 74.1863 54.4368 74.1099 54.6233 74.0803C54.8097 74.0506 55.0006 74.0688 55.1781 74.133C56.4834 74.4818 58.5358 78.3775 58.9344 79.1148C58.977 79.2024 58.9842 79.303 58.9545 79.3958C58.9248 79.4886 58.8605 79.5664 58.7749 79.6129C58.731 79.6703 58.6725 79.715 58.6056 79.7425Z" fill="#263238"/>
<path d="M56.1943 80.4101C56.1551 80.4198 56.114 80.4198 56.0748 80.4101C55.6915 80.2692 55.3608 80.014 55.1273 79.6789C54.8939 79.3439 54.769 78.9453 54.7696 78.537C54.7681 78.3836 54.8004 78.2319 54.8641 78.0924C54.9278 77.953 55.0214 77.8292 55.1382 77.7299C55.8828 77.323 56.7439 77.1824 57.5793 77.3314C57.6279 77.3375 57.6748 77.3532 57.7172 77.3777C57.7596 77.4021 57.7968 77.4348 57.8265 77.4737C57.8562 77.5127 57.8778 77.5572 57.8901 77.6046C57.9024 77.652 57.9051 77.7014 57.8981 77.7498C57.8933 77.799 57.8785 77.8466 57.8544 77.8898C57.8304 77.9329 57.7977 77.9707 57.7585 78.0006C57.7192 78.0305 57.6741 78.052 57.6261 78.0637C57.5782 78.0754 57.5283 78.0771 57.4796 78.0687C56.8531 77.9494 56.205 78.0295 55.6264 78.2978C55.5922 78.3276 55.5647 78.3643 55.5458 78.4055C55.5269 78.4468 55.517 78.4916 55.5168 78.537C55.5147 78.7894 55.5899 79.0365 55.7324 79.2449C55.8749 79.4533 56.0779 79.6131 56.3139 79.7027C56.409 79.7345 56.4875 79.8027 56.5323 79.8924C56.5771 79.982 56.5846 80.0858 56.553 80.1809C56.522 80.2499 56.4716 80.3083 56.4079 80.349C56.3441 80.3897 56.2699 80.4109 56.1943 80.4101Z" fill="#263238"/>
<path d="M66.0182 91.4895C66.0182 91.4895 70.3324 106.574 71.1693 109.364C72.1656 112.622 77.9843 120.443 80.9634 119.238C83.9424 118.032 84.4904 109.035 84.8889 106.365C85.2875 103.695 84.5004 88.8691 84.5004 88.8691L66.0182 91.4895Z" fill="white"/>
<path d="M80.2858 119.736C79.7602 119.721 79.2452 119.585 78.7813 119.337C75.6229 117.833 71.6475 112.203 70.8106 109.463C69.9736 106.723 65.6993 91.7484 65.6495 91.599C65.6272 91.5505 65.6156 91.4978 65.6156 91.4445C65.6156 91.3912 65.6272 91.3385 65.6495 91.2901C65.6788 91.2456 65.7169 91.2076 65.7614 91.1785C65.806 91.1494 65.8561 91.1297 65.9085 91.1207L84.4007 88.5003C84.4517 88.4906 84.5043 88.4927 84.5544 88.5065C84.6045 88.5203 84.6508 88.5455 84.6896 88.58C84.7303 88.612 84.7632 88.6529 84.7856 88.6995C84.8081 88.7461 84.8195 88.7973 84.8192 88.849C84.8192 89.4568 85.6162 103.734 85.2077 106.415C85.1479 106.823 85.0882 107.361 85.0085 108.009C84.4107 113.07 83.5638 118.56 81.0231 119.576C80.7892 119.674 80.5392 119.728 80.2858 119.736ZM66.4864 91.7883C67.1938 94.2293 70.7807 106.733 71.5279 109.234C72.2752 111.735 76.1609 117.205 79.1001 118.65C79.3551 118.803 79.6391 118.901 79.934 118.939C80.229 118.977 80.5285 118.953 80.8138 118.869C83.1353 117.922 83.9324 111.157 84.321 107.909C84.4007 107.261 84.4605 106.704 84.5202 106.295C84.8789 103.934 84.2712 91.6787 84.1516 89.2874L66.4864 91.7883Z" fill="#263238"/>
<path d="M55.5864 56.8365C55.5864 56.8365 56.4533 71.2536 59.4722 81.4462C62.4911 91.6388 71.518 99.7889 76.2008 99.5199C80.8836 99.2508 89.7511 86.9759 89.213 80.3602C88.675 73.7444 89.8308 57.0756 86.5827 50.8485C83.3346 44.6213 78.8311 43.3062 69.5253 44.2328C60.2194 45.1594 53.8827 50.3902 55.5864 56.8365Z" fill="white"/>
<path d="M75.9716 99.8985C70.8704 99.8985 62.0228 91.4395 59.1235 81.5558C56.2241 71.6721 55.2676 57.7133 55.2178 56.8963C54.9013 55.7479 54.8462 54.5432 55.0565 53.3708C55.2669 52.1983 55.7374 51.0879 56.4334 50.1212C58.7847 46.7336 63.5373 44.452 69.4855 43.8641C79.3493 42.8678 83.7431 44.6014 86.9214 50.6791C89.2828 55.2125 89.3426 64.9368 89.3924 72.7581C89.3924 75.8268 89.3924 78.4671 89.5817 80.3303C89.9404 84.6345 86.4532 91.1207 82.8265 95.2754C81.3918 96.9294 78.6219 99.7291 76.2207 99.8686L75.9716 99.8985ZM74.2181 44.3424C72.8232 44.3424 71.2789 44.432 69.5552 44.6014C63.9159 45.1693 59.2331 47.3912 57.0511 50.5795C56.4145 51.4618 55.9846 52.4761 55.7931 53.5471C55.6017 54.6182 55.6536 55.7185 55.9451 56.7668C55.95 56.7898 55.95 56.8135 55.9451 56.8365C55.9451 56.986 56.8518 71.3433 59.8209 81.3665C62.8099 91.5491 71.9066 99.4402 76.1709 99.1711C77.7153 99.0815 79.9371 97.4973 82.2486 94.837C85.7757 90.7819 89.1632 84.5249 88.8245 80.4299C88.6651 78.5369 88.6551 75.8766 88.6352 72.7979C88.5853 65.0564 88.5256 55.4317 86.2439 51.0577C83.7232 46.2454 80.5847 44.3424 74.2181 44.3424Z" fill="#263238"/>
<path d="M56.9515 73.9338C56.9515 73.9338 58.5357 73.3758 58.167 70.7555C57.7984 68.1351 57.2404 66.5509 58.167 65.9232C59.0936 65.2955 60.4985 64.7575 60.4387 61.9378C60.3789 59.1182 56.7921 57.4543 57.5493 54.5151C58.0486 52.968 59.062 51.6382 60.4213 50.7465C61.7806 49.8549 63.4039 49.4549 65.0219 49.613C68.3995 49.9717 69.3061 55.1726 74.6964 57.9126C80.0866 60.6525 86.4333 59.5765 86.4333 59.5765C86.1425 60.0341 86.0104 60.5747 86.0572 61.1148C86.104 61.655 86.3272 62.1647 86.6923 62.5655C87.3753 63.3655 87.8053 64.3504 87.9278 65.3951C87.9278 65.3951 88.3861 70.9946 89.3725 70.8551C90.3589 70.7156 89.8707 57.9524 89.5917 55.9897C89.3127 54.0269 89.6714 46.0262 83.6136 43.3361C77.5559 40.646 68.8378 41.4331 63.5871 43.1767C58.3364 44.9203 55.6164 47.8196 54.4307 52.6519C53.2451 57.4842 56.9515 73.9338 56.9515 73.9338Z" fill="#263238"/>
<path d="M56.9514 74.3024C56.8925 74.3164 56.831 74.3164 56.7721 74.3024C56.6823 74.2436 56.6154 74.1556 56.5828 74.0534C56.4333 73.3758 52.9063 57.4343 54.062 52.5722C55.2178 47.71 58.1371 44.6014 63.4575 42.8379C69.0769 40.9648 77.8547 40.4268 83.753 42.9973C89.1831 45.3786 89.6315 51.7851 89.8507 54.8737C89.8507 55.3221 89.9005 55.6907 89.9403 55.9498C90.0898 56.9461 90.2691 60.6824 90.309 64.1098C90.3688 71.0842 89.8108 71.1739 89.4023 71.2337C89.3118 71.248 89.2193 71.2421 89.1314 71.2162C89.0435 71.1904 88.9625 71.1453 88.8942 71.0842C88.0074 70.3768 87.6288 66.5808 87.5391 65.435C87.4051 64.4662 87.0012 63.5546 86.3734 62.8046C86.0658 62.4289 85.852 61.9854 85.7498 61.5106C85.6476 61.0359 85.6598 60.5437 85.7856 60.0747C81.9328 60.5171 78.0325 59.8969 74.507 58.2812C72.2118 57.0151 70.2408 55.235 68.7481 53.0803C67.4828 51.4662 66.4765 50.181 64.962 50.0315C63.4342 49.8822 61.9011 50.2578 60.6153 51.0963C59.3294 51.9348 58.3675 53.1863 57.888 54.6446C57.5193 56.0793 58.3363 57.2151 59.1932 58.4108C60.0743 59.3813 60.6375 60.5981 60.8073 61.898C60.877 64.608 59.6216 65.4051 58.705 65.9929L58.3762 66.2022C57.888 66.5409 58.0175 67.4277 58.3065 69.1015C58.3862 69.5798 58.4758 70.0979 58.5555 70.6757C58.964 73.5552 57.1706 74.2227 57.1009 74.2526C57.056 74.2815 57.0046 74.2986 56.9514 74.3024ZM73.969 41.9711C70.4851 41.9554 67.0199 42.4797 63.6967 43.5254C58.5755 45.2291 55.9152 47.979 54.7894 52.7216C53.793 56.9362 56.5927 70.4964 57.2005 73.3459C57.5004 73.0156 57.7138 72.6162 57.8216 72.1832C57.9294 71.7503 57.9283 71.2974 57.8182 70.865C57.7385 70.2971 57.6489 69.779 57.5692 69.3008C57.2503 67.4974 57.0511 66.3118 57.9577 65.6641L58.2965 65.4449C59.1533 64.897 60.1198 64.2892 60.06 61.9976C59.9063 60.8276 59.3988 59.7326 58.6053 58.8591C57.6887 57.5738 56.7322 56.2487 57.1806 54.4652C57.9876 51.3068 61.5944 48.9355 65.0517 49.2942C66.885 49.4835 68.0407 50.9481 69.3559 52.632C70.7808 54.6978 72.6672 56.4034 74.8657 57.6137C80.0865 60.264 86.3137 59.2576 86.3734 59.2477C86.4464 59.2317 86.5225 59.2395 86.5907 59.27C86.6588 59.3005 86.7154 59.352 86.7521 59.4171C86.7958 59.478 86.8194 59.5512 86.8194 59.6263C86.8194 59.7014 86.7958 59.7745 86.7521 59.8355C86.5168 60.2272 86.4149 60.6846 86.4616 61.1391C86.5083 61.5935 86.7011 62.0207 87.0111 62.3563C87.7456 63.2164 88.2009 64.2799 88.3163 65.4051C88.3865 67.1075 88.7227 68.7884 89.3126 70.3868C89.8706 68.683 89.5518 58.1318 89.2628 56.0494C89.2628 55.7804 89.1931 55.3918 89.1632 54.9236C88.954 51.9345 88.5355 45.8768 83.5139 43.6848C80.4806 42.4752 77.2337 41.8922 73.969 41.9711Z" fill="#263238"/>
<path d="M65.4602 79.9118C63.5639 79.9147 61.7406 79.1809 60.375 77.8653C59.0093 76.5496 58.2081 74.7549 58.1404 72.8598C58.0727 70.9647 58.7437 69.1174 60.012 67.7076C61.2803 66.2978 63.0465 65.4357 64.9382 65.3033C66.8299 65.1709 68.6991 65.7785 70.1514 66.9978C71.6037 68.2172 72.5255 69.953 72.7225 71.839C72.9195 73.7251 72.3761 75.6139 71.2071 77.107C70.0381 78.6001 68.3348 79.5808 66.4566 79.8421C66.1264 79.8879 65.7935 79.9111 65.4602 79.9118ZM65.4602 65.963C65.1438 65.963 64.8276 65.983 64.5137 66.0228C63.0024 66.2364 61.612 66.9675 60.5794 68.0915C59.5468 69.2156 58.9361 70.6629 58.8512 72.1868C58.7663 73.7108 59.2126 75.217 60.1139 76.4487C61.0153 77.6805 62.3159 78.5615 63.7941 78.9416C65.2724 79.3217 66.8367 79.1774 68.2204 78.5333C69.6041 77.8891 70.7216 76.785 71.3824 75.4092C72.0432 74.0333 72.2063 72.4709 71.8441 70.9882C71.4818 69.5055 70.6165 68.1943 69.3958 67.2781C68.2646 66.4361 66.8903 65.985 65.4801 65.9929L65.4602 65.963Z" fill="#263238"/>
<path d="M81.3121 77.6603C79.4559 77.6571 77.6699 76.9501 76.3145 75.6819C74.9591 74.4136 74.135 72.6786 74.0086 70.8266C73.8822 68.9747 74.4628 67.1437 75.6334 65.7031C76.8039 64.2624 78.4772 63.3193 80.3158 63.0639C81.2697 62.9273 82.2412 62.9801 83.1747 63.2191C84.1082 63.4582 84.9854 63.879 85.7562 64.4573C86.527 65.0356 87.1762 65.7602 87.6668 66.5896C88.1574 67.419 88.4797 68.337 88.6153 69.291C88.7673 70.3319 88.6928 71.3933 88.3972 72.4028C88.1015 73.4123 87.5915 74.3461 86.9021 75.1406C86.2126 75.935 85.3599 76.5714 84.402 77.0062C83.4442 77.4411 82.4039 77.6642 81.352 77.6603H81.3121ZM81.3121 63.7115C81.0023 63.7119 80.6928 63.7319 80.3855 63.7713C78.6814 64.0018 77.1333 64.8849 76.0675 66.2344C75.0017 67.584 74.5014 69.2946 74.6722 71.0058C74.8429 72.717 75.6712 74.295 76.9827 75.4074C78.2941 76.5198 79.9861 77.0796 81.7022 76.9689C83.4183 76.8582 85.0244 76.0856 86.182 74.8139C87.3397 73.5422 87.9584 71.8708 87.9078 70.1519C87.8572 68.433 87.1413 66.8008 85.9109 65.5994C84.6805 64.398 83.0318 63.7211 81.3121 63.7115Z" fill="#263238"/>
<path d="M67.1142 72.7383C67.2736 73.8641 66.9349 74.8505 66.347 74.9302C65.7592 75.0099 65.1514 74.163 64.992 73.0372C64.8326 71.9113 65.1813 70.9249 65.7691 70.8452C66.357 70.7655 66.9548 71.6124 67.1142 72.7383Z" fill="#263238"/>
<path d="M80.515 70.8651C80.6744 71.991 80.3356 72.9674 79.7478 73.0571C79.1599 73.1468 78.5522 72.2899 78.3927 71.164C78.2333 70.0381 78.5721 69.0518 79.1599 68.9721C79.7478 68.8924 80.3555 69.6994 80.515 70.8651Z" fill="#263238"/>
<path d="M73.8096 67.0291C73.807 70.5098 74.0234 73.9873 74.4573 77.4409C75.0551 80.5295 75.6628 82.4226 73.7 82.7215C71.7372 83.0204 71.7671 79.6627 71.7671 79.6627" fill="white"/>
<path d="M73.4807 83.1102C73.0833 83.1147 72.6989 82.9688 72.4047 82.7017C71.4083 81.8249 71.4083 79.7126 71.4083 79.6529C71.4108 79.5559 71.4505 79.4636 71.5191 79.395C71.5877 79.3264 71.68 79.2867 71.777 79.2842C71.8774 79.2842 71.9737 79.3241 72.0447 79.3951C72.1157 79.4661 72.1556 79.5624 72.1556 79.6628C72.1094 80.5514 72.3736 81.4285 72.9029 82.1437C73.0057 82.2325 73.1269 82.2974 73.2579 82.3336C73.3889 82.3698 73.5262 82.3764 73.6601 82.3529C73.817 82.3445 73.9705 82.3039 74.111 82.2336C74.2516 82.1634 74.3762 82.0649 74.4771 81.9444C74.8856 81.3666 74.6066 80.0514 74.2678 78.3775L74.0984 77.5107C73.6598 74.0375 73.4402 70.54 73.4409 67.0392C73.4409 66.9387 73.4807 66.8424 73.5517 66.7714C73.6228 66.7004 73.7191 66.6605 73.8195 66.6605C73.8683 66.6592 73.9168 66.6678 73.9622 66.6858C74.0075 66.7038 74.0487 66.7309 74.0832 66.7655C74.1177 66.8 74.1448 66.8412 74.1628 66.8865C74.1809 66.9319 74.1895 66.9804 74.1881 67.0292C74.1876 70.4867 74.4039 73.9408 74.8357 77.3712L75.0051 78.2281C75.3937 80.151 75.6826 81.5359 75.0848 82.3828C74.9271 82.586 74.7286 82.7539 74.5021 82.8757C74.2756 82.9975 74.0261 83.0706 73.7697 83.0902L73.4807 83.1102Z" fill="#263238"/>
<path d="M68.0309 85.0233C68.0309 85.0233 73.72 88.7197 80.7741 83.2099L68.0309 85.0233Z" fill="white"/>
<path d="M72.8332 86.5973C71.0914 86.6215 69.3737 86.1887 67.8515 85.3419C67.8096 85.3156 67.7735 85.2812 67.7453 85.2407C67.717 85.2002 67.6972 85.1544 67.6869 85.1061C67.6767 85.0577 67.6763 85.0078 67.6857 84.9594C67.6952 84.9109 67.7143 84.8648 67.7419 84.8238C67.7672 84.7823 67.8007 84.7464 67.8403 84.7182C67.88 84.6901 67.9249 84.6703 67.9724 84.66C68.0199 84.6498 68.0691 84.6493 68.1168 84.6586C68.1645 84.6679 68.2098 84.6868 68.25 84.7142C68.4792 84.8537 73.8195 88.1815 80.5648 82.9208C80.6034 82.8907 80.6475 82.8685 80.6947 82.8555C80.7419 82.8424 80.7912 82.8388 80.8397 82.8448C80.8883 82.8509 80.9352 82.8664 80.9778 82.8905C81.0204 82.9147 81.0578 82.947 81.0879 82.9856C81.118 83.0242 81.1402 83.0683 81.1532 83.1155C81.1662 83.1627 81.1699 83.2119 81.1638 83.2605C81.1578 83.3091 81.1423 83.356 81.1181 83.3986C81.094 83.4411 81.0617 83.4785 81.0231 83.5086C78.7255 85.4424 75.8356 86.5322 72.8332 86.5973Z" fill="#263238"/>
<path d="M72.5242 71.2536C72.4339 71.2567 72.3457 71.2255 72.2774 71.1664C72.209 71.1073 72.1655 71.0246 72.1555 70.9348C72.1485 70.8863 72.1512 70.8369 72.1635 70.7895C72.1758 70.7421 72.1975 70.6976 72.2271 70.6587C72.2568 70.6197 72.294 70.5871 72.3364 70.5626C72.3789 70.5382 72.4257 70.5224 72.4743 70.5163L74.467 70.2373C74.5164 70.2273 74.5674 70.2278 74.6165 70.2388C74.6657 70.2498 74.712 70.2711 74.7524 70.3011C74.7928 70.3312 74.8265 70.3695 74.8511 70.4134C74.8758 70.4574 74.8909 70.506 74.8955 70.5562C74.9069 70.6537 74.8801 70.7518 74.8206 70.8298C74.7611 70.9079 74.6737 70.9598 74.5766 70.9746L72.5839 71.2536H72.5242Z" fill="#263238"/>
<path d="M56.6925 73.6747C56.602 73.6673 56.5173 73.6277 56.4536 73.563C56.3899 73.4984 56.3516 73.4131 56.3456 73.3226C56.3395 73.232 56.3662 73.1423 56.4207 73.0698C56.4753 72.9973 56.554 72.9468 56.6426 72.9275L58.1172 72.7182C58.2114 72.7146 58.3036 72.7462 58.3757 72.807C58.4477 72.8677 58.4946 72.9531 58.5071 73.0465C58.5195 73.1399 58.4967 73.2346 58.443 73.3121C58.3893 73.3896 58.3087 73.4443 58.2169 73.4655L56.7522 73.6747H56.6925Z" fill="#263238"/>
<path d="M88.2268 69.1911C88.1376 69.1899 88.0518 69.1572 87.9843 69.0989C87.9169 69.0405 87.8722 68.9603 87.8581 68.8723C87.8438 68.7732 87.8694 68.6725 87.9291 68.5922C87.9889 68.512 88.078 68.4586 88.177 68.4438L89.6516 68.2346C89.7457 68.231 89.8379 68.2626 89.91 68.3233C89.9821 68.384 90.0289 68.4695 90.0414 68.5629C90.0538 68.6563 90.031 68.751 89.9773 68.8285C89.9236 68.906 89.843 68.9607 89.7512 68.9819L88.2865 69.1911H88.2268Z" fill="#263238"/>
<path d="M60.6879 67.2284C60.5213 67.2265 60.3575 67.1855 60.2096 67.1089C60.0951 67.0454 59.9942 66.9601 59.9127 66.8576C59.8311 66.7552 59.7706 66.6377 59.7345 66.5119C59.6984 66.386 59.6875 66.2543 59.7023 66.1242C59.7172 65.9942 59.7575 65.8683 59.821 65.7538C60.8174 63.9604 63.8861 61.1806 68.5291 63.4523C68.7669 63.5685 68.9488 63.7745 69.0347 64.0249C69.1207 64.2753 69.1037 64.5495 68.9874 64.7874C68.8711 65.0252 68.6651 65.2071 68.4148 65.293C68.1644 65.379 67.8901 65.362 67.6523 65.2457C63.5374 63.253 61.6742 66.5708 61.5646 66.7103C61.4786 66.8676 61.3518 66.9987 61.1975 67.0899C61.0431 67.181 60.8671 67.2289 60.6879 67.2284Z" fill="#263238"/>
<path d="M76.3803 64.9967C76.2071 64.9972 76.0368 64.9525 75.8861 64.8671C75.7355 64.7817 75.6097 64.6585 75.5212 64.5096C75.4326 64.3608 75.3845 64.1914 75.3814 64.0182C75.3783 63.8451 75.4204 63.6741 75.5035 63.5222C76.4998 61.7287 79.5785 58.949 84.2115 61.2206C84.4419 61.34 84.6166 61.5445 84.6985 61.7907C84.7805 62.0368 84.7631 62.3052 84.6502 62.5388C84.5373 62.7724 84.3377 62.9528 84.0939 63.0415C83.8502 63.1302 83.5814 63.1204 83.3447 63.014C79.2298 61.0213 77.3667 64.3392 77.2471 64.4786C77.1619 64.6344 77.0366 64.7646 76.8842 64.8557C76.7318 64.9467 76.5578 64.9955 76.3803 64.9967Z" fill="#263238"/>
<path d="M64.9321 76.5045C64.8435 76.49 64.7629 76.4445 64.7048 76.376C64.6467 76.3076 64.6147 76.2207 64.6147 76.1309C64.6147 76.0411 64.6467 75.9542 64.7048 75.8858C64.7629 75.8173 64.8435 75.7718 64.9321 75.7573L68.2001 75.299C68.2488 75.2905 68.2987 75.2922 68.3467 75.3039C68.3946 75.3156 68.4397 75.3371 68.479 75.367C68.5183 75.397 68.5509 75.4347 68.575 75.4778C68.599 75.521 68.6138 75.5686 68.6186 75.6178C68.6256 75.6663 68.6229 75.7157 68.6106 75.7631C68.5983 75.8105 68.5767 75.8549 68.547 75.8939C68.5173 75.9329 68.4801 75.9655 68.4377 75.99C68.3953 76.0144 68.3484 76.0301 68.2998 76.0363L65.0318 76.5045H64.9321Z" fill="#263238"/>
<path d="M78.333 74.6015C78.2432 74.6023 78.1563 74.5704 78.0884 74.5117C78.0206 74.453 77.9764 74.3716 77.9643 74.2827C77.9501 74.1836 77.9756 74.0829 78.0353 74.0026C78.0951 73.9224 78.1842 73.869 78.2832 73.8542L81.5512 73.3959C81.6476 73.3816 81.7457 73.4061 81.8241 73.464C81.9026 73.5219 81.9549 73.6084 81.9696 73.7048C81.9839 73.8038 81.9584 73.9045 81.8986 73.9848C81.8389 74.0651 81.7498 74.1184 81.6508 74.1332L78.3828 74.5915L78.333 74.6015Z" fill="#263238"/>
<path d="M143.341 157.1L29.2611 173.316L34.8192 212.418L148.9 196.202L143.341 157.1Z" fill="#263238"/>
<path d="M103.9 168.709L69.564 173.565L69.8429 175.537L104.179 170.682L103.9 168.709Z" fill="white"/>
<path d="M132.863 186.412L46.6732 198.6L46.9522 200.573L133.142 188.385L132.863 186.412Z" fill="white"/>
<path d="M109.559 173.268L65.4091 179.511L65.688 181.484L109.838 175.24L109.559 173.268Z" fill="white"/>
<path d="M58.9156 183.845L58.4619 183.909L59.5681 191.731L60.0218 191.667L58.9156 183.845Z" fill="#263238"/>
<path d="M63.5693 183.191L63.1156 183.255L64.2217 191.077L64.6755 191.013L63.5693 183.191Z" fill="#263238"/>
<path d="M64.7985 182.887L64.3447 182.952L65.4566 190.774L65.9104 190.71L64.7985 182.887Z" fill="#263238"/>
<path d="M65.9108 182.732L65.457 182.796L66.5689 190.619L67.0227 190.554L65.9108 182.732Z" fill="#263238"/>
<path d="M68.3482 182.382L67.8944 182.446L69.0063 190.269L69.4601 190.204L68.3482 182.382Z" fill="#263238"/>
<path d="M69.287 182.251L68.8333 182.316L69.9451 190.138L70.3989 190.074L69.287 182.251Z" fill="#263238"/>
<path d="M60.6426 183.596L59.7351 183.724L60.8412 191.546L61.7487 191.418L60.6426 183.596Z" fill="#263238"/>
<path d="M73.7362 181.613L73.2825 181.677L74.3944 189.499L74.8481 189.435L73.7362 181.613Z" fill="#263238"/>
<path d="M75.4533 181.372L74.5458 181.501L75.6577 189.323L76.5652 189.194L75.4533 181.372Z" fill="#263238"/>
<path d="M63.1573 183.115L62.2498 183.244L63.3617 191.066L64.2692 190.937L63.1573 183.115Z" fill="#263238"/>
<path d="M67.3661 182.644L66.4586 182.773L67.5648 190.595L68.4722 190.466L67.3661 182.644Z" fill="#263238"/>
<path d="M71.3169 181.967L70.8632 182.031L71.9751 189.854L72.4288 189.789L71.3169 181.967Z" fill="#263238"/>
<path d="M72.2659 181.826L71.8121 181.891L72.924 189.713L73.3778 189.649L72.2659 181.826Z" fill="#263238"/>
<path d="M70.626 182.064L69.7185 182.193L70.8304 190.015L71.7379 189.886L70.626 182.064Z" fill="#263238"/>
<path d="M77.2576 181.13L76.8038 181.194L77.9157 189.017L78.3695 188.952L77.2576 181.13Z" fill="#263238"/>
<path d="M81.9196 180.46L81.4658 180.525L82.5777 188.347L83.0315 188.282L81.9196 180.46Z" fill="#263238"/>
<path d="M82.8587 180.321L82.4049 180.386L83.5168 188.208L83.9706 188.143L82.8587 180.321Z" fill="#263238"/>
<path d="M83.9608 180.166L83.5071 180.23L84.619 188.052L85.0727 187.988L83.9608 180.166Z" fill="#263238"/>
<path d="M86.4282 179.804L85.9745 179.869L87.0864 187.691L87.5401 187.627L86.4282 179.804Z" fill="#263238"/>
<path d="M87.3239 179.699L86.8701 179.763L87.9834 187.586L88.4371 187.521L87.3239 179.699Z" fill="#263238"/>
<path d="M79.01 180.845L78.1025 180.974L79.2158 188.796L80.1233 188.667L79.01 180.845Z" fill="#263238"/>
<path d="M91.7828 179.059L91.3291 179.124L92.4424 186.946L92.8961 186.882L91.7828 179.059Z" fill="#263238"/>
<path d="M93.5135 178.806L92.606 178.935L93.7179 186.757L94.6254 186.628L93.5135 178.806Z" fill="#263238"/>
<path d="M80.9383 180.724L80.0309 180.852L81.137 188.674L82.0445 188.546L80.9383 180.724Z" fill="#263238"/>
<path d="M85.4272 180.091L84.5198 180.219L85.6259 188.041L86.5334 187.913L85.4272 180.091Z" fill="#263238"/>
<path d="M89.3984 179.399L88.9446 179.464L90.0565 187.286L90.5103 187.221L89.3984 179.399Z" fill="#263238"/>
<path d="M90.3261 179.25L89.8723 179.315L90.9842 187.137L91.438 187.073L90.3261 179.25Z" fill="#263238"/>
<path d="M88.6862 179.497L87.7787 179.626L88.8906 187.449L89.7981 187.32L88.6862 179.497Z" fill="#263238"/>
<path d="M94.7951 178.627L94.3413 178.691L95.4532 186.514L95.907 186.449L94.7951 178.627Z" fill="#263238"/>
<path d="M95.7338 178.488L95.28 178.552L96.3919 186.375L96.8457 186.31L95.7338 178.488Z" fill="#263238"/>
<path d="M100.184 177.857L99.7306 177.922L100.842 185.744L101.296 185.68L100.184 177.857Z" fill="#263238"/>
<path d="M101.891 177.618L100.984 177.747L102.096 185.57L103.003 185.441L101.891 177.618Z" fill="#263238"/>
<path d="M97.785 178.192L97.3312 178.256L98.4431 186.079L98.8968 186.014L97.785 178.192Z" fill="#263238"/>
<path d="M98.7041 178.073L98.2504 178.137L99.3623 185.96L99.816 185.895L98.7041 178.073Z" fill="#263238"/>
<path d="M96.8045 178.486L95.897 178.614L97.0031 186.436L97.9106 186.308L96.8045 178.486Z" fill="#263238"/>
<path d="M103.437 177.547L102.983 177.611L104.089 185.433L104.543 185.369L103.437 177.547Z" fill="#263238"/>
<path d="M108.09 176.902L107.636 176.966L108.743 184.788L109.196 184.724L108.09 176.902Z" fill="#263238"/>
<path d="M109.297 176.577L108.843 176.642L109.955 184.464L110.409 184.4L109.297 176.577Z" fill="#263238"/>
<path d="M110.419 176.411L109.965 176.475L111.077 184.297L111.531 184.233L110.419 176.411Z" fill="#263238"/>
<path d="M112.856 176.061L112.403 176.125L113.514 183.947L113.968 183.883L112.856 176.061Z" fill="#263238"/>
<path d="M113.517 176.12L113.063 176.184L114.169 184.006L114.623 183.942L113.517 176.12Z" fill="#263238"/>
<path d="M105.447 177.087L104.539 177.216L105.653 185.038L106.56 184.909L105.447 177.087Z" fill="#263238"/>
<path d="M118.245 175.281L117.791 175.346L118.903 183.168L119.356 183.103L118.245 175.281Z" fill="#263238"/>
<path d="M119.952 175.052L119.044 175.181L120.156 183.003L121.064 182.874L119.952 175.052Z" fill="#263238"/>
<path d="M107.666 176.793L106.758 176.922L107.87 184.745L108.777 184.616L107.666 176.793Z" fill="#263238"/>
<path d="M111.887 176.355L110.979 176.484L112.085 184.306L112.993 184.177L111.887 176.355Z" fill="#263238"/>
<path d="M115.835 175.636L115.381 175.7L116.493 183.522L116.947 183.458L115.835 175.636Z" fill="#263238"/>
<path d="M116.759 175.524L116.306 175.588L117.419 183.411L117.873 183.346L116.759 175.524Z" fill="#263238"/>
<path d="M115.143 175.732L114.235 175.861L115.347 183.684L116.255 183.555L115.143 175.732Z" fill="#263238"/>
</svg>
