<svg width="78" height="73" viewBox="0 0 78 73" fill="none" xmlns="http://www.w3.org/2000/svg">
<path d="M13.9045 52.4343C20.7021 67.3016 35.7546 66.1946 50.7251 59.3499C65.6955 52.5051 74.9148 42.5146 68.1172 27.6472C61.3196 12.7799 25.0254 13.9228 10.0549 20.7675C-4.91552 27.6122 7.10686 37.5669 13.9045 52.4343Z" fill="white"/>
<g clip-path="url(#clip0_15_13380)">
<path d="M56.9257 37.7562C56.9257 37.7562 56.9257 37.8019 56.9257 37.8648C56.6279 41.1048 52.6531 40.4934 47.4126 41.3962C43.4034 42.0819 38.2029 45.3048 34.3713 48.0248C31.353 50.1619 29.2167 51.9848 29.2167 51.9848C29.2167 51.9848 24.8181 49.0648 20.8433 40.9448C20.8433 40.9448 35.2304 31.9334 36.9086 20.7848C38.2316 12.0419 50.9292 20.6077 55.7058 32.5619C56.6222 34.8991 57.0059 36.5791 56.9257 37.7562Z" fill="white"/>
<mask id="mask0_15_13380" style="mask-type:alpha" maskUnits="userSpaceOnUse" x="20" y="17" width="37" height="35">
<path d="M56.9257 37.7562C56.9257 37.7562 56.9257 37.8019 56.9257 37.8648C56.6279 41.1048 52.6531 40.4934 47.4126 41.3962C43.4034 42.0819 38.2029 45.3048 34.3713 48.0248C31.353 50.1619 29.2167 51.9848 29.2167 51.9848C29.2167 51.9848 24.8181 49.0648 20.8433 40.9448C20.8433 40.9448 35.2304 31.9334 36.9086 20.7848C38.2316 12.0419 50.9292 20.6077 55.7058 32.5619C56.6222 34.8991 57.0059 36.5791 56.9257 37.7562Z" fill="white"/>
</mask>
<g mask="url(#mask0_15_13380)">
<path opacity="0.15" d="M56.9085 37.8533C56.6107 41.0933 52.6359 40.4819 47.3954 41.3847C43.3862 42.0704 38.1857 45.2933 34.3541 48.0133C32.6359 46.9847 31.6451 45.9904 32.0632 45.1561C33.8329 41.2419 40.4882 39.9847 40.4882 39.9847C40.4882 39.9847 39.9154 37.419 40.9578 36.179C42.0002 34.939 45.8089 37.419 51.2671 39.3504C56.1067 41.059 56.8169 38.419 56.9085 37.8533Z" fill="black"/>
</g>
<path d="M56.9257 37.7562C56.9257 37.7562 56.9257 37.8019 56.9257 37.8648C56.6279 41.1048 52.6531 40.4934 47.4126 41.3962C43.4034 42.0819 38.2029 45.3048 34.3713 48.0248C31.353 50.1619 29.2167 51.9848 29.2167 51.9848C29.2167 51.9848 24.8181 49.0648 20.8433 40.9448C20.8433 40.9448 35.2304 31.9334 36.9086 20.7848C38.2316 12.0419 50.9292 20.6077 55.7058 32.5619C56.6222 34.8991 57.0059 36.5791 56.9257 37.7562Z" stroke="black" stroke-linecap="round" stroke-linejoin="round"/>
<path d="M41.9371 28.0416C45.4595 26.7159 46.8168 24.3273 47.4927 24.8645C48.1685 25.4016 50.6198 27.1502 50.2246 28.2131C49.8295 29.2759 46.6622 32.9102 46.3472 33.5673" stroke="black" stroke-linecap="round" stroke-linejoin="round"/>
<path d="M40.2992 18.6934C38.4034 18.8705 38.6554 23.8362 43.3003 29.9676C47.9452 36.0991 52.5328 38.8819 54.5661 38.1848C56.5993 37.4876 55.1903 34.8191 55.1903 34.8191" stroke="black" stroke-linecap="round" stroke-linejoin="round"/>
<path d="M35.7859 48.0422C35.7859 48.0422 26.9486 54.6994 25.0758 54.6365C23.2029 54.5737 20.6313 54.528 18.1628 51.2422C16.2556 48.6994 16.5362 46.5051 17.0861 44.9565C17.2288 44.5518 17.3933 44.1551 17.5786 43.768C17.9624 42.9337 25.2705 35.5908 25.2705 35.5908L27.0861 36.0708C27.0861 36.0708 28.2659 42.6594 35.4595 47.2308L35.7859 48.0422Z" fill="#89CBFB"/>
<mask id="mask1_15_13380" style="mask-type:alpha" maskUnits="userSpaceOnUse" x="16" y="35" width="20" height="20">
<path d="M35.7859 48.0422C35.7859 48.0422 26.9486 54.6994 25.0758 54.6365C23.2029 54.5737 20.6313 54.528 18.1628 51.2422C16.2556 48.6994 16.5362 46.5051 17.0861 44.9565C17.2288 44.5518 17.3933 44.1551 17.5786 43.768C17.9624 42.9337 25.2705 35.5908 25.2705 35.5908L27.0861 36.0708C27.0861 36.0708 28.2659 42.6594 35.4595 47.2308L35.7859 48.0422Z" fill="white"/>
</mask>
<g mask="url(#mask1_15_13380)">
<path opacity="0.2" d="M35.7859 48.0427C35.7859 48.0427 26.9486 54.6999 25.0758 54.637C23.2029 54.5741 20.6313 54.5284 18.1628 51.2427C16.2556 48.6999 16.5362 46.5056 17.0861 44.957C17.5443 46.7456 18.4263 49.3113 19.8409 50.3284C22.1032 51.9627 31.5133 46.7113 31.5133 46.7113C31.5133 46.7113 26.29 40.2941 27.0861 36.0713C27.0861 36.0713 28.2659 42.6599 35.4595 47.2313L35.7859 48.0427Z" fill="black"/>
</g>
<path d="M35.7859 48.0422C35.7859 48.0422 26.9486 54.6994 25.0758 54.6365C23.2029 54.5737 20.6313 54.528 18.1628 51.2422C16.2556 48.6994 16.5362 46.5051 17.0861 44.9565C17.2288 44.5518 17.3933 44.1551 17.5786 43.768C17.9624 42.9337 25.2705 35.5908 25.2705 35.5908L27.0861 36.0708C27.0861 36.0708 28.2659 42.6594 35.4595 47.2308L35.7859 48.0422Z" stroke="black" stroke-linecap="round" stroke-linejoin="round"/>
<path opacity="0.15" d="M40.2992 18.6934C38.4034 18.8705 38.6554 23.8362 43.3003 29.9676C47.9452 36.0991 52.5328 38.8819 54.5661 38.1848C56.5993 37.4876 55.1903 34.8191 55.1903 34.8191C54.0891 31.0559 52.1085 27.6071 49.4114 24.7562C44.1136 19.1162 40.2992 18.6934 40.2992 18.6934Z" fill="black"/>
<path d="M26.4274 53.8988C26.4274 53.8988 29.9211 63.6131 32.4411 65.3731C34.9612 67.1331 41.4789 61.7445 40.8947 60.8017C40.3105 59.8588 34.0219 54.0474 33.0139 49.2988C33.0139 49.3274 30.0471 49.756 26.4274 53.8988Z" fill="#89CBFB"/>
<mask id="mask2_15_13380" style="mask-type:alpha" maskUnits="userSpaceOnUse" x="26" y="49" width="15" height="17">
<path d="M26.4274 53.8988C26.4274 53.8988 29.9211 63.6131 32.4411 65.3731C34.9612 67.1331 41.4789 61.7445 40.8947 60.8017C40.3105 59.8588 34.0219 54.0474 33.0139 49.2988C33.0139 49.3274 30.0471 49.756 26.4274 53.8988Z" fill="white"/>
</mask>
<g mask="url(#mask2_15_13380)">
<path opacity="0.2" d="M26.4274 53.8988C26.4274 53.8988 29.9211 63.6131 32.4411 65.3731C34.9612 67.1331 41.4789 61.7445 40.8947 60.8017C40.3105 59.8588 34.0219 54.0474 33.0139 49.2988C33.0139 49.3274 30.0471 49.756 26.4274 53.8988Z" fill="black"/>
</g>
<path d="M26.4274 53.8988C26.4274 53.8988 29.9211 63.6131 32.4411 65.3731C34.9612 67.1331 41.4789 61.7445 40.8947 60.8017C40.3105 59.8588 34.0219 54.0474 33.0139 49.2988C33.0139 49.3274 30.0471 49.756 26.4274 53.8988Z" stroke="black" stroke-linecap="round" stroke-linejoin="round"/>
<path d="M48.6954 17.9051L54.3827 6.89941" stroke="black" stroke-linecap="round" stroke-linejoin="round"/>
<path d="M54.3828 23.8767L67.1778 16.2139" stroke="black" stroke-linecap="round" stroke-linejoin="round"/>
<path d="M59.6749 33.0652L70.7803 32.3623" stroke="black" stroke-linecap="round" stroke-linejoin="round"/>
</g>
<defs>
<clipPath id="clip0_15_13380">
<rect width="55.5556" height="60" fill="white" transform="translate(16.0494 6.32812)"/>
</clipPath>
</defs>
</svg>
