<svg width="221" height="187" viewBox="0 0 221 187" fill="none" xmlns="http://www.w3.org/2000/svg">
<path d="M77.6241 52.055C77.6241 52.055 76.2365 45.3023 77.5963 39.7613C77.5963 39.7613 74.4836 45.2144 71.9952 45.5058C69.5069 45.7972 63.434 35.6819 63.434 35.6819C63.434 35.6819 64.1787 43.4892 62.509 44.9877C60.8393 46.4863 49.1561 40.0249 49.1561 40.0249C49.1561 40.0249 56.5286 46.8563 55.9227 49.2753C55.3168 51.6943 48.1154 50.5888 48.1154 50.5888C48.1154 50.5888 55.4833 54.4046 55.4463 55.7922C55.4093 57.1797 51.9543 58.6228 51.9543 58.6228L59.2945 60.8151C59.2945 60.8151 57.3565 55.2649 63.4849 51.278C69.6133 47.2911 77.6241 52.055 77.6241 52.055Z" fill="white" stroke="#263238" stroke-linecap="round" stroke-linejoin="round"/>
<path d="M6.43328 166.593C6.43328 166.593 23.4863 145.812 28.1161 140.817C31.474 137.191 36.2981 136.52 37.681 133.19C37.681 133.19 47.3245 132.265 52.514 130.415C57.7034 128.565 65.3442 125.054 70.7233 124.356C76.1024 123.657 78.4612 122.645 81.4907 122.788C84.5202 122.931 96.0508 123.755 96.0508 123.755C97.1192 121.682 98.2107 119.99 95.9768 117.978C93.7428 115.966 85.8523 113.723 82.7673 114.444C82.7673 114.444 66.4959 112.131 65.9223 111.581C65.3488 111.031 63.7439 99.9071 66.7688 92.8214L49.6926 91.5726C49.6926 91.5726 24.8785 119.065 1.18832 127.751C1.18832 127.751 -1.93368 153.499 6.43328 166.593Z" fill="white"/>
<path opacity="0.4" d="M95.0147 117.293C89.927 117.793 79.9782 118.796 77.6795 119.203C74.5714 119.754 64.9695 120.304 64.9695 120.304C64.9695 120.304 61.5792 124.509 58.6515 125.609C55.7238 126.71 50.3031 120.304 46.9729 121.308C46.9729 121.308 41.2099 126.83 35.5348 125.933C32.3897 125.434 32.5562 116.165 35.225 105.624C40.2848 101.197 45.1107 96.5103 49.6833 91.5819L66.7594 92.8307C63.7346 99.9165 65.3441 111.04 65.913 111.59C66.4819 112.141 82.7487 114.444 82.7487 114.444C85.4961 113.806 92.0222 115.494 95.0147 117.293Z" fill="#89CBFB"/>
<path opacity="0.4" d="M37.4589 133.639C35.8447 136.59 31.3121 137.362 28.1114 140.817C24.8368 144.346 15.3598 155.766 10.0732 162.158C12.8483 154.295 22.8896 146.797 24.55 144.23C26.7424 140.831 24.55 137.135 28.4537 137.158C32.3573 137.182 37.4219 133.629 37.4219 133.629L37.4589 133.639Z" fill="#89CBFB"/>
<path d="M6.43333 166.593C6.43333 166.593 23.4864 145.812 28.1162 140.817C31.4741 137.191 36.2981 136.52 37.681 133.19C37.681 133.19 47.3246 132.265 52.514 130.415C57.7035 128.565 65.3443 125.054 70.7233 124.356C76.1024 123.657 78.4613 122.645 81.4908 122.788C84.5203 122.931 96.0508 123.755 96.0508 123.755C97.1192 121.682 98.2108 119.99 95.9768 117.978C93.7429 115.966 85.8523 113.723 82.7673 114.444C82.7673 114.444 66.4959 112.131 65.9224 111.581C65.3489 111.031 63.7439 99.9071 66.7688 92.8214L49.6926 91.5726C49.6926 91.5726 24.8785 119.065 1.18837 127.751" stroke="#263238" stroke-linecap="round" stroke-linejoin="round"/>
<path d="M55.2474 81.0318C55.2474 81.0318 70.973 68.0489 71.8379 67.7714C72.7028 67.4939 76.4631 66.4625 80.1355 65.6068C83.8079 64.7512 86.7217 64.1453 89.5246 65.6068C92.3274 67.0684 98.5529 68.5346 98.5529 68.5346C98.5529 68.5346 99.3438 71.4346 96.5086 72.4382C93.6734 73.4419 85.348 72.6232 85.348 72.6232C85.348 72.6232 79.5851 75.366 76.0977 76.0089C76.0977 76.0089 68.5956 83.9642 68.5956 87.2573" fill="white"/>
<path opacity="0.4" d="M98.6223 69.9175C98.5594 70.4998 98.3249 71.0503 97.9486 71.4991C97.5723 71.9479 97.0711 72.2748 96.5086 72.4382C93.6734 73.4465 85.3481 72.6232 85.3481 72.6232C85.3481 72.6232 79.5851 75.366 76.0977 76.0089C76.0977 76.0089 70.8481 81.5591 69.1322 85.324L61.4729 83.6173C61.4729 83.6173 69.7057 74.4779 69.8861 74.3669C71.2697 73.8288 72.7226 73.4893 74.2014 73.3586C76.4076 73.1782 80.5841 70.9165 80.5841 70.9165C80.5841 70.9165 83.979 69.6076 86.0835 69.8851C88.1879 70.1626 93.0212 71.0738 95.9629 70.8888C96.9367 70.8921 97.8798 70.5477 98.6223 69.9175Z" fill="#89CBFB"/>
<path d="M55.2474 81.0318C55.2474 81.0318 70.973 68.0489 71.8379 67.7714C72.7028 67.4939 76.4631 66.4625 80.1355 65.6068C83.8079 64.7512 86.7217 64.1453 89.5246 65.6068C92.3274 67.0684 98.5529 68.5346 98.5529 68.5346C98.5529 68.5346 99.3438 71.4346 96.5086 72.4382C93.6734 73.4419 85.348 72.6232 85.348 72.6232C85.348 72.6232 79.5851 75.366 76.0977 76.0089C76.0977 76.0089 68.5956 83.9642 68.5956 87.2573" stroke="#263238" stroke-linecap="round" stroke-linejoin="round"/>
<path d="M85.3482 72.6233C84.9655 72.5982 84.5936 72.486 84.261 72.2952C83.9283 72.1044 83.6436 71.8401 83.4287 71.5225" stroke="#263238" stroke-linecap="round" stroke-linejoin="round"/>
<path d="M76.107 76.0274C76.107 76.0274 73.4845 76.2402 72.2635 74.8341" stroke="#263238" stroke-linecap="round" stroke-linejoin="round"/>
<path d="M212.499 172.731C212.499 172.731 196.168 150.123 191.903 144.832C188.795 140.988 184.04 139.998 182.87 136.58C182.87 136.58 173.305 135.022 168.255 132.806C163.204 130.591 155.804 126.608 150.494 125.563C145.184 124.518 142.89 123.338 139.856 123.278C136.822 123.218 125.264 123.278 125.264 123.278C124.338 121.146 123.353 119.379 125.726 117.52C128.099 115.661 136.114 113.949 139.139 114.874C139.139 114.874 155.526 113.653 156.137 113.144C156.747 112.636 159.092 101.642 156.544 94.3709L173.657 94.2691C173.657 94.2691 197.245 124.333 220.306 134.564C220.302 134.554 221.717 160.206 212.499 172.731Z" fill="white"/>
<path opacity="0.4" d="M183.115 129.083C177.445 130.008 172.288 122.233 172.288 122.233C168.962 121.229 163.537 127.631 160.609 126.534C157.681 125.438 154.296 121.229 154.296 121.229C154.296 121.229 144.694 120.679 141.581 120.129C139.379 119.74 130.106 118.796 124.884 118.278C125.122 117.993 125.39 117.734 125.684 117.506C128.048 115.656 136.072 113.935 139.097 114.86C139.097 114.86 155.484 113.639 156.095 113.131C156.705 112.622 159.05 101.628 156.502 94.357L173.615 94.2552C173.615 94.2552 177.597 99.3429 183.883 106.003C186.741 116.692 186.353 128.574 183.115 129.083Z" fill="#89CBFB"/>
<path opacity="0.4" d="M209.715 168.882C204.853 162.19 195.057 148.754 191.884 144.832C188.776 140.988 184.022 139.998 182.851 136.58C182.851 136.58 179.581 136.048 175.854 135.165C178.416 135.22 180.627 135.072 181.839 134.554C181.839 134.554 186.926 138.102 190.821 138.083C194.715 138.065 192.527 141.756 194.724 145.155C196.792 148.351 211.842 159.207 209.715 168.882Z" fill="#89CBFB"/>
<path d="M212.499 172.731C212.499 172.731 196.168 150.123 191.903 144.832C188.795 140.988 184.04 139.998 182.87 136.58C182.87 136.58 173.305 135.022 168.255 132.806C163.204 130.591 155.804 126.608 150.494 125.563C145.184 124.518 142.89 123.338 139.856 123.278C136.822 123.218 125.264 123.278 125.264 123.278C124.338 121.146 123.353 119.379 125.726 117.52C128.099 115.661 136.114 113.949 139.139 114.874C139.139 114.874 155.526 113.653 156.137 113.144C156.747 112.636 159.092 101.642 156.544 94.3709L173.657 94.2691C173.657 94.2691 197.245 124.333 220.306 134.564" stroke="#263238" stroke-linecap="round" stroke-linejoin="round"/>
<path d="M168.648 83.3444C168.648 83.3444 152.922 70.3616 152.057 70.084C151.192 69.8065 147.432 68.7751 143.764 67.9195C140.096 67.0638 137.178 66.4579 134.37 67.9195C131.563 69.381 125.342 70.8472 125.342 70.8472C125.342 70.8472 124.551 73.7472 127.386 74.7509C130.222 75.7545 138.547 74.9359 138.547 74.9359C138.547 74.9359 144.315 77.6786 147.797 78.3215C147.797 78.3215 155.299 86.2768 155.299 89.5699" fill="white"/>
<path opacity="0.4" d="M167.736 83.7699L155.29 89.5699C155.29 86.2768 147.788 78.3215 147.788 78.3215C144.315 77.6786 138.538 74.9358 138.538 74.9358C138.538 74.9358 130.212 75.7591 127.377 74.7508C126.943 74.6212 126.544 74.3949 126.21 74.0889C125.876 73.7829 125.615 73.4051 125.448 72.984C126.323 73.5621 127.9 74.1403 130.568 73.835C135.369 73.2893 139.009 71.3143 140.073 71.5224C141.137 71.7306 141.41 73.3725 141.41 73.3725C141.41 73.3725 149.458 76.5824 151.197 75.9857C152.936 75.3891 159.615 79.0522 159.615 79.0522C162.222 80.7912 164.934 82.3668 167.736 83.7699Z" fill="#89CBFB"/>
<path d="M168.648 83.3444C168.648 83.3444 152.922 70.3616 152.057 70.084C151.192 69.8065 147.432 68.7751 143.764 67.9195C140.096 67.0638 137.178 66.4579 134.37 67.9195C131.563 69.381 125.342 70.8472 125.342 70.8472C125.342 70.8472 124.551 73.7472 127.386 74.7509C130.222 75.7545 138.547 74.9359 138.547 74.9359C138.547 74.9359 144.315 77.6786 147.797 78.3215C147.797 78.3215 155.299 86.2768 155.299 89.5699" stroke="#263238" stroke-linecap="round" stroke-linejoin="round"/>
<path d="M138.547 74.9359C138.93 74.9105 139.303 74.7982 139.636 74.6074C139.969 74.4167 140.255 74.1526 140.471 73.8351" stroke="#263238" stroke-linecap="round" stroke-linejoin="round"/>
<path d="M147.788 78.34C147.788 78.34 150.41 78.5528 151.632 77.1467" stroke="#263238" stroke-linecap="round" stroke-linejoin="round"/>
<path d="M142.09 74.8896H76.1301C75.1697 74.8896 74.3911 75.6683 74.3911 76.6287V114.315C74.3911 115.275 75.1697 116.054 76.1301 116.054H142.09C143.05 116.054 143.829 115.275 143.829 114.315V76.6287C143.829 75.6683 143.05 74.8896 142.09 74.8896Z" fill="#89CBFB"/>
<path opacity="0.3" d="M142.094 74.8896H76.1301C75.6689 74.8896 75.2266 75.0729 74.9004 75.399C74.5743 75.7252 74.3911 76.1675 74.3911 76.6287V114.315C74.3911 114.776 74.5743 115.218 74.9004 115.544C75.2266 115.871 75.6689 116.054 76.1301 116.054H142.094C142.556 116.054 142.998 115.871 143.324 115.544C143.65 115.218 143.834 114.776 143.834 114.315V76.6287C143.834 76.1675 143.65 75.7252 143.324 75.399C142.998 75.0729 142.556 74.8896 142.094 74.8896ZM141.766 113.348C141.766 113.726 141.616 114.088 141.349 114.355C141.082 114.622 140.719 114.773 140.342 114.773H77.9016C77.7145 114.773 77.5293 114.736 77.3564 114.664C77.1836 114.593 77.0266 114.488 76.8943 114.355C76.762 114.223 76.6571 114.066 76.5855 113.893C76.5139 113.72 76.477 113.535 76.477 113.348V77.4474C76.4764 77.2599 76.5128 77.0742 76.5841 76.9008C76.6555 76.7274 76.7603 76.5698 76.8926 76.4371C77.025 76.3043 77.1822 76.199 77.3554 76.1271C77.5285 76.0552 77.7141 76.0182 77.9016 76.0182H140.342C140.529 76.0182 140.715 76.0552 140.888 76.1271C141.061 76.199 141.218 76.3043 141.35 76.4371C141.483 76.5698 141.588 76.7274 141.659 76.9008C141.73 77.0742 141.767 77.2599 141.766 77.4474V113.348Z" fill="black" fill-opacity="0.7"/>
<path d="M143.829 84.0844H74.391V113.69H143.829V84.0844Z" fill="#263238"/>
<path opacity="0.2" d="M141.771 84.0844H76.4585V113.69H141.771V84.0844Z" fill="white"/>
<path opacity="0.3" d="M80.5703 114.773L81.6063 116.054H76.1301C75.6689 116.054 75.2265 115.87 74.9004 115.544C74.5743 115.218 74.391 114.776 74.391 114.315V78.7562C74.391 78.7562 79.1365 79.3575 80.0384 79.8431C80.9403 80.3288 87.9012 90.9713 88.7569 95.3976C89.6125 99.8239 80.5703 114.773 80.5703 114.773Z" fill="black" fill-opacity="0.7"/>
<path opacity="0.3" d="M142.964 84.6764L140.818 86.4618C140.818 86.4618 137.048 90.8279 135.12 94.9906L135.096 94.7408L134.851 94.6483C134.854 94.6067 134.854 94.565 134.851 94.5235L135.064 94.3708L134.976 93.8112L134.731 93.7279C134.731 93.6863 134.731 93.6447 134.708 93.603L134.911 93.4412L134.796 92.8815L134.546 92.8168C134.546 92.7751 134.523 92.7335 134.514 92.6873L134.708 92.5161L134.565 91.9703L134.315 91.9148C134.3 91.8725 134.287 91.8293 134.278 91.7853L134.458 91.6096L134.287 91.0684L134.037 91.0268C134.019 90.9847 134.004 90.9414 133.991 90.8973L134.167 90.7123L133.968 90.1804L133.714 90.1526L133.663 90.0278L133.829 89.8289L133.603 89.3109H133.348L133.293 89.1906L133.445 88.9871L133.196 88.4783H132.937L132.876 88.3627L133.02 88.15L132.742 87.6551H132.483L132.419 87.5394L132.553 87.322L132.252 86.8595L131.993 86.8827L131.924 86.7716L132.044 86.545L131.72 86.0825L131.461 86.1195L131.387 86.0131L131.493 85.7819L131.147 85.3193L130.892 85.3702C130.864 85.3378 130.841 85.3008 130.814 85.2638L130.911 85.028L130.541 84.5978L130.286 84.6626L130.198 84.5654L130.286 84.3203L129.893 83.9087L129.648 83.9827L129.556 83.8948L129.63 83.645L129.218 83.2565L128.977 83.3398L128.876 83.2565L128.936 83.0021L128.506 82.6321L128.27 82.7339L128.163 82.6506L128.214 82.3962L127.752 82.0493L127.52 82.1603L127.414 82.0863L127.446 81.8273L126.984 81.5036L126.757 81.6284L126.646 81.5544L126.669 81.2954L126.184 80.9994L125.966 81.1335L125.851 81.0642V80.8098L125.356 80.5323L125.143 80.6757L125.027 80.6155V80.3611L124.519 80.1114L124.315 80.264L124.19 80.2085V79.9541L123.668 79.7275L123.473 79.894L123.349 79.8477L123.321 79.5887L122.784 79.3945L122.599 79.5702L122.474 79.524L122.433 79.2742L121.887 79.1031L121.711 79.2881L121.582 79.2511L121.526 79.0013L120.98 78.858L120.809 79.0522L120.68 79.0198L120.61 78.7701L120.055 78.6591L119.894 78.8626L119.75 78.8025L119.667 78.5573L119.107 78.4694L118.955 78.6822H118.825L118.733 78.4417L118.168 78.3816L118.03 78.6036H117.9L117.794 78.3631L117.229 78.3353L117.095 78.5619H116.915L116.795 78.3307H116.235L116.115 78.5666H115.99L115.856 78.3353L115.291 78.3677L115.185 78.6082H115.056L114.917 78.3862L114.353 78.4463L114.26 78.6915H114.131L113.978 78.4833L113.418 78.5712L113.34 78.8163H113.21L113.048 78.6128L112.493 78.7285L112.424 78.9782L112.299 79.006L112.128 78.8163L111.577 78.9597L111.522 79.2095L111.397 79.2465L111.217 79.0615L110.676 79.2326L110.634 79.487L110.509 79.5286L110.319 79.3575L109.787 79.5564L109.76 79.8107L109.635 79.857L109.441 79.6951L108.918 79.9218V80.1761L108.798 80.2316L108.59 80.079L108.081 80.3288V80.5878L107.961 80.6479L107.748 80.5045L107.253 80.782V81.0364L107.137 81.1058L106.915 80.9717L106.453 81.2723V81.5313L106.342 81.6007L106.12 81.4804L105.657 81.8042L105.694 82.0632C105.657 82.0852 105.621 82.1099 105.588 82.1372L105.357 82.0262L104.894 82.3777L104.94 82.6321L104.839 82.7107L104.603 82.6136L104.173 82.9836L104.233 83.2334L104.136 83.3213L103.895 83.238L103.483 83.6265L103.557 83.8763C103.525 83.904 103.497 83.9364 103.465 83.9688L103.215 83.8948L102.827 84.3064L102.914 84.5469C102.882 84.5793 102.854 84.6163 102.827 84.6487L102.577 84.5839L102.207 85.0187L102.304 85.2546L102.225 85.3563L101.971 85.3101L101.619 85.7726L101.73 86.0039L101.656 86.1102L101.397 86.0732L101.074 86.5358L101.199 86.7624L101.129 86.8734L100.87 86.8503L100.57 87.3128L100.704 87.5348L100.639 87.6458H100.38L100.102 88.1453L100.25 88.3581C100.227 88.3951 100.209 88.4367 100.19 88.4737H99.9312L99.6815 88.9825L99.8341 89.186C99.8341 89.2276 99.8017 89.2692 99.7832 89.3062H99.5242L99.3022 89.8289L99.4641 90.0231L99.4178 90.148L99.1635 90.1758L98.9646 90.7077L99.1403 90.8973L99.0987 91.0222L98.8443 91.0638L98.6732 91.605L98.8582 91.7853C98.8582 91.827 98.8351 91.8686 98.8212 91.9102L98.5714 91.9657L98.428 92.5161L98.6223 92.6873L98.5945 92.8168L98.3448 92.8815L98.2292 93.4412L98.4327 93.5984C98.4327 93.6447 98.4327 93.6863 98.4095 93.7279L98.1644 93.8065L98.0765 94.3708L98.2893 94.5235V94.6483L98.0442 94.7408L97.9887 95.3097L98.206 95.4485C98.206 95.4901 98.206 95.5317 98.206 95.578L97.9702 95.6797L97.9378 96.2486L98.169 96.3781C98.169 96.4198 98.169 96.466 98.169 96.5077L97.9332 96.6233V97.1922L98.169 97.3124C98.169 97.3726 98.169 97.4327 98.169 97.4928L97.9424 97.6223L97.9702 98.1912L98.2107 98.2976C98.213 98.3392 98.213 98.3809 98.2107 98.4225L97.9933 98.5659L98.0534 99.1301L98.2939 99.2226C98.2939 99.2643 98.2939 99.3059 98.2939 99.3521L98.0812 99.5001L98.169 100.064L98.4142 100.143C98.4241 100.186 98.4318 100.229 98.4373 100.273L98.2338 100.434L98.354 100.989L98.5992 101.054C98.6121 101.097 98.6229 101.14 98.6316 101.184L98.4373 101.355L98.5807 101.905L98.8351 101.956C98.8351 101.998 98.8582 102.044 98.8674 102.086L98.6871 102.266L98.8582 102.807L99.1126 102.849L99.1542 102.974L98.9784 103.159L99.1773 103.695L99.4317 103.723L99.4826 103.843L99.3161 104.042L99.5427 104.565H99.8017L99.8526 104.685L99.7 104.888L99.9497 105.397H100.209L100.269 105.513L100.125 105.726L100.403 106.225H100.662L100.727 106.341L100.593 106.558L100.893 107.021L101.152 106.998L101.222 107.109L101.101 107.335L101.43 107.798L101.684 107.761C101.711 107.794 101.736 107.83 101.758 107.867L101.652 108.098L101.999 108.561L102.253 108.51L102.336 108.616L102.235 108.852L102.609 109.282L102.859 109.218C102.886 109.254 102.915 109.288 102.947 109.319L102.859 109.56L103.252 109.972L103.497 109.898L103.59 109.99L103.516 110.235L103.927 110.628L104.173 110.54L104.27 110.628L104.21 110.878L104.64 111.248L104.876 111.151L104.982 111.23L104.931 111.484L105.394 111.831L105.625 111.72L105.736 111.799L105.699 112.053L106.161 112.377L106.383 112.256L106.494 112.326L106.471 112.585L106.957 112.885L107.174 112.751L107.29 112.816V113.075L107.785 113.348L107.998 113.205L108.113 113.265V113.524L108.622 113.773L108.83 113.616L108.95 113.672V113.931L109.473 114.153L109.667 113.986L109.792 114.037L109.82 114.291L110.356 114.49L110.541 114.315L110.666 114.356L110.708 114.611L111.254 114.777L111.429 114.597L111.559 114.629L111.614 114.883L112.165 115.022L112.331 114.833L112.461 114.86L112.53 115.11L113.085 115.221L113.247 115.022H113.372L113.455 115.272L114.015 115.355L114.168 115.143H114.297L114.39 115.388L114.954 115.443L115.093 115.221H115.222L115.328 115.462L115.897 115.489L116.027 115.263H116.207L116.327 115.499H116.892L117.012 115.263H117.137L117.271 115.489L117.835 115.457L117.942 115.217H118.071L118.21 115.439L118.774 115.378L118.867 115.133H118.996L119.149 115.346L119.75 115.341L119.829 115.092L119.958 115.069L120.12 115.272L120.675 115.156L120.745 114.907L120.869 114.879L121.041 115.073L121.591 114.93L121.646 114.675L121.771 114.638L121.952 114.823L122.493 114.652L122.525 114.416L122.65 114.375L122.84 114.55L123.372 114.352L123.399 114.093L123.524 114.046L123.719 114.208L124.241 113.986V113.727L124.361 113.672L124.57 113.829L125.078 113.575V113.32L125.199 113.26L125.411 113.403L125.906 113.126V112.867L126.017 112.802L126.239 112.932L126.702 112.631L126.679 112.377L126.79 112.303L127.016 112.428L127.479 112.099L127.442 111.845L127.548 111.766L127.784 111.877L128.247 111.53L128.196 111.276L128.297 111.193L128.533 111.29L128.963 110.92L128.903 110.67L129 110.582L129.246 110.67L129.616 110.309L131.003 110.994L132.567 109.185L131.641 107.83H131.729L132.053 107.368L131.928 107.141L131.998 107.03L132.257 107.053L132.557 106.591L132.423 106.373L132.488 106.258H132.747L133.024 105.763L132.876 105.55C132.9 105.508 132.918 105.471 132.937 105.43H133.196L133.445 104.916L133.293 104.713C133.293 104.671 133.33 104.634 133.344 104.592H133.603L133.825 104.07L133.663 103.871C133.663 103.829 133.695 103.788 133.709 103.751L133.963 103.718L134.162 103.186L133.986 103.001L134.028 102.872L134.282 102.83L134.356 102.594C135.346 107.987 138.057 114.888 138.057 114.888L137.876 115.85L138.098 116.077H142.09C142.551 116.077 142.993 115.894 143.319 115.567C143.646 115.241 143.829 114.799 143.829 114.338V84.7874L142.964 84.6764Z" fill="black" fill-opacity="0.7"/>
<path d="M142.09 74.8896H76.1301C75.1697 74.8896 74.3911 75.6683 74.3911 76.6287V114.315C74.3911 115.275 75.1697 116.054 76.1301 116.054H142.09C143.05 116.054 143.829 115.275 143.829 114.315V76.6287C143.829 75.6683 143.05 74.8896 142.09 74.8896Z" stroke="#263238" stroke-linecap="round" stroke-linejoin="round"/>
<path d="M88.7615 73.1506V74.8897H78.2808V73.1506C78.2808 73.0169 78.3339 72.8886 78.4285 72.7941C78.523 72.6996 78.6512 72.6464 78.7849 72.6464H88.2527C88.3193 72.6458 88.3853 72.6584 88.447 72.6835C88.5087 72.7085 88.5649 72.7456 88.6122 72.7925C88.6595 72.8393 88.697 72.8951 88.7226 72.9566C88.7483 73.0181 88.7615 73.084 88.7615 73.1506Z" fill="#999999"/>
<path opacity="0.4" d="M88.7615 73.1506V73.3772H78.2808V73.1506C78.2808 73.0169 78.3339 72.8886 78.4285 72.7941C78.523 72.6996 78.6512 72.6464 78.7849 72.6464H88.2527C88.3193 72.6458 88.3853 72.6584 88.447 72.6835C88.5087 72.7085 88.5649 72.7456 88.6122 72.7925C88.6595 72.8393 88.697 72.8951 88.7226 72.9566C88.7483 73.0181 88.7615 73.084 88.7615 73.1506Z" fill="white"/>
<path d="M88.7615 73.1506V74.8897H78.2808V73.1506C78.2808 73.0169 78.3339 72.8886 78.4285 72.7941C78.523 72.6996 78.6512 72.6464 78.7849 72.6464H88.2527C88.3193 72.6458 88.3853 72.6584 88.447 72.6835C88.5087 72.7085 88.5649 72.7456 88.6122 72.7925C88.6595 72.8393 88.697 72.8951 88.7226 72.9566C88.7483 73.0181 88.7615 73.084 88.7615 73.1506V73.1506Z" stroke="#263238" stroke-linecap="round" stroke-linejoin="round"/>
<path d="M98.6223 73.8397V74.8896H90.2415V73.8397L91.8002 73.3771V72.7527C91.8002 72.6301 91.8489 72.5124 91.9357 72.4257C92.0224 72.339 92.1401 72.2902 92.2627 72.2902H96.5826C96.7053 72.2902 96.823 72.339 96.9097 72.4257C96.9964 72.5124 97.0452 72.6301 97.0452 72.7527V73.3771L98.6223 73.8397Z" fill="#999999"/>
<path opacity="0.4" d="M98.6224 74.0893V73.8396L97.0637 73.3771H91.8003L90.2416 73.8396V74.0893H98.6224Z" fill="white"/>
<path opacity="0.4" d="M97.0869 72.7527V72.8313H91.8003V72.7527C91.8003 72.63 91.849 72.5124 91.9358 72.4256C92.0225 72.3389 92.1402 72.2901 92.2628 72.2901H96.5827C96.6469 72.2843 96.7115 72.292 96.7725 72.3126C96.8336 72.3333 96.8896 72.3664 96.937 72.41C96.9845 72.4535 97.0224 72.5065 97.0482 72.5655C97.074 72.6245 97.0871 72.6883 97.0869 72.7527Z" fill="white"/>
<path d="M98.6223 73.8397V74.8896H90.2415V73.8397L91.8002 73.3771V72.7527C91.8002 72.6301 91.8489 72.5124 91.9357 72.4257C92.0224 72.339 92.1401 72.2902 92.2627 72.2902H96.5826C96.7053 72.2902 96.823 72.339 96.9097 72.4257C96.9964 72.5124 97.0452 72.6301 97.0452 72.7527V73.3771L98.6223 73.8397Z" stroke="#263238" stroke-linecap="round" stroke-linejoin="round"/>
<path d="M91.8002 73.3771H97.0637" stroke="#263238" stroke-linecap="round" stroke-linejoin="round"/>
<path d="M133.122 95.6381V96.4845L133.422 96.3319V95.7954L133.122 95.6381Z" fill="#263238"/>
<path d="M98.2246 95.6381L97.9193 95.7954V96.3319L98.2246 96.4845V95.6381Z" fill="#263238"/>
<path d="M133.075 97.368L133.385 97.2292L133.413 96.6927L133.117 96.5215L133.075 97.368Z" fill="#263238"/>
<path d="M98.2663 94.7594L97.9564 94.8935L97.9287 95.4347L98.2247 95.6058L98.2663 94.7594Z" fill="#263238"/>
<path d="M132.987 98.2467L133.307 98.1264L133.362 97.5853L133.075 97.4049L132.987 98.2467Z" fill="#263238"/>
<path d="M98.3587 93.8806L98.0396 94.0008L97.9841 94.542L98.2708 94.7223L98.3587 93.8806Z" fill="#263238"/>
<path d="M132.853 99.1209L133.177 99.0145L133.26 98.478L132.983 98.2838L132.853 99.1209Z" fill="#263238"/>
<path d="M98.4882 93.0063L98.1645 93.1127L98.0858 93.6492L98.3587 93.8435L98.4882 93.0063Z" fill="#263238"/>
<path d="M132.678 99.9858L133.006 99.8934L133.117 99.3661L132.849 99.1533L132.678 99.9858Z" fill="#263238"/>
<path d="M98.6641 92.1415L98.3357 92.2294L98.2293 92.7613L98.4929 92.974L98.6641 92.1415Z" fill="#263238"/>
<path d="M132.46 100.837L132.793 100.767L132.927 100.245L132.673 100.018L132.46 100.837Z" fill="#263238"/>
<path d="M98.886 91.2905L98.553 91.3598L98.4188 91.8825L98.6732 92.1091L98.886 91.2905Z" fill="#263238"/>
<path d="M132.197 101.679L132.53 101.628L132.692 101.11L132.451 100.874L132.197 101.679Z" fill="#263238"/>
<path d="M99.1496 90.4441L98.8119 90.4996L98.6501 91.0176L98.8952 91.2535L99.1496 90.4441Z" fill="#263238"/>
<path d="M131.891 102.507L132.229 102.47L132.414 101.965L132.183 101.716L131.891 102.507Z" fill="#263238"/>
<path d="M99.4549 89.6161L99.1173 89.6578L98.9277 90.1619L99.1589 90.4117L99.4549 89.6161Z" fill="#263238"/>
<path d="M131.544 103.321L131.882 103.297L132.095 102.803L131.877 102.544L131.544 103.321Z" fill="#263238"/>
<path d="M99.8018 88.8068L99.4596 88.8253L99.2468 89.3248L99.4688 89.5839L99.8018 88.8068Z" fill="#263238"/>
<path d="M131.156 104.116L131.498 104.112L131.734 103.626L131.531 103.353L131.156 104.116Z" fill="#263238"/>
<path d="M100.186 88.0112L99.848 88.0159L99.6075 88.5015L99.8156 88.7744L100.186 88.0112Z" fill="#263238"/>
<path d="M130.73 104.884L131.073 104.898L131.332 104.426L131.142 104.144L130.73 104.884Z" fill="#263238"/>
<path d="M100.616 87.2388L100.274 87.2249L100.01 87.7013L100.204 87.9788L100.616 87.2388Z" fill="#263238"/>
<path d="M130.263 105.638L130.605 105.665L130.888 105.208L130.712 104.916L130.263 105.638Z" fill="#263238"/>
<path d="M101.078 86.4896L100.741 86.4619L100.454 86.9197L100.63 87.2111L101.078 86.4896Z" fill="#263238"/>
<path d="M129.764 106.359L130.101 106.41L130.407 105.966L130.245 105.666L129.764 106.359Z" fill="#263238"/>
<path d="M101.583 85.7634L101.245 85.7171L100.935 86.1611L101.097 86.4618L101.583 85.7634Z" fill="#263238"/>
<path d="M129.223 107.062L129.556 107.127L129.889 106.697L129.741 106.392L129.223 107.062Z" fill="#263238"/>
<path d="M102.119 85.065L101.786 85.0002L101.458 85.4304L101.601 85.7357L102.119 85.065Z" fill="#263238"/>
<path d="M128.649 107.733L128.982 107.812L129.334 107.4L129.199 107.09L128.649 107.733Z" fill="#263238"/>
<path d="M102.692 84.3943L102.364 84.311L102.013 84.7227L102.142 85.0372L102.692 84.3943Z" fill="#263238"/>
<path d="M128.043 108.371L128.372 108.473L128.742 108.08L128.626 107.761L128.043 108.371Z" fill="#263238"/>
<path d="M103.298 83.7515L102.975 83.6544L102.605 84.0475L102.716 84.3666L103.298 83.7515Z" fill="#263238"/>
<path d="M127.405 108.982L127.729 109.097L128.117 108.723L128.02 108.399L127.405 108.982Z" fill="#263238"/>
<path d="M103.937 83.1455L103.618 83.0299L103.229 83.4045L103.326 83.7283L103.937 83.1455Z" fill="#263238"/>
<path d="M126.739 109.56L127.053 109.689L127.46 109.338L127.382 109.005L126.739 109.56Z" fill="#263238"/>
<path d="M104.607 82.5673L104.293 82.4378L103.881 82.7893L103.965 83.1177L104.607 82.5673Z" fill="#263238"/>
<path d="M126.04 110.101L126.35 110.249L126.776 109.916L126.711 109.583L126.04 110.101Z" fill="#263238"/>
<path d="M105.301 82.0263L104.996 81.8783L104.57 82.2113L104.635 82.5443L105.301 82.0263Z" fill="#263238"/>
<path d="M125.319 110.605L125.62 110.767L126.059 110.457L126.013 110.124L125.319 110.605Z" fill="#263238"/>
<path d="M106.027 81.5175L105.727 81.3556L105.283 81.6655L105.334 82.0031L106.027 81.5175Z" fill="#263238"/>
<path d="M124.57 111.077L124.861 111.253L125.319 110.966L125.291 110.628L124.57 111.077Z" fill="#263238"/>
<path d="M106.772 81.0503L106.481 80.8746L106.023 81.1613L106.055 81.499L106.772 81.0503Z" fill="#263238"/>
<path d="M123.802 111.507L124.084 111.697L124.556 111.433L124.542 111.096L123.802 111.507Z" fill="#263238"/>
<path d="M107.544 80.6202L107.262 80.426L106.79 80.6896L106.804 81.0319L107.544 80.6202Z" fill="#263238"/>
<path d="M123.279 112.104L123.765 111.863L123.77 111.526L123.011 111.9L123.279 112.104Z" fill="#263238"/>
<path d="M108.062 80.0236L107.577 80.2641V80.6017L108.335 80.2271L108.062 80.0236Z" fill="#263238"/>
<path d="M122.461 112.469L122.955 112.252L122.979 111.914L122.202 112.247L122.461 112.469Z" fill="#263238"/>
<path d="M108.886 79.6582L108.386 79.871L108.368 80.2132L109.145 79.8756L108.886 79.6582Z" fill="#263238"/>
<path d="M121.623 112.788L122.128 112.599L122.165 112.261L121.374 112.557L121.623 112.788Z" fill="#263238"/>
<path d="M109.723 79.3391L109.214 79.5241L109.177 79.8617L109.973 79.5703L109.723 79.3391Z" fill="#263238"/>
<path d="M120.768 113.07L121.286 112.909L121.341 112.571L120.532 112.825L120.768 113.07Z" fill="#263238"/>
<path d="M110.574 79.0569L110.06 79.2188L110.005 79.5565L110.814 79.3021L110.574 79.0569Z" fill="#263238"/>
<path d="M119.903 113.306L120.425 113.168L120.499 112.835L119.676 113.052L119.903 113.306Z" fill="#263238"/>
<path d="M111.439 78.821L110.921 78.9598L110.847 79.2928L111.665 79.0754L111.439 78.821Z" fill="#263238"/>
<path d="M119.024 113.496L119.556 113.385L119.644 113.057L118.816 113.232L119.024 113.496Z" fill="#263238"/>
<path d="M112.318 78.6313L111.79 78.7377L111.702 79.0661L112.53 78.895L112.318 78.6313Z" fill="#263238"/>
<path d="M118.141 113.644L118.677 113.561L118.779 113.237L117.942 113.367L118.141 113.644Z" fill="#263238"/>
<path d="M113.206 78.4834L112.669 78.5667L112.567 78.8904L113.4 78.7609L113.206 78.4834Z" fill="#263238"/>
<path d="M117.248 113.746L117.785 113.69L117.905 113.371L117.063 113.459L117.248 113.746Z" fill="#263238"/>
<path d="M114.094 78.3816L113.557 78.4371L113.437 78.7562L114.279 78.6684L114.094 78.3816Z" fill="#263238"/>
<path d="M116.351 113.806L116.892 113.773L117.031 113.464L116.184 113.51L116.351 113.806Z" fill="#263238"/>
<path d="M114.991 78.3215L114.454 78.3539L114.316 78.6638L115.162 78.6175L114.991 78.3215Z" fill="#263238"/>
<path d="M115.453 113.815H115.995L116.147 113.51L115.301 113.515L115.453 113.815Z" fill="#263238"/>
<path d="M115.888 78.3122H115.347L115.194 78.6175L116.045 78.6128L115.888 78.3122Z" fill="#263238"/>
<path d="M116.841 78.3493L116.3 78.3215L116.133 78.6175L116.975 78.6592L116.841 78.3493Z" fill="#263238"/>
<path d="M114.505 113.778L115.046 113.806L115.213 113.51L114.367 113.468L114.505 113.778Z" fill="#263238"/>
<path d="M117.734 78.4278L117.197 78.377L117.012 78.6637L117.854 78.747L117.734 78.4278Z" fill="#263238"/>
<path d="M113.613 113.695L114.149 113.75L114.329 113.464L113.488 113.38L113.613 113.695Z" fill="#263238"/>
<path d="M118.622 78.5573L118.09 78.4741L117.891 78.7516L118.728 78.8811L118.622 78.5573Z" fill="#263238"/>
<path d="M112.72 113.57L113.256 113.653L113.455 113.376L112.618 113.246L112.72 113.57Z" fill="#263238"/>
<path d="M119.505 78.7285L118.973 78.6175L118.765 78.8857L119.593 79.0569L119.505 78.7285Z" fill="#263238"/>
<path d="M111.841 113.399L112.368 113.505L112.581 113.242L111.753 113.07L111.841 113.399Z" fill="#263238"/>
<path d="M120.375 78.9458L119.852 78.8071L119.63 79.0661L120.449 79.2788L120.375 78.9458Z" fill="#263238"/>
<path d="M110.967 113.181L111.494 113.32L111.716 113.061L110.898 112.848L110.967 113.181Z" fill="#263238"/>
<path d="M121.235 79.2048L120.717 79.043L120.481 79.2881L121.29 79.5379L121.235 79.2048Z" fill="#263238"/>
<path d="M110.111 112.922L110.625 113.084L110.861 112.839L110.056 112.589L110.111 112.922Z" fill="#263238"/>
<path d="M122.081 79.5056L121.573 79.3206L121.323 79.5518L122.118 79.8432L122.081 79.5056Z" fill="#263238"/>
<path d="M109.265 112.622L109.774 112.807L110.019 112.576L109.228 112.284L109.265 112.622Z" fill="#263238"/>
<path d="M122.909 79.8525L122.41 79.6397L122.151 79.8571L122.928 80.1901L122.909 79.8525Z" fill="#263238"/>
<path d="M108.437 112.275L108.932 112.488L109.196 112.27L108.414 111.937L108.437 112.275Z" fill="#263238"/>
<path d="M123.719 80.2363L123.233 80.0004L122.96 80.2039L123.723 80.5786L123.719 80.2363Z" fill="#263238"/>
<path d="M107.628 111.886L108.113 112.127L108.382 111.919L107.623 111.549L107.628 111.886Z" fill="#263238"/>
<path d="M124.509 80.6664L124.033 80.4028L123.756 80.597L124.496 81.004L124.509 80.6664Z" fill="#263238"/>
<path d="M106.837 111.461L107.308 111.724L107.591 111.53L106.851 111.123L106.837 111.461Z" fill="#263238"/>
<path d="M125.277 81.1289L124.815 80.8467L124.528 81.0225L125.245 81.4711L125.277 81.1289Z" fill="#263238"/>
<path d="M106.069 110.994L106.527 111.28L106.818 111.105L106.101 110.656L106.069 110.994Z" fill="#263238"/>
<path d="M125.971 81.9708L126.017 81.6378L125.573 81.3279L125.273 81.4898L125.971 81.9708Z" fill="#263238"/>
<path d="M105.375 110.152L105.324 110.49L105.768 110.799L106.069 110.638L105.375 110.152Z" fill="#263238"/>
<path d="M126.669 82.5119L126.734 82.1789L126.309 81.8459L125.999 81.9939L126.669 82.5119Z" fill="#263238"/>
<path d="M104.677 109.615L104.612 109.948L105.038 110.281L105.343 110.133L104.677 109.615Z" fill="#263238"/>
<path d="M127.34 83.0855L127.423 82.7525L127.012 82.4009L126.697 82.5351L127.34 83.0855Z" fill="#263238"/>
<path d="M104.006 109.042L103.923 109.37L104.334 109.722L104.644 109.592L104.006 109.042Z" fill="#263238"/>
<path d="M127.983 83.6913L128.08 83.3675L127.687 82.9929L127.368 83.1085L127.983 83.6913Z" fill="#263238"/>
<path d="M103.363 108.436L103.266 108.76L103.659 109.134L103.978 109.019L103.363 108.436Z" fill="#263238"/>
<path d="M128.594 84.3296L128.705 84.0104L128.335 83.6173L128.006 83.7191L128.594 84.3296Z" fill="#263238"/>
<path d="M102.753 107.798L102.637 108.117L103.012 108.51L103.335 108.408L102.753 107.798Z" fill="#263238"/>
<path d="M129.167 84.9957L129.297 84.6858L128.945 84.2742L128.617 84.3574L129.167 84.9957Z" fill="#263238"/>
<path d="M102.174 107.127L102.045 107.442L102.396 107.853L102.729 107.77L102.174 107.127Z" fill="#263238"/>
<path d="M129.713 85.6941L129.856 85.3888L129.523 84.9587L129.19 85.0234L129.713 85.6941Z" fill="#263238"/>
<path d="M101.633 106.433L101.485 106.739L101.818 107.169L102.151 107.099L101.633 106.433Z" fill="#263238"/>
<path d="M130.217 86.4156L130.379 86.1149L130.069 85.6755L129.731 85.7218L130.217 86.4156Z" fill="#263238"/>
<path d="M101.129 105.712L100.967 106.008L101.277 106.452L101.61 106.406L101.129 105.712Z" fill="#263238"/>
<path d="M130.684 87.1649L130.86 86.8735L130.573 86.4156L130.236 86.448L130.684 87.1649Z" fill="#263238"/>
<path d="M100.657 104.963L100.482 105.254L100.768 105.712L101.106 105.679L100.657 104.963Z" fill="#263238"/>
<path d="M131.114 87.9373L131.309 87.6551L131.045 87.1833L130.703 87.1972L131.114 87.9373Z" fill="#263238"/>
<path d="M100.227 104.19L100.038 104.472L100.301 104.944L100.639 104.93L100.227 104.19Z" fill="#263238"/>
<path d="M131.507 88.7281L131.711 88.4552L131.475 87.9696L131.133 87.965L131.507 88.7281Z" fill="#263238"/>
<path d="M99.8342 103.399L99.6307 103.672L99.8712 104.158H100.209L99.8342 103.399Z" fill="#263238"/>
<path d="M131.859 89.5375L132.076 89.2738L131.864 88.7789L131.521 88.7604L131.859 89.5375Z" fill="#263238"/>
<path d="M99.4872 102.59L99.2699 102.853L99.4826 103.348L99.8202 103.367L99.4872 102.59Z" fill="#263238"/>
<path d="M132.169 90.3609L132.4 90.1111L132.21 89.6069L131.873 89.5699L132.169 90.3609Z" fill="#263238"/>
<path d="M99.1774 101.762L98.9462 102.012L99.1358 102.52L99.4735 102.557L99.1774 101.762Z" fill="#263238"/>
<path d="M132.437 91.2025L132.678 90.9667L132.516 90.4486L132.178 90.3978L132.437 91.2025Z" fill="#263238"/>
<path d="M98.9092 100.925L98.6641 101.161L98.8306 101.674L99.1636 101.73L98.9092 100.925Z" fill="#263238"/>
<path d="M132.659 92.0582L132.913 91.8316L132.779 91.3089L132.446 91.2396L132.659 92.0582Z" fill="#263238"/>
<path d="M98.6871 100.069L98.4327 100.296L98.5668 100.818L98.8998 100.888L98.6871 100.069Z" fill="#263238"/>
<path d="M132.839 92.9231L133.108 92.7104L132.997 92.1785L132.668 92.0906L132.839 92.9231Z" fill="#263238"/>
<path d="M98.5021 99.2042L98.2385 99.4169L98.3495 99.9442L98.6779 100.032L98.5021 99.2042Z" fill="#263238"/>
<path d="M132.978 93.7928L133.251 93.5939L133.168 93.062L132.844 92.9556L132.978 93.7928Z" fill="#263238"/>
<path d="M98.368 98.3347L98.0905 98.5335L98.1738 99.0654L98.4975 99.1718L98.368 98.3347Z" fill="#263238"/>
<path d="M133.071 94.6714L133.358 94.4864L133.297 93.9499L132.983 93.8297L133.071 94.6714Z" fill="#263238"/>
<path d="M98.2755 97.4558L97.9887 97.6408L98.0442 98.1774L98.3634 98.2976L98.2755 97.4558Z" fill="#263238"/>
<path d="M133.117 95.5503L133.413 95.3838L133.385 94.8427L133.071 94.7086L133.117 95.5503Z" fill="#263238"/>
<path d="M98.2292 96.5771L97.9332 96.7436L97.9609 97.2847L98.2708 97.4189L98.2292 96.5771Z" fill="#263238"/>
<path d="M132.527 100.212C134.821 90.9008 129.133 81.4933 119.822 79.1994C110.511 76.9055 101.103 82.594 98.8095 91.9048C96.5157 101.216 102.204 110.623 111.515 112.917C120.826 115.211 130.233 109.523 132.527 100.212Z" fill="#999999" stroke="#263238" stroke-linecap="round" stroke-linejoin="round"/>
<path d="M131.765 100.024C133.956 91.1348 128.527 82.1524 119.638 79.9608C110.749 77.7693 101.767 83.1985 99.5753 92.0874C97.3837 100.976 102.813 109.959 111.702 112.15C120.591 114.342 129.573 108.912 131.765 100.024Z" fill="#BFBFBF" stroke="#263238" stroke-linecap="round" stroke-linejoin="round"/>
<path opacity="0.3" d="M129.502 98.3891C130.782 90.7533 125.63 83.5252 117.994 82.2447C110.359 80.9641 103.13 86.1161 101.85 93.7519C100.569 101.388 105.721 108.616 113.357 109.896C120.993 111.177 128.221 106.025 129.502 98.3891Z" fill="black" fill-opacity="0.7"/>
<path d="M128.41 99.3306C130.212 92.2956 125.97 85.1315 118.935 83.3292C111.9 81.5268 104.736 85.7687 102.934 92.8037C101.131 99.8387 105.373 107.003 112.408 108.805C119.443 110.607 126.607 106.366 128.41 99.3306Z" fill="#BFBFBF" stroke="#263238" stroke-linecap="round" stroke-linejoin="round"/>
<path d="M125.529 98.5107C126.88 93.0664 123.562 87.5574 118.118 86.2061C112.673 84.8547 107.165 88.1727 105.813 93.617C104.462 99.0613 107.78 104.57 113.224 105.922C118.668 107.273 124.177 103.955 125.529 98.5107Z" fill="#757575" stroke="#263238" stroke-linecap="round" stroke-linejoin="round"/>
<path d="M130.902 107.682L129.417 109.407L127.96 108.7L129.986 106.35L130.902 107.682Z" fill="#BFBFBF" stroke="#263238" stroke-linecap="round" stroke-linejoin="round"/>
<g opacity="0.3">
<path opacity="0.3" d="M109.681 85.0789L109.806 85.2917L109.996 86.633L110.458 86.3693L110.583 86.5821L109.894 86.9891L109.769 86.781L109.58 85.4397L109.154 85.6894L109.029 85.4767L109.681 85.0789Z" fill="black"/>
<path opacity="0.3" d="M110.084 85.338C110.036 85.238 110.03 85.1231 110.067 85.0186C110.103 84.9141 110.18 84.8285 110.28 84.7806C110.38 84.7328 110.495 84.7266 110.6 84.7635C110.704 84.8003 110.79 84.8772 110.838 84.9772L111.231 85.7958C111.254 85.8453 111.268 85.899 111.271 85.9538C111.274 86.0086 111.266 86.0635 111.248 86.1152C111.23 86.167 111.201 86.2146 111.165 86.2555C111.128 86.2963 111.084 86.3295 111.034 86.3532C110.985 86.3769 110.931 86.3906 110.876 86.3935C110.821 86.3965 110.766 86.3886 110.715 86.3703C110.663 86.3521 110.615 86.3238 110.575 86.2871C110.534 86.2505 110.5 86.2061 110.477 86.1566L110.084 85.338ZM110.736 86.0549C110.787 86.1659 110.856 86.1844 110.935 86.1474C111.013 86.1104 111.046 86.041 110.99 85.93L110.583 85.0789C110.528 84.9679 110.458 84.9494 110.38 84.9864C110.301 85.0234 110.273 85.0928 110.324 85.2038L110.736 86.0549Z" fill="black"/>
<path opacity="0.3" d="M111.06 84.8846C111.035 84.8326 111.022 84.7761 111.02 84.7186C111.019 84.6612 111.029 84.604 111.051 84.5508C111.073 84.4976 111.105 84.4494 111.146 84.4094C111.187 84.3693 111.236 84.3382 111.29 84.318C111.344 84.2978 111.401 84.289 111.459 84.2921C111.516 84.2952 111.572 84.3102 111.624 84.336C111.675 84.3619 111.72 84.3981 111.757 84.4423C111.794 84.4866 111.821 84.538 111.837 84.5932L112.156 85.4443C112.175 85.4956 112.184 85.5502 112.182 85.6049C112.18 85.6597 112.167 85.7135 112.144 85.7633C112.122 85.8131 112.089 85.858 112.049 85.8953C112.009 85.9326 111.962 85.9617 111.911 85.9808C111.859 85.9999 111.805 86.0087 111.75 86.0068C111.695 86.0048 111.641 85.9921 111.592 85.9693C111.542 85.9466 111.497 85.9142 111.46 85.8741C111.422 85.834 111.393 85.787 111.374 85.7357L111.06 84.8846ZM111.638 85.657C111.684 85.7727 111.753 85.7958 111.832 85.768C111.911 85.7403 111.948 85.6709 111.906 85.5553L111.573 84.6719C111.531 84.5562 111.462 84.5331 111.383 84.5609C111.305 84.5886 111.268 84.658 111.309 84.7736L111.638 85.657Z" fill="black"/>
<path opacity="0.3" d="M112.845 85.1575L112.711 83.9087L113.081 83.8162L113.543 85.5044L113.294 85.5692L112.979 84.3574L113.113 85.6154L112.863 85.6802L112.35 84.5378L112.66 85.7357L112.429 85.7958L111.989 84.103L112.359 84.0059L112.845 85.1575Z" fill="black"/>
<path opacity="0.3" d="M113.835 83.6867L114.107 83.6544L114.288 85.1437L114.75 85.0882L114.778 85.3379L114.057 85.4212L113.835 83.6867Z" fill="black"/>
<path opacity="0.3" d="M115.079 84.3111H115.453V84.5563H115.074L115.097 85.065H115.56V85.3148L114.815 85.3426L114.741 83.6035L115.49 83.5711V83.8209H115.028L115.079 84.3111Z" fill="black"/>
<path opacity="0.3" d="M116.05 84.0475L115.99 85.3102H115.745L115.823 83.5711H116.166L116.397 84.6256L116.443 83.585H116.688L116.605 85.3287H116.328L116.05 84.0475Z" fill="black"/>
<path opacity="0.3" d="M117.364 83.659C117.421 83.6622 117.476 83.6783 117.526 83.706C117.576 83.7338 117.619 83.7724 117.652 83.8191C117.685 83.8658 117.707 83.9193 117.716 83.9757C117.726 84.0321 117.722 84.0898 117.706 84.1446V84.2001L117.447 84.1677V84.0937C117.447 83.9689 117.419 83.918 117.331 83.9041C117.243 83.8902 117.188 83.9318 117.174 84.0567C117.16 84.1816 117.197 84.2834 117.354 84.4637C117.436 84.5357 117.499 84.6261 117.539 84.7275C117.578 84.8289 117.593 84.9383 117.581 85.0465C117.58 85.1049 117.567 85.1624 117.543 85.2153C117.518 85.2682 117.482 85.3152 117.438 85.3533C117.394 85.3913 117.342 85.4196 117.286 85.4361C117.23 85.4527 117.171 85.4571 117.114 85.4492C117.056 85.4413 117 85.4211 116.951 85.3901C116.901 85.3592 116.859 85.318 116.827 85.2694C116.794 85.2209 116.773 85.166 116.763 85.1084C116.754 85.0508 116.757 84.9919 116.772 84.9355V84.8291L117.026 84.8661V84.9864C117.026 85.1113 117.054 85.1621 117.142 85.176C117.23 85.1899 117.29 85.1483 117.308 85.028C117.327 84.9078 117.28 84.7968 117.123 84.621C117.042 84.5489 116.98 84.4582 116.941 84.3568C116.902 84.2553 116.889 84.1461 116.901 84.0382C116.943 83.7607 117.1 83.622 117.364 83.659Z" fill="black"/>
<path opacity="0.3" d="M118.742 85.7727C118.684 85.7624 118.629 85.739 118.581 85.7042C118.533 85.6695 118.494 85.6243 118.467 85.5721C118.439 85.52 118.424 85.4622 118.422 85.4032C118.42 85.3442 118.431 85.2855 118.455 85.2316L118.492 85.1021C118.505 85.0322 118.537 84.9673 118.584 84.9143C118.632 84.8613 118.693 84.8223 118.76 84.8015C118.714 84.7511 118.684 84.6886 118.672 84.6213C118.661 84.5541 118.669 84.485 118.696 84.4222V84.3667C118.709 84.3098 118.734 84.2563 118.769 84.2095C118.804 84.1626 118.848 84.1234 118.899 84.0942C118.95 84.065 119.006 84.0464 119.064 84.0396C119.122 84.0327 119.181 84.0378 119.237 84.0545C119.293 84.0712 119.345 84.0991 119.39 84.1366C119.435 84.1741 119.471 84.2203 119.498 84.2724C119.524 84.3246 119.54 84.3816 119.543 84.44C119.547 84.4983 119.539 84.5568 119.519 84.6118V84.6627C119.508 84.7304 119.478 84.7934 119.432 84.8443C119.386 84.8951 119.326 84.9317 119.26 84.9495C119.306 85.0037 119.336 85.0696 119.346 85.1398C119.357 85.2101 119.348 85.2818 119.32 85.3472L119.283 85.4767C119.273 85.5352 119.25 85.5907 119.216 85.639C119.181 85.6874 119.136 85.7273 119.084 85.7557C119.032 85.7842 118.974 85.8006 118.915 85.8035C118.856 85.8064 118.797 85.7959 118.742 85.7727ZM118.811 85.5369C118.895 85.56 118.969 85.5369 119.015 85.3935L119.061 85.2362C119.103 85.1067 119.061 85.0327 118.969 85.005C118.876 84.9772 118.807 85.005 118.765 85.1483L118.719 85.3056C118.677 85.4536 118.728 85.5091 118.825 85.5369H118.811ZM118.945 84.5424C118.904 84.6766 118.945 84.7413 119.043 84.7645C119.14 84.7876 119.204 84.7645 119.241 84.6303L119.269 84.5378C119.315 84.3898 119.269 84.3297 119.177 84.3019C119.084 84.2742 119.019 84.3019 118.973 84.4499L118.945 84.5424Z" fill="black"/>
<path opacity="0.3" d="M119.621 85.7727L119.528 86.0225L119.283 85.93L119.376 85.6802L119.621 85.7727Z" fill="black"/>
<path opacity="0.3" d="M120.042 86.2537C119.986 86.235 119.935 86.2042 119.893 86.1633C119.851 86.1225 119.819 86.0728 119.798 86.0178C119.778 85.9628 119.77 85.9039 119.775 85.8455C119.781 85.7871 119.799 85.7306 119.829 85.6802L119.884 85.5553C119.906 85.4883 119.945 85.4283 119.998 85.3819C120.051 85.3354 120.116 85.3042 120.185 85.2917C120.147 85.2341 120.126 85.1665 120.126 85.0974C120.126 85.0283 120.147 84.9608 120.185 84.9032L120.208 84.8523C120.228 84.796 120.259 84.7444 120.3 84.7008C120.34 84.6572 120.389 84.6225 120.444 84.5989C120.499 84.5754 120.558 84.5635 120.618 84.564C120.677 84.5645 120.736 84.5774 120.791 84.6018C120.845 84.6263 120.894 84.6618 120.934 84.706C120.974 84.7503 121.004 84.8024 121.023 84.859C121.041 84.9156 121.048 84.9755 121.042 85.0349C121.037 85.0942 121.019 85.1517 120.99 85.2038L120.967 85.2547C120.946 85.3201 120.907 85.3784 120.855 85.4227C120.803 85.4669 120.739 85.4953 120.671 85.5044C120.707 85.5642 120.727 85.6331 120.727 85.7033C120.727 85.7736 120.707 85.8424 120.671 85.9022L120.615 86.0271C120.598 86.0839 120.568 86.1361 120.528 86.1797C120.488 86.2234 120.438 86.2574 120.383 86.2792C120.328 86.301 120.269 86.31 120.209 86.3056C120.15 86.3012 120.093 86.2835 120.042 86.2537ZM120.143 86.0271C120.222 86.0641 120.301 86.0271 120.365 85.9115L120.43 85.7635C120.486 85.6339 120.458 85.5553 120.37 85.5183C120.282 85.4813 120.203 85.5183 120.148 85.6339L120.083 85.7866C120.018 85.9253 120.065 85.9901 120.143 86.0271ZM120.402 85.0604C120.347 85.1853 120.402 85.2547 120.472 85.2917C120.541 85.3287 120.629 85.2917 120.689 85.1853L120.726 85.0974C120.791 84.9494 120.726 84.8847 120.666 84.8523C120.606 84.8199 120.509 84.8245 120.444 84.9679L120.402 85.0604Z" fill="black"/>
<path opacity="0.3" d="M121.364 85.7726L121.794 86.027L121.67 86.2398L121.239 85.99L121.364 85.7726Z" fill="black"/>
<path opacity="0.3" d="M122.942 86.4203C123.034 86.2954 123.016 86.2307 122.942 86.1752C122.868 86.1197 122.798 86.1289 122.724 86.2307L122.66 86.3232L122.451 86.1659L122.507 86.0919C122.533 86.0407 122.571 85.9962 122.617 85.9617C122.663 85.9273 122.717 85.9038 122.774 85.8931C122.83 85.8824 122.888 85.8848 122.944 85.9C123 85.9152 123.051 85.9429 123.094 85.9809C123.143 86.0114 123.185 86.0526 123.216 86.1013C123.247 86.1501 123.266 86.2052 123.273 86.2625C123.279 86.3198 123.273 86.3779 123.254 86.4325C123.235 86.487 123.204 86.5366 123.164 86.5775L123.136 86.6146C123.101 86.6781 123.047 86.7289 122.981 86.7597C122.915 86.7904 122.842 86.7995 122.771 86.7857C122.804 86.8517 122.816 86.9266 122.804 86.9997C122.792 87.0728 122.758 87.1403 122.706 87.1927L122.627 87.3037C122.6 87.3547 122.561 87.3988 122.514 87.4328C122.468 87.4667 122.414 87.4897 122.357 87.4999C122.3 87.5101 122.241 87.5074 122.186 87.4918C122.13 87.4763 122.079 87.4483 122.035 87.4101C121.986 87.3801 121.945 87.3394 121.914 87.291C121.883 87.2427 121.863 87.1879 121.857 87.1309C121.85 87.0739 121.856 87.0161 121.875 86.9619C121.894 86.9078 121.925 86.8586 121.966 86.8181L122.054 86.7024L122.262 86.8551L122.165 86.9846C122.091 87.0863 122.109 87.1557 122.165 87.2066C122.22 87.2575 122.303 87.2574 122.396 87.1326L122.479 87.0216C122.572 86.8921 122.562 86.8134 122.479 86.7394L122.405 86.6839L122.553 86.4804L122.636 86.5452C122.72 86.6053 122.798 86.6053 122.882 86.4943L122.942 86.4203Z" fill="black"/>
<path opacity="0.3" d="M123.349 86.7394C123.38 86.6882 123.422 86.6449 123.473 86.6128C123.523 86.5807 123.581 86.5608 123.64 86.5545C123.7 86.5482 123.76 86.5558 123.816 86.5767C123.872 86.5975 123.923 86.631 123.964 86.6747C124.009 86.7106 124.046 86.7563 124.071 86.8084C124.096 86.8604 124.109 86.9175 124.109 86.9753C124.109 87.0331 124.096 87.0902 124.071 87.1422C124.046 87.1943 124.009 87.24 123.964 87.2759L123.936 87.3083L123.742 87.1372L123.783 87.0909C123.867 86.9984 123.857 86.9244 123.783 86.8689C123.709 86.8134 123.635 86.8042 123.524 86.929L123.316 87.1649C123.363 87.1416 123.416 87.134 123.468 87.1432C123.52 87.1523 123.567 87.1778 123.603 87.2158C123.751 87.3499 123.737 87.5257 123.566 87.7153L123.353 87.9558C123.317 87.9968 123.273 88.0302 123.223 88.0542C123.174 88.0781 123.12 88.0921 123.066 88.0953C123.011 88.0985 122.956 88.0909 122.904 88.073C122.852 88.055 122.805 88.027 122.764 87.9905C122.723 87.9541 122.689 87.9099 122.665 87.8606C122.641 87.8112 122.627 87.7576 122.624 87.7028C122.621 87.6481 122.628 87.5932 122.646 87.5414C122.664 87.4896 122.692 87.4418 122.729 87.4008L123.349 86.7394ZM123.159 87.3684L122.951 87.6043C122.868 87.6968 122.882 87.7662 122.951 87.8263C123.02 87.8864 123.085 87.8865 123.168 87.7939L123.376 87.5581C123.46 87.4609 123.45 87.3916 123.376 87.3314C123.302 87.2713 123.242 87.2759 123.159 87.3684Z" fill="black"/>
<path opacity="0.3" d="M123.58 88.3859L123.39 88.5709L123.205 88.3812L123.395 88.1962L123.58 88.3859Z" fill="black"/>
<path opacity="0.3" d="M123.756 88.9779C123.713 88.9374 123.68 88.8878 123.659 88.8329C123.638 88.7779 123.63 88.719 123.635 88.6604C123.64 88.6019 123.658 88.5451 123.687 88.4944C123.717 88.4437 123.758 88.4003 123.806 88.3674L123.908 88.2795C123.955 88.2266 124.016 88.1882 124.084 88.1685C124.152 88.1489 124.224 88.1489 124.292 88.1685C124.281 88.1007 124.29 88.0313 124.317 87.9682C124.344 87.9051 124.388 87.851 124.445 87.8123L124.482 87.7753C124.522 87.732 124.571 87.698 124.626 87.676C124.68 87.6539 124.739 87.6443 124.798 87.6479C124.857 87.6514 124.914 87.668 124.966 87.6965C125.018 87.7249 125.062 87.7645 125.097 87.8123C125.139 87.8529 125.172 87.9024 125.193 87.9573C125.214 88.0123 125.223 88.0712 125.218 88.1298C125.213 88.1884 125.195 88.2451 125.165 88.2958C125.135 88.3465 125.095 88.3899 125.046 88.4229L125.004 88.4599C124.957 88.5099 124.898 88.5458 124.831 88.5638C124.765 88.5818 124.695 88.581 124.63 88.5616C124.639 88.6316 124.629 88.7028 124.601 88.7674C124.572 88.8319 124.526 88.8872 124.468 88.927L124.366 89.0195C124.326 89.0618 124.277 89.0947 124.222 89.1159C124.168 89.137 124.109 89.1459 124.051 89.142C123.993 89.138 123.936 89.1212 123.885 89.0929C123.834 89.0645 123.79 89.0253 123.756 88.9779ZM123.945 88.816C124.001 88.8807 124.075 88.9039 124.195 88.816L124.315 88.7096C124.417 88.6217 124.426 88.5385 124.361 88.4645C124.297 88.3905 124.218 88.3859 124.112 88.4645L123.991 88.5709C123.876 88.6911 123.885 88.7697 123.945 88.8345V88.816ZM124.588 88.0482C124.482 88.1407 124.491 88.2193 124.551 88.2887C124.611 88.3581 124.685 88.372 124.792 88.2887L124.866 88.2286C124.981 88.1222 124.972 88.0436 124.912 87.9788C124.852 87.9141 124.778 87.891 124.662 87.9788L124.588 88.0482Z" fill="black"/>
<path opacity="0.3" d="M124.875 89.57L125.985 88.9872L126.212 89.2971L124.801 90.3239L124.648 90.1158L125.657 89.3757L124.537 89.9585L124.385 89.7504L125.263 88.8623L124.269 89.5931L124.126 89.3989L125.536 88.3721L125.763 88.6773L124.875 89.57Z" fill="black"/>
<path opacity="0.3" d="M125.596 90.7401L126.776 90.3146L126.961 90.6476L125.421 91.4755L125.296 91.2489L126.401 90.6569L125.213 91.087L125.088 90.8558L126.082 90.0972L124.991 90.68L124.88 90.4719L126.42 89.644L126.6 89.977L125.596 90.7401Z" fill="black"/>
<path opacity="0.3" d="M127.114 91.5773C127.129 91.6448 127.17 91.704 127.227 91.7426C127.285 91.7813 127.355 91.7966 127.423 91.7854L127.488 91.9565L125.846 92.5671L125.754 92.308L127.003 91.8455L126.929 91.6467L127.114 91.5773Z" fill="black"/>
<path opacity="0.3" d="M126.267 93.0297L126.017 93.1037L125.939 92.8539L126.193 92.7753L126.267 93.0297ZM127.192 92.7568L126.938 92.8354L126.864 92.581L127.118 92.507L127.192 92.7568Z" fill="black"/>
<path opacity="0.3" d="M127.613 93.1036C127.62 93.1727 127.653 93.2365 127.705 93.282C127.758 93.3276 127.826 93.3514 127.895 93.3487L127.937 93.5291L126.235 93.9176L126.175 93.6494L127.474 93.3533L127.423 93.1498L127.613 93.1036Z" fill="black"/>
<path opacity="0.3" d="M126.572 94.4219L126.313 94.4681L126.272 94.2045L126.531 94.1628L126.572 94.4219Z" fill="black"/>
<path opacity="0.3" d="M126.36 95.0323C126.348 94.9746 126.35 94.9152 126.365 94.8585C126.38 94.8017 126.408 94.7491 126.446 94.7046C126.485 94.6601 126.533 94.6248 126.586 94.6015C126.64 94.5781 126.699 94.5673 126.757 94.5697H126.891C126.96 94.5541 127.032 94.5584 127.098 94.5822C127.165 94.6059 127.223 94.6482 127.266 94.7039C127.295 94.642 127.342 94.5898 127.4 94.5537C127.459 94.5176 127.526 94.4991 127.595 94.5004H127.65C127.707 94.4927 127.766 94.4966 127.821 94.5119C127.877 94.5272 127.929 94.5536 127.975 94.5895C128.02 94.6254 128.057 94.6701 128.085 94.7209C128.113 94.7716 128.13 94.8275 128.136 94.885C128.141 94.9426 128.135 95.0006 128.118 95.0558C128.1 95.111 128.072 95.162 128.035 95.206C127.997 95.25 127.951 95.2859 127.899 95.3117C127.847 95.3375 127.791 95.3525 127.733 95.356H127.678C127.61 95.3693 127.54 95.3634 127.475 95.3388C127.411 95.3143 127.354 95.2722 127.312 95.2173C127.279 95.2792 127.23 95.331 127.17 95.3669C127.109 95.4028 127.04 95.4214 126.97 95.4208H126.831C126.774 95.4325 126.715 95.4312 126.658 95.4171C126.601 95.403 126.548 95.3763 126.503 95.3391C126.458 95.3018 126.421 95.2549 126.396 95.2019C126.372 95.1488 126.359 95.0908 126.36 95.0323ZM126.609 95.0091C126.609 95.097 126.665 95.1571 126.817 95.1433H126.979C127.118 95.1433 127.169 95.0646 127.16 94.9675C127.15 94.8704 127.086 94.8195 126.952 94.8334H126.79C126.637 94.8519 126.6 94.9213 126.609 94.9906V95.0091ZM127.581 94.7594C127.437 94.7594 127.4 94.8426 127.41 94.9305C127.419 95.0184 127.47 95.0831 127.608 95.0693H127.706C127.863 95.0693 127.895 94.9814 127.891 94.8981C127.886 94.8149 127.83 94.7455 127.673 94.7594H127.581Z" fill="black"/>
<path opacity="0.3" d="M127.428 95.9573V96.4568H127.151V95.9619L127.428 95.9573Z" fill="black"/>
<path opacity="0.3" d="M127.854 97.5437C127.854 97.4558 127.826 97.3957 127.701 97.3819L127.516 97.3587L127.548 97.0997H127.715C127.772 97.1012 127.828 97.1147 127.88 97.1392C127.932 97.1637 127.978 97.1988 128.015 97.2421C128.053 97.2854 128.081 97.336 128.097 97.3908C128.114 97.4455 128.119 97.5031 128.113 97.56C128.106 97.6168 128.087 97.6716 128.058 97.7209C128.029 97.7701 127.99 97.8128 127.943 97.8461C127.897 97.8794 127.844 97.9026 127.788 97.9142C127.732 97.9259 127.674 97.9257 127.618 97.9137C127.487 97.8924 127.362 97.8445 127.251 97.7728C127.139 97.7012 127.044 97.6075 126.97 97.4975C126.818 97.3125 126.744 97.2616 126.651 97.2477H126.614L126.549 97.7657L126.304 97.738L126.397 96.9471L126.609 96.9748C126.715 96.9912 126.817 97.0298 126.907 97.088C126.997 97.1461 127.074 97.2226 127.132 97.3125C127.188 97.4012 127.262 97.4769 127.35 97.5344C127.438 97.5919 127.537 97.6297 127.641 97.6455C127.798 97.6779 127.844 97.627 127.854 97.5437Z" fill="black"/>
<path opacity="0.3" d="M126.48 98.2283L126.221 98.1774L126.267 97.9184L126.526 97.9693L126.48 98.2283Z" fill="black"/>
<path opacity="0.3" d="M126.073 98.7278C126.082 98.6697 126.104 98.6143 126.137 98.5657C126.171 98.5171 126.214 98.4765 126.265 98.4469C126.316 98.4172 126.373 98.3993 126.432 98.3943C126.49 98.3893 126.55 98.3973 126.605 98.4179L126.734 98.4549C126.804 98.4647 126.87 98.4936 126.925 98.5385C126.98 98.5834 127.021 98.6425 127.044 98.7093C127.093 98.661 127.155 98.6279 127.222 98.6139C127.289 98.6 127.359 98.6058 127.423 98.6307H127.479C127.589 98.6589 127.683 98.7296 127.74 98.8272C127.798 98.9247 127.815 99.0412 127.786 99.151C127.758 99.2608 127.688 99.3549 127.59 99.4126C127.492 99.4703 127.376 99.4868 127.266 99.4586H127.211C127.143 99.4465 127.08 99.4166 127.028 99.3718C126.976 99.3271 126.937 99.2692 126.915 99.2042C126.864 99.2523 126.8 99.2852 126.732 99.2991C126.663 99.313 126.592 99.3074 126.526 99.2829L126.392 99.2459C126.334 99.2389 126.278 99.2189 126.229 99.1874C126.18 99.1559 126.138 99.1137 126.107 99.0639C126.077 99.0141 126.058 98.958 126.052 98.8998C126.046 98.8416 126.053 98.7828 126.073 98.7278ZM126.313 98.788C126.29 98.8758 126.313 98.9452 126.466 98.9868L126.623 99.0285C126.757 99.0609 126.827 99.0285 126.854 98.9267C126.882 98.825 126.831 98.7602 126.702 98.7278L126.545 98.6862C126.392 98.6492 126.336 98.6908 126.313 98.788ZM127.312 98.8851C127.174 98.8481 127.118 98.8851 127.095 98.9868C127.072 99.0886 127.095 99.1487 127.234 99.1811L127.326 99.2088C127.479 99.2459 127.539 99.2088 127.562 99.1071C127.585 99.0053 127.562 98.9452 127.405 98.9082L127.312 98.8851Z" fill="black"/>
<path opacity="0.3" d="M118.118 107.576L117.748 107.65L117.697 107.405L118.067 107.331L117.965 106.831L117.502 106.924L117.452 106.678L118.182 106.53L118.534 108.242L117.803 108.39L117.752 108.145L118.215 108.052L118.118 107.576Z" fill="black"/>
<path opacity="0.3" d="M117.225 107.983L117.082 106.729L117.327 106.702L117.526 108.436L117.183 108.473L116.79 107.465L116.906 108.505L116.665 108.533L116.466 106.799L116.744 106.766L117.225 107.983Z" fill="black"/>
<path opacity="0.3" d="M115.985 108.579C115.717 108.579 115.578 108.431 115.569 108.154V108.098H115.828V108.172C115.828 108.297 115.884 108.344 115.971 108.344C116.059 108.344 116.106 108.293 116.106 108.168C116.106 108.043 116.045 107.946 115.86 107.793C115.768 107.736 115.692 107.657 115.637 107.564C115.582 107.47 115.551 107.365 115.546 107.257C115.533 107.199 115.533 107.139 115.548 107.081C115.562 107.023 115.589 106.97 115.628 106.925C115.667 106.88 115.716 106.845 115.77 106.822C115.825 106.799 115.885 106.79 115.944 106.794C116.212 106.794 116.355 106.942 116.365 107.22V107.326H116.106V107.201C116.106 107.076 116.045 107.03 115.958 107.035C115.87 107.039 115.814 107.081 115.819 107.206C115.823 107.331 115.879 107.428 116.064 107.58C116.155 107.638 116.231 107.717 116.286 107.811C116.341 107.904 116.373 108.009 116.378 108.117C116.383 108.404 116.249 108.575 115.985 108.579Z" fill="black"/>
<path opacity="0.3" d="M114.288 106.706C114.347 106.708 114.405 106.724 114.457 106.751C114.509 106.779 114.555 106.818 114.59 106.866C114.625 106.913 114.649 106.968 114.66 107.026C114.671 107.084 114.669 107.144 114.653 107.201V107.335C114.652 107.406 114.631 107.476 114.593 107.535C114.555 107.595 114.5 107.643 114.436 107.673C114.49 107.715 114.53 107.772 114.551 107.837C114.573 107.902 114.574 107.972 114.556 108.038V108.094C114.553 108.153 114.537 108.21 114.51 108.263C114.483 108.315 114.446 108.362 114.401 108.399C114.355 108.437 114.302 108.465 114.246 108.481C114.189 108.497 114.13 108.502 114.071 108.494C114.013 108.487 113.956 108.467 113.906 108.437C113.855 108.406 113.811 108.366 113.777 108.318C113.743 108.27 113.719 108.216 113.706 108.158C113.694 108.1 113.693 108.041 113.705 107.983V107.927C113.705 107.858 113.725 107.791 113.763 107.733C113.801 107.676 113.855 107.631 113.918 107.603C113.864 107.558 113.824 107.499 113.802 107.431C113.781 107.364 113.779 107.292 113.798 107.224V107.085C113.798 107.026 113.812 106.967 113.838 106.913C113.865 106.86 113.903 106.813 113.95 106.776C113.997 106.74 114.052 106.714 114.111 106.702C114.169 106.69 114.23 106.691 114.288 106.706ZM114.288 107.955C114.288 107.816 114.246 107.765 114.158 107.756C114.071 107.747 114.001 107.756 113.983 107.918V108.011C113.983 108.168 114.024 108.219 114.112 108.233C114.2 108.246 114.269 108.209 114.288 108.052V107.955ZM114.265 106.956C114.177 106.956 114.108 106.979 114.084 107.132V107.289C114.084 107.428 114.112 107.492 114.209 107.506C114.306 107.52 114.371 107.469 114.39 107.331V107.169C114.404 107.016 114.343 106.965 114.256 106.956H114.265Z" fill="black"/>
<path opacity="0.3" d="M113.418 106.85L113.469 106.591L113.728 106.642L113.677 106.901L113.418 106.85Z" fill="black"/>
<path opacity="0.3" d="M112.928 106.443C112.986 106.452 113.042 106.474 113.09 106.507C113.139 106.54 113.179 106.584 113.208 106.635C113.238 106.686 113.255 106.743 113.259 106.802C113.264 106.861 113.255 106.92 113.233 106.975L113.196 107.109C113.187 107.178 113.159 107.244 113.114 107.298C113.069 107.352 113.009 107.392 112.942 107.414C112.988 107.465 113.02 107.528 113.033 107.595C113.046 107.663 113.04 107.733 113.016 107.798V107.849C112.987 107.959 112.916 108.054 112.817 108.111C112.719 108.169 112.601 108.185 112.491 108.156C112.381 108.127 112.286 108.056 112.228 107.957C112.171 107.859 112.155 107.742 112.183 107.631V107.58C112.194 107.512 112.223 107.448 112.268 107.396C112.313 107.344 112.372 107.305 112.438 107.284C112.391 107.232 112.36 107.167 112.348 107.098C112.336 107.028 112.343 106.957 112.368 106.891L112.401 106.757C112.41 106.699 112.431 106.644 112.464 106.595C112.497 106.546 112.54 106.506 112.59 106.476C112.641 106.445 112.697 106.427 112.755 106.421C112.814 106.416 112.873 106.423 112.928 106.443ZM112.762 107.682C112.799 107.548 112.762 107.483 112.66 107.465C112.558 107.446 112.498 107.465 112.466 107.604L112.438 107.696C112.401 107.849 112.438 107.904 112.54 107.927C112.641 107.95 112.697 107.927 112.738 107.775L112.762 107.682ZM112.863 106.683C112.78 106.683 112.706 106.683 112.664 106.836L112.623 106.993C112.59 107.123 112.623 107.197 112.725 107.22C112.826 107.243 112.886 107.22 112.923 107.072L112.965 106.914C113.002 106.766 112.951 106.706 112.863 106.683Z" fill="black"/>
<path opacity="0.3" d="M111.679 107.118L111.217 106.942L111.305 106.706L111.767 106.887L111.679 107.118Z" fill="black"/>
<path opacity="0.3" d="M110.037 106.729C109.963 106.868 109.996 106.933 110.07 106.975C110.144 107.016 110.218 106.975 110.278 106.887L110.329 106.785L110.56 106.905L110.514 106.988C110.496 107.044 110.466 107.094 110.426 107.135C110.385 107.177 110.336 107.209 110.282 107.229C110.227 107.248 110.169 107.255 110.111 107.249C110.054 107.242 109.998 107.223 109.95 107.192C109.896 107.169 109.849 107.135 109.811 107.092C109.773 107.049 109.745 106.997 109.729 106.942C109.714 106.886 109.711 106.828 109.721 106.771C109.731 106.714 109.754 106.661 109.788 106.614L109.811 106.572C109.894 106.406 110 106.332 110.144 106.346C110.102 106.285 110.079 106.213 110.079 106.14C110.079 106.066 110.102 105.994 110.144 105.934L110.209 105.809C110.23 105.756 110.262 105.707 110.304 105.667C110.345 105.627 110.394 105.596 110.448 105.576C110.502 105.556 110.559 105.548 110.617 105.552C110.674 105.555 110.73 105.571 110.781 105.598C110.832 105.624 110.877 105.661 110.913 105.706C110.948 105.751 110.974 105.803 110.989 105.859C111.003 105.915 111.006 105.973 110.997 106.029C110.987 106.086 110.966 106.14 110.935 106.188L110.87 106.313L110.639 106.198L110.713 106.054C110.768 105.943 110.745 105.874 110.666 105.832C110.588 105.791 110.518 105.804 110.449 105.943L110.384 106.063C110.31 106.211 110.333 106.29 110.444 106.346L110.528 106.387L110.412 106.609L110.315 106.558C110.227 106.512 110.148 106.526 110.084 106.651L110.037 106.729Z" fill="black"/>
<path opacity="0.3" d="M109.575 106.489C109.55 106.542 109.514 106.588 109.47 106.626C109.426 106.664 109.374 106.692 109.318 106.709C109.262 106.726 109.204 106.731 109.146 106.723C109.088 106.716 109.032 106.696 108.983 106.666C108.933 106.636 108.89 106.595 108.857 106.548C108.824 106.5 108.801 106.445 108.79 106.388C108.779 106.331 108.78 106.272 108.794 106.215C108.807 106.158 108.832 106.105 108.867 106.059L108.895 106.022L109.112 106.161L109.08 106.211C109.011 106.318 109.034 106.387 109.108 106.433C109.182 106.48 109.26 106.475 109.348 106.332L109.519 106.068C109.477 106.099 109.426 106.115 109.374 106.115C109.321 106.115 109.27 106.099 109.228 106.068C109.057 105.962 109.048 105.786 109.182 105.568L109.353 105.3C109.383 105.254 109.422 105.214 109.468 105.183C109.514 105.152 109.565 105.131 109.619 105.119C109.673 105.108 109.729 105.108 109.784 105.118C109.838 105.129 109.889 105.15 109.936 105.18C109.982 105.21 110.022 105.25 110.053 105.295C110.084 105.341 110.105 105.392 110.116 105.446C110.128 105.501 110.128 105.556 110.118 105.611C110.107 105.665 110.086 105.717 110.056 105.763L109.575 106.489ZM109.663 105.837L109.829 105.573C109.899 105.467 109.876 105.397 109.802 105.351C109.728 105.305 109.658 105.314 109.589 105.42L109.422 105.684C109.357 105.79 109.376 105.86 109.45 105.906C109.524 105.952 109.598 105.943 109.663 105.837Z" fill="black"/>
<path opacity="0.3" d="M109.08 104.898L109.237 104.685L109.45 104.842L109.297 105.055L109.08 104.898Z" fill="black"/>
<path opacity="0.3" d="M108.807 104.32C108.856 104.353 108.897 104.397 108.926 104.448C108.956 104.499 108.974 104.556 108.979 104.615C108.984 104.674 108.975 104.733 108.954 104.789C108.934 104.844 108.901 104.894 108.858 104.935L108.77 105.037C108.732 105.096 108.678 105.143 108.614 105.173C108.55 105.204 108.479 105.216 108.409 105.208C108.431 105.272 108.435 105.342 108.418 105.409C108.402 105.475 108.367 105.535 108.317 105.582L108.28 105.624C108.246 105.673 108.202 105.714 108.151 105.745C108.1 105.776 108.043 105.796 107.984 105.804C107.924 105.812 107.864 105.808 107.807 105.791C107.75 105.774 107.696 105.746 107.651 105.708C107.605 105.669 107.568 105.622 107.541 105.568C107.515 105.515 107.5 105.456 107.497 105.397C107.495 105.337 107.504 105.278 107.526 105.222C107.548 105.166 107.581 105.116 107.623 105.074L107.655 105.032C107.695 104.976 107.749 104.931 107.811 104.903C107.874 104.876 107.943 104.866 108.012 104.875C107.99 104.808 107.987 104.737 108.004 104.669C108.022 104.601 108.058 104.539 108.109 104.491L108.197 104.384C108.228 104.335 108.271 104.293 108.321 104.262C108.371 104.231 108.428 104.212 108.486 104.205C108.545 104.199 108.604 104.206 108.66 104.226C108.715 104.246 108.766 104.278 108.807 104.32ZM108.136 105.37C108.224 105.263 108.201 105.189 108.136 105.129C108.072 105.069 107.988 105.069 107.901 105.175L107.84 105.249C107.739 105.37 107.762 105.444 107.84 105.499C107.919 105.555 107.984 105.568 108.086 105.448L108.136 105.37ZM108.65 104.514C108.58 104.458 108.506 104.449 108.405 104.565L108.303 104.69C108.215 104.796 108.22 104.879 108.303 104.939C108.386 105 108.46 104.995 108.548 104.889L108.65 104.764C108.742 104.643 108.715 104.569 108.65 104.514Z" fill="black"/>
<path opacity="0.3" d="M107.609 103.927L106.592 104.657L106.323 104.384L107.577 103.168L107.757 103.353L106.855 104.241L107.882 103.501L108.062 103.686L107.318 104.69L108.206 103.825L108.372 104.001L107.119 105.217L106.855 104.944L107.609 103.927Z" fill="black"/>
<path opacity="0.3" d="M106.721 102.9L105.625 103.506L105.394 103.205L106.781 102.146L106.934 102.349L105.944 103.108L107.049 102.497L107.207 102.701L106.351 103.626L107.332 102.877L107.48 103.071L106.092 104.13L105.861 103.825L106.721 102.9Z" fill="black"/>
<path opacity="0.3" d="M105.093 102.308C105.066 102.243 105.016 102.192 104.952 102.163C104.889 102.135 104.817 102.132 104.751 102.155L104.663 101.993L106.18 101.133L106.314 101.369L105.158 102.026L105.26 102.211L105.093 102.308Z" fill="black"/>
<path opacity="0.3" d="M104.834 101.156L105.074 101.04L105.19 101.276L104.95 101.392L104.834 101.156ZM105.69 100.74L105.93 100.624L106.046 100.865L105.805 100.98L105.69 100.74Z" fill="black"/>
<path opacity="0.3" d="M104.372 100.883C104.354 100.817 104.312 100.759 104.253 100.723C104.195 100.687 104.124 100.675 104.057 100.689L103.988 100.518L105.602 99.861L105.704 100.115L104.487 100.615L104.566 100.809L104.372 100.883Z" fill="black"/>
<path opacity="0.3" d="M105.167 99.4031L105.417 99.3198L105.5 99.5696L105.25 99.6528L105.167 99.4031Z" fill="black"/>
<path opacity="0.3" d="M105.283 98.7787C105.303 98.834 105.31 98.893 105.304 98.9515C105.298 99.0099 105.279 99.0663 105.248 99.1164C105.218 99.1666 105.176 99.2092 105.127 99.2412C105.078 99.2732 105.022 99.2938 104.964 99.3014L104.834 99.3384C104.768 99.3634 104.696 99.3697 104.627 99.3566C104.558 99.3436 104.493 99.3116 104.441 99.2644C104.42 99.3301 104.382 99.3888 104.329 99.4338C104.277 99.4787 104.213 99.5081 104.145 99.5187H104.089C104.034 99.5359 103.975 99.5415 103.917 99.5353C103.859 99.5291 103.803 99.5113 103.753 99.4828C103.702 99.4543 103.657 99.4158 103.622 99.3696C103.586 99.3234 103.561 99.2705 103.546 99.2141C103.532 99.1577 103.529 99.0989 103.538 99.0414C103.547 98.9839 103.568 98.9287 103.598 98.8794C103.629 98.83 103.67 98.7875 103.718 98.7543C103.766 98.7211 103.82 98.6979 103.877 98.6862H103.928C103.992 98.6615 104.063 98.6558 104.131 98.6697C104.199 98.6836 104.262 98.7166 104.311 98.7648C104.333 98.6981 104.374 98.6388 104.428 98.5938C104.482 98.5489 104.547 98.52 104.617 98.5104L104.751 98.4781C104.805 98.4566 104.864 98.4476 104.922 98.4516C104.981 98.4557 105.037 98.4728 105.088 98.5016C105.139 98.5304 105.183 98.5702 105.217 98.6182C105.251 98.6661 105.273 98.721 105.283 98.7787ZM104.122 99.2412C104.256 99.2089 104.284 99.1348 104.261 99.047C104.237 98.9591 104.177 98.9082 104.043 98.9452H103.951C103.798 98.9822 103.775 99.0609 103.793 99.1441C103.812 99.2274 103.877 99.2829 104.029 99.2459L104.122 99.2412ZM105.047 98.8435C105.047 98.7602 104.968 98.7093 104.816 98.7417L104.658 98.7833C104.524 98.8203 104.483 98.8897 104.506 98.9822C104.529 99.0747 104.603 99.121 104.737 99.084L104.894 99.0424C105.038 99.0007 105.065 98.9221 105.042 98.8388L105.047 98.8435Z" fill="black"/>
<path opacity="0.3" d="M104.08 98.0341L104.006 97.5438L104.256 97.5068L104.325 98.0017L104.08 98.0341Z" fill="black"/>
<path opacity="0.3" d="M103.405 96.5308C103.405 96.6187 103.46 96.6696 103.585 96.665H103.77V96.924H103.599C103.542 96.937 103.482 96.9365 103.425 96.9225C103.368 96.9084 103.314 96.8812 103.27 96.8431C103.225 96.8049 103.189 96.7569 103.166 96.7027C103.143 96.6485 103.133 96.5896 103.137 96.5308C103.137 96.2626 103.28 96.1192 103.562 96.1053C103.695 96.1062 103.826 96.1346 103.947 96.1888C104.068 96.2429 104.176 96.3216 104.265 96.4198C104.446 96.5725 104.529 96.6187 104.621 96.6141H104.658V96.0961H104.908L104.936 96.887H104.723C104.616 96.8878 104.51 96.8655 104.413 96.8216C104.316 96.7777 104.229 96.7132 104.159 96.6326C104.088 96.554 104.002 96.4914 103.906 96.4491C103.809 96.4069 103.705 96.3858 103.599 96.3875C103.442 96.3782 103.4 96.443 103.405 96.5308Z" fill="black"/>
<path opacity="0.3" d="M104.658 95.6475H104.922V95.9157H104.654L104.658 95.6475Z" fill="black"/>
<path opacity="0.3" d="M104.982 95.0925C104.982 95.1501 104.97 95.2071 104.946 95.2594C104.921 95.3116 104.886 95.358 104.842 95.395C104.798 95.4321 104.746 95.459 104.69 95.4739C104.634 95.4887 104.576 95.4911 104.519 95.481H104.381C104.31 95.4838 104.24 95.4661 104.179 95.4299C104.119 95.3938 104.07 95.3409 104.038 95.2775C103.997 95.3332 103.941 95.376 103.876 95.4006C103.811 95.4252 103.741 95.4306 103.673 95.4162H103.618C103.559 95.4137 103.502 95.3994 103.45 95.3742C103.397 95.349 103.35 95.3134 103.312 95.2695C103.274 95.2256 103.245 95.1744 103.227 95.119C103.209 95.0636 103.202 95.0051 103.208 94.9471C103.213 94.8891 103.23 94.8328 103.258 94.7816C103.286 94.7304 103.323 94.6853 103.369 94.6492C103.415 94.613 103.467 94.5865 103.524 94.5713C103.58 94.5561 103.638 94.5524 103.696 94.5606H103.752C103.821 94.5595 103.889 94.5781 103.948 94.6141C104.007 94.6502 104.054 94.7021 104.085 94.7641C104.128 94.7084 104.186 94.6659 104.252 94.6414C104.318 94.6169 104.39 94.6113 104.459 94.6253H104.598C104.656 94.6264 104.712 94.64 104.764 94.6651C104.815 94.6901 104.861 94.7261 104.898 94.7705C104.934 94.8149 104.961 94.8666 104.975 94.9222C104.99 94.9778 104.992 95.0359 104.982 95.0925ZM103.733 95.1341C103.872 95.1341 103.923 95.0878 103.932 94.9953C103.941 94.9028 103.9 94.8381 103.761 94.8242H103.664C103.507 94.8242 103.46 94.8751 103.451 94.963C103.442 95.0508 103.479 95.1202 103.636 95.1341H103.733ZM104.732 95.0693C104.732 94.9861 104.704 94.9167 104.552 94.8982H104.39C104.251 94.8982 104.186 94.9352 104.177 95.0323C104.168 95.1295 104.223 95.1942 104.362 95.2035H104.524C104.677 95.222 104.723 95.1572 104.732 95.0693Z" fill="black"/>
</g>
<path d="M124.274 92.5994V99.5371C124.274 100.412 123.926 101.251 123.308 101.871C122.69 102.49 121.851 102.838 120.976 102.84H110.366C109.491 102.837 108.654 102.488 108.037 101.869C107.419 101.25 107.073 100.411 107.073 99.5371V92.5994C107.073 91.7259 107.419 90.8881 108.035 90.2691C108.651 89.6502 109.488 89.3007 110.361 89.297H120.999C121.87 89.3043 122.703 89.6555 123.316 90.274C123.93 90.8925 124.274 91.7283 124.274 92.5994Z" fill="#757575" stroke="#263238" stroke-linecap="round" stroke-linejoin="round"/>
<path opacity="0.3" d="M124.274 92.5994V99.5371C124.274 100.412 123.926 101.251 123.308 101.871C122.69 102.49 121.851 102.838 120.976 102.84H110.366C109.491 102.837 108.654 102.488 108.037 101.869C107.419 101.25 107.073 100.411 107.073 99.5371V92.5994C107.073 91.7259 107.419 90.8881 108.035 90.2691C108.651 89.6502 109.488 89.3007 110.361 89.297H120.999C121.87 89.3043 122.703 89.6555 123.316 90.274C123.93 90.8925 124.274 91.7283 124.274 92.5994Z" fill="black" fill-opacity="0.7"/>
<path opacity="0.3" d="M119.315 89.297H117.267C118.802 89.6444 120.173 90.5034 121.155 91.733C122.138 92.9627 122.673 94.4898 122.673 96.0636C122.673 97.6375 122.138 99.1646 121.155 100.394C120.173 101.624 118.802 102.483 117.267 102.83H119.288C120.51 102.173 121.532 101.197 122.244 100.005C122.956 98.8139 123.333 97.4517 123.333 96.0636C123.333 94.6755 122.956 93.3134 122.244 92.1219C121.532 90.9305 120.51 89.9543 119.288 89.297H119.315ZM114.075 89.297H112.031C110.808 89.9543 109.787 90.9305 109.074 92.1219C108.362 93.3134 107.986 94.6755 107.986 96.0636C107.986 97.4517 108.362 98.8139 109.074 100.005C109.787 101.197 110.808 102.173 112.031 102.83H114.066C112.531 102.483 111.16 101.624 110.177 100.394C109.195 99.1646 108.66 97.6375 108.66 96.0636C108.66 94.4898 109.195 92.9627 110.177 91.733C111.16 90.5034 112.531 89.6444 114.066 89.297H114.075Z" fill="black" fill-opacity="0.7"/>
<path opacity="0.3" d="M115.671 89.9677C114.465 89.9677 113.286 90.3252 112.284 90.995C111.282 91.6648 110.5 92.6169 110.039 93.7308C109.577 94.8447 109.457 96.0704 109.692 97.2529C109.927 98.4354 110.508 99.5216 111.36 100.374C112.213 101.227 113.299 101.807 114.481 102.043C115.664 102.278 116.89 102.157 118.004 101.696C119.117 101.234 120.07 100.453 120.739 99.4504C121.409 98.4479 121.767 97.2693 121.767 96.0636C121.767 94.4469 121.124 92.8963 119.981 91.7531C118.838 90.6099 117.288 89.9677 115.671 89.9677ZM115.671 100.999C114.694 100.999 113.738 100.709 112.926 100.166C112.114 99.6229 111.48 98.8512 111.107 97.9483C110.733 97.0454 110.635 96.052 110.826 95.0936C111.017 94.1353 111.488 93.2551 112.18 92.5645C112.871 91.8738 113.751 91.4038 114.71 91.2137C115.668 91.0236 116.662 91.1221 117.564 91.4967C118.467 91.8712 119.238 92.5051 119.78 93.318C120.322 94.131 120.611 95.0865 120.61 96.0636C120.611 96.7125 120.484 97.3551 120.236 97.9547C119.988 98.5543 119.624 99.0991 119.165 99.5579C118.706 100.017 118.161 100.381 117.562 100.629C116.962 100.877 116.32 101.004 115.671 101.003V100.999Z" fill="black" fill-opacity="0.7"/>
<path d="M115.671 99.4863C117.561 99.4863 119.093 97.9539 119.093 96.0636C119.093 94.1734 117.561 92.641 115.671 92.641C113.78 92.641 112.248 94.1734 112.248 96.0636C112.248 97.9539 113.78 99.4863 115.671 99.4863Z" fill="#263238"/>
<path d="M115.671 101.239C118.529 101.239 120.846 98.922 120.846 96.0636C120.846 93.2052 118.529 90.8881 115.671 90.8881C112.812 90.8881 110.495 93.2052 110.495 96.0636C110.495 98.922 112.812 101.239 115.671 101.239Z" stroke="#263238" stroke-linecap="round" stroke-linejoin="round"/>
<path d="M122.622 96.0591C122.631 97.6308 122.106 99.159 121.133 100.393C120.16 101.628 118.797 102.495 117.267 102.853H114.075C112.54 102.506 111.169 101.647 110.186 100.417C109.204 99.1878 108.669 97.6607 108.669 96.0868C108.669 94.5129 109.204 92.9858 110.186 91.7562C111.169 90.5266 112.54 89.6676 114.075 89.3202H117.267C118.788 89.6764 120.144 90.5355 121.116 91.7585C122.088 92.9816 122.619 94.4968 122.622 96.0591V96.0591Z" stroke="#263238" stroke-linecap="round" stroke-linejoin="round"/>
<path d="M124.274 96.0591C124.279 97.3681 123.984 98.661 123.413 99.8386C122.841 101.016 122.007 102.048 120.976 102.853H110.37C109.344 102.049 108.515 101.022 107.944 99.8496C107.373 98.6773 107.077 97.3906 107.077 96.0868C107.077 94.7831 107.373 93.4964 107.944 92.3241C108.515 91.1518 109.344 90.1246 110.37 89.3202H121.008C122.026 90.124 122.848 91.1479 123.414 92.315C123.98 93.4821 124.273 94.7622 124.274 96.0591V96.0591Z" stroke="#263238" stroke-linecap="round" stroke-linejoin="round"/>
<path d="M139.472 77.9977H133.071C132.734 77.9977 132.46 78.2711 132.46 78.6083V80.2363C132.46 80.5735 132.734 80.8469 133.071 80.8469H139.472C139.809 80.8469 140.082 80.5735 140.082 80.2363V78.6083C140.082 78.2711 139.809 77.9977 139.472 77.9977Z" fill="#BFBFBF" stroke="#263238" stroke-linecap="round" stroke-linejoin="round"/>
<path d="M136.521 78.562H133.265C133.071 78.562 132.913 78.7193 132.913 78.9135V79.2881C132.913 79.4822 133.071 79.6396 133.265 79.6396H136.521C136.715 79.6396 136.873 79.4822 136.873 79.2881V78.9135C136.873 78.7193 136.715 78.562 136.521 78.562Z" fill="white"/>
<path d="M138.075 78.562H137.594C137.4 78.562 137.243 78.7193 137.243 78.9135V79.2881C137.243 79.4822 137.4 79.6396 137.594 79.6396H138.075C138.269 79.6396 138.427 79.4822 138.427 79.2881V78.9135C138.427 78.7193 138.269 78.562 138.075 78.562Z" fill="white"/>
<path d="M100.953 79.0708H97.9563C97.6038 79.0708 97.3181 79.3566 97.3181 79.7091V81.1475C97.3181 81.5 97.6038 81.7858 97.9563 81.7858H100.953C101.306 81.7858 101.592 81.5 101.592 81.1475V79.7091C101.592 79.3566 101.306 79.0708 100.953 79.0708Z" fill="#263238"/>
<path opacity="0.2" d="M100.88 79.6813H98.7196C98.4948 79.6813 98.3125 79.8635 98.3125 80.0883V81.1151C98.3125 81.3399 98.4948 81.5221 98.7196 81.5221H100.88C101.104 81.5221 101.287 81.3399 101.287 81.1151V80.0883C101.287 79.8635 101.104 79.6813 100.88 79.6813Z" fill="white"/>
<path d="M214.511 130.179C212.661 128.167 208.655 126.534 207.282 123.329C206.713 121.98 205.777 120.819 204.581 119.976C203.819 119.442 203.203 118.724 202.791 117.89C201.547 115.337 199.239 113.052 196.214 108.783C192.648 103.755 191.089 99.4539 189.808 97.8998C188.527 96.3458 185.146 93.603 185.146 93.603C183.758 90.222 182.065 89.0241 182.065 89.0241C182.065 89.0241 179.928 85.0002 178.189 83.534C176.45 82.0678 174.165 81.98 171.788 82.0725C169.411 82.165 164.254 80.9717 164.254 80.9717C164.254 80.9717 156.506 79.2326 153.856 79.2326H148.274C148.274 79.2326 146.72 79.6026 145.989 80.6988C145.258 81.795 140.406 89.6624 139.218 93.048C138.029 96.4337 137.751 98.3531 138.209 100.185C138.667 102.016 139.768 106.04 139.768 106.04C139.768 106.04 142.326 113.635 142.418 114.638C142.511 115.642 148.181 116.562 148.366 111.803C148.366 111.803 149.097 114.731 150.216 116.562C151.336 118.394 154.513 117.566 155.063 116.743C155.063 116.743 157.26 122.325 157.441 123.681C157.621 125.036 159.73 125.142 160.919 123.953C162.108 122.765 163.116 118.556 162.38 116.451C162.38 116.451 167.144 111.146 168.06 107.941C168.06 107.941 173.504 106.822 174.165 107.335C174.335 108.337 174.861 109.244 175.646 109.888C175.646 109.888 178.943 117.751 178.851 128.62C178.851 128.62 181.589 140.239 194.308 140.604C207.027 140.97 210.496 148.837 210.496 148.837L220.07 134.536C220.07 134.536 216.342 132.191 214.511 130.179ZM161.904 99.2689C160.352 101.186 158.974 103.239 157.788 105.402C157.247 106.443 156.543 107.747 155.91 108.991C155.91 108.991 155.503 106.216 155.045 105.629C155.045 105.629 158.431 96.4337 158.703 95.8833H163.643C165.197 95.8833 167.579 95.5179 168.402 96.3458C167.121 96.7065 162.912 97.9877 161.904 99.2689Z" fill="white"/>
<path opacity="0.4" d="M179.878 117.931C179.281 119.088 178.749 120.05 178.323 120.915C177.862 117.15 176.951 113.454 175.608 109.907C174.823 109.262 174.298 108.355 174.128 107.354C173.467 106.84 168.023 107.96 168.023 107.96C167.098 111.165 162.343 116.47 162.343 116.47C163.079 118.574 162.071 122.783 160.882 123.972C159.693 125.161 157.589 125.068 157.404 123.699C157.219 122.33 155.026 116.761 155.026 116.761C154.476 117.585 151.275 118.408 150.179 116.581C149.083 114.754 148.329 111.822 148.329 111.822C148.144 116.581 142.474 115.665 142.381 114.657C142.289 113.649 139.731 106.059 139.731 106.059C139.731 106.059 138.63 102.035 138.172 100.203C138.14 100.083 138.117 99.9627 138.089 99.8378C139.301 100.347 140.864 100.818 142.113 100.499C144.425 99.8979 148.588 86.73 149.675 84.6533C150.762 82.5766 154.12 81.4943 155.008 81.6701C155.896 81.8458 164.194 83.3952 164.194 83.3952C164.194 83.3952 156.294 82.5997 155.364 83.1362C154.228 83.7778 153.145 84.5094 152.126 85.324C151.733 85.7495 145.332 101.697 145.332 101.697C145.332 101.697 144.717 104.851 147.737 105.73C149.457 106.276 151.308 106.24 153.005 105.628C153.005 105.628 157.043 95.9989 156.784 95.1802C156.525 94.3616 158.824 92.1415 158.824 92.1415C158.824 92.1415 163.62 93.8574 165.812 93.8805C168.005 93.9037 172.26 92.7982 172.634 95.1802C172.634 95.1802 167.047 96.6834 164.379 97.7379C165.691 97.1962 167.035 96.7329 168.402 96.3504C167.579 95.5271 165.197 95.8879 163.643 95.8879H158.703C158.431 96.4383 155.045 105.633 155.045 105.633C155.507 106.23 155.91 108.996 155.91 108.996C156.543 107.751 157.246 106.447 157.788 105.406C158.974 103.243 160.352 101.191 161.904 99.2735C162.257 98.89 162.679 98.5762 163.148 98.3485C161.904 99.2735 155.285 110.157 154.897 111.109C154.508 112.062 156.349 115.628 158.824 115.508C161.298 115.388 167.487 106.091 167.487 106.091C167.487 106.091 174.059 106.026 175.854 104.907C177.648 103.788 178.379 104.907 178.379 104.907C178.379 104.907 177.019 106.295 177.648 106.905C178.277 107.516 180.969 106.299 181.381 106.114C180.918 106.378 177.167 108.39 177.278 109C177.389 109.611 180.613 111.826 182.283 111.627C182.283 111.627 179.355 113.195 178.499 113.066C177.644 112.936 181.538 114.763 179.878 117.931Z" fill="#89CBFB"/>
<path opacity="0.4" d="M182.065 89.0241C181.345 87.9573 180.391 87.0693 179.275 86.428C178.159 85.7867 176.911 85.409 175.627 85.3239C172.672 85.1713 174.882 83.0114 178.032 83.4276L178.18 83.5479C179.928 85.0002 182.065 89.0241 182.065 89.0241Z" fill="#89CBFB"/>
<path opacity="0.4" d="M185.146 93.6031C183.745 93.1579 182.286 92.9287 180.816 92.9232C180.261 92.9232 182.074 91.5079 183.712 90.8789C184.284 91.7343 184.764 92.6473 185.146 93.6031Z" fill="#89CBFB"/>
<path opacity="0.4" d="M217.804 133.01C214.321 131.798 208.475 130.184 207.513 127.08C206.417 123.547 204.465 123.912 203.35 122.511C202.324 121.197 202.365 117.141 200.575 114.546C201.417 115.583 202.15 116.704 202.763 117.89C203.175 118.724 203.791 119.442 204.553 119.976C205.749 120.819 206.685 121.981 207.254 123.329C208.642 126.534 212.652 128.167 214.483 130.179C215.5 131.223 216.612 132.171 217.804 133.01Z" fill="#89CBFB"/>
<path d="M167.487 83.2611C165.84 83.6265 157.88 83.0761 156.964 82.8957C156.049 82.7153 153.398 83.719 152.575 84.6302C151.752 85.5413 145.073 101.651 145.073 102.853C145.073 104.056 146.169 106.419 146.646 107.368C147.122 108.316 148.366 111.817 148.366 111.817" stroke="#263238" stroke-linecap="round" stroke-linejoin="round"/>
<path d="M220.056 134.554C220.056 134.554 216.356 132.191 214.506 130.179C212.656 128.167 208.651 126.534 207.277 123.329C206.708 121.98 205.773 120.819 204.576 119.976C203.814 119.442 203.198 118.724 202.786 117.89C201.542 115.337 199.234 113.052 196.209 108.783C192.643 103.755 191.084 99.4539 189.803 97.8998C188.522 96.3458 185.146 93.603 185.146 93.603C183.758 90.222 182.065 89.0241 182.065 89.0241C182.065 89.0241 179.928 85.0002 178.189 83.534C176.45 82.0678 174.165 81.98 171.788 82.0725C169.411 82.165 164.254 80.9717 164.254 80.9717C164.254 80.9717 156.506 79.2326 153.856 79.2326H148.274C148.274 79.2326 146.72 79.6026 145.989 80.6988C145.258 81.795 140.406 89.6624 139.218 93.048C138.029 96.4337 137.751 98.3531 138.209 100.185C138.667 102.016 139.768 106.04 139.768 106.04C139.768 106.04 142.326 113.635 142.418 114.638C142.511 115.642 148.181 116.562 148.366 111.803C148.366 111.803 149.097 114.731 150.216 116.562C151.336 118.394 154.513 117.566 155.063 116.743C155.063 116.743 157.26 122.325 157.441 123.681C157.621 125.036 159.73 125.142 160.919 123.953C162.108 122.765 163.116 118.556 162.38 116.451C162.38 116.451 167.144 111.146 168.06 107.941C168.06 107.941 173.504 106.822 174.165 107.335C174.335 108.337 174.861 109.244 175.646 109.888C176.696 112.642 177.47 115.492 177.958 118.399C178.481 121.28 177.463 126.261 180.169 129.989" stroke="#263238" stroke-linecap="round" stroke-linejoin="round"/>
<path d="M155.045 116.729C155.045 116.729 154.314 113.986 154.314 112.89C154.314 111.794 156.506 107.858 157.788 105.388C158.974 103.225 160.352 101.173 161.904 99.2551C162.912 97.9739 167.121 96.6927 168.402 96.3273C169.684 95.9619 173.12 95.2311 174.147 94.5004" stroke="#263238" stroke-linecap="round" stroke-linejoin="round"/>
<path d="M155.91 108.991C155.91 108.991 155.503 106.216 155.045 105.629C155.045 105.629 158.431 96.4337 158.704 95.8833C158.976 95.3329 158.704 93.6031 158.704 93.6031" stroke="#263238" stroke-linecap="round" stroke-linejoin="round"/>
<path d="M158.703 95.8834H163.643C165.197 95.8834 167.579 95.518 168.402 96.3459" stroke="#263238" stroke-linecap="round" stroke-linejoin="round"/>
<path d="M174.147 107.354C175.139 107.152 176.08 106.754 176.916 106.183C177.752 105.612 178.464 104.879 179.013 104.028" stroke="#263238" stroke-linecap="round" stroke-linejoin="round"/>
<path d="M174.651 107.238C176.58 108.695 182.398 106.776 185.146 103.57" stroke="#263238" stroke-linecap="round" stroke-linejoin="round"/>
<path d="M175.627 109.907C175.627 109.907 181.117 112.682 184.688 111.183" stroke="#263238" stroke-linecap="round" stroke-linejoin="round"/>
<path d="M0.943138 127.751L8.80595 143.116C8.80595 143.116 12.7975 135.498 25.5121 135.979C38.2267 136.46 41.7234 125.054 41.7234 125.054C42.3616 114.185 46.1682 106.581 46.1682 106.581C46.998 105.992 47.5849 105.121 47.8194 104.13C48.5131 103.668 53.8691 105.143 53.8691 105.143C54.5675 108.381 58.9568 114.009 58.9568 114.009C58.0872 116.063 58.8088 120.327 59.9188 121.595C61.0289 122.862 63.1287 122.908 63.4062 121.553C63.6837 120.198 66.2414 114.773 66.2414 114.773C66.7363 115.633 69.8768 116.669 71.0933 114.916C71.9888 113.465 72.7077 111.912 73.2347 110.291C73.1006 115.05 78.8219 114.514 78.9792 113.528C79.1365 112.543 82.2168 105.124 82.2168 105.124C82.2168 105.124 83.5812 101.179 84.1594 99.3846C84.7375 97.59 84.5895 95.6521 83.6275 92.1971C82.6655 88.742 78.3548 80.5647 77.698 79.4223C77.0412 78.2799 75.5149 77.8081 75.5149 77.8081L69.9647 77.4381C67.3191 77.2577 59.4748 78.4788 59.4748 78.4788C59.4748 78.4788 54.253 79.3206 51.8849 79.0708C49.5168 78.821 47.2273 78.7563 45.4096 80.1022C43.5919 81.4481 41.1221 85.3102 41.1221 85.3102C41.1221 85.3102 39.3414 86.3971 37.7457 89.6763C37.7457 89.6763 34.1843 92.1832 32.8014 93.6494C31.4185 95.1155 29.5638 99.3013 25.6879 104.084C22.3808 108.14 19.9295 110.268 18.5188 112.728C18.0564 113.533 17.3997 114.209 16.6086 114.694C15.3598 115.458 14.3491 116.555 13.6901 117.862C12.1083 120.961 7.98266 122.321 6.02159 124.208C4.47054 125.58 2.76647 126.769 0.943138 127.751ZM54.2854 93.5245C55.1641 92.7613 57.523 93.284 59.0632 93.3857L63.9936 93.7187C64.2295 94.283 66.9953 103.681 66.9953 103.681C66.4958 104.246 65.9038 106.979 65.9038 106.979C65.358 105.698 64.7429 104.347 64.2711 103.279C63.2308 101.044 61.9925 98.906 60.571 96.8916C59.6552 95.5364 55.5388 93.9778 54.2854 93.5245Z" fill="white"/>
<path opacity="0.4" d="M55.3261 93.9176C55.7285 94.0749 56.191 94.2599 56.6674 94.468L55.3261 93.9176Z" fill="#89CBFB"/>
<path opacity="0.4" d="M84.1364 99.3707C83.5582 101.165 82.1938 105.111 82.1938 105.111C82.1938 105.111 79.1273 112.511 78.9562 113.514C78.785 114.518 73.0776 115.045 73.2117 110.277C72.6847 111.898 71.9658 113.451 71.0702 114.902C69.8538 116.655 66.7133 115.619 66.2184 114.759C66.2184 114.759 63.6561 120.184 63.3832 121.539C63.1103 122.894 61.0012 122.848 59.8958 121.581C58.7904 120.314 58.0457 116.031 58.9338 113.996C58.9338 113.996 54.5352 108.385 53.8461 105.129C53.8461 105.129 48.4901 103.649 47.7963 104.116C47.5619 105.107 46.975 105.978 46.1451 106.567C44.559 110.046 43.3975 113.703 42.6855 117.46C42.3155 116.507 41.8298 115.443 41.2979 114.144C39.9104 110.855 43.925 109.329 43.0648 109.389C42.2045 109.449 39.4062 107.664 39.4062 107.664C41.0574 107.987 44.4246 106.063 44.5957 105.425C44.7668 104.787 41.2239 102.553 40.7337 102.238C41.1499 102.46 43.7724 103.839 44.3922 103.307C45.012 102.775 43.814 101.262 43.814 101.262C43.814 101.262 44.6327 100.208 46.3301 101.457C48.0276 102.705 54.5861 103.316 54.5861 103.316C54.5861 103.316 60.0392 113.029 62.4998 113.343C64.9604 113.658 67.0648 110.24 66.7549 109.259C66.4451 108.279 61.0105 97.5854 59.6229 96.0175C59.9863 96.2491 60.3071 96.5417 60.5711 96.8824C61.9926 98.8968 63.2309 101.034 64.2712 103.27C64.7337 104.347 65.3581 105.698 65.9039 106.97C65.9039 106.97 66.4959 104.236 66.9955 103.672C66.9955 103.672 64.2203 94.2738 63.9937 93.7095L59.0633 93.3765C57.5231 93.2747 55.1874 92.7567 54.2993 93.506C52.2041 92.6966 50.2939 92.0213 50.2939 92.0213C50.8536 89.6763 55.0024 91.0963 57.1947 91.2489C59.387 91.4015 64.2944 90.0556 64.2944 90.0556C64.2944 90.0556 66.4173 92.4422 66.0982 93.2423C65.779 94.0425 69.0629 103.95 69.0629 103.95C70.6983 104.663 72.5213 104.825 74.257 104.412C77.3374 103.769 76.9627 100.578 76.9627 100.578C76.9627 100.578 71.8103 84.1816 71.4495 83.733C70.5037 82.8411 69.4858 82.0289 68.4061 81.3048C67.5181 80.6942 59.5859 80.8792 59.5859 80.8792C59.5859 80.8792 67.976 79.9542 68.8733 79.8663C69.7706 79.7784 73.0359 81.0966 73.961 83.2519C74.886 85.4073 78.0173 98.8527 80.2836 99.6297C81.426 100.051 82.9385 99.7592 84.1364 99.3707Z" fill="#89CBFB"/>
<path opacity="0.4" d="M48.0599 81.9522C46.7714 81.9408 45.4972 82.2241 44.3349 82.7804C43.1726 83.3367 42.1528 84.1514 41.3534 85.1621L41.2933 85.0604C41.8529 84.1862 43.814 81.2307 45.3634 80.0929C45.4612 80.0178 45.5631 79.9483 45.6687 79.8848C48.9295 79.6304 51.0709 82.0401 48.0599 81.9522Z" fill="#89CBFB"/>
<path opacity="0.4" d="M42.3109 89.1444C40.8463 89.0414 39.3746 89.1583 37.9447 89.4913L37.8846 89.4404C38.3362 88.5282 38.8851 87.6675 39.5219 86.8734C41.1222 87.5903 42.8705 89.1953 42.3109 89.1444Z" fill="#89CBFB"/>
<path opacity="0.4" d="M19.9804 110.67C18.801 113.029 18.4587 115.906 17.5337 116.909C16.3312 118.223 14.4117 117.709 13.0473 121.151C12.0205 123.731 7.52019 124.952 4.00968 125.841C4.71909 125.346 5.39152 124.8 6.02164 124.208C7.98271 122.321 12.1084 120.97 13.6902 117.862C14.3491 116.555 15.3599 115.458 16.6087 114.694C17.4065 114.211 18.0698 113.535 18.5374 112.728C18.9617 112.004 19.4443 111.316 19.9804 110.67Z" fill="#89CBFB"/>
<path d="M73.244 110.291C73.244 110.291 74.724 106.882 75.2605 105.966C75.7971 105.05 77.0505 102.729 77.1106 101.563C77.1707 100.397 71.6205 83.8902 70.8574 82.9004C70.0942 81.9106 67.518 80.7497 66.593 80.8699C65.6679 80.9902 57.6895 81.0087 56.0707 80.5323" stroke="#263238" stroke-linecap="round" stroke-linejoin="round"/>
<path d="M0.943138 127.751C2.7697 126.769 4.47689 125.581 6.03084 124.208C7.99191 122.321 12.1176 120.97 13.6994 117.862C14.3558 116.556 15.3632 115.459 16.6086 114.694C17.4065 114.211 18.0698 113.535 18.5373 112.728C19.9249 110.268 22.3993 108.14 25.7064 104.084C29.6008 99.3012 31.4416 95.1155 32.8199 93.6493C34.1982 92.1831 37.7642 89.6762 37.7642 89.6762C39.3599 86.397 41.1406 85.3101 41.1406 85.3101C41.1406 85.3101 43.5411 81.4388 45.3726 80.0929C47.2042 78.7469 49.4937 78.8117 51.8479 79.0615C54.2021 79.3112 59.4378 78.4694 59.4378 78.4694C59.4378 78.4694 67.3006 77.2484 69.9277 77.4288L75.4779 77.7988C75.4779 77.7988 77.0042 78.2613 77.661 79.413C78.3178 80.5646 82.6331 88.7327 83.5905 92.1877C84.5479 95.6427 84.7005 97.5807 84.1224 99.3753C83.5442 101.17 82.1798 105.115 82.1798 105.115C82.1798 105.115 79.1133 112.515 78.9422 113.519C78.7711 114.523 73.0636 115.05 73.1977 110.281C72.6707 111.903 71.9518 113.456 71.0563 114.907C69.8398 116.66 66.6993 115.624 66.2044 114.763C66.2044 114.763 63.6421 120.189 63.3692 121.544C63.0963 122.899 60.9872 122.853 59.8818 121.585C58.7764 120.318 58.0317 116.035 58.9198 114C58.9198 114 54.5212 108.39 53.8321 105.134C53.8321 105.134 48.4761 103.654 47.7823 104.121C47.5479 105.111 46.961 105.983 46.1312 106.572C44.8973 109.245 43.9321 112.034 43.2497 114.897C42.5374 117.737 43.2219 122.76 40.2711 126.317" stroke="#263238" stroke-linecap="round" stroke-linejoin="round"/>
<path d="M66.2507 114.772C66.2507 114.772 67.1758 112.085 67.2405 110.989C67.3053 109.893 65.3904 105.823 64.2711 103.27C63.2309 101.034 61.9925 98.8967 60.571 96.8823C59.646 95.5363 55.5388 93.9777 54.2854 93.5244C53.032 93.0711 49.6602 92.1368 48.6797 91.3182" stroke="#263238" stroke-linecap="round" stroke-linejoin="round"/>
<path d="M65.9038 106.979C65.9038 106.979 66.4958 104.246 66.9954 103.681C66.9954 103.681 64.2202 94.283 63.9936 93.7187C63.767 93.1544 64.1462 91.4385 64.1462 91.4385" stroke="#263238" stroke-linecap="round" stroke-linejoin="round"/>
<path d="M63.9937 93.7187L59.0632 93.3857C57.5138 93.284 55.1642 92.7613 54.2854 93.5245" stroke="#263238" stroke-linecap="round" stroke-linejoin="round"/>
<path d="M47.8194 104.13C46.8444 103.861 45.933 103.401 45.1387 102.775C44.3444 102.149 43.6833 101.37 43.1942 100.485" stroke="#263238" stroke-linecap="round" stroke-linejoin="round"/>
<path d="M47.3246 103.977C45.2849 105.305 39.6236 102.997 37.0983 99.6158" stroke="#263238" stroke-linecap="round" stroke-linejoin="round"/>
<path d="M46.1683 106.581C46.1683 106.581 40.507 108.968 37.0474 107.247" stroke="#263238" stroke-linecap="round" stroke-linejoin="round"/>
</svg>
