<svg width="218" height="195" viewBox="0 0 218 195" fill="none" xmlns="http://www.w3.org/2000/svg">
<path d="M107.747 194.845C129.159 194.845 146.518 193.03 146.518 190.791C146.518 188.551 129.159 186.736 107.747 186.736C86.334 186.736 68.9756 188.551 68.9756 190.791C68.9756 193.03 86.334 194.845 107.747 194.845Z" fill="#FBD689"/>
<path opacity="0.5" d="M107.747 194.845C129.159 194.845 146.518 193.03 146.518 190.791C146.518 188.551 129.159 186.736 107.747 186.736C86.334 186.736 68.9756 188.551 68.9756 190.791C68.9756 193.03 86.334 194.845 107.747 194.845Z" fill="white"/>
<path d="M195.359 157.29V151.102H188.457V139.096H178.538V90.3303H169.051V119.807H160.425V109.255H148.783V136.547H144.04V145.279H132.829V142.005H136.275V140.185H122.044V142.37H123.772V151.832H116.439V133.997H90.5659V146.733H72.0165V137.271H65.1188V147.828H50.4567V128.539H44.4206V121.991H33.6356V151.832H22.8557V158.38H15.958V178.394H208.729V157.29H195.359Z" stroke="#2E353A" stroke-miterlimit="10"/>
<path d="M37.8772 128.453H35.5459V130.784H37.8772V128.453Z" fill="#2E353A"/>
<path d="M42.7327 128.453H40.4014V130.784H42.7327V128.453Z" fill="#2E353A"/>
<path d="M37.8772 133.313H35.5459V135.644H37.8772V133.313Z" fill="#2E353A"/>
<path d="M42.7327 133.313H40.4014V135.644H42.7327V133.313Z" fill="#2E353A"/>
<path d="M47.9788 133.313H45.6475V135.644H47.9788V133.313Z" fill="#2E353A"/>
<path d="M47.9788 138.168H45.6475V140.5H47.9788V138.168Z" fill="#2E353A"/>
<path d="M47.9788 143.029H45.6475V145.36H47.9788V143.029Z" fill="#2E353A"/>
<path d="M47.9788 147.884H45.6475V150.215H47.9788V147.884Z" fill="#2E353A"/>
<path d="M47.9788 152.744H45.6475V155.076H47.9788V152.744Z" fill="#2E353A"/>
<path d="M47.9788 157.605H45.6475V159.936H47.9788V157.605Z" fill="#2E353A"/>
<path d="M37.8772 138.168H35.5459V140.5H37.8772V138.168Z" fill="#2E353A"/>
<path d="M42.7327 138.168H40.4014V140.5H42.7327V138.168Z" fill="#2E353A"/>
<path d="M37.8772 143.029H35.5459V145.36H37.8772V143.029Z" fill="#2E353A"/>
<path d="M42.7327 143.029H40.4014V145.36H42.7327V143.029Z" fill="#2E353A"/>
<path d="M37.8772 147.884H35.5459V150.215H37.8772V147.884Z" fill="#2E353A"/>
<path d="M42.7327 147.884H40.4014V150.215H42.7327V147.884Z" fill="#2E353A"/>
<path d="M37.8772 152.744H35.5459V155.076H37.8772V152.744Z" fill="#2E353A"/>
<path d="M27.1888 155.466H24.8574V157.797H27.1888V155.466Z" fill="#2E353A"/>
<path d="M60.8059 150.215H58.4746V152.547H60.8059V150.215Z" fill="#2E353A"/>
<path d="M65.469 150.215H63.1377V152.547H65.469V150.215Z" fill="#2E353A"/>
<path d="M172.933 93.0823H170.602V95.4136H172.933V93.0823Z" fill="#2E353A"/>
<path d="M175.847 93.0823H173.516V95.4136H175.847V93.0823Z" fill="#2E353A"/>
<path d="M172.933 97.9426H170.602V100.274H172.933V97.9426Z" fill="#2E353A"/>
<path d="M175.847 97.9426H173.516V100.274H175.847V97.9426Z" fill="#2E353A"/>
<path d="M172.933 102.803H170.602V105.134H172.933V102.803Z" fill="#2E353A"/>
<path d="M175.847 102.803H173.516V105.134H175.847V102.803Z" fill="#2E353A"/>
<path d="M172.933 107.658H170.602V109.99H172.933V107.658Z" fill="#2E353A"/>
<path d="M175.847 107.658H173.516V109.99H175.847V107.658Z" fill="#2E353A"/>
<path d="M172.933 112.519H170.602V114.85H172.933V112.519Z" fill="#2E353A"/>
<path d="M175.847 112.519H173.516V114.85H175.847V112.519Z" fill="#2E353A"/>
<path d="M172.933 117.374H170.602V119.705H172.933V117.374Z" fill="#2E353A"/>
<path d="M175.847 117.374H173.516V119.705H175.847V117.374Z" fill="#2E353A"/>
<path d="M172.933 122.234H170.602V124.565H172.933V122.234Z" fill="#2E353A"/>
<path d="M175.847 122.234H173.516V124.565H175.847V122.234Z" fill="#2E353A"/>
<path d="M172.933 127.094H170.602V129.426H172.933V127.094Z" fill="#2E353A"/>
<path d="M175.847 127.094H173.516V129.426H175.847V127.094Z" fill="#2E353A"/>
<path d="M172.933 131.95H170.602V134.281H172.933V131.95Z" fill="#2E353A"/>
<path d="M175.847 131.95H173.516V134.281H175.847V131.95Z" fill="#2E353A"/>
<path d="M153.112 131.95H150.78V134.281H153.112V131.95Z" fill="#2E353A"/>
<path d="M158.164 131.95H155.833V134.281H158.164V131.95Z" fill="#2E353A"/>
<path d="M163.217 131.95H160.886V134.281H163.217V131.95Z" fill="#2E353A"/>
<path d="M153.112 142.446H150.78V144.777H153.112V142.446Z" fill="#2E353A"/>
<path d="M158.164 142.446H155.833V144.777H158.164V142.446Z" fill="#2E353A"/>
<path d="M163.217 142.446H160.886V144.777H163.217V142.446Z" fill="#2E353A"/>
<path d="M153.112 152.937H150.78V155.268H153.112V152.937Z" fill="#2E353A"/>
<path d="M158.164 152.937H155.833V155.268H158.164V152.937Z" fill="#2E353A"/>
<path d="M163.217 152.937H160.886V155.268H163.217V152.937Z" fill="#2E353A"/>
<path d="M172.933 136.81H170.602V139.141H172.933V136.81Z" fill="#2E353A"/>
<path d="M175.847 136.81H173.516V139.141H175.847V136.81Z" fill="#2E353A"/>
<path d="M172.933 141.665H170.602V143.997H172.933V141.665Z" fill="#2E353A"/>
<path d="M175.847 141.665H173.516V143.997H175.847V141.665Z" fill="#2E353A"/>
<path d="M172.933 146.526H170.602V148.857H172.933V146.526Z" fill="#2E353A"/>
<path d="M175.847 146.526H173.516V148.857H175.847V146.526Z" fill="#2E353A"/>
<path d="M180.707 141.665H178.376V143.997H180.707V141.665Z" fill="#2E353A"/>
<path d="M186.151 141.665H183.819V143.997H186.151V141.665Z" fill="#2E353A"/>
<path d="M180.707 146.333H178.376V148.664H180.707V146.333Z" fill="#2E353A"/>
<path d="M186.151 146.333H183.819V148.664H186.151V146.333Z" fill="#2E353A"/>
<path d="M180.707 150.996H178.376V153.327H180.707V150.996Z" fill="#2E353A"/>
<path d="M186.151 150.996H183.819V153.327H186.151V150.996Z" fill="#2E353A"/>
<path d="M180.707 155.658H178.376V157.99H180.707V155.658Z" fill="#2E353A"/>
<path d="M186.151 155.658H183.819V157.99H186.151V155.658Z" fill="#2E353A"/>
<path d="M172.933 151.386H170.602V153.717H172.933V151.386Z" fill="#2E353A"/>
<path d="M175.847 151.386H173.516V153.717H175.847V151.386Z" fill="#2E353A"/>
<path d="M172.933 156.241H170.602V158.573H172.933V156.241Z" fill="#2E353A"/>
<path d="M175.847 156.241H173.516V158.573H175.847V156.241Z" fill="#2E353A"/>
<path d="M42.7327 152.744H40.4014V155.076H42.7327V152.744Z" fill="#2E353A"/>
<path d="M37.8772 157.605H35.5459V159.936H37.8772V157.605Z" fill="#2E353A"/>
<path d="M42.7327 157.605H40.4014V159.936H42.7327V157.605Z" fill="#2E353A"/>
<path d="M37.8772 162.46H35.5459V164.791H37.8772V162.46Z" fill="#2E353A"/>
<path d="M42.7327 162.46H40.4014V164.791H42.7327V162.46Z" fill="#2E353A"/>
<path d="M37.8772 167.32H35.5459V169.652H37.8772V167.32Z" fill="#2E353A"/>
<path d="M42.7327 167.32H40.4014V169.652H42.7327V167.32Z" fill="#2E353A"/>
<path d="M165.549 168.78V178.394H146.118V159.277H165.549V167.067" stroke="#2E353A" stroke-miterlimit="10"/>
<path d="M201.309 175.49V178.394H181.873V168.288H185.887" stroke="#2E353A" stroke-miterlimit="10"/>
<path d="M188.254 168.288H201.309V173.914" stroke="#2E353A" stroke-miterlimit="10"/>
<path d="M58.0789 168.288H71.8845V178.394H52.4482V168.288H56.2341" stroke="#2E353A" stroke-miterlimit="10"/>
<path d="M27.676 168.288H29.5208V178.394H22.3291V168.288H26.2265" stroke="#2E353A" stroke-miterlimit="10"/>
<path d="M157.384 159.277H154.277V178.394H157.384V159.277Z" stroke="#2E353A" stroke-miterlimit="10"/>
<path d="M133.235 161.877H130.184V156.824H140.482V161.877H136.002" stroke="#2E353A" stroke-miterlimit="10"/>
<path d="M78.6864 153.327H66.832V157.605H78.6864V153.327Z" stroke="#2E353A" stroke-miterlimit="10"/>
<path d="M73.6334 153.327H72.4678V178.394H73.6334V153.327Z" stroke="#2E353A" stroke-miterlimit="10"/>
<path d="M109.997 1.0553C92.6574 1.0553 76.0281 7.9434 63.7672 20.2043C51.5063 32.4652 44.6182 49.0946 44.6182 66.4341C44.6182 99.0475 104.929 175.906 104.929 175.906H109.997C109.997 175.906 175.376 102.539 175.376 66.4341C175.376 49.0946 168.488 32.4652 156.227 20.2043C143.966 7.9434 127.336 1.0553 109.997 1.0553V1.0553ZM109.997 98.3633C103.682 98.3633 97.5088 96.4907 92.2581 92.9822C87.0073 89.4738 82.9149 84.4872 80.4982 78.6529C78.0816 72.8186 77.4493 66.3987 78.6813 60.205C79.9133 54.0114 82.9542 48.3221 87.4196 43.8568C91.885 39.3914 97.5742 36.3504 103.768 35.1184C109.962 33.8864 116.381 34.5187 122.216 36.9354C128.05 39.352 133.037 43.4445 136.545 48.6952C140.054 53.9459 141.926 60.1191 141.926 66.4341C141.926 70.6271 141.1 74.779 139.496 78.6529C137.891 82.5267 135.539 86.0465 132.574 89.0114C129.609 91.9763 126.09 94.3282 122.216 95.9328C118.342 97.5374 114.19 98.3633 109.997 98.3633V98.3633Z" fill="#2E353A" stroke="#2E353A" stroke-linecap="round" stroke-linejoin="round"/>
<path d="M104.929 1.0553C87.5891 1.0553 70.9597 7.9434 58.6988 20.2043C46.4379 32.4652 39.5498 49.0946 39.5498 66.4341C39.5498 102.539 104.929 175.906 104.929 175.906C104.929 175.906 170.307 102.539 170.307 66.4341C170.307 49.0946 163.419 32.4652 151.158 20.2043C138.897 7.9434 122.268 1.0553 104.929 1.0553V1.0553ZM104.929 98.3633C98.6136 98.3633 92.4404 96.4907 87.1897 92.9822C81.939 89.4738 77.8465 84.4872 75.4299 78.6529C73.0132 72.8186 72.3809 66.3987 73.6129 60.205C74.8449 54.0114 77.8859 48.3221 82.3513 43.8568C86.8166 39.3914 92.5059 36.3504 98.6995 35.1184C104.893 33.8864 111.313 34.5187 117.147 36.9354C122.982 39.352 127.968 43.4445 131.477 48.6952C134.985 53.9459 136.858 60.1191 136.858 66.4341C136.858 74.9022 133.494 83.0236 127.506 89.0114C121.518 94.9993 113.397 98.3633 104.929 98.3633V98.3633Z" fill="#FBD689" stroke="#2E353A" stroke-linecap="round" stroke-linejoin="round"/>
<path d="M84.3672 106.28L91.5893 93.9895L91.716 98.4241L87.4081 107.04L84.3672 106.28Z" fill="white" stroke="#2E353A" stroke-linecap="round" stroke-linejoin="round"/>
<path d="M91.7162 147.798C91.3095 149.938 90.3759 151.943 88.9997 153.631C86.6937 156.485 83.5717 162.049 83.4248 167.34C83.2778 172.632 77.1758 187.273 77.8498 188.358C78.5239 189.443 84.4992 190.938 86.8052 190.938C88.0165 190.938 90.0235 191.404 90.8242 190.223C90.8698 190.157 86.0855 187.689 85.7561 187.451C85.4267 187.213 82.7608 185.337 82.847 185.099C82.847 185.099 89.1011 168.151 92.223 163.813C95.345 159.475 97.651 156.211 98.5987 153.499C99.5465 150.788 100.398 148.218 100.398 148.218L91.7162 147.798Z" fill="white"/>
<g style="mix-blend-mode:multiply">
<path d="M90.0186 152.182C92.6449 153.306 95.4039 154.092 98.2289 154.518C98.381 154.168 98.5178 153.829 98.6344 153.504C99.5872 150.788 100.398 148.208 100.398 148.208L91.7164 147.803C91.4264 149.355 90.8507 150.84 90.0186 152.182V152.182Z" fill="#FBD689"/>
</g>
<path d="M91.7162 147.798C91.3095 149.938 90.3759 151.943 88.9997 153.631C86.6937 156.485 83.5717 162.049 83.4248 167.34C83.2778 172.632 77.1758 187.273 77.8498 188.358C78.5239 189.443 84.4992 190.938 86.8052 190.938C88.0165 190.938 90.0235 191.404 90.8242 190.223C90.8698 190.157 86.0855 187.689 85.7561 187.451C85.4267 187.213 82.7608 185.337 82.847 185.099C82.847 185.099 89.1011 168.151 92.223 163.813C95.345 159.475 97.651 156.211 98.5987 153.499C99.5465 150.788 100.398 148.218 100.398 148.218L91.7162 147.798Z" stroke="#2E353A" stroke-linecap="round" stroke-linejoin="round"/>
<path d="M111.355 148.908C112.679 150.64 113.55 152.674 113.89 154.827C114.462 158.451 116.51 164.492 120.356 168.136C124.203 171.78 131 187.106 132.256 187.324C133.731 187.588 135.981 185.702 137.076 184.937C138.47 183.964 141.668 181.977 142.144 180.259C142.717 178.283 140.685 179.276 139.828 179.914C138.718 180.741 133.179 181.435 133.179 181.435C133.179 181.435 124.761 164.436 123.625 159.216C122.49 153.996 121.598 150.094 120.225 147.56C118.851 145.025 117.473 142.709 117.473 142.709L111.355 148.908Z" fill="white"/>
<g style="mix-blend-mode:multiply">
<path d="M120.225 147.575C118.841 145.041 117.468 142.725 117.468 142.725L111.355 148.908C112.393 150.265 113.15 151.816 113.58 153.469C116.339 152.978 119.051 152.257 121.689 151.315C121.33 150.022 120.839 148.768 120.225 147.575V147.575Z" fill="#FBD689"/>
</g>
<path d="M111.355 148.908C112.679 150.64 113.55 152.674 113.89 154.827C114.462 158.451 116.51 164.492 120.356 168.136C124.203 171.78 131 187.106 132.256 187.324C133.731 187.588 135.981 185.702 137.076 184.937C138.47 183.964 141.668 181.977 142.144 180.259C142.717 178.283 140.685 179.276 139.828 179.914C138.718 180.741 133.179 181.435 133.179 181.435C133.179 181.435 124.761 164.436 123.625 159.216C122.49 153.996 121.598 150.094 120.225 147.56C118.851 145.025 117.473 142.709 117.473 142.709L111.355 148.908Z" stroke="#2E353A" stroke-linecap="round" stroke-linejoin="round"/>
<path d="M142.149 180.259C142.722 178.283 140.689 179.276 139.833 179.914C138.723 180.741 133.183 181.435 133.183 181.435C133.183 181.435 132.585 180.117 131.714 178.13C130.634 178.984 129.44 179.682 128.166 180.203C130.067 183.949 131.643 187.238 132.261 187.344C133.736 187.608 135.986 185.723 137.081 184.957C138.459 183.964 141.657 181.977 142.149 180.259Z" fill="white" stroke="#2E353A" stroke-linecap="round" stroke-linejoin="round"/>
<path d="M91.8987 120.714L87.1904 146.698C89.314 148.057 91.5751 149.189 93.9361 150.073C97.646 151.421 104.072 151.087 104.072 151.087L106.606 138.442L107.62 150.246C107.62 150.246 112.511 150.752 116.053 150.078C119.596 149.404 125.328 145.689 125.328 145.689L114.178 124.951L111.644 120.06L91.9139 119.553L91.8987 120.714Z" fill="white"/>
<g style="mix-blend-mode:multiply">
<path d="M106.769 135.629C108.482 133.485 109.1 120.881 109.1 120.881L91.8989 119.578V120.714L89.75 132.507C94.5647 134.058 105.436 137.292 106.769 135.629Z" fill="#FBD689"/>
</g>
<path d="M91.8987 120.714L87.1904 146.698C89.314 148.057 91.5751 149.189 93.9361 150.073C97.646 151.421 104.072 151.087 104.072 151.087L106.606 138.442L107.62 150.246C107.62 150.246 112.511 150.752 116.053 150.078C119.596 149.404 125.328 145.689 125.328 145.689L114.178 124.951L111.644 120.06L91.9139 119.553L91.8987 120.714Z" stroke="#2E353A" stroke-miterlimit="10"/>
<path d="M120.984 100.198L130.614 102.732L134.542 91.0753L119.844 88.2878L116.55 99.0576L120.984 100.198Z" fill="#2E353A" stroke="#2E353A" stroke-linecap="round" stroke-linejoin="round"/>
<path d="M122.865 94.8054L128.988 96.3005" stroke="white" stroke-linecap="round" stroke-linejoin="round"/>
<path d="M122.271 96.3005L128.394 97.7956" stroke="white" stroke-linecap="round" stroke-linejoin="round"/>
<path d="M110.975 100.831C110.975 100.831 114.015 99.1843 115.029 97.7906C116.043 96.3968 117.183 93.9895 117.69 93.6094C118.197 93.2293 120.731 91.9622 121.238 91.5821C121.744 91.202 122.505 91.9622 121.618 92.7224C120.731 93.4827 118.83 95.1298 118.83 95.1298C118.83 95.1298 119.337 97.4105 118.703 98.1707C118.365 98.5898 117.982 98.972 117.563 99.311L120.984 100.198C120.984 100.198 118.703 101.845 117.69 102.098C116.686 102.292 115.67 102.419 114.649 102.479L110.468 105.773L110.975 100.831Z" fill="white" stroke="#2E353A" stroke-linecap="round" stroke-linejoin="round"/>
<path d="M97.2913 73.1544C97.2913 73.1544 93.2368 79.0588 92.2232 85.9717C91.2096 92.8846 91.8887 120.714 91.8887 120.714C91.8887 120.714 97.2812 122.903 101.518 122.903C105.755 122.903 111.974 123.243 112.161 120.876C112.349 118.509 110.98 91.3642 109.12 84.7858C107.832 80.4935 105.956 76.4002 103.545 72.6223C103.545 72.6223 99.3186 69.7791 97.2913 73.1544Z" fill="#2E353A" stroke="#2E353A" stroke-linecap="round" stroke-linejoin="round"/>
<path d="M106.54 78.2783L101.092 112.995L105.907 114.769L108.06 81.4459L106.54 78.2783Z" fill="white" stroke="#2E353A" stroke-linecap="round" stroke-linejoin="round"/>
<path d="M94.4785 59.7037C94.4785 59.7037 95.1526 62.9067 96.5058 64.5944C97.859 66.2821 100.383 67.1285 100.383 67.1285L99.6581 70.965L104.382 73.8336L106.115 65.608L106.622 55.8265C106.622 55.8265 94.7927 57.8487 94.4785 59.7037Z" fill="white" stroke="#2E353A" stroke-linecap="round" stroke-linejoin="round"/>
<path d="M94.4785 59.7037C94.4785 59.7037 95.1526 62.9067 96.5058 64.5944C97.859 66.2821 100.383 67.1285 100.383 67.1285C100.383 67.1285 104.437 65.9476 104.767 63.2513C105.01 61.3052 104.645 57.9653 104.417 56.2472C100.976 56.9263 94.7218 58.3606 94.4785 59.7037Z" fill="#2E353A" stroke="#2E353A" stroke-linecap="round" stroke-linejoin="round"/>
<path d="M101.381 60.5399C101.381 60.5399 99.6935 58.5126 98.6849 59.359C97.6764 60.2054 98.0058 62.5671 99.1918 63.748C100.378 64.9289 101.893 63.9153 101.893 63.9153C101.893 63.9153 102.567 66.1047 103.748 67.1183C104.929 68.1319 108.973 68.806 110.337 67.7924C111.7 66.7787 111.178 63.0689 111.178 63.0689C111.178 63.0689 113.54 61.888 113.372 61.0416C113.205 60.1953 111.512 59.5212 111.512 58.8522C111.498 58.3417 111.442 57.8332 111.345 57.3318V55.9786L103.591 57.6663C103.591 57.6663 102.572 61.5535 101.381 60.5399Z" fill="white"/>
<g style="mix-blend-mode:multiply" opacity="0.5">
<g style="mix-blend-mode:multiply" opacity="0.5">
<path d="M103.586 57.6815C103.369 58.4958 103.052 59.2805 102.644 60.0179C105.684 59.881 108.933 59.6884 111.842 59.435C111.663 59.2925 111.544 59.0883 111.508 58.8623C111.493 58.3518 111.438 57.8433 111.34 57.3419V55.9786L103.586 57.6815Z" fill="#FBD689"/>
</g>
</g>
<path d="M101.381 60.5399C101.381 60.5399 99.6935 58.5126 98.6849 59.359C97.6764 60.2054 98.0058 62.5671 99.1918 63.748C100.378 64.9289 101.893 63.9153 101.893 63.9153C101.893 63.9153 102.567 66.1047 103.748 67.1183C104.929 68.1319 108.973 68.806 110.337 67.7924C111.7 66.7787 111.178 63.0689 111.178 63.0689C111.178 63.0689 113.54 61.888 113.372 61.0416C113.205 60.1953 111.512 59.5212 111.512 58.8522C111.498 58.3417 111.442 57.8332 111.345 57.3318V55.9786L103.591 57.6663C103.591 57.6663 102.572 61.5535 101.381 60.5399Z" stroke="#2E353A" stroke-linecap="round" stroke-linejoin="round"/>
<path d="M94.4787 59.7036L111.34 55.9785C111.34 55.9785 108.979 47.7124 106.115 47.0384C103.252 46.3643 97.6818 46.0248 94.646 49.0656C91.6102 52.1065 94.4787 59.7036 94.4787 59.7036Z" fill="white" stroke="#2E353A" stroke-linecap="round" stroke-linejoin="round"/>
<path d="M105.775 57.3419C107.998 57.8354 110.252 58.1741 112.521 58.3555C115.562 58.5228 122.47 55.8215 120.787 55.6542C119.105 55.487 111.34 55.9938 111.34 55.9938L105.775 57.3419Z" fill="#2E353A" stroke="#2E353A" stroke-linecap="round" stroke-linejoin="round"/>
<path d="M97.9706 69.6118L96.4502 72.9872L104.042 77.7056L105.558 72.9872L97.9706 69.6118Z" fill="white" stroke="#2E353A" stroke-linecap="round" stroke-linejoin="round"/>
<path d="M82.3402 104.886L109.328 111.855L106.525 131.59C106.479 131.913 106.366 132.222 106.192 132.498C106.018 132.773 105.788 133.009 105.517 133.189C105.245 133.37 104.939 133.491 104.617 133.545C104.296 133.598 103.967 133.583 103.652 133.501L79.1168 127.125C78.6563 127.006 78.2602 126.713 78.0123 126.307C77.7644 125.901 77.6843 125.415 77.789 124.951L82.3402 104.886Z" fill="white" stroke="#2E353A" stroke-linecap="round" stroke-linejoin="round"/>
<path d="M82.3398 104.886C82.3398 104.886 88.7105 120.344 92.6129 122.371C96.5154 124.398 109.338 111.87 109.338 111.87" stroke="#2E353A" stroke-linecap="round" stroke-linejoin="round"/>
<path d="M87.6967 98.1149C87.6967 98.1149 86.009 101.825 86.5158 103.183C87.0226 104.541 107.934 112.123 107.934 112.123C107.934 112.123 108.101 114.987 108.608 115.671C109.042 116.413 109.382 117.207 109.621 118.033C109.621 118.033 108.608 120.394 109.115 120.901C109.621 121.408 111.142 118.539 111.142 117.698C111.142 116.857 111.309 112.301 110.807 111.11C110.306 109.919 95.9628 101.161 95.9628 101.161L87.6967 98.1149Z" fill="white" stroke="#2E353A" stroke-linecap="round" stroke-linejoin="round"/>
<path d="M96.9563 77.8779L87.1748 98.6167L95.9427 101.151L103.028 84.6236" fill="#2E353A"/>
<path d="M96.9563 77.8779L87.1748 98.6167L95.9427 101.151L103.028 84.6236" stroke="#2E353A" stroke-linecap="round" stroke-linejoin="round"/>
<path d="M95.9434 101.151L102.4 86.6711" stroke="white" stroke-linecap="round" stroke-linejoin="round"/>
<path d="M100.185 91.9876L103.433 88.7389" stroke="white" stroke-linecap="round" stroke-linejoin="round"/>
<path d="M90.5557 146.156C94.6042 148.255 99.1532 149.196 103.702 148.877" stroke="#2E353A" stroke-linecap="round" stroke-linejoin="round"/>
<path d="M88.3564 144.828C88.3564 144.828 88.7467 145.122 89.4714 145.558" stroke="#2E353A" stroke-linecap="round" stroke-linejoin="round"/>
<path d="M121.228 144.965C121.871 144.615 122.496 144.231 123.098 143.814" stroke="#2E353A" stroke-linecap="round" stroke-linejoin="round"/>
<path d="M108.254 148.218C112.211 148.166 116.116 147.318 119.738 145.725" stroke="#2E353A" stroke-linecap="round" stroke-linejoin="round"/>
<path d="M106.571 138.422L110.21 132.122" stroke="#2E353A" stroke-linecap="round" stroke-linejoin="round"/>
<path d="M106.769 138.092L112.835 131.215" stroke="#2E353A" stroke-linecap="round" stroke-linejoin="round"/>
<path d="M91.2959 135.361L90.7891 139.101C92.0338 139.972 93.3999 140.655 94.8436 141.128C97.2712 141.939 102.446 141.838 102.446 141.838L103.155 138.29C103.155 138.29 94.1543 137.276 92.3348 135.756" stroke="#2E353A" stroke-linecap="round" stroke-linejoin="round"/>
<path d="M90.6926 140.515C90.6926 140.515 89.2735 143.956 90.1857 144.767C91.098 145.578 97.5649 148 99.3084 147.808C101.052 147.615 102.035 143.358 102.035 143.358" stroke="#2E353A" stroke-linecap="round" stroke-linejoin="round"/>
<path d="M142.149 180.259C142.722 178.283 140.689 179.276 139.833 179.914C138.723 180.741 133.183 181.435 133.183 181.435L132.509 179.914C131.494 180.807 130.331 181.517 129.073 182.013C130.548 184.942 131.729 187.243 132.246 187.329C133.721 187.593 135.971 185.707 137.066 184.942C138.459 183.964 141.657 181.977 142.149 180.259Z" fill="#2E353A" stroke="#2E353A" stroke-linecap="round" stroke-linejoin="round"/>
<path d="M137.937 183.026C135.656 184.212 132.996 185.652 131.46 186.457C131.794 186.964 132.063 187.294 132.246 187.324C133.72 187.588 135.971 185.702 137.065 184.937C138.459 183.964 141.657 181.977 142.133 180.259C142.377 179.428 142.133 179.124 141.753 179.098C140.912 180.507 139.604 182.175 137.937 183.026Z" fill="white" stroke="#2E353A" stroke-linecap="round" stroke-linejoin="round"/>
<path d="M85.7913 187.451C85.548 187.268 82.796 185.337 82.8822 185.099C82.8822 185.099 83.4346 183.614 84.281 181.415C82.8297 181.233 81.4106 180.851 80.0643 180.279C78.7162 184.374 77.5303 187.851 77.8648 188.358C78.5388 189.443 84.5141 190.938 86.8201 190.938C88.0314 190.938 90.0384 191.404 90.8392 190.223C90.8848 190.157 86.1005 187.679 85.7913 187.451Z" fill="white" stroke="#2E353A" stroke-linecap="round" stroke-linejoin="round"/>
<path d="M90.8399 190.223C90.8855 190.157 86.1012 187.689 85.7717 187.451C85.4423 187.213 82.7765 185.337 82.8626 185.099L83.3999 183.665C82.0032 183.412 80.6349 183.021 79.3149 182.499C78.3013 185.57 77.5867 187.942 77.8452 188.358C78.5192 189.443 84.4946 190.938 86.8006 190.938C88.0321 190.938 90.0391 191.404 90.8399 190.223Z" fill="#2E353A" stroke="#2E353A" stroke-linecap="round" stroke-linejoin="round"/>
<path d="M86.0955 189.818C82.9887 189.63 79.5373 188.353 77.8496 187.653C77.7819 187.883 77.7819 188.128 77.8496 188.358C78.5237 189.443 84.499 190.938 86.805 190.938C88.0163 190.938 90.0232 191.404 90.824 190.223C90.5979 190.063 90.3589 189.922 90.1094 189.802C88.7734 189.9 87.4322 189.905 86.0955 189.818Z" fill="white" stroke="#2E353A" stroke-linecap="round" stroke-linejoin="round"/>
<path d="M104.899 57.3571L102.192 50.9257" stroke="black" stroke-linecap="round" stroke-linejoin="round"/>
<path d="M101.853 49.7448C101.853 49.7448 101.007 47.8797 101.686 47.0333" stroke="black" stroke-linecap="round" stroke-linejoin="round"/>
</svg>
