<svg width="179" height="195" viewBox="0 0 179 195" fill="none" xmlns="http://www.w3.org/2000/svg">
<path d="M170.112 138.404L1.22168 138.404" stroke="#263238" stroke-width="1.08162" stroke-miterlimit="10"/>
<path d="M155.902 14.0433C155.902 14.0433 155.902 10.9872 151.627 6.71851C147.352 2.44984 144.605 0 144.605 0C144.605 0 142.471 7.02164 146.461 11.2965C149.375 14.2953 152.533 17.0474 155.902 19.5245V14.0433Z" fill="#DEBD79"/>
<path d="M149.696 33.1347C149.696 33.1347 149.696 30.0786 145.428 25.8099C141.159 21.5413 138.406 19.0914 138.406 19.0914C138.406 19.0914 136.272 26.1131 140.262 30.3879C143.181 33.3928 146.345 36.1492 149.721 38.6283L149.696 33.1347Z" fill="#DEBD79"/>
<path d="M155.629 19.2399C155.629 19.2399 155.957 16.2024 160.652 12.4039C165.348 8.6054 168.342 6.47107 168.342 6.47107C168.342 6.47107 169.722 13.6783 165.329 17.5077C162.11 20.1877 158.673 22.5943 155.054 24.7026L155.629 19.2399Z" fill="#DEBD79"/>
<path d="M148.138 41.7525C148.138 41.7525 148.757 38.7644 153.854 35.4794C158.952 32.1944 162.126 30.3879 162.126 30.3879C162.126 30.3879 162.744 37.7003 157.968 41.0472C154.484 43.3752 150.811 45.4074 146.987 47.1223L148.138 41.7525Z" fill="#DEBD79"/>
<path d="M149.548 66.2941C149.548 66.2941 149.548 63.238 153.823 58.9694C158.098 54.7007 160.838 52.2509 160.838 52.2509C160.838 52.2509 162.979 59.2725 158.983 63.5473C156.064 66.5523 152.9 69.3086 149.523 71.7877L149.548 66.2941Z" fill="#DEBD79"/>
<path d="M149.48 72.2827C149.48 72.2827 149.913 69.2637 146.288 64.4259C142.662 59.5881 140.293 56.7794 140.293 56.7794C140.293 56.7794 137.2 63.4237 140.503 68.2182C142.963 71.6077 145.7 74.7862 148.688 77.7206L149.48 72.2827Z" fill="#DEBD79"/>
<path d="M145.267 90.0502C145.267 90.0502 145.267 87.0002 149.536 82.7254C153.804 78.4506 156.557 76.0069 156.557 76.0069C156.557 76.0069 158.692 83.0285 154.701 87.3034C151.785 90.3103 148.62 93.0668 145.242 95.5438L145.267 90.0502Z" fill="#DEBD79"/>
<path d="M148.119 106.135C148.119 106.135 147.346 103.178 150.395 97.9627C153.445 92.7475 155.493 89.6914 155.493 89.6914C155.493 89.6914 159.335 95.9397 156.582 101.081C154.518 104.726 152.155 108.195 149.517 111.449L148.119 106.135Z" fill="#DEBD79"/>
<path d="M156.286 13.2576C156.071 16.436 155.681 19.6 155.116 22.7352C153.427 31.4643 149.208 37.094 147.519 44.9756C145.83 52.8571 150.674 63.0091 149.375 73.1364C148.076 83.2636 144.142 88.8871 145.267 95.6489C146.393 102.411 152.302 120.698 152.302 120.698" stroke="#263238" stroke-width="1.08162" stroke-linecap="round" stroke-linejoin="round"/>
<path d="M155.593 21.269L160.196 17.7366" stroke="#263238" stroke-width="1.08162" stroke-linecap="round" stroke-linejoin="round"/>
<path d="M155.803 17.1984L153.879 13.7711" stroke="#263238" stroke-width="1.08162" stroke-linecap="round" stroke-linejoin="round"/>
<path d="M147.772 44.6106C147.772 44.6106 151.627 41.7215 155.592 38.8325" stroke="#263238" stroke-width="1.08162" stroke-linecap="round" stroke-linejoin="round"/>
<path d="M149.696 38.5973C149.696 38.5973 146.485 32.2995 142.848 28.1237" stroke="#263238" stroke-width="1.08162" stroke-linecap="round" stroke-linejoin="round"/>
<path d="M149.703 70.6371C151.909 66.579 154.693 62.8633 157.968 59.6066" stroke="#263238" stroke-width="1.08162" stroke-linecap="round" stroke-linejoin="round"/>
<path d="M148.948 74.9181C147.78 72.1648 146.383 69.5139 144.772 66.9933C142.527 63.6711 142.205 63.2443 142.205 63.2443" stroke="#263238" stroke-width="1.08162" stroke-linecap="round" stroke-linejoin="round"/>
<path d="M145.268 95.649C146.242 93.2226 147.402 90.8751 148.738 88.6273C150.071 86.5427 151.576 84.5727 153.236 82.7378" stroke="#263238" stroke-width="1.08162" stroke-linecap="round" stroke-linejoin="round"/>
<path d="M149.511 111.449C149.287 109.133 149.685 106.799 150.661 104.687C152.27 101.594 154.089 97.5111 154.837 95.9088" stroke="#263238" stroke-width="1.08162" stroke-linecap="round" stroke-linejoin="round"/>
<path d="M127.92 54.7874C127.92 54.7874 127.586 52.8758 129.807 49.733C132.028 46.5903 133.476 44.7839 133.476 44.7839C133.476 44.7839 135.579 48.9536 133.556 52.0653C132.053 54.2658 130.366 56.3353 128.514 58.2518L127.92 54.7874Z" fill="#DEBD79"/>
<path d="M133.878 66.0962C133.878 66.0962 133.544 64.1784 135.765 61.0357C137.986 57.893 139.434 56.0865 139.434 56.0865C139.434 56.0865 141.537 60.2562 139.514 63.368C138.011 65.5684 136.324 67.6379 134.472 69.5545L133.878 66.0962Z" fill="#DEBD79"/>
<path d="M128.65 58.0476C128.65 58.0476 128.118 56.1917 124.759 54.3048C121.4 52.4179 119.296 51.4157 119.296 51.4157C119.296 51.4157 119.21 56.0865 122.389 58.0105C124.699 59.3418 127.116 60.4779 129.615 61.4069L128.65 58.0476Z" fill="#DEBD79"/>
<path d="M135.796 71.3485C135.796 71.3485 135.072 69.5483 131.533 68.0388C127.994 66.5293 125.792 65.7436 125.792 65.7436C125.792 65.7436 126.2 70.3958 129.553 71.9734C131.992 73.0535 134.517 73.9288 137.101 74.5902L135.796 71.3485Z" fill="#DEBD79"/>
<path d="M137.552 86.889C137.552 86.889 137.218 84.9774 134.075 82.7626C130.933 80.5478 128.947 79.3105 128.947 79.3105C128.947 79.3105 128.365 83.9442 131.316 86.1961C133.467 87.7607 135.743 89.145 138.121 90.3348L137.552 86.889Z" fill="#DEBD79"/>
<path d="M138.27 90.6688C138.27 90.6688 137.652 88.8129 139.415 85.3979C141.178 81.983 142.347 79.9539 142.347 79.9539C142.347 79.9539 145.02 83.7833 143.455 87.1487C142.281 89.5419 140.909 91.8327 139.353 93.9971L138.27 90.6688Z" fill="#DEBD79"/>
<path d="M143.634 106.079C143.634 106.079 143.857 104.149 146.869 101.749C149.882 99.3485 151.819 98.0369 151.819 98.0369C151.819 98.0369 152.66 102.633 149.839 105.046C147.777 106.735 145.577 108.248 143.263 109.569L143.634 106.079Z" fill="#DEBD79"/>
<path d="M142.842 101.316C142.842 101.316 142.508 99.4041 139.365 97.1832C136.223 94.9622 134.237 93.7373 134.237 93.7373C134.237 93.7373 133.655 98.371 136.606 100.623C138.757 102.187 141.033 103.572 143.411 104.762L142.842 101.316Z" fill="#DEBD79"/>
<path d="M142.799 111.703C142.799 111.703 142.96 109.766 140.485 106.828C138.01 103.889 136.396 102.188 136.396 102.188C136.396 102.188 134.657 106.519 136.946 109.451C138.641 111.513 140.503 113.431 142.514 115.186L142.799 111.703Z" fill="#DEBD79"/>
<path d="M127.593 54.3667C128.074 56.3359 128.662 58.2773 129.356 60.182C131.36 65.4714 134.621 68.5399 136.538 73.3035C138.456 78.067 136.538 84.9588 138.425 91.1638C140.312 97.3688 143.424 100.443 143.449 104.83C143.473 109.216 141.754 121.31 141.754 121.31" stroke="#263238" stroke-width="1.08162" stroke-linecap="round" stroke-linejoin="round"/>
<path d="M128.897 59.3096L125.631 57.5959" stroke="#263238" stroke-width="1.08162" stroke-linecap="round" stroke-linejoin="round"/>
<path d="M128.322 56.7856L129.157 54.4285" stroke="#263238" stroke-width="1.08162" stroke-linecap="round" stroke-linejoin="round"/>
<path d="M136.316 73.1055C136.316 73.1055 133.588 71.7073 130.785 70.3278" stroke="#263238" stroke-width="1.08162" stroke-linecap="round" stroke-linejoin="round"/>
<path d="M134.459 69.5359C135.264 66.9922 136.327 64.5378 137.633 62.2111" stroke="#263238" stroke-width="1.08162" stroke-linecap="round" stroke-linejoin="round"/>
<path d="M137.955 89.6295C136.132 87.3266 133.986 85.2992 131.583 83.6101" stroke="#263238" stroke-width="1.08162" stroke-linecap="round" stroke-linejoin="round"/>
<path d="M138.889 92.234C139.322 90.3816 139.91 88.5688 140.646 86.8147C141.697 84.4886 141.852 84.1854 141.852 84.1854" stroke="#263238" stroke-width="1.08162" stroke-linecap="round" stroke-linejoin="round"/>
<path d="M143.3 108.139C144.362 106.82 145.54 105.599 146.82 104.489C147.633 103.889 148.396 103.225 149.103 102.504" stroke="#263238" stroke-width="1.08162" stroke-linecap="round" stroke-linejoin="round"/>
<path d="M143.449 104.83C142.573 103.416 141.591 102.072 140.51 100.808C139.447 99.6471 138.291 98.5753 137.052 97.6039" stroke="#263238" stroke-width="1.08162" stroke-linecap="round" stroke-linejoin="round"/>
<path d="M142.501 115.204C142.392 113.727 141.887 112.306 141.041 111.09C139.699 109.315 138.115 106.964 137.472 106.036" stroke="#263238" stroke-width="1.08162" stroke-linecap="round" stroke-linejoin="round"/>
<path d="M156.409 142.14H137.596C137.126 142.139 136.675 141.951 136.343 141.618C136.01 141.286 135.822 140.835 135.821 140.365L133.024 119.195H160.975L158.185 140.365C158.183 140.835 157.996 141.286 157.663 141.618C157.33 141.951 156.88 142.139 156.409 142.14V142.14Z" fill="#263238"/>
<path d="M160.733 122.838H133.024C132.444 122.838 131.889 122.608 131.479 122.199C131.07 121.789 130.84 121.234 130.84 120.655V120.655C130.839 120.367 130.895 120.083 131.004 119.817C131.114 119.551 131.274 119.31 131.477 119.106C131.68 118.903 131.921 118.742 132.187 118.631C132.452 118.521 132.736 118.465 133.024 118.465H160.733C161.02 118.465 161.305 118.521 161.571 118.631C161.837 118.741 162.078 118.903 162.281 119.106C162.485 119.309 162.646 119.551 162.756 119.817C162.866 120.082 162.923 120.367 162.923 120.655V120.655C162.921 121.234 162.69 121.79 162.279 122.199C161.869 122.609 161.313 122.838 160.733 122.838V122.838Z" fill="#263238"/>
<path d="M134.039 166.942C133.544 166.943 133.057 166.818 132.623 166.578C132.19 166.339 131.825 165.993 131.562 165.573C131.3 165.153 131.149 164.674 131.123 164.179C131.097 163.685 131.198 163.192 131.416 162.747C131.98 161.618 132.091 160.316 131.726 159.107C131.362 157.898 130.549 156.875 129.455 156.245C125.087 153.449 114.929 153.004 111.372 153.059H111.322C110.548 153.067 109.802 152.766 109.249 152.224C108.696 151.681 108.382 150.942 108.374 150.167C108.367 149.393 108.667 148.647 109.21 148.094C109.752 147.541 110.492 147.227 111.266 147.219C112.757 147.188 125.965 147.083 132.597 151.327C139.136 155.515 138.122 162.283 136.668 165.284C136.43 165.779 136.057 166.198 135.592 166.491C135.127 166.784 134.588 166.94 134.039 166.942V166.942Z" fill="#263238"/>
<path d="M147.5 182.346L146.857 184.53L137.113 168.507L136.859 165.049L147.5 182.346Z" fill="white" stroke="#263238" stroke-width="1.08162" stroke-linecap="round" stroke-linejoin="round"/>
<path d="M146.857 184.53L149.901 183.027L150.446 180.942L147.501 182.346L146.857 184.53Z" fill="white" stroke="#263238" stroke-width="1.08162" stroke-linecap="round" stroke-linejoin="round"/>
<path d="M135.579 163.255L146.857 162.865L150.445 180.942L147.5 182.346L135.579 163.255Z" fill="white" stroke="#263238" stroke-width="1.08162" stroke-linecap="round" stroke-linejoin="round"/>
<path d="M134.039 164.022L145.317 182.989L141.605 184.784L124.938 171.198L134.039 164.022Z" fill="white" stroke="#263238" stroke-width="1.08162" stroke-linecap="round" stroke-linejoin="round"/>
<path d="M141.604 184.784L141.091 186.708L124.301 173.376L124.938 171.198L141.604 184.784Z" fill="white" stroke="#263238" stroke-width="1.08162" stroke-linecap="round" stroke-linejoin="round"/>
<path d="M141.604 184.784L145.316 182.989L144.809 184.913L141.091 186.707L141.604 184.784Z" fill="white" stroke="#263238" stroke-width="1.08162" stroke-linecap="round" stroke-linejoin="round"/>
<path d="M140.295 170.862C142.527 168.63 142.527 165.011 140.295 162.778C138.063 160.546 134.443 160.546 132.211 162.778C129.979 165.011 129.979 168.63 132.211 170.862C134.443 173.095 138.063 173.095 140.295 170.862Z" fill="#FBD689" stroke="#263238" stroke-width="1.08162" stroke-linecap="round" stroke-linejoin="round"/>
<path d="M15.7842 182.346L16.4276 184.53L26.1651 168.507L26.4249 165.049L15.7842 182.346Z" fill="white" stroke="#263238" stroke-width="1.08162" stroke-linecap="round" stroke-linejoin="round"/>
<path d="M16.428 184.53L13.3842 183.027L12.8398 180.942L15.7846 182.346L16.428 184.53Z" fill="white" stroke="#263238" stroke-width="1.08162" stroke-linecap="round" stroke-linejoin="round"/>
<path d="M27.7059 163.255L16.428 162.865L12.8398 180.942L15.7846 182.346L27.7059 163.255Z" fill="white" stroke="#263238" stroke-width="1.08162" stroke-linecap="round" stroke-linejoin="round"/>
<path d="M29.246 164.022L17.9619 182.989L21.68 184.784L38.3401 171.198L29.246 164.022Z" fill="white" stroke="#263238" stroke-width="1.08162" stroke-linecap="round" stroke-linejoin="round"/>
<path d="M21.6797 184.784L22.1932 186.708L38.9832 173.376L38.3398 171.198L21.6797 184.784Z" fill="white" stroke="#263238" stroke-width="1.08162" stroke-linecap="round" stroke-linejoin="round"/>
<path d="M21.68 184.784L17.9619 182.989L18.4754 184.913L22.1935 186.707L21.68 184.784Z" fill="white" stroke="#263238" stroke-width="1.08162" stroke-linecap="round" stroke-linejoin="round"/>
<path d="M27.396 168.884C26.7921 168.887 26.2022 168.702 25.7077 168.355C25.2132 168.009 24.8383 167.517 24.6347 166.949C24.4312 166.38 24.4089 165.762 24.5711 165.18C24.7332 164.599 25.0718 164.081 25.5401 163.7C48.7517 144.813 44.0253 116.646 43.9758 116.361C43.8602 115.608 44.0437 114.84 44.487 114.22C44.9303 113.6 45.5983 113.178 46.3484 113.044C47.0985 112.91 47.8713 113.074 48.5018 113.502C49.1323 113.93 49.5705 114.588 49.723 115.334C49.9519 116.627 55.0805 147.195 29.2272 168.229C28.7102 168.651 28.0636 168.882 27.396 168.884V168.884Z" fill="#263238"/>
<path d="M61.3051 110.139C62.3113 103.906 58.0739 98.0368 51.8405 97.0306C45.6072 96.0244 39.7383 100.262 38.7321 106.495C37.7259 112.728 41.9633 118.597 48.1966 119.604C54.43 120.61 60.2988 116.372 61.3051 110.139Z" fill="#ADADAD" stroke="#263238" stroke-width="1.08162" stroke-linecap="round" stroke-linejoin="round"/>
<path d="M31.0694 170.86C33.3018 168.628 33.3018 165.008 31.0694 162.776C28.8371 160.544 25.2177 160.544 22.9854 162.776C20.753 165.008 20.753 168.628 22.9854 170.86C25.2177 173.092 28.8371 173.092 31.0694 170.86Z" fill="#FBD689" stroke="#263238" stroke-width="1.08162" stroke-linecap="round" stroke-linejoin="round"/>
<path d="M80.6312 155.398C90.6524 155.398 98.7761 147.82 98.7761 138.472C98.7761 129.124 90.6524 121.545 80.6312 121.545C70.6101 121.545 62.4863 129.124 62.4863 138.472C62.4863 147.82 70.6101 155.398 80.6312 155.398Z" fill="#ADADAD" stroke="#263238" stroke-width="1.08162" stroke-linecap="round" stroke-linejoin="round"/>
<path d="M71.1777 131.24L72.8728 137.853C73.3736 139.489 74.4352 140.897 75.871 141.828C77.3069 142.759 79.0251 143.155 80.7235 142.944C82.4199 142.732 83.9871 141.929 85.1493 140.675C86.3114 139.421 86.9941 137.797 87.077 136.09L87.411 129.421L71.1777 131.24Z" fill="#263238" stroke="#263238" stroke-width="1.08162" stroke-linecap="round" stroke-linejoin="round"/>
<path d="M106.948 97.9627C105.236 97.9876 103.53 97.754 101.888 97.2698L102.358 95.8902C102.438 95.8902 110.561 98.5318 118.832 92.4814L119.692 93.6631C116.018 96.4307 111.548 97.9386 106.948 97.9627V97.9627Z" fill="#263238"/>
<path d="M116.067 108.937C109.373 99.1567 101.758 99.8929 101.683 99.899L101.522 98.4514C101.869 98.4143 110.091 97.6162 117.267 108.115L116.067 108.937Z" fill="#263238"/>
<path d="M114.372 115.848C105.711 113.181 100.508 101.65 100.285 101.161L101.621 100.542C101.671 100.66 106.781 111.956 114.805 114.425L114.372 115.848Z" fill="#263238"/>
<path d="M118.876 93.4651L121.214 91.9061" stroke="#263238" stroke-width="1.08162" stroke-miterlimit="10"/>
<path d="M116.018 107.23L117.577 110.342" stroke="#263238" stroke-width="1.08162" stroke-miterlimit="10"/>
<path d="M113.289 114.629C114.522 114.942 115.785 115.117 117.057 115.149" stroke="#263238" stroke-width="1.08162" stroke-miterlimit="10"/>
<path d="M47.6201 95.816L49.7792 110.917L103.509 105.424L103.311 89.7347L47.6201 95.816Z" fill="white" stroke="#263238" stroke-width="1.08162" stroke-linecap="round" stroke-linejoin="round"/>
<path d="M49.7793 110.917L59.3869 135.23L100.762 131.11L103.509 105.424L49.7793 110.917Z" fill="#E5E5E5" stroke="#263238" stroke-width="1.08162" stroke-linecap="round" stroke-linejoin="round"/>
<path d="M62.7391 117.271L66.5128 128.406C66.782 129.21 67.321 129.895 68.0382 130.346C68.7554 130.797 69.6067 130.986 70.4474 130.881L87.0209 129.074C87.8575 128.973 88.6337 128.586 89.2193 127.98C89.805 127.374 90.1646 126.586 90.2379 125.746L91.2648 114.035C91.2995 113.652 91.2483 113.265 91.115 112.904C90.9817 112.543 90.7696 112.216 90.4941 111.947C90.2186 111.678 89.8867 111.474 89.5224 111.349C89.1581 111.224 88.7707 111.183 88.3881 111.226L64.9229 113.849C64.5358 113.892 64.1632 114.021 63.8324 114.226C63.5017 114.432 63.2212 114.709 63.0117 115.037C62.8022 115.365 62.6689 115.736 62.6217 116.123C62.5745 116.509 62.6146 116.902 62.7391 117.271V117.271Z" fill="#263238"/>
<path d="M62.7393 123.389L69.5815 122.783L71.7529 116.887L76.863 126.074L79.4613 119.226L80.7604 121.397L93.1581 119.918" stroke="white" stroke-width="1.08162" stroke-linecap="round" stroke-linejoin="round"/>
<path d="M62.7391 117.271L66.5128 128.406C66.782 129.21 67.321 129.895 68.0382 130.346C68.7554 130.797 69.6067 130.986 70.4474 130.881L87.0209 129.074C87.8575 128.973 88.6337 128.586 89.2193 127.98C89.805 127.374 90.1646 126.586 90.2379 125.746L91.2648 114.035C91.2995 113.652 91.2483 113.265 91.115 112.904C90.9817 112.543 90.7696 112.216 90.4941 111.947C90.2186 111.678 89.8867 111.474 89.5224 111.349C89.1581 111.224 88.7707 111.183 88.3881 111.226L64.9229 113.849C64.5358 113.892 64.1632 114.021 63.8324 114.226C63.5017 114.432 63.2212 114.709 63.0117 115.037C62.8022 115.365 62.6689 115.736 62.6217 116.123C62.5745 116.509 62.6146 116.902 62.7391 117.271V117.271Z" stroke="#263238" stroke-width="1.08162" stroke-linecap="round" stroke-linejoin="round"/>
<path d="M97.2723 115.526C98.9328 115.526 100.279 114.18 100.279 112.519C100.279 110.859 98.9328 109.513 97.2723 109.513C95.6117 109.513 94.2656 110.859 94.2656 112.519C94.2656 114.18 95.6117 115.526 97.2723 115.526Z" fill="white" stroke="#263238" stroke-width="1.08162" stroke-linecap="round" stroke-linejoin="round"/>
<path d="M99.7221 121.923C99.7221 122.481 99.5567 123.026 99.2467 123.49C98.9367 123.954 98.4961 124.316 97.9807 124.529C97.4652 124.743 96.898 124.798 96.3507 124.69C95.8035 124.581 95.3009 124.312 94.9063 123.918C94.5118 123.523 94.2431 123.02 94.1343 122.473C94.0254 121.926 94.0813 121.359 94.2948 120.843C94.5083 120.328 94.8699 119.887 95.3338 119.577C95.7977 119.267 96.3432 119.102 96.9011 119.102C97.6493 119.102 98.3668 119.399 98.8959 119.928C99.4249 120.457 99.7221 121.175 99.7221 121.923V121.923Z" fill="#FBD689" stroke="#263238" stroke-width="1.08162" stroke-linecap="round" stroke-linejoin="round"/>
<path d="M60.6677 115.786C60.8392 116.355 60.8381 116.962 60.6645 117.531C60.4909 118.1 60.1526 118.604 59.6924 118.98C59.2322 119.357 58.6708 119.588 58.079 119.646C57.4873 119.703 56.8918 119.584 56.3678 119.303C55.8439 119.022 55.415 118.592 55.1355 118.067C54.8559 117.542 54.7381 116.947 54.797 116.355C54.856 115.763 55.089 115.203 55.4666 114.743C55.8443 114.284 56.3496 113.947 56.9187 113.775C57.2968 113.66 57.694 113.621 58.0874 113.659C58.4808 113.698 58.8627 113.814 59.2111 114.001C59.5595 114.188 59.8675 114.442 60.1174 114.748C60.3674 115.054 60.5544 115.407 60.6677 115.786Z" fill="#FBD689" stroke="#263238" stroke-width="1.08162" stroke-linecap="round" stroke-linejoin="round"/>
<path d="M62.5095 127.313C63.358 126.006 62.9867 124.259 61.68 123.411C60.3733 122.562 58.6262 122.933 57.7777 124.24C56.9291 125.547 57.3005 127.294 58.6071 128.142C59.9138 128.991 61.6609 128.62 62.5095 127.313Z" fill="white" stroke="#263238" stroke-width="1.08162" stroke-linecap="round" stroke-linejoin="round"/>
<path d="M69.7302 158.213C74.1446 158.213 77.7231 154.761 77.7231 150.504C77.7231 146.247 74.1446 142.796 69.7302 142.796C65.3158 142.796 61.7373 146.247 61.7373 150.504C61.7373 154.761 65.3158 158.213 69.7302 158.213Z" fill="#FBD689" stroke="#263238" stroke-width="1.08162" stroke-linecap="round" stroke-linejoin="round"/>
<path d="M57.9766 167.802L65.2952 151.37C65.609 150.665 66.1712 150.099 66.875 149.781C67.5788 149.462 68.375 149.414 69.1122 149.644C69.8727 149.878 70.5167 150.39 70.915 151.079C71.3132 151.767 71.4361 152.581 71.2589 153.356L66.4396 174.959L57.9766 167.802Z" fill="#263238" stroke="#263238" stroke-width="1.08162" stroke-linecap="round" stroke-linejoin="round"/>
<path d="M55.5327 142.635L71.5123 180.243L52.3343 182.878C52.3343 182.878 40.8646 171.217 33.1562 149.032L55.5327 142.635Z" fill="#ADADAD" stroke="#263238" stroke-width="1.08162" stroke-linecap="round" stroke-linejoin="round"/>
<path d="M55.5322 142.604L56.2808 139.035L72.2666 177.391L71.5119 180.212L55.5322 142.604Z" fill="white" stroke="#263238" stroke-width="1.08162" stroke-linecap="round" stroke-linejoin="round"/>
<path d="M56.2813 139.035L34.474 145.611L33.1562 149.001L55.5327 142.604L56.2813 139.035Z" fill="white" stroke="#263238" stroke-width="1.08162" stroke-linecap="round" stroke-linejoin="round"/>
<path d="M34.6592 152.571L56.6583 145.803" stroke="#263238" stroke-width="1.08162" stroke-linecap="round" stroke-linejoin="round"/>
<path d="M36.3486 156.518L58.5395 150.504" stroke="#263238" stroke-width="1.08162" stroke-linecap="round" stroke-linejoin="round"/>
<path d="M38.043 160.656L60.4194 154.643" stroke="#263238" stroke-width="1.08162" stroke-linecap="round" stroke-linejoin="round"/>
<path d="M40.4873 165.735L62.3008 159.339" stroke="#263238" stroke-width="1.08162" stroke-linecap="round" stroke-linejoin="round"/>
<path d="M42.8008 169.769L64.5586 164.04" stroke="#263238" stroke-width="1.08162" stroke-linecap="round" stroke-linejoin="round"/>
<path d="M45.1885 173.456L66.439 168.365" stroke="#263238" stroke-width="1.08162" stroke-linecap="round" stroke-linejoin="round"/>
<path d="M47.9414 177.001L67.7505 172.318" stroke="#263238" stroke-width="1.08162" stroke-linecap="round" stroke-linejoin="round"/>
<path d="M49.8906 179.896L69.5698 176.642" stroke="#263238" stroke-width="1.08162" stroke-linecap="round" stroke-linejoin="round"/>
<path d="M91.0183 158.213C95.4327 158.213 99.0112 154.761 99.0112 150.504C99.0112 146.247 95.4327 142.796 91.0183 142.796C86.6039 142.796 83.0254 146.247 83.0254 150.504C83.0254 154.761 86.6039 158.213 91.0183 158.213Z" fill="#FBD689" stroke="#263238" stroke-width="1.08162" stroke-linecap="round" stroke-linejoin="round"/>
<path d="M102.766 167.802L95.4474 151.37C95.1336 150.665 94.5713 150.099 93.8675 149.781C93.1637 149.462 92.3675 149.414 91.6303 149.644V149.644C90.8702 149.878 90.2266 150.39 89.8294 151.079C89.4322 151.768 89.3109 152.582 89.4898 153.356L94.3091 174.959L102.766 167.802Z" fill="#263238" stroke="#263238" stroke-width="1.08162" stroke-linecap="round" stroke-linejoin="round"/>
<path d="M105.216 142.635L89.2305 180.243L108.409 182.878C108.409 182.878 119.878 171.217 127.587 149.032L105.216 142.635Z" fill="#ADADAD" stroke="#263238" stroke-width="1.08162" stroke-linecap="round" stroke-linejoin="round"/>
<path d="M105.216 142.604L104.461 139.035L88.4756 177.391L89.2303 180.212L105.216 142.604Z" fill="white" stroke="#263238" stroke-width="1.08162" stroke-linecap="round" stroke-linejoin="round"/>
<path d="M104.461 139.035L126.274 145.611L127.592 149.001L105.216 142.604L104.461 139.035Z" fill="white" stroke="#263238" stroke-width="1.08162" stroke-linecap="round" stroke-linejoin="round"/>
<path d="M126.083 152.571L104.084 145.803" stroke="#263238" stroke-width="1.08162" stroke-linecap="round" stroke-linejoin="round"/>
<path d="M124.394 156.518L102.203 150.504" stroke="#263238" stroke-width="1.08162" stroke-linecap="round" stroke-linejoin="round"/>
<path d="M122.699 160.656L100.322 154.643" stroke="#263238" stroke-width="1.08162" stroke-linecap="round" stroke-linejoin="round"/>
<path d="M120.255 165.735L98.4414 159.339" stroke="#263238" stroke-width="1.08162" stroke-linecap="round" stroke-linejoin="round"/>
<path d="M117.942 169.769L96.1904 164.04" stroke="#263238" stroke-width="1.08162" stroke-linecap="round" stroke-linejoin="round"/>
<path d="M115.554 173.456L94.3096 168.365" stroke="#263238" stroke-width="1.08162" stroke-linecap="round" stroke-linejoin="round"/>
<path d="M112.806 177.001L92.9912 172.318" stroke="#263238" stroke-width="1.08162" stroke-linecap="round" stroke-linejoin="round"/>
<path d="M110.852 179.896L91.1729 176.642" stroke="#263238" stroke-width="1.08162" stroke-linecap="round" stroke-linejoin="round"/>
<path d="M119.785 110.472L121.864 111.381" stroke="#263238" stroke-width="1.08162" stroke-miterlimit="10"/>
<path d="M118.486 111.251L120.565 114.499" stroke="#263238" stroke-width="1.08162" stroke-miterlimit="10"/>
<path d="M117.317 111.381L116.927 113.46" stroke="#263238" stroke-width="1.08162" stroke-miterlimit="10"/>
<path d="M122.384 97.876H127.444" stroke="#263238" stroke-width="1.08162" stroke-miterlimit="10"/>
<path d="M118.486 98.1359L125.755 100.215" stroke="#263238" stroke-width="1.08162" stroke-miterlimit="10"/>
<path d="M121.214 95.4138L125.885 94.7642" stroke="#263238" stroke-width="1.08162" stroke-miterlimit="10"/>
<path d="M104.461 111.511L105.76 115.279" stroke="#263238" stroke-width="1.08162" stroke-miterlimit="10"/>
<path d="M106.15 111.251L109.782 117.227" stroke="#263238" stroke-width="1.08162" stroke-miterlimit="10"/>
<path d="M107.449 107.75L110.951 108.919" stroke="#263238" stroke-width="1.08162" stroke-miterlimit="10"/>
<path d="M126.794 105.801L125.625 107.075L126.473 108.585L124.895 107.861L123.726 109.135L123.924 107.416L122.353 106.692L124.048 106.352L124.252 104.632L125.099 106.141L126.794 105.801Z" fill="#FBD689" stroke="#263238" stroke-width="0.540812" stroke-linecap="round" stroke-linejoin="round"/>
<path d="M128.613 88.6582L127.437 89.9326L128.291 91.4421L126.714 90.7183L125.544 91.9927L125.742 90.2729L124.171 89.549L125.866 89.2088L126.064 87.489L126.918 88.9985L128.613 88.6582Z" fill="#FBD689" stroke="#263238" stroke-width="0.540812" stroke-linecap="round" stroke-linejoin="round"/>
<path d="M109.652 118.656L108.483 119.931L109.33 121.44L107.759 120.716L106.583 121.991L106.781 120.271L105.21 119.547L106.905 119.207L107.109 117.487L107.957 118.997L109.652 118.656Z" fill="#FBD689" stroke="#263238" stroke-width="0.540812" stroke-linecap="round" stroke-linejoin="round"/>
<path d="M53.6022 90.3285C58.4231 90.3285 62.3313 86.4647 62.3313 81.6984C62.3313 76.9321 58.4231 73.0683 53.6022 73.0683C48.7812 73.0683 44.873 76.9321 44.873 81.6984C44.873 86.4647 48.7812 90.3285 53.6022 90.3285Z" fill="#ADADAD" stroke="#263238" stroke-width="1.08162" stroke-linecap="round" stroke-linejoin="round"/>
<path d="M91.6432 87.9715C96.4641 87.9715 100.372 84.1076 100.372 79.3414C100.372 74.5751 96.4641 70.7112 91.6432 70.7112C86.8222 70.7112 82.9141 74.5751 82.9141 79.3414C82.9141 84.1076 86.8222 87.9715 91.6432 87.9715Z" fill="#ADADAD" stroke="#263238" stroke-width="1.08162" stroke-linecap="round" stroke-linejoin="round"/>
<path d="M74.0923 107.972C80.1569 107.972 85.0733 103.275 85.0733 97.4801C85.0733 91.6854 80.1569 86.9879 74.0923 86.9879C68.0277 86.9879 63.1113 91.6854 63.1113 97.4801C63.1113 103.275 68.0277 107.972 74.0923 107.972Z" fill="#FBD689" stroke="#263238" stroke-width="1.08162" stroke-linecap="round" stroke-linejoin="round"/>
<path d="M66.0557 92.0917L67.5714 98.7483C68.0242 100.398 69.0454 101.835 70.4547 102.805C71.864 103.775 73.5707 104.216 75.2735 104.05C76.9753 103.885 78.5645 103.125 79.7616 101.904C80.9587 100.683 81.6871 99.0796 81.8188 97.3749L82.3323 90.7183L66.0557 92.0917Z" fill="#263238" stroke="#263238" stroke-width="1.08162" stroke-linecap="round" stroke-linejoin="round"/>
<path d="M56.0525 64.0484L51.9385 80.523L92.9176 77.1885L86.8425 61.4996L56.0525 64.0484Z" fill="white" stroke="#263238" stroke-width="1.08162" stroke-linecap="round" stroke-linejoin="round"/>
<path d="M51.9385 80.523L59.189 98.5627L91.3525 95.4262L92.9176 77.1885L51.9385 80.523Z" fill="#E5E5E5" stroke="#263238" stroke-width="1.08162" stroke-linecap="round" stroke-linejoin="round"/>
<path d="M70.3673 87.8787C70.2559 90.4399 68.0164 92.4567 65.3377 92.6609C62.6589 92.865 60.0359 91.1885 59.4605 88.6521C58.8419 85.7444 61.0133 82.8863 64.4468 82.6697C67.8803 82.4532 70.4848 84.9587 70.3673 87.8787Z" fill="#FBD689" stroke="#263238" stroke-width="1.08162" stroke-linecap="round" stroke-linejoin="round"/>
<path d="M68.3202 88.021C68.2867 88.8306 67.9501 89.5981 67.3771 90.1711C66.8041 90.7441 66.0366 91.0807 65.2269 91.1142C64.405 91.203 63.5791 90.9868 62.9062 90.5066C62.2333 90.0265 61.7602 89.3158 61.5769 88.5097C61.2738 86.7527 62.6534 85.101 64.6701 84.9649C65.1124 84.9154 65.56 84.9561 65.9861 85.0846C66.4121 85.213 66.8077 85.4265 67.1488 85.7122C67.49 85.9979 67.7697 86.3497 67.971 86.7466C68.1724 87.1434 68.2911 87.5769 68.3202 88.021V88.021Z" fill="white" stroke="#263238" stroke-width="1.08162" stroke-linecap="round" stroke-linejoin="round"/>
<path d="M88.599 86.1156C88.4938 88.6768 86.2543 90.6936 83.5756 90.8977C80.8968 91.1019 78.2676 89.4253 77.6984 86.8827C77.0489 83.9813 79.2512 81.1231 82.6847 80.9004C86.1182 80.6777 88.7227 83.1956 88.599 86.1156Z" fill="#FBD689" stroke="#263238" stroke-width="1.08162" stroke-linecap="round" stroke-linejoin="round"/>
<path d="M86.5516 86.2578C86.5196 87.068 86.1834 87.8363 85.6101 88.4096C85.0368 88.9828 84.2685 89.319 83.4584 89.3511C82.6358 89.4383 81.8099 89.2207 81.1372 88.7395C80.4644 88.2583 79.9916 87.547 79.8084 86.7404C79.5052 84.9834 80.8848 83.3378 82.9016 83.2017C83.3441 83.1504 83.7925 83.1899 84.2192 83.3177C84.646 83.4454 85.0423 83.6588 85.3839 83.9448C85.7254 84.2308 86.0051 84.5834 86.2059 84.9811C86.4067 85.3788 86.5243 85.8132 86.5516 86.2578V86.2578Z" fill="white" stroke="#263238" stroke-width="1.08162" stroke-linecap="round" stroke-linejoin="round"/>
<path d="M70.5659 95.3149C70.189 95.3187 69.8251 95.1767 69.5505 94.9184C69.2759 94.6602 69.1119 94.3057 69.0927 93.9292C69.0735 93.5528 69.2007 93.1835 69.4476 92.8986C69.6945 92.6138 70.042 92.4355 70.4174 92.401L78.2619 91.6153C78.6474 91.5768 79.0325 91.693 79.3324 91.9384C79.6324 92.1837 79.8225 92.5382 79.8611 92.9238C79.8996 93.3094 79.7834 93.6945 79.538 93.9944C79.2927 94.2943 78.9382 94.4844 78.5526 94.523L70.7391 95.3087L70.5659 95.3149Z" fill="#263238" stroke="#263238" stroke-width="1.08162" stroke-linecap="round" stroke-linejoin="round"/>
<path d="M56.8071 72.1527C58.4437 72.1527 59.7704 70.826 59.7704 69.1894C59.7704 67.5528 58.4437 66.2261 56.8071 66.2261C55.1705 66.2261 53.8438 67.5528 53.8438 69.1894C53.8438 70.826 55.1705 72.1527 56.8071 72.1527Z" fill="#FBD689" stroke="#263238" stroke-width="1.08162" stroke-linecap="round" stroke-linejoin="round"/>
<path d="M54.9756 69.9936C56.373 69.9936 57.5058 68.8608 57.5058 67.4634C57.5058 66.066 56.373 64.9331 54.9756 64.9331C53.5782 64.9331 52.4453 66.066 52.4453 67.4634C52.4453 68.8608 53.5782 69.9936 54.9756 69.9936Z" fill="#FBD689" stroke="#263238" stroke-width="1.08162" stroke-linecap="round" stroke-linejoin="round"/>
<path d="M54.487 64.7723C54.4858 65.166 54.3679 65.5505 54.1483 65.8773C53.9287 66.2041 53.6171 66.4584 53.253 66.6083C52.8889 66.7581 52.4886 66.7967 52.1026 66.7191C51.7165 66.6415 51.3622 66.4513 51.0842 66.1725C50.8062 65.8937 50.6171 65.5387 50.5408 65.1524C50.4644 64.7662 50.5042 64.366 50.6552 64.0023C50.8061 63.6387 51.0614 63.328 51.3889 63.1093C51.7163 62.8907 52.1012 62.774 52.495 62.774C52.7571 62.774 53.0166 62.8258 53.2587 62.9263C53.5008 63.0268 53.7207 63.174 53.9057 63.3597C54.0908 63.5453 54.2374 63.7657 54.3371 64.0081C54.4369 64.2505 54.4878 64.5102 54.487 64.7723V64.7723Z" fill="#FBD689" stroke="#263238" stroke-width="1.08162" stroke-linecap="round" stroke-linejoin="round"/>
<path d="M52.0119 64.0732L47.4834 59.8664" stroke="#263238" stroke-width="1.08162" stroke-linecap="round" stroke-linejoin="round"/>
<path d="M85.9076 70.105C87.5442 70.105 88.871 68.7783 88.871 67.1417C88.871 65.5051 87.5442 64.1783 85.9076 64.1783C84.271 64.1783 82.9443 65.5051 82.9443 67.1417C82.9443 68.7783 84.271 70.105 85.9076 70.105Z" fill="#FBD689" stroke="#263238" stroke-width="1.08162" stroke-linecap="round" stroke-linejoin="round"/>
<path d="M87.7392 67.9459C89.1367 67.9459 90.2695 66.8131 90.2695 65.4156C90.2695 64.0182 89.1367 62.8854 87.7392 62.8854C86.3418 62.8854 85.209 64.0182 85.209 65.4156C85.209 66.8131 86.3418 67.9459 87.7392 67.9459Z" fill="#FBD689" stroke="#263238" stroke-width="1.08162" stroke-linecap="round" stroke-linejoin="round"/>
<path d="M88.2275 62.7245C88.2288 63.1183 88.3467 63.5028 88.5663 63.8296C88.7859 64.1563 89.0975 64.4107 89.4616 64.5605C89.8257 64.7104 90.226 64.7489 90.612 64.6714C90.998 64.5938 91.3524 64.4036 91.6304 64.1248C91.9083 63.8459 92.0974 63.491 92.1738 63.1047C92.2502 62.7185 92.2104 62.3183 92.0594 61.9546C91.9085 61.591 91.6531 61.2802 91.3257 61.0616C90.9982 60.843 90.6133 60.7263 90.2196 60.7263C89.9575 60.7263 89.6979 60.778 89.4558 60.8785C89.2137 60.979 88.9939 61.1263 88.8088 61.312C88.6238 61.4976 88.4772 61.7179 88.3774 61.9603C88.2777 62.2027 88.2267 62.4624 88.2275 62.7245V62.7245Z" fill="#FBD689" stroke="#263238" stroke-width="1.08162" stroke-linecap="round" stroke-linejoin="round"/>
<path d="M90.7021 62.0193L95.2306 57.8187" stroke="#263238" stroke-width="1.08162" stroke-linecap="round" stroke-linejoin="round"/>
<path d="M84.0711 170.833C84.0711 172.262 83.1245 173.419 81.9553 173.419C80.786 173.419 79.8457 172.262 79.8457 170.833C79.8457 169.404 80.7922 168.247 81.9553 168.247C83.1183 168.247 84.0711 169.404 84.0711 170.833Z" fill="white" stroke="#263238" stroke-width="1.08162" stroke-linecap="round" stroke-linejoin="round"/>
<path d="M88.2523 172.998H88.0914L82.2205 172.138C81.9428 172.086 81.6961 171.928 81.5319 171.699C81.3677 171.469 81.2988 171.184 81.3396 170.904C81.3803 170.625 81.5276 170.372 81.7505 170.198C81.9735 170.025 82.255 169.944 82.536 169.973L88.407 170.827C88.6912 170.854 88.9535 170.992 89.1378 171.21C89.3222 171.428 89.4141 171.709 89.394 171.994C89.3738 172.279 89.2431 172.545 89.0299 172.735C88.8166 172.924 88.5376 173.024 88.2523 173.011V172.998Z" fill="white" stroke="#263238" stroke-width="1.08162" stroke-miterlimit="10"/>
<path d="M6.20156 182.921C5.43444 181.715 5.58292 180.23 6.5975 179.612C7.61208 178.993 8.99785 179.457 9.76497 180.657C10.5321 181.857 10.3527 183.348 9.36285 183.973C8.37301 184.598 6.9625 184.128 6.20156 182.921Z" fill="white" stroke="#263238" stroke-width="1.08162" stroke-linecap="round" stroke-linejoin="round"/>
<path d="M1.50602 183.336C1.55146 183.308 1.59904 183.283 1.64832 183.262L7.06766 180.843C7.33004 180.74 7.62209 180.742 7.88302 180.848C8.14395 180.955 8.35364 181.158 8.46844 181.416C8.58324 181.673 8.5943 181.965 8.49931 182.231C8.40432 182.496 8.21062 182.715 7.95851 182.841L2.53916 185.26C2.28672 185.372 2.00127 185.384 1.74 185.295C1.47873 185.205 1.26095 185.02 1.13029 184.777C0.999632 184.534 0.965744 184.25 1.03542 183.983C1.1051 183.716 1.27319 183.484 1.50602 183.336V183.336Z" fill="white" stroke="#263238" stroke-width="1.08162" stroke-miterlimit="10"/>
<path d="M146.406 155.206C145.639 154 145.818 152.521 146.802 151.896C147.785 151.271 149.202 151.742 149.969 152.942C150.736 154.142 150.557 155.633 149.573 156.258C148.59 156.883 147.167 156.412 146.406 155.206Z" fill="white" stroke="#263238" stroke-width="1.08162" stroke-linecap="round" stroke-linejoin="round"/>
<path d="M141.716 155.627L141.852 155.552L147.271 153.134C147.404 153.067 147.548 153.029 147.696 153.02C147.843 153.011 147.991 153.032 148.131 153.082C148.27 153.132 148.398 153.209 148.506 153.31C148.615 153.41 148.701 153.532 148.762 153.667C148.822 153.802 148.854 153.948 148.856 154.096C148.859 154.244 148.831 154.391 148.775 154.527C148.719 154.664 148.636 154.788 148.531 154.892C148.425 154.996 148.3 155.078 148.162 155.132L142.749 157.551C142.497 157.663 142.211 157.675 141.95 157.586C141.689 157.496 141.471 157.311 141.34 157.068C141.21 156.825 141.176 156.541 141.245 156.274C141.315 156.006 141.483 155.775 141.716 155.627V155.627Z" fill="white" stroke="#263238" stroke-width="1.08162" stroke-miterlimit="10"/>
<path d="M41.7742 184.084C39.2997 184.084 37.3076 185.272 37.3076 186.732C37.3076 188.192 39.3058 189.38 41.7742 189.38C44.2426 189.38 46.2471 188.192 46.2471 186.732C46.2471 185.272 44.2426 184.084 41.7742 184.084ZM41.7742 188.099C40.4998 188.099 39.4667 187.481 39.4667 186.732C39.4667 185.984 40.4998 185.365 41.7742 185.365C43.0486 185.365 44.088 185.984 44.088 186.732C44.088 187.481 43.0548 188.099 41.7742 188.099Z" fill="white" stroke="#263238" stroke-width="1.08162" stroke-miterlimit="10"/>
<path d="M82.0356 184.511L78.9857 183.274L75.9296 184.511L75.1748 187.233L77.2906 189.417H80.6808L82.7903 187.233L82.0356 184.511ZM79.8456 187.988H78.1257L77.0493 186.881L77.4329 185.501L78.9857 184.883L80.5323 185.501L80.9158 186.881L79.8456 187.988Z" fill="white" stroke="#263238" stroke-width="1.08162" stroke-linecap="round" stroke-linejoin="round"/>
<path d="M139.916 144.986L136.86 143.749L133.804 144.986L133.049 147.714L135.165 149.898H138.555L140.671 147.714L139.916 144.986ZM137.72 148.469H136L134.93 147.362L135.307 145.976L136.86 145.357L138.413 145.976L138.796 147.362L137.72 148.469Z" fill="white" stroke="#263238" stroke-width="1.08162" stroke-linecap="round" stroke-linejoin="round"/>
<path d="M102.457 190.723C102.37 190.723 102.285 190.708 102.203 190.679C101.788 190.504 101.437 190.203 101.201 189.819C100.861 189.293 100.582 188.359 101.121 186.912C101.309 186.382 101.625 185.907 102.04 185.528C102.456 185.15 102.958 184.879 103.502 184.74C104.201 184.571 104.93 184.567 105.631 184.726C106.331 184.886 106.986 185.207 107.542 185.662C107.617 185.722 107.679 185.797 107.724 185.882C107.769 185.966 107.798 186.059 107.807 186.155C107.816 186.25 107.806 186.347 107.778 186.438C107.749 186.53 107.703 186.615 107.641 186.689C107.518 186.838 107.341 186.932 107.148 186.951C106.956 186.969 106.764 186.911 106.614 186.788C106.235 186.485 105.791 186.272 105.318 186.165C104.844 186.058 104.353 186.059 103.88 186.169C103.56 186.252 103.266 186.412 103.023 186.635C102.78 186.858 102.597 187.138 102.488 187.45C101.937 188.904 102.599 189.306 102.735 189.343C102.909 189.421 103.047 189.562 103.119 189.738C103.192 189.914 103.194 190.112 103.125 190.289C103.069 190.42 102.975 190.53 102.857 190.607C102.738 190.684 102.599 190.724 102.457 190.723Z" fill="white" stroke="#263238" stroke-width="1.08162" stroke-linecap="round" stroke-linejoin="round"/>
<path d="M117.54 193.407C117.309 193.408 117.079 193.373 116.859 193.302L104.987 189.436C104.707 189.353 104.446 189.215 104.219 189.029C103.993 188.843 103.806 188.614 103.67 188.355C103.534 188.097 103.451 187.813 103.426 187.521C103.401 187.23 103.435 186.936 103.525 186.658C103.616 186.38 103.761 186.122 103.953 185.901C104.145 185.68 104.379 185.5 104.641 185.37C104.904 185.241 105.19 185.166 105.482 185.149C105.774 185.132 106.067 185.174 106.342 185.272L118.22 189.139C118.713 189.302 119.132 189.636 119.402 190.08C119.672 190.524 119.775 191.049 119.694 191.562C119.612 192.075 119.35 192.543 118.956 192.881C118.561 193.219 118.059 193.405 117.54 193.407V193.407Z" fill="white" stroke="#263238" stroke-width="1.08162" stroke-linecap="round" stroke-linejoin="round"/>
<path d="M104.628 189.337C104.628 189.337 105.098 186.318 108.872 186.244" stroke="#263238" stroke-width="1.08162" stroke-linecap="round" stroke-linejoin="round"/>
<path d="M107.171 189.993C107.171 189.993 107.647 186.98 111.415 186.899" stroke="#263238" stroke-width="1.08162" stroke-linecap="round" stroke-linejoin="round"/>
<path d="M109.436 190.84C109.436 190.84 109.906 187.827 113.673 187.747" stroke="#263238" stroke-width="1.08162" stroke-linecap="round" stroke-linejoin="round"/>
<path d="M111.792 191.508C111.792 191.508 112.262 188.495 116.03 188.415" stroke="#263238" stroke-width="1.08162" stroke-linecap="round" stroke-linejoin="round"/>
<path d="M114.149 192.35C114.149 192.35 114.62 189.337 118.387 189.256" stroke="#263238" stroke-width="1.08162" stroke-linecap="round" stroke-linejoin="round"/>
<path d="M117.533 193.364C117.448 193.363 117.364 193.346 117.286 193.315C116.868 193.144 116.515 192.845 116.277 192.461C115.937 191.935 115.659 191.001 116.197 189.547C116.387 189.019 116.704 188.545 117.119 188.166C117.534 187.788 118.035 187.517 118.579 187.376C119.278 187.208 120.007 187.204 120.707 187.365C121.408 187.526 122.062 187.847 122.618 188.304C122.693 188.364 122.755 188.439 122.8 188.523C122.846 188.608 122.874 188.701 122.883 188.796C122.892 188.892 122.882 188.988 122.854 189.08C122.825 189.172 122.779 189.257 122.717 189.331C122.594 189.48 122.417 189.574 122.224 189.593C122.032 189.611 121.84 189.552 121.69 189.43C121.311 189.126 120.868 188.913 120.394 188.806C119.921 188.699 119.429 188.701 118.956 188.811C118.636 188.891 118.342 189.05 118.099 189.272C117.856 189.495 117.672 189.774 117.564 190.085C117.013 191.545 117.675 191.941 117.811 191.978C117.965 192.046 118.091 192.163 118.169 192.312C118.247 192.46 118.271 192.631 118.239 192.795C118.206 192.96 118.119 193.108 117.99 193.216C117.862 193.324 117.701 193.385 117.533 193.389V193.364Z" fill="white" stroke="#263238" stroke-width="1.08162" stroke-linecap="round" stroke-linejoin="round"/>
</svg>
