<svg width="186" height="206" viewBox="0 0 186 206" fill="none" xmlns="http://www.w3.org/2000/svg">
<path d="M121.571 12.4932V122.542L152.414 176.512H181.984" stroke="#263238" stroke-linecap="round" stroke-linejoin="round"/>
<path d="M121.571 119.72H100.727L21.0835 186.943C20.0353 187.827 19.1919 188.928 18.6114 190.17C18.031 191.413 17.7274 192.766 17.7218 194.138C17.7161 195.509 18.0085 196.865 18.5787 198.112C19.1489 199.359 19.9833 200.468 21.0241 201.36V201.36C22.7411 202.829 24.9265 203.637 27.1862 203.637H181.298" stroke="#263238" stroke-linecap="round" stroke-linejoin="round"/>
<path d="M17.7277 195.544C17.7189 196.915 18.0098 198.272 18.5803 199.519C19.1507 200.766 19.9868 201.873 21.03 202.763V202.763C22.7454 204.231 24.9292 205.037 27.1867 205.035H181.299" stroke="#263238" stroke-linecap="round" stroke-linejoin="round"/>
<path d="M4.83105 145.669L84.3827 122.775" stroke="#263238" stroke-linecap="round" stroke-linejoin="round"/>
<path d="M58.3152 5.11707V126.196L1 139.362" stroke="#263238" stroke-linecap="round" stroke-linejoin="round"/>
<path d="M70.4668 123.417L83.8054 120.589" stroke="#263238" stroke-miterlimit="10"/>
<path d="M58.7039 50.135L70.4724 49.8814V123.417L58.3154 123.67" stroke="#263238" stroke-linecap="round" stroke-linejoin="round"/>
<path d="M70.7363 50.135L87.8089 64.882V89.4387" stroke="#263238" stroke-linecap="round" stroke-linejoin="round"/>
<path d="M85.8662 58.6713V50.5235H94.4079V80.0175" stroke="#263238" stroke-linecap="round" stroke-linejoin="round"/>
<path d="M94.4082 50.5235L99.0649 57.5058V72.2528H104.499V78.0749" stroke="#263238" stroke-linecap="round" stroke-linejoin="round"/>
<path d="M104.499 72.2528L106.825 75.7493" stroke="#263238" stroke-linecap="round" stroke-linejoin="round"/>
<path d="M121.63 24.2563H109.495V89.7139H121.63V24.2563Z" stroke="#263238" stroke-linecap="round" stroke-linejoin="round"/>
<path d="M135.293 59.7991H126.477V94.554H135.293V59.7991Z" stroke="#263238" stroke-linecap="round" stroke-linejoin="round"/>
<path d="M130.868 58.2612L152.414 44.2373" stroke="#263238" stroke-linecap="round" stroke-linejoin="round"/>
<path d="M152.042 34.4384L125.958 56.6856" stroke="#263238" stroke-linecap="round" stroke-linejoin="round"/>
<path d="M152.415 15.7092L135.639 36.5049" stroke="#263238" stroke-linecap="round" stroke-linejoin="round"/>
<path d="M135.438 85.9259L152.414 82.1057" stroke="#263238" stroke-linecap="round" stroke-linejoin="round"/>
<path d="M122.941 88.775L126.276 87.9279" stroke="#263238" stroke-linecap="round" stroke-linejoin="round"/>
<path d="M152.414 176.518V9.48236" stroke="#263238" stroke-linecap="round" stroke-linejoin="round"/>
<path d="M152.414 82.1057H185" stroke="#263238" stroke-linecap="round" stroke-linejoin="round"/>
<path d="M135.438 83.9942L152.414 78.9329" stroke="#263238" stroke-linecap="round" stroke-linejoin="round"/>
<path d="M152.414 78.9329H185" stroke="#263238" stroke-linecap="round" stroke-linejoin="round"/>
<path d="M135.271 78.9761L151.837 70.8013H174.705" stroke="#263238" stroke-linecap="round" stroke-linejoin="round"/>
<path d="M122.969 85.0518L126.498 83.309" stroke="#263238" stroke-linecap="round" stroke-linejoin="round"/>
<path d="M109.57 38.2748H121.231" stroke="#263238" stroke-linecap="round" stroke-linejoin="round"/>
<path d="M109.57 51.1494H121.231" stroke="#263238" stroke-linecap="round" stroke-linejoin="round"/>
<path d="M109.57 64.024H121.231" stroke="#263238" stroke-linecap="round" stroke-linejoin="round"/>
<path d="M109.57 76.8932H121.231" stroke="#263238" stroke-linecap="round" stroke-linejoin="round"/>
<path d="M143.392 59.8854H124.027C123.922 59.8854 123.819 59.8649 123.723 59.825C123.627 59.7852 123.539 59.7267 123.466 59.6531C123.392 59.5794 123.334 59.492 123.294 59.3958C123.254 59.2995 123.233 59.1964 123.233 59.0922C123.233 58.988 123.254 58.8849 123.294 58.7887C123.334 58.6924 123.392 58.605 123.466 58.5313C123.539 58.4577 123.627 58.3992 123.723 58.3594C123.819 58.3195 123.922 58.299 124.027 58.299H143.419C143.524 58.299 143.627 58.3195 143.723 58.3594C143.819 58.3992 143.907 58.4577 143.98 58.5313C144.054 58.605 144.112 58.6924 144.152 58.7887C144.192 58.8849 144.213 58.988 144.213 59.0922C144.213 59.1964 144.192 59.2995 144.152 59.3958C144.112 59.492 144.054 59.5794 143.98 59.6531C143.907 59.7267 143.819 59.7852 143.723 59.825C143.627 59.8649 143.524 59.8854 143.419 59.8854H143.392Z" stroke="#263238" stroke-miterlimit="10"/>
<path d="M126.471 13.5886V52.3743" stroke="#263238" stroke-linecap="round" stroke-linejoin="round"/>
<path d="M130.701 10.0597V49.5522" stroke="#263238" stroke-linecap="round" stroke-linejoin="round"/>
<path d="M135.639 6.53619V44.9658" stroke="#263238" stroke-linecap="round" stroke-linejoin="round"/>
<path d="M135.639 28.2331L147.979 8.65137" stroke="#263238" stroke-linecap="round" stroke-linejoin="round"/>
<path d="M58.3633 60.7433H70.299L86.0064 71.0117" stroke="#263238" stroke-linecap="round" stroke-linejoin="round"/>
<path d="M58.3633 69.9649H70.299L86.0064 79.3861" stroke="#263238" stroke-linecap="round" stroke-linejoin="round"/>
<path d="M58.3633 79.1757H70.299L86.0064 87.5555" stroke="#263238" stroke-linecap="round" stroke-linejoin="round"/>
<path d="M58.3633 88.3919H70.299L84.5442 94.6781" stroke="#263238" stroke-linecap="round" stroke-linejoin="round"/>
<path d="M58.3633 97.6081H70.299L80.562 101.018" stroke="#263238" stroke-linecap="round" stroke-linejoin="round"/>
<path d="M58.3633 106.824H70.299L73.72 107.558" stroke="#263238" stroke-linecap="round" stroke-linejoin="round"/>
<path d="M67.5799 63.8892H65.0654V68.7077H67.5799V63.8892Z" stroke="#263238" stroke-linecap="round" stroke-linejoin="round"/>
<path d="M62.5506 63.8892H60.0361V68.7077H62.5506V63.8892Z" stroke="#263238" stroke-linecap="round" stroke-linejoin="round"/>
<path d="M67.5799 72.6844H65.0654V77.503H67.5799V72.6844Z" stroke="#263238" stroke-linecap="round" stroke-linejoin="round"/>
<path d="M62.5506 72.6844H60.0361V77.503H62.5506V72.6844Z" stroke="#263238" stroke-linecap="round" stroke-linejoin="round"/>
<path d="M67.5799 81.2747H65.0654V86.0933H67.5799V81.2747Z" stroke="#263238" stroke-linecap="round" stroke-linejoin="round"/>
<path d="M62.5506 81.2747H60.0361V86.0933H62.5506V81.2747Z" stroke="#263238" stroke-linecap="round" stroke-linejoin="round"/>
<path d="M67.5799 90.4855H65.0654V95.304H67.5799V90.4855Z" stroke="#263238" stroke-linecap="round" stroke-linejoin="round"/>
<path d="M62.5506 90.4855H60.0361V95.304H62.5506V90.4855Z" stroke="#263238" stroke-linecap="round" stroke-linejoin="round"/>
<path d="M67.5799 99.7017H65.0654V104.52H67.5799V99.7017Z" stroke="#263238" stroke-linecap="round" stroke-linejoin="round"/>
<path d="M62.5506 99.7017H60.0361V104.52H62.5506V99.7017Z" stroke="#263238" stroke-linecap="round" stroke-linejoin="round"/>
<path d="M67.5799 109.128H65.0654V113.947H67.5799V109.128Z" stroke="#263238" stroke-linecap="round" stroke-linejoin="round"/>
<path d="M62.5506 109.128H60.0361V113.947H62.5506V109.128Z" stroke="#263238" stroke-linecap="round" stroke-linejoin="round"/>
<path d="M67.5799 53.8366H65.0654V58.6551H67.5799V53.8366Z" stroke="#263238" stroke-linecap="round" stroke-linejoin="round"/>
<path d="M74.4921 61.5851L72.6035 60.1174V55.2989L74.4921 56.7666" stroke="#263238" stroke-linecap="round" stroke-linejoin="round"/>
<path d="M72.6035 64.3046L74.4921 65.7723V70.5908L72.6035 69.1232" stroke="#263238" stroke-linecap="round" stroke-linejoin="round"/>
<path d="M74.4921 75.1989V79.4995L72.6035 78.5498V73.7313" stroke="#263238" stroke-linecap="round" stroke-linejoin="round"/>
<path d="M74.4921 87.8199L72.6035 86.8702V82.0517L74.4921 83.1956V87.8199Z" stroke="#263238" stroke-linecap="round" stroke-linejoin="round"/>
<path d="M74.4921 96.6476L72.6035 95.9515V91.133L74.4921 92.0233" stroke="#263238" stroke-linecap="round" stroke-linejoin="round"/>
<path d="M62.5506 53.8366H60.0361V58.6551H62.5506V53.8366Z" stroke="#263238" stroke-linecap="round" stroke-linejoin="round"/>
<path d="M138.104 151.804V88.3379L146.565 87.2803V165.559" stroke="#263238" stroke-linecap="round" stroke-linejoin="round"/>
<path d="M129.644 136.642V96.0972" stroke="#263238" stroke-linecap="round" stroke-linejoin="round"/>
<path d="M131.402 139.464V98.2124" stroke="#263238" stroke-linecap="round" stroke-linejoin="round"/>
<path d="M140.22 30.8663V42.4998" stroke="#263238" stroke-linecap="round" stroke-linejoin="round"/>
<path d="M144.261 26.3175V37.9511" stroke="#263238" stroke-linecap="round" stroke-linejoin="round"/>
<path d="M140.22 8.13336V20.6572" stroke="#263238" stroke-linecap="round" stroke-linejoin="round"/>
<path d="M144.261 3.58459V14.2577" stroke="#263238" stroke-linecap="round" stroke-linejoin="round"/>
<path d="M1.70117 143.344L86.6487 121.388" stroke="#263238" stroke-linecap="round" stroke-linejoin="round"/>
<path d="M7.99316 99.27L58.0617 102.087" stroke="#263238" stroke-linecap="round" stroke-linejoin="round"/>
<path d="M7.99316 91.16L58.0617 97.8563" stroke="#263238" stroke-linecap="round" stroke-linejoin="round"/>
<path d="M32.6737 131.802V103.338L24.2129 103.02V133.761" stroke="#263238" stroke-linecap="round" stroke-linejoin="round"/>
<path d="M40.7842 129.924V103.641L35.1455 103.43V131.23" stroke="#263238" stroke-linecap="round" stroke-linejoin="round"/>
<path d="M21.7475 134.333V102.928L8.7002 102.443V137.349" stroke="#263238" stroke-linecap="round" stroke-linejoin="round"/>
<path d="M55.946 126.417V104.202L43.2549 103.732V129.358" stroke="#263238" stroke-linecap="round" stroke-linejoin="round"/>
<path d="M76.1436 62.3028V57.29" stroke="#263238" stroke-linecap="round" stroke-linejoin="round"/>
<path d="M76.1436 71.2707V66.2579" stroke="#263238" stroke-linecap="round" stroke-linejoin="round"/>
<path d="M76.1436 88.6833V83.6705" stroke="#263238" stroke-linecap="round" stroke-linejoin="round"/>
<path d="M76.1436 97.5218V92.509" stroke="#263238" stroke-linecap="round" stroke-linejoin="round"/>
<path d="M77.9883 89.7409V84.7281" stroke="#263238" stroke-linecap="round" stroke-linejoin="round"/>
<path d="M79.9688 82.6183V77.6055" stroke="#263238" stroke-linecap="round" stroke-linejoin="round"/>
<path d="M81.5498 83.8054V78.7926" stroke="#263238" stroke-linecap="round" stroke-linejoin="round"/>
<path d="M81.5498 75.0964V70.0836" stroke="#263238" stroke-linecap="round" stroke-linejoin="round"/>
<path d="M152.91 86.9296H170.895" stroke="#263238" stroke-linecap="round" stroke-linejoin="round"/>
<path d="M152.91 92.9191H170.895" stroke="#263238" stroke-linecap="round" stroke-linejoin="round"/>
<path d="M152.91 98.9139H170.895" stroke="#263238" stroke-linecap="round" stroke-linejoin="round"/>
<path d="M152.91 104.909H170.895" stroke="#263238" stroke-linecap="round" stroke-linejoin="round"/>
<path d="M152.91 110.904H170.895" stroke="#263238" stroke-linecap="round" stroke-linejoin="round"/>
<path d="M152.91 116.898H170.895" stroke="#263238" stroke-linecap="round" stroke-linejoin="round"/>
<path d="M152.91 122.893H170.895" stroke="#263238" stroke-linecap="round" stroke-linejoin="round"/>
<path d="M152.91 128.888H170.895" stroke="#263238" stroke-linecap="round" stroke-linejoin="round"/>
<path d="M152.91 134.883H170.895" stroke="#263238" stroke-linecap="round" stroke-linejoin="round"/>
<path d="M152.91 140.878H170.895" stroke="#263238" stroke-linecap="round" stroke-linejoin="round"/>
<path d="M152.91 146.867H170.895" stroke="#263238" stroke-linecap="round" stroke-linejoin="round"/>
<path d="M152.91 152.862H170.895" stroke="#263238" stroke-linecap="round" stroke-linejoin="round"/>
<path d="M170.896 81.9924V160.271H174.424V174.726" stroke="#263238" stroke-linecap="round" stroke-linejoin="round"/>
<path d="M170.895 160.271H154.675" stroke="#263238" stroke-linecap="round" stroke-linejoin="round"/>
<path d="M122.235 117.249L127.879 121.836" stroke="#263238" stroke-linecap="round" stroke-linejoin="round"/>
<path d="M121.178 95.7411H113.424" stroke="#263238" stroke-linecap="round" stroke-linejoin="round"/>
<path d="M113.898 95.8706V102.027H116.791V95.9623" stroke="#263238" stroke-linecap="round" stroke-linejoin="round"/>
<path d="M51.5645 96.707V2.66193" stroke="#263238" stroke-miterlimit="10"/>
<path d="M55.3262 97.0847V27.4884" stroke="#263238" stroke-miterlimit="10"/>
<path d="M45.1709 96.3292V12.067" stroke="#263238" stroke-miterlimit="10"/>
<path d="M38.0215 94.8292V15.4556" stroke="#263238" stroke-miterlimit="10"/>
<path d="M31.627 94.0738V13.9501" stroke="#263238" stroke-miterlimit="10"/>
<path d="M23.3496 92.946V9.43378" stroke="#263238" stroke-miterlimit="10"/>
<path d="M14.7002 92.5683V12.4447" stroke="#263238" stroke-miterlimit="10"/>
<path d="M9.80566 77.5245L55.7031 89.0825" stroke="#263238" stroke-miterlimit="10"/>
<path d="M10.9395 64.3586L55.0941 78.5066" stroke="#263238" stroke-miterlimit="10"/>
<path d="M20.7168 51.9426L55.4987 67.7256" stroke="#263238" stroke-miterlimit="10"/>
<path d="M20.7168 15.8279L55.2937 39.8558" stroke="#263238" stroke-miterlimit="10"/>
<path d="M46.8488 43.2876L29.9219 42.4081V35.3556L46.8488 34.4707V43.2876Z" fill="#FBD689" stroke="#263238" stroke-linecap="round" stroke-linejoin="round"/>
<path d="M78.2266 20.2957H47.2002V29.1126H78.2266V20.2957Z" fill="#FBD689" stroke="#263238" stroke-linecap="round" stroke-linejoin="round"/>
<path d="M56.7938 26.3661C56.7096 26.4283 56.607 26.4606 56.5024 26.4579C56.3962 26.4598 56.2922 26.4277 56.2056 26.3661C56.1138 26.3014 56.0486 26.2055 56.0222 26.0963L55.3585 23.8678L54.6948 26.0963C54.6683 26.2055 54.6031 26.3014 54.5113 26.3661C54.4247 26.4277 54.3207 26.4598 54.2145 26.4579C54.1099 26.4606 54.0073 26.4283 53.9231 26.3661C53.8361 26.306 53.7746 26.2156 53.7505 26.1125L53.0706 23.5387C53.0689 23.5099 53.0689 23.4811 53.0706 23.4523C53.0689 23.4113 53.0768 23.3704 53.0937 23.333C53.1105 23.2955 53.1359 23.2625 53.1677 23.2365C53.2289 23.1825 53.3073 23.1519 53.389 23.1502C53.4559 23.1492 53.5209 23.1722 53.5724 23.2149C53.6294 23.261 53.6678 23.3262 53.6803 23.3984L54.2631 25.7888L54.9592 23.5333C54.9806 23.4241 55.0352 23.3242 55.1156 23.2473C55.193 23.1878 55.2878 23.1555 55.3854 23.1555C55.483 23.1555 55.5779 23.1878 55.6552 23.2473C55.7356 23.3242 55.7903 23.4241 55.8117 23.5333L56.4862 25.7888L57.0744 23.3984C57.0869 23.3262 57.1252 23.261 57.1823 23.2149C57.2337 23.1722 57.2988 23.1492 57.3657 23.1502C57.4474 23.1519 57.5257 23.1825 57.587 23.2365C57.6185 23.2627 57.6436 23.2958 57.6605 23.3332C57.6773 23.3706 57.6854 23.4114 57.6841 23.4523C57.6858 23.4811 57.6858 23.5099 57.6841 23.5387L57.0042 26.1125C56.9877 26.1666 56.9606 26.2169 56.9245 26.2605C56.8884 26.304 56.8439 26.3399 56.7938 26.3661V26.3661Z" fill="#2B2F33"/>
<path d="M58.0671 24.7096C58.1553 24.5358 58.2921 24.3914 58.461 24.2941C58.6428 24.1834 58.8525 24.1272 59.0653 24.1322C59.2259 24.1307 59.3852 24.1601 59.5348 24.2185C59.6627 24.2714 59.7757 24.3547 59.8639 24.4614C59.9456 24.5672 60.0094 24.6857 60.0528 24.8121C60.097 24.948 60.1188 25.0901 60.1175 25.233C60.1213 25.2852 60.1059 25.3369 60.0744 25.3787C60.0607 25.397 60.0427 25.4115 60.022 25.4209C60.0012 25.4304 59.9784 25.4344 59.9556 25.4326H58.5096C58.5028 25.5201 58.5153 25.608 58.5462 25.69C58.5771 25.7721 58.6257 25.8464 58.6885 25.9077C58.7513 25.9689 58.8268 26.0156 58.9096 26.0445C58.9924 26.0734 59.0806 26.0837 59.1679 26.0747C59.3896 26.0637 59.6025 25.9846 59.7776 25.8481C59.8017 25.8275 59.8322 25.816 59.8639 25.8157C59.8877 25.8159 59.9111 25.8213 59.9326 25.8316C59.954 25.8418 59.973 25.8567 59.988 25.8751C60.0254 25.9144 60.0466 25.9665 60.0474 26.0208C60.047 26.0508 60.0401 26.0804 60.027 26.1074C60.014 26.1344 59.9951 26.1583 59.9718 26.1773C59.7363 26.3752 59.4377 26.4823 59.1301 26.4794C58.9717 26.4876 58.8134 26.4642 58.6642 26.4104C58.515 26.3567 58.3781 26.2738 58.2613 26.1665C58.1497 26.0501 58.0633 25.9118 58.0076 25.7605C57.9519 25.6092 57.9281 25.4479 57.9376 25.2869C57.935 25.087 57.9794 24.8892 58.0671 24.7096V24.7096ZM59.6265 25.1089C59.6227 24.9527 59.5698 24.8017 59.4754 24.6772C59.428 24.6197 59.3675 24.5746 59.2989 24.5454C59.2303 24.5163 59.1558 24.5041 59.0815 24.5099C59.0057 24.5063 58.93 24.5206 58.8607 24.5515C58.7913 24.5824 58.7302 24.6292 58.6822 24.688C58.5815 24.8059 58.5226 24.9539 58.5149 25.1089H59.6265Z" fill="#2B2F33"/>
<path d="M60.4904 26.0693C60.4898 26.02 60.507 25.9721 60.5389 25.9344C60.5563 25.9164 60.5774 25.9024 60.6006 25.8931C60.6239 25.8838 60.6488 25.8795 60.6738 25.8805C60.7154 25.8818 60.7561 25.8929 60.7925 25.9128L60.949 25.9992C61.0136 26.0278 61.0803 26.0513 61.1487 26.0693C61.235 26.0924 61.3237 26.1051 61.4131 26.1071C61.493 26.1074 61.5727 26.0983 61.6505 26.0801C61.7179 26.0654 61.7797 26.0317 61.8285 25.983C61.8529 25.9603 61.8723 25.9327 61.8853 25.902C61.8983 25.8713 61.9047 25.8382 61.9041 25.8049C61.9041 25.6754 61.7962 25.5837 61.5857 25.5351L61.2296 25.4434L60.9706 25.3624C60.8995 25.3406 60.8308 25.3117 60.7655 25.2761C60.7073 25.2486 60.6553 25.2096 60.6126 25.1613C60.5699 25.1131 60.5375 25.0567 60.5173 24.9955C60.4945 24.9222 60.4836 24.8457 60.485 24.7689C60.4804 24.6741 60.501 24.5798 60.5446 24.4955C60.5882 24.4111 60.6532 24.3398 60.7332 24.2887C60.9327 24.1677 61.1639 24.1095 61.3969 24.1214C61.6546 24.1196 61.9093 24.1768 62.1415 24.2887C62.17 24.3004 62.1953 24.3186 62.2156 24.3418C62.2358 24.365 62.2505 24.3926 62.2583 24.4224C62.2661 24.4521 62.267 24.4833 62.2608 24.5135C62.2545 24.5437 62.2414 24.572 62.2224 24.5962C62.2071 24.6139 62.188 24.628 62.1665 24.6373C62.145 24.6467 62.1217 24.6511 62.0983 24.6502C62.0681 24.6571 62.0368 24.6571 62.0066 24.6502H61.958H61.8879H61.8178H61.726H61.6397H61.5318H61.4346C61.333 24.6463 61.2317 24.6647 61.1379 24.7042C61.1009 24.7184 61.0693 24.7437 61.0471 24.7765C61.0249 24.8092 61.0133 24.848 61.0138 24.8876C61.0112 24.917 61.0157 24.9465 61.027 24.9738C61.0383 25.001 61.0559 25.0251 61.0785 25.0441C61.1591 25.0902 61.2465 25.123 61.3375 25.1412L61.6882 25.2276C61.8854 25.266 62.0704 25.3511 62.2278 25.4758C62.285 25.5327 62.3294 25.6011 62.3582 25.6764C62.3871 25.7517 62.3996 25.8323 62.3951 25.9128C62.401 26.0168 62.381 26.1205 62.3367 26.2148C62.2924 26.309 62.2253 26.3907 62.1415 26.4524C61.9436 26.583 61.7093 26.6473 61.4724 26.6359C61.153 26.6476 60.8385 26.5548 60.5767 26.3715C60.5439 26.3666 60.5133 26.3523 60.4884 26.3305C60.4635 26.3086 60.4454 26.28 60.4363 26.2482C60.4272 26.2163 60.4275 26.1825 60.4371 26.1508C60.4466 26.1191 60.4651 26.0908 60.4904 26.0693Z" fill="#2B2F33"/>
<path d="M63.2044 26.2852C63.0785 26.1345 63.0149 25.9415 63.0263 25.7456V24.5639H62.8051C62.7775 24.5658 62.7499 24.562 62.7239 24.5527C62.6979 24.5435 62.6741 24.5289 62.654 24.5099C62.6353 24.4919 62.6208 24.47 62.6115 24.4457C62.6022 24.4215 62.5983 24.3955 62.6 24.3696C62.5983 24.345 62.6018 24.3203 62.6101 24.2971C62.6185 24.2739 62.6316 24.2526 62.6486 24.2347C62.6687 24.2158 62.6925 24.2012 62.7185 24.1919C62.7445 24.1826 62.7721 24.1788 62.7997 24.1808H63.0533L63.1234 23.6412C63.1296 23.567 63.1599 23.4968 63.2098 23.4415C63.2351 23.4142 63.2661 23.3928 63.3006 23.3788C63.3351 23.3648 63.3722 23.3586 63.4094 23.3606C63.4386 23.3593 63.4678 23.3644 63.4949 23.3756C63.5219 23.3867 63.5461 23.4037 63.5659 23.4253C63.6035 23.485 63.6223 23.5545 63.6199 23.625V24.2077H63.9868C64.0136 24.2051 64.0406 24.2087 64.0658 24.218C64.091 24.2273 64.1138 24.2423 64.1325 24.2617C64.1675 24.3022 64.1866 24.3539 64.1864 24.4074C64.1866 24.4576 64.1672 24.506 64.1325 24.5423C64.1126 24.5596 64.0895 24.5728 64.0645 24.5811C64.0395 24.5895 64.0131 24.5928 63.9868 24.5909H63.5929V25.6323C63.5856 25.7429 63.6041 25.8537 63.6468 25.956C63.6643 25.9917 63.6923 26.0212 63.727 26.0405C63.7617 26.0598 63.8016 26.068 63.8411 26.0639H64.0461C64.0734 26.0616 64.1008 26.0657 64.1261 26.0761C64.1515 26.0864 64.174 26.1026 64.1918 26.1233C64.2276 26.1654 64.2468 26.2191 64.2458 26.2744C64.2519 26.3065 64.2519 26.3394 64.2458 26.3715C64.2338 26.3991 64.2129 26.4219 64.1864 26.4363L64.1055 26.4794C64.0696 26.4835 64.0334 26.4835 63.9976 26.4794H63.6954C63.6043 26.4848 63.5132 26.4702 63.4284 26.4366C63.3436 26.4031 63.2671 26.3514 63.2044 26.2852V26.2852Z" fill="#2B2F33"/>
<path d="M68.0604 25.697H66.6035L66.3984 26.2366C66.3777 26.3036 66.3361 26.3622 66.2797 26.4039C66.228 26.4417 66.1657 26.4625 66.1016 26.4632C66.0195 26.4641 65.9403 26.4331 65.8804 26.3769C65.8513 26.3513 65.828 26.3198 65.8122 26.2844C65.7964 26.249 65.7884 26.2106 65.7887 26.1718C65.7814 26.1326 65.7814 26.0924 65.7887 26.0531L66.8301 23.5494C66.8678 23.4177 66.9428 23.2997 67.0459 23.2095C67.1366 23.1531 67.2413 23.1232 67.3481 23.1232C67.4549 23.1232 67.5596 23.1531 67.6503 23.2095C67.7536 23.3005 67.8301 23.4181 67.8715 23.5494L68.8697 26.0585C68.8858 26.0962 68.8949 26.1364 68.8967 26.1772C68.8972 26.2166 68.8886 26.2554 68.8718 26.291C68.855 26.3265 68.8303 26.3577 68.7996 26.3823C68.7435 26.4288 68.6728 26.4542 68.5999 26.4542C68.527 26.4542 68.4564 26.4288 68.4003 26.3823C68.3439 26.3406 68.3023 26.282 68.2816 26.215L68.0604 25.697ZM67.3319 23.7329L66.7923 25.2384H67.9093L67.3319 23.7329Z" fill="#2B2F33"/>
<path d="M69.949 26.3661C69.8574 26.2632 69.7893 26.1417 69.7493 26.0099L69.1396 24.5315C69.1345 24.4939 69.1345 24.4558 69.1396 24.4182C69.1391 24.3828 69.1461 24.3477 69.1601 24.3152C69.174 24.2826 69.1946 24.2534 69.2205 24.2293C69.2723 24.1822 69.3394 24.1554 69.4094 24.1538C69.462 24.1534 69.5132 24.1704 69.5551 24.2023C69.6033 24.2392 69.6391 24.2901 69.6576 24.348L70.2565 25.875L70.8555 24.348C70.8759 24.2911 70.9113 24.2407 70.958 24.2023C70.9998 24.1704 71.0511 24.1534 71.1037 24.1538C71.1739 24.1544 71.2413 24.1814 71.2925 24.2293C71.3185 24.2534 71.339 24.2826 71.353 24.3152C71.3669 24.3477 71.3739 24.3828 71.3735 24.4182C71.3812 24.4555 71.3812 24.4941 71.3735 24.5315L70.7637 26.0099C70.7238 26.1417 70.6557 26.2632 70.5641 26.3661C70.4837 26.4328 70.3826 26.4693 70.2781 26.4693C70.1737 26.4693 70.0725 26.4328 69.9921 26.3661H69.949Z" fill="#2B2F33"/>
<path d="M71.7677 24.7095C71.8539 24.5361 71.9889 24.3917 72.1562 24.2941C72.3403 24.184 72.5515 24.1279 72.7659 24.1322C72.9264 24.1318 73.0856 24.161 73.2354 24.2185C73.3625 24.2728 73.4751 24.3559 73.5645 24.4613C73.6468 24.5659 73.709 24.6848 73.748 24.8121C73.7914 24.9483 73.815 25.09 73.8181 25.2329C73.8193 25.2848 73.8042 25.3358 73.775 25.3786C73.7605 25.3974 73.7416 25.4121 73.7199 25.4216C73.6982 25.431 73.6744 25.4348 73.6509 25.4326H72.2263C72.2186 25.5203 72.2304 25.6086 72.261 25.6911C72.2916 25.7737 72.3401 25.8484 72.4031 25.9099C72.4662 25.9713 72.542 26.018 72.6253 26.0465C72.7086 26.075 72.7972 26.0847 72.8846 26.0747C73.1045 26.0626 73.3154 25.9835 73.489 25.8481C73.5149 25.8271 73.5473 25.8157 73.5807 25.8157C73.6044 25.8162 73.6278 25.8218 73.6492 25.832C73.6705 25.8423 73.6895 25.8569 73.7048 25.8751C73.7407 25.915 73.76 25.9671 73.7588 26.0207C73.7594 26.0504 73.7535 26.0798 73.7414 26.1069C73.7292 26.134 73.7112 26.158 73.6886 26.1772C73.4531 26.3751 73.1545 26.4823 72.8469 26.4794C72.6885 26.4876 72.5301 26.4642 72.381 26.4104C72.2318 26.3567 72.0949 26.2737 71.9781 26.1664C71.8665 26.05 71.7801 25.9118 71.7244 25.7605C71.6687 25.6091 71.6449 25.4479 71.6544 25.2869C71.6468 25.0883 71.6856 24.8906 71.7677 24.7095V24.7095ZM73.3271 25.1088C73.3233 24.9527 73.2704 24.8016 73.176 24.6772C73.1286 24.6197 73.0681 24.5745 72.9995 24.5454C72.9309 24.5163 72.8564 24.5041 72.7821 24.5099C72.7055 24.5063 72.6291 24.5205 72.5589 24.5514C72.4886 24.5823 72.4265 24.629 72.3774 24.688C72.2783 24.8064 72.2213 24.9545 72.2156 25.1088H73.3271Z" fill="#2B2F33"/>
<path d="M74.4388 26.3661C74.408 26.3372 74.3838 26.302 74.368 26.2629C74.3521 26.2237 74.345 26.1816 74.347 26.1395C74.346 26.0974 74.3536 26.0556 74.3694 26.0166C74.3852 25.9777 74.4088 25.9423 74.4388 25.9128C74.4694 25.883 74.5058 25.8595 74.5456 25.8437C74.5854 25.828 74.628 25.8203 74.6708 25.8211C74.7587 25.8203 74.8436 25.8531 74.9082 25.9128C74.939 25.9417 74.9631 25.9769 74.979 26.0161C74.9948 26.0552 75.002 26.0973 74.9999 26.1395C75.0016 26.1816 74.9943 26.2236 74.9785 26.2627C74.9627 26.3017 74.9387 26.337 74.9082 26.3661C74.8779 26.3984 74.8411 26.4238 74.8001 26.4406C74.7591 26.4573 74.715 26.4651 74.6708 26.4632C74.6274 26.4643 74.5844 26.4562 74.5444 26.4395C74.5044 26.4227 74.4684 26.3977 74.4388 26.3661V26.3661Z" fill="#2B2F33"/>
<path d="M46.8438 58.0238H15.8174V66.8407H46.8438V58.0238Z" fill="#FBD689" stroke="#263238" stroke-linecap="round" stroke-linejoin="round"/>
<path d="M39.8556 60.2146H24.1212V58.817L17.9375 62.2974L24.1212 65.7831V64.3856H39.8556V60.2146Z" fill="#2B2F33"/>
<path d="M43.6224 36.6615L34.1903 36.9744V35.7819L31.1309 38.7443L34.1903 41.7066V40.5141L43.6224 40.8325V36.6615Z" fill="#2B2F33"/>
<path d="M50.3724 180.457H44.3506L45.2517 2.72131H49.4713L50.3724 180.457Z" fill="#263238" stroke="#263238" stroke-linecap="round" stroke-linejoin="round"/>
<path d="M52.6231 178.304H41.7666V193.795H52.6231V178.304Z" fill="#263238" stroke="#263238" stroke-linecap="round" stroke-linejoin="round"/>
<path d="M40.9297 8.02008H52.547V14.2577C52.547 15.7981 51.9355 17.2754 50.8468 18.3651C49.7582 19.4548 48.2814 20.0677 46.7411 20.0691V20.0691C45.1998 20.0691 43.7216 19.4568 42.6318 18.367C41.542 17.2772 40.9297 15.799 40.9297 14.2577V8.02008Z" fill="white" stroke="#263238" stroke-linecap="round" stroke-linejoin="round"/>
<path d="M45.5057 1H47.9447C49.5189 1 51.0286 1.62534 52.1417 2.73846C53.2548 3.85158 53.8802 5.3613 53.8802 6.93549V13.049H39.5811V6.92469C39.5839 5.35424 40.209 3.84893 41.3195 2.73845C42.43 1.62798 43.9353 1.00285 45.5057 1V1Z" fill="#263238" stroke="#263238" stroke-linecap="round" stroke-linejoin="round"/>
<path opacity="0.11" d="M99.3185 200.993C108.667 200.993 116.245 198.508 116.245 195.441C116.245 192.375 108.667 189.889 99.3185 189.889C89.97 189.889 82.3916 192.375 82.3916 195.441C82.3916 198.508 89.97 200.993 99.3185 200.993Z" fill="black"/>
<path d="M104.061 100.22C104.061 100.22 112.069 100.144 115.641 101.536C119.213 102.928 120.853 111.422 120.896 114.724C120.94 118.026 118.77 119.37 118.77 119.37L119.089 121.469C120.324 121.807 121.402 122.568 122.134 123.619C122.867 124.67 123.208 125.944 123.098 127.221C122.936 132.012 122.844 137.182 119.235 138.897C115.625 140.613 99.6744 138.514 97.2193 134.753C94.7641 130.992 99.4532 124.749 98.3794 118.738C97.3056 112.727 96.221 106.808 96.5502 102.502C96.8793 98.1962 104.061 100.22 104.061 100.22Z" fill="#263238" stroke="#263238" stroke-linecap="round" stroke-linejoin="round"/>
<path d="M123.114 127.221C123.224 125.944 122.883 124.67 122.15 123.619C121.418 122.568 120.34 121.807 119.105 121.469L118.786 119.37C118.786 119.37 120.945 118.021 120.912 114.724C120.875 111.702 119.493 104.315 116.515 102.027L116.466 102.065C116.466 102.065 113.655 100.538 112.106 103.722C110.558 106.905 110.061 112.425 110.288 115.835C110.515 119.246 109.101 126.956 108.54 132.093C108.189 135.271 109.3 137.764 111.329 139.329C114.799 139.648 117.896 139.545 119.251 138.897C122.86 137.182 122.947 132.012 123.114 127.221Z" fill="#FBD689" stroke="#263238" stroke-linecap="round" stroke-linejoin="round"/>
<path d="M119.553 108.357C117.14 109.103 114.669 109.644 112.166 109.975L112.058 111.476C114.687 111.354 117.285 110.849 119.768 109.975L119.553 108.357Z" fill="#263238" stroke="#263238" stroke-linecap="round" stroke-linejoin="round"/>
<path d="M122.742 124.679C121.143 125.394 119.508 126.023 117.842 126.562C115.684 127.205 114.605 127.205 114.734 128.278C114.864 129.352 114.95 134.171 116.66 135.455C118.371 136.739 121.635 136.086 122.742 134.349C123.783 132.73 124.679 128.694 122.742 124.679Z" fill="#263238" stroke="#263238" stroke-linecap="round" stroke-linejoin="round"/>
<path d="M118.786 119.37C118.786 119.37 115.231 120.336 107.239 121.453L107.331 124.096C107.331 124.096 115.608 122.909 119.105 121.469L118.786 119.37Z" fill="#263238" stroke="#263238" stroke-linecap="round" stroke-linejoin="round"/>
<path d="M87.7444 157.799C87.7444 157.799 86.6652 162.332 87.2048 165.386C87.7444 168.44 92.9083 181.525 93.4155 183.635C93.9227 185.745 94.3328 187.844 94.3328 187.844L97.4624 187.509C97.4283 184.341 97.1504 181.181 96.6314 178.055C95.7411 172.152 95.8436 169.422 95.0774 167.021C94.785 165.952 94.3874 164.914 93.8903 163.924L95.5091 159.893L87.7444 157.799Z" fill="white" stroke="#263238" stroke-linecap="round" stroke-linejoin="round"/>
<path d="M100.198 161.328C100.198 161.328 99.5718 164.765 99.7282 166.476C99.8847 168.186 102.906 182.34 103.462 185.108C104.018 187.876 104.455 190.833 104.455 190.833L107.153 191.124C107.153 191.124 108.588 183.03 108.281 178.207C107.973 173.383 105.987 167.026 105.987 167.026L108.799 160.729L100.198 161.328Z" fill="white" stroke="#263238" stroke-linecap="round" stroke-linejoin="round"/>
<path d="M90.3716 140.651C90.3716 140.651 88.3751 146.587 87.42 151.184C86.8549 153.916 86.4942 156.686 86.3408 159.472C87.8379 159.999 89.3754 160.403 90.9381 160.681C93.1612 161.031 96.075 161.366 96.075 161.366L96.156 161.933C96.156 161.933 97.3323 162.958 102.34 162.823C105.39 162.738 108.433 162.479 111.453 162.046C111.453 162.046 111.896 149.096 111.491 146.937C111.244 145.644 111.064 144.338 110.951 143.025C110.951 143.025 104.579 143.063 98.5409 142.626C92.5029 142.189 90.3716 140.651 90.3716 140.651Z" fill="#263238" stroke="#263238" stroke-linecap="round" stroke-linejoin="round"/>
<path d="M86.5029 157.869C86.5029 157.869 93.1021 159.645 96.1508 159.434" stroke="white" stroke-linecap="round" stroke-linejoin="round"/>
<path d="M96.291 159.861C96.291 159.861 104.309 161.42 111.475 159.575" stroke="white" stroke-linecap="round" stroke-linejoin="round"/>
<path d="M96.0488 161.366L97.6676 148.448C98.2456 147.99 98.8571 147.575 99.4968 147.207" stroke="white" stroke-linecap="round" stroke-linejoin="round"/>
<path d="M97.6292 148.993L94.915 146.052" stroke="white" stroke-linecap="round" stroke-linejoin="round"/>
<path d="M97.8342 105.751C97.8342 105.751 93.2909 105.211 91.7045 105.432C90.1181 105.653 86.9939 106.344 85.6773 106.312C84.3607 106.279 79.7094 106.382 77.837 106.247C75.9647 106.112 73.1966 106.161 73.72 107.58C74.2434 108.999 77.9072 112.15 81.7221 113.245L87.8734 115.01C87.8734 115.01 90.2962 121.404 91.4455 123.681C92.5948 125.958 92.5247 128.597 92.557 129.978C92.5894 131.359 89.8591 141.272 89.8591 141.272C89.8591 141.272 92.4815 143.22 98.6382 143.97C102.575 144.403 106.553 144.312 110.466 143.7C110.765 143.695 111.062 143.653 111.351 143.576C111.351 143.576 111.529 135.115 111.524 128.273C111.518 121.431 113.364 116.791 110.919 112.404C108.475 108.017 102.372 106.468 100.667 106.01C99.7475 105.745 98.7864 105.658 97.8342 105.751V105.751Z" fill="white" stroke="#263238" stroke-linecap="round" stroke-linejoin="round"/>
<path d="M100.641 105.999C99.7303 105.734 98.7786 105.643 97.8347 105.729C97.8347 105.729 93.2913 105.189 91.7049 105.411C90.1185 105.632 86.9943 106.322 85.6777 106.29C85.1111 106.29 83.9186 106.29 82.5967 106.29C81.0855 108.055 80.1597 110.246 79.9473 112.56C80.5229 112.821 81.1161 113.041 81.7225 113.218L87.8738 114.983C87.8738 114.983 90.2966 121.377 91.4459 123.654C92.5952 125.931 92.5251 128.57 92.5575 129.951C92.5898 131.332 89.8595 141.245 89.8595 141.245C89.8595 141.245 92.4819 143.193 98.6387 143.943C102.576 144.376 106.553 144.285 110.466 143.673C110.765 143.668 111.063 143.626 111.351 143.549C111.351 143.549 111.529 135.088 111.524 128.246C111.519 121.404 113.364 116.764 110.92 112.377C108.475 107.99 102.367 106.436 100.641 105.999Z" fill="white" stroke="#263238" stroke-linecap="round" stroke-linejoin="round"/>
<path d="M95.6865 105.68C95.2507 107.577 95.1195 109.532 95.298 111.47C95.6757 114.103 97.3053 114.853 99.3071 114.476C101.309 114.098 103.44 110.596 103.942 108.718C104.444 106.84 104.315 106.215 102.064 105.713C99.8143 105.211 96.825 103.765 95.6865 105.68Z" stroke="#263238" stroke-linecap="round" stroke-linejoin="round"/>
<path d="M85.1865 108.648L88.6831 114.594L86.352 112.263" stroke="#263238" stroke-width="0.5" stroke-linecap="round" stroke-linejoin="round"/>
<path d="M88.6831 114.594L87.4043 109.231" stroke="#263238" stroke-width="0.5" stroke-linecap="round" stroke-linejoin="round"/>
<path d="M98.3037 123.492C98.3037 123.492 102.691 127.129 107.45 126.627" stroke="#263238" stroke-width="0.5" stroke-linecap="round" stroke-linejoin="round"/>
<path d="M96.3018 124.874C99.0192 126.104 101.953 126.784 104.935 126.875" stroke="#263238" stroke-width="0.5" stroke-linecap="round" stroke-linejoin="round"/>
<path d="M92.1531 132.471C92.1531 132.471 94.4733 134.888 100.938 134.484C107.402 134.079 111.524 132.379 111.524 132.379L111.497 134.44C111.497 134.44 103.037 137.387 96.2054 136.016C92.1477 135.201 91.5703 134.43 91.5703 134.43L92.1531 132.471Z" fill="#263238" stroke="#263238" stroke-linecap="round" stroke-linejoin="round"/>
<path d="M80.1522 107.612C80.1522 107.612 81.8303 106.862 84.1343 104.407C86.4384 101.952 88.71 100.738 89.7838 100.565C90.955 100.349 92.1064 100.037 93.2264 99.6316C93.5502 99.4643 95.0071 99.1999 95.5143 98.234C96.0215 97.2682 95.0556 97.6944 94.4891 97.7214C93.9225 97.7484 94.4135 97.0955 95.0286 96.3886C95.6438 95.6818 97.0791 93.9767 96.901 93.027C96.723 92.0773 95.3686 92.6007 93.2372 93.5666C91.1058 94.5324 89.7137 96.4965 89.2227 97.2088C89.0039 97.5656 88.7266 97.883 88.4025 98.1477C88.4025 98.1477 83.3789 100.306 79.359 102.303C75.339 104.299 73.5368 105.875 73.5638 107.251C73.5908 108.627 75.0584 108.988 75.0584 108.988" fill="white"/>
<path d="M80.1522 107.612C80.1522 107.612 81.8303 106.862 84.1343 104.407C86.4384 101.952 88.71 100.738 89.7838 100.565C90.955 100.349 92.1064 100.037 93.2264 99.6316C93.5502 99.4643 95.0071 99.1999 95.5143 98.234C96.0215 97.2682 95.0556 97.6944 94.4891 97.7214C93.9225 97.7484 94.4135 97.0955 95.0286 96.3886C95.6438 95.6818 97.0791 93.9767 96.901 93.027C96.723 92.0773 95.3686 92.6007 93.2372 93.5666C91.1058 94.5324 89.7137 96.4965 89.2227 97.2088C89.0039 97.5656 88.7266 97.883 88.4025 98.1477C88.4025 98.1477 83.3789 100.306 79.359 102.303C75.339 104.299 73.5368 105.875 73.5638 107.251C73.5908 108.627 75.0584 108.988 75.0584 108.988" stroke="#263238" stroke-linecap="round" stroke-linejoin="round"/>
<path d="M95.7998 104.763C95.7998 104.763 95.9347 107.358 96.2639 109.781C96.593 112.204 97.7099 114.039 99.8413 112.625C101.973 111.211 102.734 107.769 102.734 107.769C100.198 107.394 97.8065 106.357 95.7998 104.763Z" stroke="#263238" stroke-linecap="round" stroke-linejoin="round"/>
<path d="M92.1907 99.1945C92.1907 99.1945 91.4568 99.7881 91.9425 101.353C92.0255 101.591 92.1556 101.811 92.3249 101.998C92.4942 102.185 92.6994 102.337 92.9283 102.444C93.1572 102.55 93.4052 102.61 93.6576 102.619C93.9099 102.628 94.1616 102.587 94.3976 102.497C94.5001 102.319 94.9804 104.617 95.6872 105.686C96.3941 106.754 99.8097 108.659 101.267 108.923C102.723 109.188 103.965 108.335 104.191 107.472C104.539 105.195 104.719 102.895 104.731 100.592C104.731 98.2826 104.92 97.3275 104.483 96.3725C104.045 95.4174 103.22 94.6674 100.382 94.4137C97.5434 94.1601 95.8437 95.1907 94.4462 96.1944C94.057 96.422 93.7426 96.7581 93.5414 97.1615C93.3401 97.5649 93.2608 98.0183 93.313 98.4661L92.1907 99.1945Z" fill="white" stroke="#263238" stroke-linecap="round" stroke-linejoin="round"/>
<path d="M93.1133 98.5254C93.3061 99.0593 93.6012 99.5505 93.982 99.9715C94.2369 100.271 94.5267 100.539 94.8454 100.77L94.5756 99.4157L95.1907 99.8258C95.1819 99.5315 95.1566 99.2378 95.1152 98.9463C95.0558 98.5254 95.7573 99.038 95.7573 99.038C95.7415 98.4874 95.8275 97.9386 96.0109 97.4192C96.1142 97.1778 96.2543 96.9539 96.4264 96.7556C96.4264 96.7556 93.4964 97.7646 93.1133 98.5254Z" fill="#263238" stroke="#263238" stroke-linecap="round" stroke-linejoin="round"/>
<path d="M92.1902 99.1945C92.1902 99.1945 96.5069 95.5846 104.644 96.7286C104.644 96.7286 104.196 92.0827 103.511 91.3327C102.826 90.5826 100.619 89.2714 97.1221 90.356C93.6255 91.4406 91.5535 93.3669 91.4726 94.4677C91.3916 95.5684 92.1902 99.1945 92.1902 99.1945Z" fill="#FBD689" stroke="#263238" stroke-linecap="round" stroke-linejoin="round"/>
<path d="M96.0112 97.4408C96.0112 97.4408 98.2181 98.1584 99.8746 97.6296C101.968 96.8211 104.213 96.4804 106.452 96.6314C109.528 96.8526 109.107 96.9174 109.107 96.9174C109.107 96.9174 107.386 95.8382 103.172 96.0217C98.9573 96.2051 95.7576 97.117 96.0112 97.4408Z" fill="#FBD689" stroke="#263238" stroke-linecap="round" stroke-linejoin="round"/>
<path d="M104.062 96.7771C104.062 96.7771 104.946 97.3167 107.59 97.7753C110.234 98.234 109.959 97.5757 109.128 96.9174C108.297 96.2591 104.294 96.4749 104.062 96.7771Z" fill="#FBD689" stroke="#263238" stroke-linecap="round" stroke-linejoin="round"/>
<path d="M102.184 98.1962C102.07 98.3439 101.998 98.5198 101.976 98.7052C101.954 98.8905 101.983 99.0782 102.059 99.2484C102.319 100.049 102.461 100.884 102.48 101.725C102.48 101.909 102.448 102.141 101.806 102.092C101.328 102.041 100.857 101.945 100.397 101.806" stroke="#263238" stroke-linecap="round" stroke-linejoin="round"/>
<path d="M99.7447 99.2376C99.7447 99.5937 99.5451 99.8689 99.3562 99.8528C99.1673 99.8366 99.0324 99.5398 99.054 99.1891C99.0756 98.8383 99.2591 98.5523 99.4479 98.5685C99.6368 98.5847 99.7825 98.8815 99.7447 99.2376Z" fill="#263238"/>
<path d="M103.673 98.9678C103.673 99.324 103.473 99.5992 103.285 99.583C103.096 99.5668 102.961 99.27 102.988 98.9193C103.015 98.5686 103.187 98.288 103.376 98.2988C103.565 98.3096 103.7 98.6117 103.673 98.9678Z" fill="#263238"/>
<path d="M97.8564 98.0829C97.8564 98.0829 98.6928 96.6584 100.09 97.1386" stroke="#263238" stroke-linecap="round" stroke-linejoin="round"/>
<path d="M102.745 96.8257C102.745 96.8257 104.024 96.4102 104.321 97.3976Z" fill="white"/>
<path d="M102.745 96.8257C102.745 96.8257 104.024 96.4102 104.321 97.3976" stroke="#263238" stroke-linecap="round" stroke-linejoin="round"/>
<path d="M100.284 104.607C100.284 104.607 101.363 103.08 102.47 104.299" stroke="#263238" stroke-linecap="round" stroke-linejoin="round"/>
<path d="M106.932 108.448C106.932 108.448 104.104 108.864 103.403 114.012C102.761 118.706 105.162 123.665 106.522 125.51C107.881 127.356 108.874 128.429 109.554 128.478C110.234 128.527 110.925 128.581 111.642 124.701C112.36 120.821 114.017 117.816 112.403 114.26C110.79 110.704 109.856 110.294 106.932 108.448Z" fill="#263238" stroke="#263238" stroke-linecap="round" stroke-linejoin="round"/>
<path d="M93.6741 105.475C92.0492 107.321 90.8843 109.525 90.2747 111.907C89.093 116.132 91.3808 123.298 91.7046 124.005C91.9524 124.665 92.1331 125.348 92.2442 126.044C90.7431 124.093 89.5528 121.922 88.7153 119.607C87.4657 116.515 87.2111 113.111 87.9868 109.868C88.4981 108.279 89.3259 106.811 90.4204 105.551C91.4946 105.358 92.5921 105.332 93.6741 105.475V105.475Z" fill="#263238" stroke="#263238" stroke-linecap="round" stroke-linejoin="round"/>
<path d="M107.92 189.506C107.92 189.506 104.24 189.592 103.878 189.765C103.517 189.937 103.522 191.2 103.522 191.2C103.522 191.2 101.164 194.545 99.9607 195.214C98.7574 195.883 96.8958 197.027 97.1494 197.702C97.403 198.376 97.7969 198.501 100.096 198.668C102.394 198.835 106.161 197.049 107.585 196.876C109.01 196.704 108.869 196.515 108.745 195.452C108.621 194.389 107.93 191.47 107.93 191.47C108.115 190.827 108.111 190.146 107.92 189.506V189.506Z" fill="#FBD689" stroke="#263238" stroke-linecap="round" stroke-linejoin="round"/>
<path d="M103.522 191.2C103.522 191.2 102.836 188.885 103.743 188.799C104.649 188.712 105.621 188.583 105.658 189.441C105.618 190.18 105.463 190.908 105.2 191.599C105.2 191.599 103.991 191.632 103.522 191.2Z" fill="white" stroke="#263238" stroke-linecap="round" stroke-linejoin="round"/>
<path d="M105.2 191.621C105.2 191.621 104.002 193.547 102.896 194.27C101.79 194.993 101.277 194.151 101.358 193.957C101.439 193.763 103.516 191.2 103.516 191.2L105.2 191.621Z" fill="white" stroke="#263238" stroke-linecap="round" stroke-linejoin="round"/>
<path d="M99.4421 197.966C97.8234 197.848 97.3485 197.362 97.2028 197.125C97.1532 197.211 97.1227 197.308 97.1134 197.407C97.1041 197.507 97.1162 197.607 97.1489 197.702C97.4025 198.371 97.7964 198.501 100.095 198.668C102.394 198.835 106.16 197.049 107.585 196.876C109.009 196.704 108.869 196.515 108.745 195.452C108.745 195.398 108.745 195.333 108.718 195.268C108.108 195.5 107.218 195.808 106.284 196.078C104.601 196.558 101.595 198.123 99.4421 197.966Z" fill="#263238" stroke="#263238" stroke-linecap="round" stroke-linejoin="round"/>
<path d="M97.8503 186.149C97.8503 186.149 94.2135 186.333 93.8843 186.764C93.5552 187.196 92.3303 189.419 90.7439 190.509C89.1575 191.599 87.7006 191.545 87.2312 192.468C86.7617 193.391 88.2078 193.596 89.9291 194.022C91.6504 194.448 92.7404 194.076 94.3106 193.234C95.8808 192.392 97.2244 192.641 98.6273 192.155C100.03 191.669 98.4654 188.167 98.4924 187.838C98.5194 187.509 98.8323 187.299 98.6273 186.646C98.6193 186.557 98.5912 186.471 98.5449 186.395C98.4987 186.319 98.4357 186.255 98.3606 186.207C98.2856 186.159 98.2006 186.129 98.1121 186.119C98.0237 186.109 97.9341 186.119 97.8503 186.149V186.149Z" fill="#FBD689" stroke="#263238" stroke-linecap="round" stroke-linejoin="round"/>
<path d="M98.6221 192.15C99.194 191.945 99.2642 191.243 99.1617 190.461C98.525 191.108 97.1058 191.248 95.8324 191.793C94.3269 192.441 93.2046 193.315 90.9437 193.299C89.6627 193.275 88.3977 193.01 87.2152 192.516C86.8105 193.401 88.2296 193.596 89.9131 194.033C91.5966 194.47 92.7244 194.087 94.2946 193.245C95.8648 192.403 97.2299 192.651 98.6221 192.15Z" fill="#263238" stroke="#263238" stroke-linecap="round" stroke-linejoin="round"/>
<path d="M93.0754 188.173C93.0754 188.173 92.6869 186.635 92.4279 186.014C92.1689 185.394 94.4244 184.854 94.7265 185.577C95.0287 186.3 94.1546 188.556 94.1546 188.556L93.0754 188.173Z" fill="white" stroke="#263238" stroke-linecap="round" stroke-linejoin="round"/>
<path d="M94.1544 188.556C94.1544 188.556 93.1616 190.444 91.9961 190.962C90.8306 191.48 90.3018 190.736 90.3018 190.736C91.414 190.168 92.3227 189.268 92.9026 188.162L94.1544 188.556Z" fill="white" stroke="#263238" stroke-linecap="round" stroke-linejoin="round"/>
<path d="M108.648 152.236C108.648 152.236 104.87 151.896 101.633 151.535C98.3953 151.173 97.0356 150.995 97.0356 150.995C97.0356 150.995 98.1148 157.837 98.1148 158.28C98.1148 158.722 95.8809 165.267 95.8809 165.267L98.309 172.935C98.309 172.935 108.874 172.627 112.759 172.465C116.644 172.303 122.947 171.041 122.947 171.041C122.947 171.041 119.299 166.136 118.506 164.873C118.106 164.22 117.663 163.594 117.178 163.001L122.72 157.011C122.72 157.011 121.959 151.75 121.641 150.963C121.322 150.175 121.215 149.851 121.215 149.851C121.215 149.851 110.854 152.463 108.648 152.236Z" fill="#FBD689"/>
<path d="M115.436 156.31H122.618C122.569 156.002 122.51 155.614 122.445 155.188H116.342C117.686 153.456 119.229 151.286 120.033 150.137L118.371 150.531C116.752 152.846 114.373 156.035 113.553 156.677C112.603 157.427 106.635 160.411 103.257 162.073C104.023 160.114 104.682 158.177 104.552 157.589C104.29 156.865 103.974 156.162 103.608 155.484L107.272 152.107L105.761 151.966L103.063 154.443C102.523 153.439 101.984 152.376 101.504 151.524L100.133 151.367C101.568 153.995 103.327 157.303 103.435 157.81C103.478 158.387 102.167 161.857 100.926 164.738C100.867 164.86 100.855 165 100.894 165.13C100.933 165.26 101.02 165.371 101.137 165.44L103.403 166.875L99.2427 168.494L96.2695 166.508L96.8091 168.224L97.9584 168.996L97.1491 169.309L97.4944 170.388L99.1132 169.757L102.604 172.082C102.704 172.154 102.826 172.189 102.948 172.182C103.071 172.175 103.187 172.127 103.279 172.044L106.862 169.012C108.88 170.253 111.049 171.553 112.705 172.465H112.759C113.72 172.422 114.831 172.314 115.954 172.179L113.288 169.449C114.547 170.001 115.914 170.259 117.287 170.204C118.843 170.19 120.392 169.989 121.9 169.606C121.673 169.303 121.431 168.969 121.177 168.618C118.171 169.293 115.198 169.239 113.677 168.386C113.433 168.272 113.218 168.105 113.047 167.898C112.875 167.691 112.751 167.449 112.684 167.188C112.659 167.089 112.66 166.985 112.685 166.886C112.71 166.788 112.76 166.697 112.83 166.622C113.607 165.71 116.569 165.402 118.862 165.391C118.722 165.186 118.603 165.014 118.522 164.879C118.382 164.652 118.252 164.458 118.128 164.274C116.067 164.334 113.035 164.641 111.972 165.893C111.791 166.099 111.661 166.344 111.593 166.61C111.524 166.875 111.519 167.153 111.578 167.42C111.611 167.564 111.656 167.705 111.713 167.841L107.935 163.956L108.189 160.87L108.907 160.508L117.287 162.947L118.139 162.019L110.353 159.78C111.696 159.127 112.997 158.392 114.249 157.578C114.685 157.195 115.082 156.77 115.436 156.31ZM102.88 170.928L100.397 169.271L104.601 167.625L105.858 168.408L102.88 170.928ZM114.211 172.007C113.191 171.467 111.74 170.647 110.159 169.703L111.508 169.244L114.211 172.007ZM110.628 168.343L108.896 168.936C106.392 167.415 103.781 165.774 102.156 164.733C102.308 164.388 102.464 164.015 102.626 163.627C103.165 163.373 104.946 162.494 106.991 161.469L106.759 164.134C106.754 164.214 106.765 164.295 106.793 164.37C106.821 164.445 106.865 164.514 106.921 164.571L110.628 168.343Z" fill="white"/>
<path opacity="0.26" d="M122.72 157.012L98.1255 158.296C98.0931 158.738 95.8916 165.283 95.8916 165.283L117.205 163.023L122.72 157.012Z" fill="black"/>
<path d="M109.619 153.445L103.802 154.2" stroke="#263238" stroke-width="0.5" stroke-linecap="round" stroke-linejoin="round"/>
<path d="M109.727 154.524L105.637 156.029" stroke="#263238" stroke-width="0.5" stroke-linecap="round" stroke-linejoin="round"/>
<path d="M113.066 154.308L117.594 155.172" stroke="#263238" stroke-width="0.5" stroke-linecap="round" stroke-linejoin="round"/>
<path d="M113.498 153.229H116.838" stroke="#263238" stroke-width="0.5" stroke-linecap="round" stroke-linejoin="round"/>
<path d="M108.648 152.236C108.648 152.236 104.87 151.896 101.633 151.535C98.3953 151.173 97.0356 150.995 97.0356 150.995C97.0356 150.995 98.1148 157.837 98.1148 158.28C98.1148 158.722 95.8809 165.267 95.8809 165.267L98.309 172.935C98.309 172.935 108.874 172.627 112.759 172.465C116.644 172.303 122.947 171.041 122.947 171.041C122.947 171.041 119.299 166.136 118.506 164.873C118.106 164.22 117.663 163.594 117.178 163.001L122.72 157.011C122.72 157.011 121.959 151.75 121.641 150.963C121.322 150.175 121.215 149.851 121.215 149.851C121.215 149.851 110.854 152.463 108.648 152.236Z" stroke="#263238" stroke-linecap="round" stroke-linejoin="round"/>
<path d="M114.578 129.919C114.578 128.23 114.152 126.325 114.319 123.983C114.486 121.641 114.492 115.625 113.369 113.855C112.247 112.085 108.756 110.332 108.756 110.332C107.505 111.168 106.611 112.439 106.247 113.898C105.631 116.353 106.338 119.526 106.338 119.526C106.338 119.526 108.858 127.771 108.912 127.96C109.035 129.748 109.035 131.541 108.912 133.329C108.778 135.41 109.007 137.499 109.587 139.502C110.073 142.305 110.325 145.144 110.342 147.99C110.308 148.362 110.201 148.723 110.027 149.054C109.852 149.384 109.615 149.677 109.328 149.916C108.853 150.455 108.157 151.454 108.464 152.349H109.403C109.403 152.349 109.743 153.628 109.786 153.968C109.829 154.308 109.705 155.9 110.326 155.943C110.946 155.986 111.459 154.902 111.459 154.902C111.459 154.902 113.078 154.832 113.477 153.823C113.876 152.813 113.558 150.143 113.558 150.143C113.558 150.143 114.427 143.333 114.934 138.935C115.441 134.538 114.578 131.602 114.578 129.919Z" fill="white" stroke="#263238" stroke-linecap="round" stroke-linejoin="round"/>
<path d="M108.756 110.315C107.505 111.151 106.611 112.423 106.247 113.882C105.631 116.337 106.338 119.51 106.338 119.51C106.338 119.51 107.299 122.65 108.043 125.095C110.092 125.655 112.259 125.609 114.281 124.96C114.281 124.636 114.281 124.307 114.319 123.967C114.492 121.604 114.492 115.609 113.369 113.839C112.247 112.069 108.756 110.315 108.756 110.315Z" fill="white" stroke="#263238" stroke-linecap="round" stroke-linejoin="round"/>
<path d="M108.853 115.058C107.105 116.925 106.754 120.773 106.754 120.773C106.754 120.773 106.29 116.693 108.038 113.758" stroke="#263238" stroke-width="0.5" stroke-linecap="round" stroke-linejoin="round"/>
</svg>
