<svg width="195" height="175" viewBox="0 0 195 175" fill="none" xmlns="http://www.w3.org/2000/svg">
<path d="M182.843 108.196H111.13V1H194.5V108.196H182.843Z" stroke="black" stroke-miterlimit="10"/>
<path d="M191.48 4.88574H114.157V104.31H191.48V4.88574Z" fill="white" stroke="black" stroke-miterlimit="10"/>
<path d="M147.598 70.4762V65.1775H150.245V62.5119H147.607C147.607 61.6265 147.607 60.7364 147.607 59.851H152.915V57.204H155.567V59.8371H158.228V54.5152H166.201V57.1623H168.839V54.5152H166.192V51.845H160.875V46.5695H152.896V49.2212H147.607V54.5384H150.24V57.1901H147.593V59.8464H144.941V57.1854H136.973V54.5384H144.941V33.2695H147.607C147.607 35.8285 147.607 38.3874 147.607 40.9464V41.2338H150.263V35.9351H152.91V41.243H155.581V43.8901H168.867V46.5417H171.528V49.2166H168.881V51.8821H171.518V57.204H174.184V62.5166H171.546V67.8199H174.147V70.4762H179.455V73.1278H171.518V78.4358H168.867V75.7841H163.535V73.1278H160.884V70.4762H166.173V67.8199H152.92V70.4623H147.598V70.4762ZM163.535 62.5027V59.8603H160.898V62.498H163.545V65.145H168.839V62.5027H163.535ZM158.214 62.5027H155.604V65.1311H158.232L158.214 62.5027ZM163.549 49.1841H166.178V46.551H163.549V49.1841Z" fill="black"/>
<path d="M123.681 41.2247V22.6445H142.257V41.2247H123.681ZM126.347 25.3101V38.573H139.605V25.3101H126.347Z" fill="black"/>
<path d="M179.469 41.2298H160.893V22.6543H179.469V41.2298ZM176.817 25.3106H163.559V38.5689H176.817V25.3106Z" fill="black"/>
<path d="M123.686 59.8516H142.266V78.4317H123.686V59.8516ZM139.61 62.5171H126.347V75.78H139.61V62.5171Z" fill="black"/>
<path d="M147.592 33.27V27.9527H144.941V22.6494H158.203V27.9435H155.603V30.6044H158.231V35.9077H155.584V33.27H152.914V30.6183H150.262V33.2607H147.588L147.592 33.27ZM150.258 27.9342H152.891V25.3103H150.258V27.9342Z" fill="black"/>
<path d="M136.958 46.5518V49.208H142.266V51.8597H134.307V57.1723H123.691V51.8875H126.319V54.516H131.65V46.5518H136.963H136.958Z" fill="black"/>
<path d="M147.588 70.4717V73.128H150.244V75.7796H152.891V78.4359H144.941V70.4763H147.578L147.588 70.4717Z" fill="black"/>
<path d="M131.65 46.5518H126.338V49.1988H123.691V43.9141H131.641V46.5564L131.65 46.5518Z" fill="black"/>
<path d="M179.468 51.8595H176.835V46.5608H174.184V43.9092H179.468V51.8595Z" fill="black"/>
<path d="M136.963 46.5611V43.9141H142.262V46.5518H136.958L136.963 46.5611Z" fill="black"/>
<path d="M174.174 57.191V54.5439H176.812V57.1817H174.147L174.174 57.191Z" fill="black"/>
<path d="M176.84 59.8564H179.469V62.4896H176.84V59.8564Z" fill="black"/>
<path d="M155.566 41.2437V38.5967H158.208V41.2344H155.561L155.566 41.2437Z" fill="black"/>
<path d="M147.597 65.178H144.941V62.5264H147.578V65.178H147.597Z" fill="black"/>
<path d="M174.174 67.8201V65.1777H176.812V67.8155H174.174V67.8201Z" fill="black"/>
<path d="M171.508 49.217H174.146V51.8687H171.508V49.2031V49.217Z" fill="black"/>
<path d="M158.209 75.7798H155.576V73.1514H158.209V75.7798Z" fill="black"/>
<path d="M163.535 75.7842V78.4312H160.897V75.7934H163.544L163.535 75.7842Z" fill="black"/>
<path d="M179.469 78.4407H176.84V75.8076H179.469V78.4407Z" fill="black"/>
<path d="M158.227 54.5157H155.603V51.8779H158.245V54.5157H158.227Z" fill="black"/>
<path d="M136.944 35.9125H128.999V27.9668H136.944V35.9125Z" fill="black"/>
<path d="M166.205 35.9076V27.9619H174.146V35.9076H166.205Z" fill="black"/>
<path d="M128.999 73.1188V65.1777H136.944V73.1234L128.999 73.1188Z" fill="black"/>
<path d="M131.4 16.3496H119.764V29.186" stroke="#574B7E" stroke-width="2" stroke-miterlimit="10"/>
<path d="M173.716 16.3496H185.347V29.186" stroke="#574B7E" stroke-width="2" stroke-miterlimit="10"/>
<path d="M131.4 83.9478H119.764V71.1113" stroke="#574B7E" stroke-width="2" stroke-miterlimit="10"/>
<path d="M173.716 83.9478H185.347V71.1113" stroke="#574B7E" stroke-width="2" stroke-miterlimit="10"/>
<path d="M23.0604 88.3195L24.8658 114.289L13.6065 109.033L10.7528 120.452C10.7528 120.452 34.9216 133.959 37.3239 133.512C39.7262 133.066 33.7228 80.5205 33.7228 80.5205L23.0604 88.3195Z" fill="#574B7E"/>
<path d="M37.2162 133.75C34.1587 133.75 13.0717 122.015 10.6354 120.646C10.5886 120.622 10.5515 120.582 10.5303 120.533C10.5092 120.485 10.5052 120.431 10.519 120.379L13.3678 108.97C13.3765 108.935 13.3928 108.902 13.4157 108.875C13.4385 108.847 13.4672 108.824 13.4997 108.809C13.5322 108.794 13.5677 108.786 13.6036 108.786C13.6396 108.786 13.675 108.794 13.7075 108.81L24.5931 113.886L22.8217 88.3292C22.8176 88.2882 22.8244 88.2468 22.8414 88.2093C22.8585 88.1718 22.8852 88.1395 22.9188 88.1156L33.5957 80.3118C33.63 80.2859 33.6705 80.2695 33.7131 80.2644C33.7558 80.2593 33.799 80.2656 33.8384 80.2826C33.8767 80.3012 33.9098 80.3292 33.9344 80.364C33.959 80.3988 33.9744 80.4393 33.9791 80.4816C33.9791 80.6127 35.4933 93.7696 36.6824 106.81C39.1089 133.41 37.9005 133.638 37.3861 133.735L37.2162 133.75ZM11.0334 120.321C20.7397 125.733 35.605 133.575 37.2793 133.26C38.7595 132.187 35.7845 100.787 33.5278 80.9524L23.3119 88.4214L25.1076 114.255C25.1105 114.297 25.1022 114.34 25.0835 114.378C25.0647 114.417 25.0362 114.449 25.0008 114.473C24.9636 114.494 24.9219 114.504 24.8795 114.504C24.837 114.504 24.7953 114.494 24.7581 114.473L13.7657 109.377L11.0334 120.321Z" fill="black"/>
<path d="M39.2892 150.965C39.2892 150.965 52.252 146.51 57.3187 142.258C62.3854 138.007 35.8434 86.5488 35.8434 86.5488C35.8434 86.5488 36.2511 133.751 39.2892 150.965Z" fill="#574B7E"/>
<path d="M39.2895 151.212C39.2453 151.21 39.2022 151.199 39.1633 151.178C39.1335 151.159 39.1081 151.134 39.0888 151.105C39.0695 151.076 39.0569 151.042 39.0517 151.008C36.0427 133.968 35.6059 87.0237 35.6011 86.5529C35.6006 86.4983 35.6185 86.4451 35.652 86.402C35.6854 86.3588 35.7325 86.3282 35.7855 86.3151C35.8391 86.3015 35.8957 86.3066 35.946 86.3295C35.9963 86.3524 36.0373 86.3919 36.0621 86.4413C37.1492 88.5476 62.6283 138.113 57.4743 142.442C52.4318 146.674 39.5176 151.153 39.3671 151.178C39.3437 151.194 39.3173 151.205 39.2895 151.212ZM36.0912 87.5721C36.1689 94.5315 36.761 134.842 39.4884 150.663C41.3715 149.998 52.592 145.931 57.1685 142.088C61.1093 138.754 43.7253 102.466 36.0912 87.5721Z" fill="black"/>
<path d="M93.5576 134.342L92.058 134.565C92.0637 134.639 92.0637 134.714 92.058 134.788C91.9415 136.73 81.5266 141.845 74.1692 144.621C72.5628 145.863 70.408 146.494 67.7 146.494H67.6369C61.9635 147.043 51.0536 144.553 48.5882 142.854L45.9287 170.032C46.3558 170.245 46.7925 170.444 47.2342 170.643C52.9965 173.196 59.8201 174.474 67.7048 174.477C76.8094 174.477 84.5356 172.682 90.8835 169.09L91.0194 169.013C91.4222 168.78 91.8153 168.527 92.2084 168.304C92.6015 168.081 93.1354 167.707 93.5867 167.397L93.9993 167.11L94.9408 166.431L95.3775 166.096C95.6881 165.858 95.9939 165.611 96.2899 165.373L96.6588 165.072C97.0713 164.727 97.479 164.378 97.8721 164.014C96.1929 151.998 93.5576 134.342 93.5576 134.342Z" fill="black"/>
<path d="M67.7193 174.735C59.8426 174.735 52.922 173.44 47.1467 170.882C46.7067 170.681 46.2699 170.478 45.8364 170.27C45.788 170.246 45.7488 170.207 45.7247 170.159C45.7022 170.117 45.6937 170.07 45.7005 170.023L48.36 142.845C48.3629 142.803 48.377 142.762 48.4009 142.727C48.4248 142.692 48.4576 142.664 48.4959 142.646C48.5322 142.626 48.5731 142.615 48.6148 142.615C48.6564 142.615 48.6974 142.626 48.7337 142.646C51.1603 144.296 62.0071 146.791 67.6271 146.247H67.7047C70.3545 146.247 72.4802 145.631 74.0381 144.423L74.1012 144.389C82.0555 141.389 91.7375 136.429 91.8346 134.77C91.8381 134.711 91.8381 134.653 91.8346 134.595C91.8263 134.532 91.8429 134.468 91.881 134.417C91.9192 134.367 91.9757 134.333 92.0384 134.323L93.5381 134.1C93.6016 134.091 93.6659 134.108 93.7175 134.146C93.7691 134.184 93.804 134.24 93.8147 134.304C93.8147 134.478 96.4694 152.095 98.1437 163.99C98.1488 164.022 98.1475 164.054 98.14 164.085C98.1325 164.115 98.1189 164.145 98.1 164.17L98.0515 164.214C97.7021 164.539 97.2993 164.883 96.8431 165.267L96.4742 165.568C96.1733 165.815 95.8676 166.053 95.557 166.301L95.1154 166.635C94.8047 166.864 94.4893 167.092 94.169 167.315L94.0331 167.412L93.7565 167.606C93.2469 167.951 92.7858 168.252 92.3636 168.518C91.9414 168.785 91.5725 169.004 91.1697 169.232L91.0338 169.31C84.6568 172.915 76.8238 174.735 67.7193 174.735ZM46.1955 169.882C46.574 170.062 46.9574 170.241 47.3457 170.411C53.0579 172.945 59.9105 174.226 67.729 174.226C76.7461 174.226 84.5015 172.425 90.7863 168.887L90.9222 168.81C91.3202 168.582 91.7133 168.349 92.1015 168.106C92.4898 167.863 92.9751 167.548 93.475 167.208L93.7468 167.019L93.8826 166.922C94.1981 166.699 94.5136 166.475 94.8193 166.242L95.2561 165.917C95.5618 165.679 95.8627 165.432 96.1636 165.194L96.5276 164.898C96.9401 164.549 97.3041 164.233 97.639 163.927C96.0714 152.799 93.6837 136.75 93.3634 134.614L92.3296 134.77V134.799C92.1938 137.104 80.3569 142.564 74.3196 144.83C72.6695 146.092 70.437 146.733 67.729 146.733H67.6804C62.0314 147.271 51.8203 144.942 48.8113 143.258L46.1955 169.882Z" fill="black"/>
<path d="M35.4354 102.762C35.4354 102.762 47.4422 132.099 47.5926 133.157C47.7431 134.215 46.4036 140.869 48.3351 142.645C50.2667 144.422 63.1615 147.392 68.6456 146.353C74.1297 145.315 91.9408 137.307 92.0767 134.788C92.2126 132.269 74.4306 83.0388 72.2078 77.1083C69.9851 71.1777 60.9388 69.1006 54.8578 69.6926C48.7768 70.2847 34.1008 74.143 31.4316 77.8508C28.7623 81.5586 35.4354 102.762 35.4354 102.762Z" fill="white"/>
<path d="M65.8506 146.815C59.5948 146.815 49.9176 144.442 48.1705 142.826C46.6466 141.418 47.0251 137.308 47.2532 134.852C47.3258 134.302 47.3582 133.747 47.3503 133.192C47.2193 132.328 38.5418 110.999 35.2174 102.855C34.9408 101.981 28.5394 81.5011 31.2475 77.7302C34.0672 73.8089 49.2042 70.0234 54.8484 69.4798C60.7596 68.9023 70.131 70.8678 72.446 77.0459C74.3581 82.1369 92.4896 132.183 92.344 134.828C92.179 137.638 73.9942 145.616 68.7188 146.616C67.7709 146.771 66.8107 146.837 65.8506 146.815ZM35.6639 102.68C36.9111 105.733 47.6852 132.086 47.8308 133.124C47.8487 133.716 47.8179 134.309 47.7385 134.896C47.5299 137.109 47.1513 141.205 48.5005 142.471C50.4418 144.262 63.2735 147.126 68.6023 146.116C74.6154 144.98 91.7033 136.987 91.8344 134.774C91.9751 132.391 74.4795 83.8646 71.9801 77.1964C69.7525 71.2561 60.6383 69.3731 54.8824 69.9166C48.6218 70.5281 34.1691 74.4398 31.626 77.9729C29.083 81.506 35.4892 102.132 35.6639 102.68Z" fill="black"/>
<path d="M36.4699 75.4784C36.4699 75.4784 35.014 88.9702 35.8778 91.7899C36.7417 94.6096 40.8135 102.355 40.8135 102.355C40.8135 102.355 47.6079 93.8622 48.928 92.9741C50.2481 92.0859 62.5702 99.9432 62.5702 99.9432C62.5702 99.9432 63.0119 91.4938 61.2356 84.5247C59.4593 77.5556 56.3388 69.9895 55.305 68.6549C54.2713 67.3202 54.2665 72.2171 50.4082 75.4784C46.5499 78.7397 36.4699 75.4784 36.4699 75.4784Z" fill="white"/>
<path d="M40.8135 102.597C40.773 102.593 40.7342 102.579 40.7004 102.556C40.6665 102.533 40.6388 102.502 40.6194 102.466C40.4544 102.151 36.5525 94.6673 35.6692 91.8622C34.7859 89.0571 36.1885 76.0021 36.2515 75.4488C36.2549 75.4135 36.2662 75.3794 36.2847 75.3491C36.3032 75.3188 36.3284 75.2932 36.3583 75.2741C36.3893 75.2554 36.4238 75.2431 36.4597 75.2381C36.4955 75.2331 36.5321 75.2354 36.567 75.245C36.6641 75.279 46.5645 78.4287 50.2723 75.2935C52.3786 73.5124 53.3007 71.2557 53.9074 69.7658C54.3053 68.7951 54.5286 68.2516 54.9362 68.1934C55.0511 68.1954 55.1636 68.2268 55.263 68.2846C55.3624 68.3424 55.4454 68.4245 55.5041 68.5234C56.6203 69.9793 59.7457 77.6813 61.4783 84.4757C63.2448 91.4012 62.8275 99.8845 62.8226 99.9719C62.8192 100.014 62.8055 100.055 62.7826 100.09C62.7598 100.126 62.7285 100.155 62.6916 100.176C62.6547 100.197 62.6129 100.208 62.5703 100.208C62.5277 100.208 62.4858 100.197 62.4489 100.176C56.465 96.3563 49.8307 92.7067 49.0736 93.2065C48.0302 93.8617 43.342 99.5836 41.0028 102.495C40.9818 102.526 40.9536 102.552 40.9206 102.57C40.8877 102.587 40.8509 102.597 40.8135 102.597ZM36.6835 75.8031C36.4748 77.7832 35.3198 89.2124 36.1108 91.7215C36.8776 94.1481 40.0807 100.409 40.8572 101.913C42.0802 100.389 47.5691 93.5899 48.7921 92.7746C50.1219 91.8865 59.6389 97.7976 62.3422 99.5108C62.4004 97.7248 62.5266 90.5616 60.9978 84.5825C59.1682 77.4047 56.0816 70.057 55.1109 68.8049C55.0187 68.6884 54.9702 68.6738 54.9702 68.6738C54.6947 69.0638 54.4819 69.4945 54.3393 69.9502C53.7472 71.4061 52.762 73.8036 50.5684 75.6624C46.977 78.715 38.3869 76.3127 36.6835 75.8031Z" fill="black"/>
<path d="M35.3781 77.8271C36.8796 81.3285 38.7575 84.6564 40.9786 87.7518C43.581 91.2962 46.65 94.473 50.1026 97.196C50.1026 97.196 54.2666 86.4705 55.3877 80.0692C56.5088 73.6679 54.5869 67.2617 54.5869 67.2617C54.5869 67.2617 53.7861 76.8661 50.4229 78.788C47.0596 80.7098 35.3781 77.8271 35.3781 77.8271Z" fill="white"/>
<path d="M50.1022 97.439C50.0499 97.4377 49.9992 97.4208 49.9566 97.3905C46.4867 94.649 43.4001 91.4547 40.7792 87.8928C38.5499 84.7786 36.6625 81.4332 35.1496 77.9147C35.1341 77.8733 35.1302 77.8284 35.1384 77.7849C35.1466 77.7415 35.1665 77.701 35.196 77.6681C35.2255 77.6351 35.2634 77.6108 35.3057 77.5978C35.348 77.5848 35.393 77.5837 35.4359 77.5944C35.5524 77.6187 47.0835 80.4287 50.3011 78.5651C53.5188 76.7014 54.3341 67.3251 54.3438 67.2281C54.3481 67.1724 54.3718 67.12 54.4109 67.0801C54.4499 67.0401 54.5018 67.0152 54.5574 67.0097C54.614 67.0026 54.6714 67.0158 54.7194 67.0468C54.7673 67.0779 54.8027 67.1249 54.8194 67.1795C54.8194 67.2426 56.7607 73.7119 55.6251 80.0938C54.4894 86.4757 50.3691 97.1575 50.3303 97.2837C50.317 97.3189 50.2956 97.3505 50.2677 97.3758C50.2399 97.4011 50.2064 97.4194 50.1701 97.4293L50.1022 97.439ZM35.7853 78.1719C37.2675 81.4882 39.0736 84.65 41.1772 87.6113C43.7006 91.0489 46.6654 94.1395 49.9954 96.8032C50.6748 95.0076 54.1497 85.7332 55.1446 80.0259C55.9502 75.4445 55.1446 70.8048 54.6593 68.6306C54.3001 71.3775 53.2033 77.4634 50.5244 78.997C47.4863 80.749 38.0323 78.7155 35.7853 78.1719Z" fill="black"/>
<path d="M44.1672 79.3268C41.2079 79.0191 38.2719 78.5182 35.3781 77.8271C36.8796 81.3286 38.7575 84.6564 40.9786 87.7519C41.3523 88.276 41.7357 88.7807 42.1288 89.2806L48.7485 81.6272L44.1672 79.3268Z" fill="black"/>
<path d="M42.1287 89.5233C42.0933 89.5212 42.0587 89.5119 42.027 89.4961C41.9953 89.4802 41.9671 89.4581 41.9442 89.4311C41.488 88.8535 41.1192 88.3634 40.7843 87.8926C38.555 84.7783 36.6676 81.433 35.1547 77.9145C35.1392 77.8731 35.1353 77.8282 35.1435 77.7847C35.1517 77.7412 35.1716 77.7008 35.201 77.6678C35.2305 77.6349 35.2685 77.6106 35.3108 77.5976C35.3531 77.5846 35.3981 77.5834 35.441 77.5942C38.3175 78.2796 41.2356 78.7773 44.1767 79.0841C44.2071 79.0864 44.2368 79.0947 44.264 79.1084L48.8503 81.3991C48.8829 81.4164 48.9113 81.4409 48.9333 81.4706C48.9552 81.5003 48.9703 81.5346 48.9772 81.5709C48.9842 81.6072 48.983 81.6447 48.9736 81.6804C48.9642 81.7162 48.947 81.7494 48.9231 81.7776L42.3034 89.4359C42.2589 89.4869 42.1961 89.5183 42.1287 89.5233ZM35.7856 78.1717C37.2658 81.489 39.072 84.651 41.1774 87.6111C41.4589 88.0139 41.7695 88.4265 42.1481 88.8972L48.3698 81.6951L44.1087 79.5646C41.3079 79.275 38.5281 78.8098 35.7856 78.1717Z" fill="black"/>
<path d="M54.5864 67.2613C54.5864 67.2613 59.4396 86.7467 61.2353 101.428C63.0309 116.108 67.3114 159.549 67.3114 159.549C67.3114 159.549 80.6576 155.696 87.6268 150.653C94.5959 145.611 96.8186 142.204 96.8186 142.204C96.8186 142.204 85.404 92.2162 85.404 91.4931C85.404 90.77 86.5882 83.3349 86.5882 83.3349C86.5882 83.3349 106.753 73.8616 114.465 68.062C122.176 62.2625 120.25 59.1662 116.542 57.686C112.834 56.2058 101.269 57.8316 94.8919 59.6272C88.5149 61.4229 85.2535 62.5925 85.2535 62.5925C85.2535 62.5925 78.1388 62.0004 71.6113 63.4806C65.0838 64.9609 54.5864 67.2613 54.5864 67.2613Z" fill="#574B7E"/>
<path d="M67.3114 159.792C67.2635 159.791 67.2166 159.777 67.1755 159.753C67.1466 159.732 67.1225 159.705 67.1049 159.674C67.0873 159.643 67.0766 159.609 67.0736 159.573C67.0299 159.141 62.7494 115.963 60.9925 101.457C59.2357 86.9506 54.3971 67.5137 54.3486 67.3196C54.334 67.2559 54.3452 67.189 54.3798 67.1335C54.4143 67.0781 54.4694 67.0385 54.533 67.0235C54.6398 67.0235 65.1129 64.694 71.5579 63.2284C77.7505 61.8258 84.5498 62.2577 85.2195 62.3305C85.6563 62.1752 88.937 61.0202 94.8288 59.3798C101.216 57.5938 112.887 55.9826 116.629 57.4385C118.653 58.249 119.818 59.4089 120.002 60.8018C120.274 62.8498 118.459 65.354 114.61 68.2368C107.272 73.7403 88.4711 82.6944 86.8065 83.4806C86.394 86.0722 85.6466 90.9108 85.6466 91.4738C85.7097 92.3182 93.1399 124.961 97.0564 142.131C97.0641 142.162 97.0651 142.195 97.0592 142.227C97.0534 142.259 97.0408 142.289 97.0224 142.315C96.9302 142.456 94.6978 145.819 87.7674 150.833C80.8371 155.846 67.5152 159.724 67.3842 159.763C67.3628 159.778 67.3377 159.788 67.3114 159.792ZM54.8776 67.4458C55.4454 69.7364 59.8229 87.7514 61.473 101.418C63.1571 115.283 67.1512 155.395 67.5249 159.234C69.4662 158.646 81.1865 155.016 87.486 150.459C93.7854 145.902 96.1683 142.694 96.5614 142.15C95.2801 136.56 85.1613 92.2357 85.1613 91.4932C85.1613 90.7506 86.3018 83.6019 86.3503 83.2962C86.3559 83.2572 86.3714 83.2203 86.3951 83.1889C86.4189 83.1575 86.4502 83.1326 86.4862 83.1166C86.6852 83.0196 106.719 73.5704 114.319 67.868C118.017 65.0968 119.764 62.7479 119.522 60.8843C119.357 59.6613 118.328 58.6615 116.45 57.9093C112.8 56.4533 101.283 58.0792 94.9598 59.8506C88.6361 61.622 85.37 62.7964 85.336 62.811C85.3022 62.816 85.2679 62.816 85.2341 62.811C85.1661 62.811 78.0757 62.2383 71.6452 63.6943C65.7632 65.0434 56.4743 67.0915 54.8776 67.4458Z" fill="black"/>
<path d="M64.8264 117.113L64.0499 119.516L64.8264 117.113Z" fill="white"/>
<path d="M64.0498 119.759H63.977C63.9463 119.749 63.9179 119.734 63.8934 119.713C63.8688 119.693 63.8487 119.667 63.8342 119.639C63.8197 119.61 63.8111 119.579 63.809 119.547C63.8068 119.515 63.8111 119.483 63.8217 119.453C64.1032 118.584 64.3604 117.788 64.5933 117.051C64.6029 117.019 64.6186 116.989 64.6397 116.963C64.6607 116.938 64.6866 116.916 64.7159 116.9C64.7452 116.885 64.7773 116.875 64.8104 116.871C64.8435 116.868 64.8769 116.871 64.9088 116.881C64.9407 116.89 64.9703 116.906 64.9961 116.927C65.0219 116.948 65.0433 116.974 65.059 117.003C65.0748 117.033 65.0847 117.065 65.088 117.098C65.0914 117.131 65.0882 117.164 65.0787 117.196C64.8408 117.939 64.5933 118.73 64.3021 119.623C64.28 119.669 64.2435 119.708 64.1982 119.732C64.1528 119.756 64.1008 119.766 64.0498 119.759Z" fill="black"/>
<path d="M65.443 115.366H65.3751C65.3142 115.347 65.2632 115.305 65.2333 115.249C65.2033 115.192 65.1967 115.127 65.2149 115.065C66.2303 111.718 66.9513 108.288 67.3697 104.816C68.3403 97.8852 69.0489 87.0675 69.1363 85.699L66.9814 84.3255C66.9528 84.3092 66.9278 84.2872 66.908 84.2609C66.8881 84.2346 66.8739 84.2045 66.866 84.1725C66.8582 84.1405 66.8569 84.1073 66.8623 84.0748C66.8678 84.0423 66.8797 84.0112 66.8976 83.9835C66.9154 83.9558 66.9387 83.932 66.966 83.9136C66.9933 83.8951 67.0241 83.8825 67.0564 83.8763C67.0888 83.8702 67.1221 83.8707 67.1542 83.8778C67.1864 83.885 67.2168 83.8986 67.2435 83.9178L69.5197 85.3738C69.556 85.3981 69.5854 85.4315 69.605 85.4706C69.6246 85.5098 69.6336 85.5533 69.6313 85.597C69.6313 85.7135 68.8693 97.5018 67.8502 104.888C67.4353 108.381 66.7142 111.83 65.6954 115.196C65.679 115.249 65.645 115.295 65.5991 115.326C65.5532 115.357 65.4981 115.371 65.443 115.366Z" fill="black"/>
<path d="M65.8845 83.5688C65.8379 83.5695 65.7922 83.556 65.7535 83.53L64.3655 82.6467C64.3138 82.6136 64.2765 82.5622 64.2612 82.5028C64.2459 82.4433 64.2537 82.3803 64.283 82.3264C65.1663 80.6812 66.4766 78.0071 66.4766 77.4004C66.4766 77.2548 66.2145 76.2987 62.8707 70.1546C62.8554 70.1266 62.8458 70.0958 62.8424 70.0641C62.839 70.0323 62.8419 70.0002 62.8509 69.9695C62.8599 69.9389 62.8749 69.9103 62.8949 69.8855C62.915 69.8606 62.9397 69.8399 62.9678 69.8246C62.9958 69.8093 63.0266 69.7997 63.0584 69.7963C63.0901 69.7929 63.1222 69.7958 63.1529 69.8048C63.1835 69.8138 63.2121 69.8288 63.237 69.8488C63.2618 69.8689 63.2825 69.8936 63.2978 69.9217C66.9619 76.6579 66.9619 77.2014 66.9619 77.4004C66.9619 78.24 65.2924 81.4528 64.8168 82.3603L66.0156 83.1223C66.0695 83.1571 66.1075 83.2119 66.1212 83.2747C66.1348 83.3375 66.123 83.4031 66.0884 83.4572C66.0671 83.492 66.0371 83.5206 66.0014 83.5402C65.9656 83.5598 65.9253 83.5696 65.8845 83.5688Z" fill="black"/>
<path d="M61.6764 67.4854L62.283 68.5773L61.6764 67.4854Z" fill="white"/>
<path d="M62.2978 68.8193C62.2547 68.8199 62.2121 68.8089 62.1746 68.7876C62.137 68.7663 62.1059 68.7353 62.0843 68.6979C61.7154 68.0234 61.4776 67.6011 61.4776 67.6011C61.4475 67.5449 61.4402 67.4791 61.4574 67.4176C61.4746 67.3561 61.5149 67.3036 61.5698 67.2711C61.5979 67.2557 61.6287 67.2461 61.6604 67.2426C61.6922 67.2392 61.7244 67.2421 61.755 67.2511C61.7857 67.2601 61.8143 67.2751 61.8391 67.2952C61.864 67.3153 61.8846 67.3401 61.8999 67.3682C61.8999 67.3682 62.1377 67.7904 62.5065 68.4601C62.5227 68.4877 62.5332 68.5183 62.5374 68.55C62.5415 68.5817 62.5392 68.614 62.5306 68.6448C62.522 68.6756 62.5072 68.7043 62.4873 68.7293C62.4673 68.7543 62.4425 68.775 62.4143 68.7902C62.3783 68.8089 62.3384 68.8189 62.2978 68.8193Z" fill="black"/>
<path d="M74.28 143.631C74.2275 143.631 74.1765 143.614 74.1345 143.582C74.0925 143.551 74.0618 143.507 74.0471 143.456L73.0085 139.899C72.9913 139.84 72.9972 139.776 73.0252 139.721C73.0531 139.666 73.101 139.624 73.159 139.603C73.159 139.603 74.348 139.156 81.3123 136.492C83.9658 135.5 86.4925 134.196 88.8395 132.609C88.8656 132.589 88.8954 132.575 88.9273 132.566C88.9592 132.558 88.9924 132.556 89.0249 132.561C89.0575 132.566 89.0887 132.578 89.1166 132.595C89.1445 132.613 89.1687 132.636 89.1874 132.663C89.2062 132.69 89.2193 132.72 89.2259 132.753C89.2325 132.785 89.2325 132.818 89.2258 132.85C89.2192 132.883 89.206 132.913 89.1871 132.94C89.1683 132.967 89.1441 132.99 89.1162 133.007C86.7354 134.615 84.175 135.939 81.487 136.953C76.0126 139.05 74.1053 139.773 73.5375 139.986L74.4548 143.117C76.1 142.782 86.7866 140.413 91.8922 134.638C91.9147 134.615 91.9416 134.597 91.9711 134.585C92.0007 134.573 92.0324 134.566 92.0645 134.566C92.0965 134.566 92.1282 134.573 92.1578 134.585C92.1873 134.597 92.2142 134.615 92.2367 134.638C92.2812 134.683 92.3061 134.744 92.3061 134.808C92.3061 134.871 92.2812 134.932 92.2367 134.978C86.6119 141.345 74.4305 143.636 74.28 143.655V143.631Z" fill="black"/>
<path d="M91.4798 130.785C91.166 131.101 90.8338 131.397 90.4849 131.673L91.4798 130.785Z" fill="white"/>
<path d="M90.4853 131.915C90.45 131.915 90.415 131.908 90.383 131.893C90.3511 131.878 90.323 131.855 90.3009 131.828C90.2802 131.803 90.2647 131.774 90.2552 131.744C90.2457 131.713 90.2425 131.68 90.2456 131.648C90.2488 131.616 90.2583 131.585 90.2736 131.557C90.289 131.528 90.3098 131.503 90.3349 131.483C90.6743 131.214 90.9983 130.925 91.3055 130.619C91.3499 130.572 91.4112 130.545 91.4758 130.543C91.5404 130.541 91.6031 130.565 91.6501 130.61C91.6971 130.654 91.7245 130.715 91.7263 130.78C91.7281 130.844 91.7042 130.907 91.6598 130.954C91.3359 131.274 90.9957 131.577 90.6406 131.862C90.5959 131.896 90.5415 131.914 90.4853 131.915Z" fill="black"/>
<path d="M86.5878 83.5679C86.5507 83.5693 86.5139 83.5609 86.481 83.5437C86.4284 83.5174 86.387 83.4729 86.3647 83.4185C86.3424 83.364 86.3406 83.3033 86.3597 83.2476L89.0193 75.3758C89.0264 75.3423 89.0405 75.3106 89.0608 75.2829C89.081 75.2553 89.1069 75.2322 89.1368 75.2153C89.1666 75.1983 89.1996 75.1879 89.2338 75.1847C89.2679 75.1815 89.3023 75.1855 89.3348 75.1966C89.3673 75.2076 89.397 75.2254 89.4221 75.2488C89.4472 75.2722 89.467 75.3006 89.4803 75.3322C89.4936 75.3638 89.5 75.3979 89.4992 75.4322C89.4984 75.4665 89.4903 75.5002 89.4754 75.5311L87.408 81.6607L92.6154 73.8616C92.6326 73.8348 92.655 73.8116 92.6813 73.7936C92.7076 73.7756 92.7372 73.763 92.7685 73.7567C92.7997 73.7504 92.8319 73.7504 92.8632 73.7567C92.8944 73.7631 92.924 73.7756 92.9503 73.7937C93.0035 73.8293 93.0405 73.8844 93.0532 73.9471C93.0659 74.0098 93.0534 74.075 93.0183 74.1285L86.7917 83.4709C86.7675 83.5018 86.7366 83.5266 86.7012 83.5435C86.6658 83.5603 86.627 83.5687 86.5878 83.5679Z" fill="black"/>
<path d="M89.8301 73.9835C89.8044 73.9881 89.7781 73.9881 89.7524 73.9835C89.6922 73.9625 89.6427 73.9187 89.6145 73.8615C89.5864 73.8042 89.5819 73.7382 89.602 73.6777L90.2135 71.8578C90.2341 71.7934 90.2794 71.7399 90.3395 71.709C90.3995 71.678 90.4694 71.6722 90.5338 71.6928C90.5982 71.7134 90.6517 71.7587 90.6826 71.8188C90.7136 71.8788 90.7194 71.9487 90.6988 72.0131L90.0825 73.833C90.062 73.8818 90.0264 73.9227 89.981 73.9497C89.9356 73.9768 89.8827 73.9886 89.8301 73.9835Z" fill="black"/>
<path d="M36.4692 75.4775C36.4692 75.4775 37.9542 102.466 39.5849 115.662C41.2156 128.857 43.8848 161.48 43.8848 161.48C43.8848 161.48 38.6968 161.034 35.285 156.88C33.3811 154.615 31.693 152.178 30.2426 149.6V120.258C30.2426 119.069 27.8694 105.577 25.6466 98.9037C23.4239 92.2306 20.1625 84.5238 22.0892 81.2576C24.0159 77.9915 30.097 73.1043 32.3197 72.5219C34.5425 71.9396 36.3236 72.5122 36.4692 75.4775Z" fill="#574B7E"/>
<path d="M43.8857 161.704C43.6673 161.704 38.5472 161.219 35.116 157.021C33.2055 154.748 31.5093 152.303 30.0493 149.717C30.0306 149.681 30.0206 149.641 30.0202 149.601V120.258C30.0202 119.016 27.5936 105.5 25.4388 98.9822C25.0894 97.9388 24.7157 96.8711 24.342 95.7937C22.3134 89.9699 20.2168 83.986 21.9154 81.1371C23.8567 77.8564 29.9377 72.8868 32.2915 72.2801C33.6601 71.9113 34.7181 72.0132 35.514 72.5713C36.3099 73.1294 36.6788 74.0904 36.7467 75.4832C36.7467 75.755 38.2512 102.612 39.8624 115.653C41.4737 128.693 44.1332 161.151 44.1623 161.476C44.1656 161.512 44.1608 161.548 44.1482 161.582C44.1356 161.615 44.1155 161.646 44.0895 161.67C44.06 161.691 44.0265 161.704 43.9913 161.71C43.9561 161.716 43.9201 161.714 43.8857 161.704ZM30.4861 149.572C31.9307 152.107 33.6005 154.508 35.4752 156.745C38.324 160.21 42.4977 161.049 43.6188 161.214C43.347 157.9 40.8719 128.077 39.3431 115.706C37.7319 102.651 36.2468 75.7744 36.2274 75.5075C36.1692 74.2893 35.8197 73.44 35.1937 72.9838C34.5676 72.5276 33.6018 72.4403 32.3837 72.7654C30.326 73.3138 24.2595 78.1039 22.2988 81.4041C20.7313 84.0587 22.7841 89.9553 24.7788 95.6529C25.1525 96.7303 25.531 97.8029 25.8756 98.8463C28.0644 105.403 30.4861 119.021 30.4861 120.278V149.572Z" fill="black"/>
<path d="M35.6394 109.372C36.479 111.988 37.2895 114.317 37.9544 115.807L35.6394 109.372Z" fill="white"/>
<path d="M37.9545 116.051C37.9078 116.051 37.862 116.037 37.8225 116.012C37.783 115.988 37.7514 115.952 37.7312 115.91C37.1246 114.541 36.3432 112.362 35.4066 109.445C35.3882 109.384 35.3947 109.317 35.4246 109.26C35.4545 109.203 35.5055 109.16 35.5667 109.14C35.5967 109.13 35.6283 109.126 35.6597 109.129C35.6911 109.131 35.7216 109.14 35.7496 109.154C35.7776 109.169 35.8025 109.189 35.8227 109.213C35.843 109.237 35.8583 109.265 35.8676 109.295C36.7994 112.207 37.5759 114.357 38.1777 115.711C38.2024 115.77 38.203 115.837 38.1794 115.897C38.1559 115.956 38.11 116.005 38.0515 116.031C38.0211 116.045 37.9879 116.052 37.9545 116.051Z" fill="black"/>
<path d="M35.067 107.791C35.0151 107.791 34.9645 107.775 34.9226 107.744C34.8806 107.713 34.8496 107.67 34.834 107.621C32.8928 101.341 30.903 93.9056 30.6021 92.5759C30.1896 90.785 32.422 87.7227 33.0287 86.9171C32.4706 86.4318 30.7283 84.8933 30.2235 84.3886C30.0877 84.2527 29.8838 84.044 30.3352 80.574C30.3436 80.5103 30.377 80.4526 30.4279 80.4135C30.4789 80.3744 30.5433 80.357 30.6069 80.3653C30.6701 80.3749 30.727 80.4086 30.7659 80.4592C30.8048 80.5099 30.8226 80.5736 30.8156 80.6371C30.4419 83.4956 30.5487 83.9858 30.5875 84.0683C31.1505 84.6264 33.4994 86.6841 33.5237 86.7035C33.5708 86.7448 33.6002 86.8027 33.6056 86.8651C33.6111 86.9275 33.5921 86.9896 33.5528 87.0384C33.5237 87.0724 30.6652 90.6734 31.0777 92.4642C31.3835 93.7794 33.3635 101.2 35.3048 107.47C35.323 107.531 35.3164 107.597 35.2865 107.654C35.2565 107.71 35.2055 107.752 35.1446 107.771C35.1204 107.783 35.094 107.79 35.067 107.791Z" fill="black"/>
<path d="M32.1702 70.7314C32.1702 70.7314 31.3888 74.9828 30.8356 78.7149L32.1702 70.7314Z" fill="white"/>
<path d="M30.8353 78.958H30.8014C30.7382 78.9472 30.6816 78.9124 30.6436 78.8608C30.6056 78.8092 30.5891 78.7449 30.5975 78.6814C31.1459 74.9881 31.9273 70.7319 31.9321 70.6882C31.9439 70.6252 31.9802 70.5695 32.0329 70.5331C32.0856 70.4968 32.1506 70.4827 32.2136 70.4941C32.2769 70.5059 32.333 70.5419 32.3702 70.5945C32.4073 70.647 32.4226 70.712 32.4126 70.7756C32.4126 70.8192 31.6216 75.0658 31.078 78.7542C31.0678 78.8112 31.0379 78.8628 30.9936 78.9C30.9492 78.9372 30.8932 78.9578 30.8353 78.958Z" fill="black"/>
<path d="M33.9023 139.525C33.8671 139.524 33.8324 139.516 33.8004 139.501L31.1797 138.268C31.1291 138.237 31.0918 138.188 31.0748 138.131C31.0577 138.074 31.0622 138.013 31.0874 137.959C31.1125 137.906 31.1566 137.863 31.2112 137.839C31.2658 137.816 31.3271 137.813 31.3835 137.832L34.0091 139.064C34.0667 139.092 34.1112 139.141 34.133 139.201C34.1548 139.261 34.1522 139.327 34.1256 139.385C34.105 139.426 34.0732 139.462 34.0338 139.487C33.9944 139.511 33.9489 139.525 33.9023 139.525Z" fill="black"/>
<path d="M38.5464 141.704C38.5111 141.703 38.4765 141.695 38.4445 141.68L35.1201 140.122C35.0909 140.109 35.0647 140.09 35.0431 140.066C35.0214 140.042 35.0047 140.014 34.9939 139.984C34.983 139.954 34.9783 139.922 34.98 139.89C34.9816 139.857 34.9897 139.826 35.0036 139.797C35.0166 139.768 35.0353 139.742 35.0586 139.72C35.0819 139.699 35.1093 139.682 35.1391 139.671C35.169 139.66 35.2007 139.656 35.2325 139.657C35.2642 139.659 35.2953 139.667 35.3239 139.681L38.3037 141.078V137.196L31.189 134.284C31.1291 134.259 31.0814 134.212 31.0564 134.153C31.0314 134.093 31.0311 134.026 31.0555 133.966C31.08 133.906 31.1272 133.858 31.1868 133.833C31.2464 133.808 31.3136 133.808 31.3734 133.833L38.6532 136.798C38.6975 136.816 38.7354 136.847 38.7622 136.887C38.7889 136.926 38.8034 136.973 38.8036 137.021V141.471C38.8035 141.512 38.7933 141.552 38.7738 141.588C38.7543 141.623 38.7261 141.653 38.692 141.675C38.6474 141.699 38.5967 141.709 38.5464 141.704Z" fill="black"/>
<path d="M25.4137 57.6375L27.9471 63.8447C27.9471 63.8447 24.6518 60.4232 23.8899 63.4661C23.1279 66.5091 25.4138 70.0567 26.9328 70.0567C28.4518 70.0567 30.2281 70.1829 30.2281 70.1829C30.2281 70.1829 35.5666 79.5592 38.8425 81.3452C42.1183 83.1311 46.5735 84.6405 49.3641 83.1166C52.1547 81.5927 53.6737 77.4141 54.557 74.245C55.4403 71.0759 54.8142 61.5734 54.8142 61.5734L50.2328 42.8014C50.2328 42.8014 53.3971 41.6609 53.3971 39.5061C53.3971 37.3513 46.0494 36.7204 46.0494 36.7204C46.0494 36.7204 48.9613 33.3231 45.2875 32.7893C41.6136 32.2555 29.6991 39.3799 29.3205 39.6323C28.942 39.8846 31.3492 35.1965 28.3062 36.8465C25.2633 38.4966 21.7156 46.6014 22.099 48.4941C22.4824 50.3869 25.4137 57.6375 25.4137 57.6375Z" fill="white"/>
<path d="M46.5979 83.9756C43.618 83.9756 40.2888 82.3983 38.7115 81.549C35.5521 79.8456 30.7086 71.5418 30.0631 70.4159C29.6264 70.3868 28.1753 70.2994 26.9134 70.2994C26.3117 70.2994 25.6031 69.8141 24.9722 69.0279C23.9385 67.703 23.1231 65.4511 23.6376 63.4079C23.8317 62.6266 24.2102 62.1558 24.7538 62.0102C25.5837 61.7918 26.6125 62.4179 27.3066 62.9808L25.1663 57.7443C25.0498 57.4482 22.2544 50.4645 21.8613 48.5767C21.4682 46.6888 24.9673 38.385 28.1704 36.6573C28.9469 36.2351 29.4808 36.172 29.8059 36.4389C30.3398 36.8805 30.0389 37.9725 29.6506 39.1421V39.1712C31.9559 37.8026 41.9146 32.0856 45.3118 32.5612C46.3698 32.7068 47.0298 33.1048 47.2773 33.7454C47.6461 34.716 46.9182 35.9342 46.496 36.5263C48.2043 36.7107 53.6301 37.4532 53.6301 39.5158C53.6301 41.5056 51.2375 42.6558 50.5047 42.9567L55.0181 61.5055C55.0521 61.9374 55.649 71.1293 54.7609 74.3033C53.402 79.1564 51.6646 82.112 49.4515 83.3205C48.5697 83.7731 47.5888 83.9983 46.5979 83.9756ZM25.1226 62.447C25.0405 62.446 24.9587 62.4575 24.88 62.481C24.516 62.578 24.2588 62.9275 24.1083 63.5244C23.623 65.4123 24.3947 67.4991 25.3556 68.727C25.8846 69.4064 26.467 69.8141 26.9134 69.8141C28.4276 69.8141 30.2088 69.9403 30.2282 69.9403C30.2672 69.9437 30.3047 69.9566 30.3377 69.9777C30.3706 69.9988 30.398 70.0276 30.4174 70.0616C30.4708 70.1538 35.7559 79.3991 38.9396 81.122C40.9876 82.2236 46.0931 84.6065 49.2283 82.8934C51.32 81.7529 52.9798 78.8992 54.3047 74.1577C55.1734 71.0662 54.5571 61.6608 54.5522 61.5686L49.9951 42.8548C49.9808 42.7963 49.9888 42.7346 50.0176 42.6817C50.0463 42.6288 50.0936 42.5884 50.1504 42.5684C50.1795 42.5684 53.1545 41.4571 53.1545 39.5012C53.1545 38.0938 48.7867 37.1911 46.0301 36.9533C45.9858 36.9495 45.9434 36.9337 45.9075 36.9074C45.8716 36.8812 45.8436 36.8456 45.8266 36.8045C45.8096 36.7634 45.8042 36.7185 45.8109 36.6746C45.8177 36.6306 45.8364 36.5894 45.8651 36.5554C46.2436 36.1089 47.1608 34.7597 46.8357 33.9007C46.661 33.4154 46.132 33.1436 45.2584 33.0271C41.803 32.5418 30.364 39.2246 29.4614 39.8216C29.4137 39.8502 29.3592 39.8654 29.3036 39.8654C29.2481 39.8654 29.1935 39.8502 29.1459 39.8216C28.9712 39.6905 29.0246 39.5352 29.2138 38.9577C29.4031 38.3802 29.8448 37.0455 29.5196 36.7738C29.4662 36.7301 29.2284 36.6136 28.4276 37.0504C25.4672 38.6519 22.0021 46.7567 22.3418 48.4456C22.7106 50.3044 25.5934 57.4531 25.6225 57.5259L28.1559 63.7331C28.1774 63.7852 28.1801 63.8432 28.1635 63.897C28.1469 63.9509 28.1121 63.9973 28.065 64.0283C28.0179 64.0593 27.9615 64.073 27.9055 64.0669C27.8495 64.0609 27.7973 64.0355 27.7579 63.9952C27.3017 63.5487 26.035 62.447 25.1226 62.447Z" fill="black"/>
<path d="M46.0494 36.7301C46.0494 36.7301 48.9613 33.3329 45.2875 32.7991C41.6136 32.2652 29.6991 39.3897 29.3205 39.642C28.942 39.8944 31.3492 35.2062 28.3062 36.8563C25.2633 38.5064 21.7156 46.6112 22.099 48.5039C22.4824 50.3966 25.3943 57.6278 25.3943 57.6278L27.9277 63.835C27.9277 63.835 30.8396 66.4994 29.8301 64.4708C28.8207 62.4422 26.7872 57.8802 27.2919 57.2493C27.7966 56.6184 30.3349 55.5992 30.461 54.2064C30.5872 52.8135 28.0345 48.7563 28.8158 47.7419C29.5972 46.7276 40.3469 48.6301 42.2494 47.4896C44.1518 46.3491 41.7398 43.5634 41.7398 43.5634L50.2328 42.8014C50.2328 42.8014 53.3971 41.6609 53.3971 39.5061C53.3971 37.3513 46.0494 36.7301 46.0494 36.7301Z" fill="black"/>
<path d="M29.9321 65.4851C29.67 65.4851 29.1022 65.2473 27.7627 64.0291C27.7364 64.0053 27.7164 63.9753 27.7045 63.9418L25.1663 57.7346C25.0498 57.4385 22.2544 50.4548 21.8613 48.567C21.4682 46.6791 24.9673 38.3753 28.1704 36.6476C28.9469 36.2254 29.4808 36.1623 29.8059 36.4292C30.3398 36.8708 30.0389 37.9628 29.6506 39.1324V39.1615C31.9559 37.8026 41.9146 32.0856 45.3118 32.5612C46.3698 32.7068 47.0298 33.1048 47.2773 33.7454C47.6461 34.716 46.9182 35.9342 46.496 36.5263C48.2043 36.7107 53.6301 37.4532 53.6301 39.5158C53.6301 41.8162 50.4367 42.9907 50.3008 43.0392H50.2426L42.2058 43.772C42.628 44.3544 43.3608 45.524 43.1764 46.5383C43.1376 46.7834 43.043 47.0164 42.9 47.2191C42.7569 47.4219 42.5692 47.5892 42.3513 47.708C41.2934 48.3437 37.9253 48.1108 34.6688 47.8875C32.3927 47.7322 29.2721 47.5187 28.9906 47.8875C28.6412 48.3728 29.2915 49.9647 29.8156 51.2605C30.301 52.4446 30.7426 53.5657 30.6843 54.2257C30.5873 55.2837 29.3691 56.0748 28.3888 56.7106C28.0544 56.9039 27.7433 57.1351 27.4619 57.3997C27.1852 57.8025 28.4034 61.1221 30.0243 64.364C30.2379 64.7814 30.3932 65.1988 30.1214 65.4026C30.0698 65.4512 30.0029 65.4804 29.9321 65.4851ZM28.1316 63.704C28.6321 64.1753 29.1802 64.5933 29.7671 64.9512C29.7237 64.8265 29.6718 64.7049 29.6118 64.5873C29.4759 64.3203 26.3553 58.0452 27.1027 57.1037C27.4146 56.7957 27.7654 56.5298 28.1462 56.3126C28.9906 55.7691 30.1456 55.0168 30.2184 54.1918C30.2718 53.6482 29.8205 52.532 29.3837 51.4497C28.7285 49.8239 28.1073 48.2903 28.6218 47.606C29.044 47.0431 31.1066 47.1595 34.7222 47.4022C37.7554 47.6109 41.1963 47.8487 42.1232 47.2906C42.2802 47.2079 42.4159 47.0899 42.5194 46.9459C42.623 46.8019 42.6918 46.6358 42.7202 46.4607C42.9046 45.3056 41.57 43.7429 41.5554 43.7284C41.5271 43.6945 41.5084 43.6536 41.5016 43.61C41.4948 43.5664 41.4999 43.5217 41.5166 43.4808C41.5324 43.4388 41.5601 43.4022 41.5963 43.3755C41.6325 43.3488 41.6756 43.3331 41.7204 43.3304L50.1649 42.5733C50.4707 42.4568 53.1448 41.3697 53.1448 39.5158C53.1448 38.1084 48.7769 37.2057 46.0203 36.9679C45.976 36.9641 45.9337 36.9482 45.8978 36.922C45.8619 36.8957 45.8339 36.8601 45.8169 36.8191C45.7999 36.778 45.7944 36.7331 45.8012 36.6891C45.808 36.6452 45.8267 36.604 45.8553 36.5699C46.2339 36.1235 47.1511 34.7743 46.826 33.9153C46.6512 33.4299 46.1223 33.1582 45.2487 33.0417C41.7932 32.5564 30.3543 39.2392 29.4517 39.8361C29.404 39.8648 29.3495 39.8799 29.2939 39.8799C29.2383 39.8799 29.1838 39.8648 29.1362 39.8361C28.9615 39.7051 29.0149 39.5498 29.2041 38.9723C29.3934 38.3947 29.8351 37.0601 29.5099 36.7883C29.4565 36.7447 29.2187 36.6282 28.4179 37.065C25.4575 38.6665 21.9923 46.7713 22.3321 48.4602C22.7009 50.319 25.5837 57.4677 25.6128 57.5405L28.1316 63.704Z" fill="black"/>
<path d="M47.6949 68.0381C47.6949 68.0381 46.5544 70.1929 44.783 70.3191L47.6949 68.0381Z" fill="white"/>
<path d="M44.7827 70.5525C44.7184 70.5525 44.6567 70.5269 44.6111 70.4814C44.5656 70.4359 44.5401 70.3742 44.5401 70.3098C44.5401 70.2455 44.5656 70.1838 44.6111 70.1382C44.6567 70.0927 44.7184 70.0672 44.7827 70.0672C46.3988 69.9507 47.4908 67.9366 47.5005 67.9172C47.5127 67.8852 47.5315 67.8561 47.5558 67.8318C47.58 67.8076 47.6091 67.7887 47.6412 67.7766C47.6732 67.7644 47.7075 67.7591 47.7417 67.7612C47.776 67.7632 47.8094 67.7725 47.8398 67.7883C47.8701 67.8042 47.8968 67.8264 47.918 67.8533C47.9392 67.8803 47.9545 67.9114 47.9628 67.9447C47.9711 67.9779 47.9722 68.0126 47.9662 68.0463C47.9601 68.0801 47.947 68.1122 47.9276 68.1405C47.8791 68.2375 46.7046 70.4166 44.8167 70.5671L44.7827 70.5525Z" fill="black"/>
<path d="M39.8378 62.2139C40.1921 62.9759 40.0417 63.7961 39.503 64.0484C38.9643 64.3008 38.2412 63.8834 37.8869 63.1215C37.5326 62.3595 37.6831 61.5393 38.2218 61.287C38.7605 61.0346 39.4884 61.4374 39.8378 62.2139Z" fill="black"/>
<path d="M49.1125 61.864C49.7001 61.7704 50.0695 61.0229 49.9375 60.1944C49.8055 59.3659 49.2222 58.7701 48.6346 58.8637C48.047 58.9573 47.6776 59.7048 47.8095 60.5333C47.9415 61.3618 48.5248 61.9576 49.1125 61.864Z" fill="black"/>
<path d="M44.783 75.1239C46.0906 75.0978 47.3642 74.7024 48.4568 73.9834L44.783 75.1239Z" fill="white"/>
<path d="M44.7827 75.3661C44.7184 75.3661 44.6567 75.3406 44.6111 75.295C44.5656 75.2495 44.5401 75.1878 44.5401 75.1235C44.5401 75.0591 44.5656 74.9974 44.6111 74.9519C44.6567 74.9064 44.7184 74.8808 44.7827 74.8808C46.0376 74.8526 47.2596 74.4744 48.311 73.7888C48.3629 73.7515 48.4273 73.7356 48.4906 73.7447C48.5539 73.7537 48.6113 73.7869 48.6507 73.8374C48.6893 73.8889 48.7059 73.9536 48.6968 74.0173C48.6877 74.081 48.6536 74.1385 48.6022 74.1771C47.4688 74.9303 46.1433 75.3429 44.7827 75.3661Z" fill="black"/>
<path d="M33.5037 61.0345C33.4031 61.0353 33.3047 61.0048 33.2222 60.9472C33.1176 60.873 33.0466 60.7603 33.0248 60.6339C33.003 60.5075 33.0321 60.3776 33.1057 60.2726C33.1883 60.1561 35.1441 57.4626 40.2399 59.0739C40.3008 59.0933 40.3572 59.1245 40.406 59.1658C40.4548 59.207 40.495 59.2575 40.5243 59.3143C40.5536 59.3711 40.5714 59.4331 40.5767 59.4967C40.582 59.5604 40.5748 59.6245 40.5554 59.6854C40.5359 59.7462 40.5047 59.8027 40.4634 59.8515C40.4222 59.9002 40.3717 59.9404 40.3149 59.9697C40.2581 59.999 40.1961 60.0168 40.1325 60.0222C40.0688 60.0275 40.0047 60.0203 39.9439 60.0008C35.576 58.6177 33.9648 60.7433 33.8968 60.8307C33.8522 60.8934 33.7932 60.9446 33.7249 60.9801C33.6565 61.0155 33.5807 61.0342 33.5037 61.0345Z" fill="black"/>
<path d="M46.2828 58.6276C46.2362 58.635 46.1887 58.635 46.1421 58.6276C46.0808 58.6093 46.0238 58.579 45.9742 58.5386C45.9247 58.4981 45.8836 58.4483 45.8534 58.3919C45.8232 58.3355 45.8044 58.2737 45.7981 58.21C45.7919 58.1464 45.7983 58.0821 45.8169 58.0209C46.1681 57.0314 46.8063 56.169 47.6501 55.544C48.4938 54.919 49.5047 54.5597 50.5536 54.5121C50.6823 54.5025 50.8096 54.5443 50.9075 54.6285C51.0053 54.7127 51.0657 54.8323 51.0753 54.961C51.085 55.0897 51.0431 55.217 50.9589 55.3149C50.8747 55.4127 50.7551 55.4731 50.6264 55.4827C49.7715 55.5157 48.9458 55.8024 48.2543 56.3063C47.5629 56.8101 47.0371 57.5084 46.7439 58.3121C46.7089 58.4058 46.6458 58.4864 46.5633 58.5428C46.4808 58.5993 46.3828 58.6289 46.2828 58.6276Z" fill="black"/>
<path d="M53.397 55.6088C53.397 55.6088 54.2851 53.5802 55.2994 54.8469C56.3137 56.1135 56.6923 58.6517 56.0614 60.297C55.4305 61.9422 55.0471 63.3399 55.0471 63.3399L54.7947 61.5636L53.397 55.6088Z" fill="white"/>
<path d="M55.0472 63.5827C54.9914 63.5781 54.9387 63.5551 54.8974 63.5173C54.8562 63.4796 54.8286 63.4291 54.8191 63.374L54.5667 61.5977L53.1787 55.6623C53.1595 55.614 53.1595 55.5602 53.1787 55.5119C53.2321 55.3905 53.7271 54.2986 54.4939 54.1967C54.688 54.1815 54.8825 54.2186 55.0574 54.3039C55.2324 54.3892 55.3813 54.5198 55.4888 54.682C56.5808 56.0506 56.9448 58.6519 56.2847 60.3699C55.6635 61.986 55.285 63.374 55.2802 63.3885C55.2691 63.4425 55.2401 63.4912 55.1977 63.5265C55.1554 63.5618 55.1023 63.5816 55.0472 63.5827ZM53.6543 55.638L55.0278 61.5104L55.1297 62.2189C55.3044 61.6754 55.5422 60.9668 55.8334 60.2097C56.4303 58.6616 56.0906 56.2253 55.1103 55.0023C54.921 54.7645 54.7317 54.6529 54.557 54.6771C54.1688 54.7305 53.7951 55.342 53.6543 55.638Z" fill="black"/>
<path d="M76.7162 45.7131C76.7162 45.7131 62.7828 43.1895 61.8898 43.1895C60.9968 43.1895 50.611 45.0919 49.092 45.7228C47.573 46.3537 36.037 49.6539 36.2894 50.4158C36.5417 51.1778 37.9394 51.4253 37.9394 51.4253C37.9394 51.4253 38.1918 52.5658 42.249 53.0753C46.3063 53.5849 55.8039 52.3134 55.935 53.2015C55.9477 53.5047 55.8979 53.8073 55.7885 54.0904C55.6791 54.3734 55.5125 54.6309 55.2992 54.8468L56.4397 56.8754C56.4397 56.8754 60.6231 56.2445 62.016 55.2301C63.4088 54.2158 67.3544 51.0467 67.3544 51.0467L75.8426 51.6825L76.7162 45.7131Z" fill="white"/>
<path d="M56.4407 57.1186C56.3975 57.1192 56.3549 57.1082 56.3174 57.0869C56.2799 57.0656 56.2487 57.0346 56.2271 56.9972L55.0866 54.9686C55.061 54.922 55.0514 54.8682 55.0592 54.8156C55.0671 54.763 55.0921 54.7145 55.1303 54.6774C55.4934 54.3006 55.6968 53.7981 55.6981 53.2749C55.2905 53.0031 52.398 53.1487 50.0685 53.2749C47.2924 53.4107 44.1476 53.566 42.216 53.3234C38.8188 52.9012 37.9841 52.0227 37.7705 51.649C37.3823 51.5617 36.3146 51.2559 36.0622 50.4988C36.0478 50.4559 36.0425 50.4104 36.0467 50.3652C36.0509 50.3201 36.0644 50.2764 36.0865 50.2368C36.3922 49.635 39.3818 48.6013 45.5599 46.6454C47.1663 46.1359 48.5543 45.6748 48.9959 45.5098C50.5101 44.8789 60.9541 42.957 61.8908 42.957C62.8274 42.957 76.1882 45.3836 76.7608 45.4952C76.8228 45.5071 76.8777 45.5426 76.914 45.5942C76.9502 45.6458 76.9649 45.7096 76.955 45.7719L76.0668 51.7267C76.0584 51.7872 76.0269 51.8421 75.979 51.8801C75.9311 51.918 75.8705 51.9361 75.8096 51.9305L67.4185 51.3045C66.8652 51.751 63.4341 54.5076 62.1577 55.4345C60.7357 56.4731 56.6493 57.0991 56.4746 57.1283L56.4407 57.1186ZM55.5962 54.8812L56.5668 56.609C57.3531 56.4828 60.6969 55.8907 61.8713 55.0317C63.2448 54.0611 67.1467 50.892 67.1856 50.858C67.2336 50.8197 67.2941 50.8007 67.3554 50.8046L75.6058 51.4209L76.426 45.9223C71.5728 45.039 62.5508 43.4326 61.8665 43.4326C60.9444 43.4326 50.6508 45.3302 49.1609 45.9514C48.6756 46.1407 47.3653 46.5629 45.6812 47.0968C42.6722 48.0674 37.1202 49.8097 36.5281 50.4066C36.7562 50.892 37.625 51.1298 37.9598 51.188C38.0066 51.1983 38.0496 51.2215 38.0839 51.255C38.1181 51.2884 38.1424 51.3308 38.154 51.3773C38.154 51.3773 38.5276 52.3479 42.2549 52.8332C44.1428 53.071 47.2633 52.9157 50.0199 52.7798C54.5771 52.5517 56.0573 52.5323 56.1495 53.1681C56.1766 53.4761 56.1416 53.7865 56.0466 54.0808C55.9516 54.3751 55.7984 54.6473 55.5962 54.8812Z" fill="black"/>
<path d="M45.7975 47.499C45.7975 47.499 40.0951 49.9256 39.2069 50.4109C38.3188 50.8962 40.8521 51.93 42.376 51.6776C43.8999 51.4252 49.7237 49.1394 50.6264 48.887C51.5291 48.6347 55.5669 49.649 58.4837 50.0275C60.3354 50.3062 62.2281 50.0432 63.9338 49.2704" fill="white"/>
<path d="M41.8663 51.9648C40.6142 51.9648 39.0175 51.4018 38.8088 50.8194C38.7658 50.7009 38.7706 50.5702 38.8223 50.4552C38.8739 50.3402 38.9683 50.2497 39.0854 50.2031C39.9736 49.6935 45.4673 47.3737 45.7003 47.2912C45.7299 47.2785 45.7617 47.2718 45.7939 47.2715C45.8262 47.2712 45.8581 47.2774 45.8879 47.2895C45.9177 47.3017 45.9448 47.3198 45.9676 47.3425C45.9904 47.3653 46.0084 47.3924 46.0206 47.4222C46.0435 47.4816 46.0426 47.5474 46.0182 47.6062C45.9938 47.6649 45.9478 47.712 45.8896 47.7377C45.8313 47.7619 40.192 50.1642 39.3281 50.6496C39.3027 50.6614 39.2796 50.6779 39.2602 50.6981C39.3329 50.9747 41.0607 51.6687 42.3322 51.4649C43.3368 51.2999 46.3846 50.1837 48.3986 49.446C49.4324 49.0674 50.2477 48.7714 50.5438 48.684C51.1164 48.5239 52.5724 48.7762 54.9116 49.2082C56.1346 49.4363 57.3964 49.6935 58.5078 49.8197C60.3117 50.092 62.1558 49.8358 63.8172 49.082C63.8745 49.0532 63.9408 49.0483 64.0018 49.0683C64.0627 49.0883 64.1132 49.1316 64.1423 49.1888C64.1572 49.217 64.1663 49.248 64.169 49.2798C64.1717 49.3116 64.1679 49.3437 64.158 49.374C64.148 49.4044 64.132 49.4324 64.111 49.4564C64.09 49.4805 64.0643 49.5 64.0355 49.5139C62.2758 50.3078 60.3232 50.5725 58.4156 50.2759C57.2945 50.1303 56.023 49.8925 54.7903 49.6644C52.9995 49.3295 51.1504 48.9849 50.6602 49.1257C50.3787 49.2082 49.5683 49.5042 48.5491 49.8779C46.3943 50.6641 43.4436 51.7464 42.3953 51.9211C42.2204 51.95 42.0435 51.9646 41.8663 51.9648Z" fill="black"/>
<path d="M111.053 65.9902C107.83 66.7001 104.492 66.7001 101.269 65.9902C95.9305 64.8012 81.8563 57.8321 81.8563 57.8321L72.218 55.0172L74.431 43.7725C74.431 43.7725 98.7502 46.7377 105.569 49.2565C112.388 51.7753 122.322 57.5603 122.026 59.6374C121.73 61.7146 116.246 66.1601 116.246 66.1601" fill="#574B7E"/>
<path d="M106.161 66.7523C104.498 66.7567 102.84 66.5793 101.215 66.2233C95.9109 65.044 82.3123 58.3369 81.7348 58.0506L72.1401 55.2503C72.0822 55.2323 72.033 55.1937 72.0017 55.1418C71.9704 55.0899 71.9592 55.0284 71.9702 54.9688L74.193 43.6998C74.2048 43.6397 74.2389 43.5863 74.2884 43.5503C74.3379 43.5143 74.3991 43.4984 74.4599 43.5056C74.7026 43.5347 98.8859 46.5049 105.651 49.0043C112.3 51.46 122.598 57.3274 122.268 59.6472C121.963 61.7923 116.624 66.1408 116.396 66.3252C116.371 66.3453 116.343 66.3602 116.312 66.3693C116.281 66.3783 116.249 66.3812 116.217 66.3779C116.186 66.3745 116.155 66.3649 116.127 66.3496C116.099 66.3343 116.074 66.3137 116.054 66.2888C116.034 66.2639 116.019 66.2354 116.01 66.2047C116.001 66.1741 115.998 66.1419 116.001 66.1102C116.005 66.0784 116.014 66.0476 116.03 66.0196C116.045 65.9915 116.065 65.9667 116.09 65.9466C117.595 64.7285 121.555 61.2051 121.788 59.5793C122.031 57.871 112.887 52.1976 105.486 49.4605C99.114 47.1067 77.0952 44.321 74.6249 44.0152L72.4895 54.8426L81.9144 57.5992C82.094 57.6866 96.0711 64.5829 101.327 65.7525C104.514 66.4479 107.813 66.4479 110.999 65.7525C111.064 65.7364 111.132 65.7466 111.189 65.7807C111.246 65.8148 111.287 65.8702 111.303 65.9345C111.319 65.9989 111.309 66.067 111.275 66.1239C111.24 66.1807 111.185 66.2217 111.121 66.2378C109.493 66.5988 107.828 66.7714 106.161 66.7523Z" fill="black"/>
<path d="M40.6434 122.18C34.0576 122.18 27.666 114.958 27.3506 114.594C27.325 114.571 27.3047 114.543 27.2909 114.512C27.2771 114.48 27.2701 114.446 27.2705 114.412C27.2708 114.377 27.2784 114.344 27.2929 114.312C27.3073 114.281 27.3282 114.253 27.3542 114.231C27.3802 114.208 27.4106 114.192 27.4436 114.182C27.4765 114.172 27.5111 114.169 27.5452 114.174C27.5793 114.178 27.612 114.19 27.6412 114.208C27.6704 114.226 27.6954 114.25 27.7146 114.279C27.8019 114.376 36.6055 124.325 43.8804 121.001C51.1553 117.676 54.9505 95.934 54.9893 95.7156C55.0012 95.6524 55.0372 95.5962 55.0897 95.5591C55.1423 95.5219 55.2072 95.5067 55.2708 95.5166C55.3341 95.5285 55.3902 95.5645 55.4274 95.617C55.4645 95.6696 55.4797 95.7345 55.4698 95.7981C55.3145 96.7008 51.6406 117.992 44.0843 121.442C43.0046 121.936 41.8304 122.187 40.6434 122.18Z" fill="black"/>
<path d="M31.0293 115.012C22.2499 115.012 15.6981 106.961 15.6302 106.874C15.5905 106.823 15.5723 106.759 15.5796 106.696C15.5869 106.632 15.619 106.574 15.669 106.534C15.6937 106.514 15.7221 106.498 15.7527 106.489C15.7833 106.48 15.8154 106.478 15.8471 106.481C15.8788 106.485 15.9095 106.495 15.9372 106.511C15.965 106.526 15.9893 106.547 16.0087 106.573C16.0815 106.66 23.1041 115.308 32.2523 114.474C41.6043 113.639 44.5696 102.549 44.4822 97.6186C44.4822 97.5546 44.5069 97.4931 44.5513 97.4469C44.5956 97.4008 44.6561 97.3736 44.72 97.3711C44.7833 97.3733 44.8436 97.3988 44.8893 97.4427C44.9349 97.4866 44.9628 97.5457 44.9676 97.6089C45.0549 102.685 41.9877 114.11 32.2959 114.959C31.8689 114.998 31.4467 115.012 31.0293 115.012Z" fill="black"/>
<path d="M19.9067 101.195L16.9256 100.193L12.2302 114.17L15.2113 115.171L19.9067 101.195Z" fill="#7D7D7D"/>
<path d="M15.2234 115.415C15.1977 115.42 15.1714 115.42 15.1457 115.415L12.1659 114.416C12.1353 114.406 12.1071 114.39 12.0829 114.37C12.0587 114.349 12.039 114.323 12.0251 114.294C12.0011 114.233 12.0011 114.166 12.0251 114.105L16.6793 100.118C16.7004 100.058 16.7439 100.008 16.8009 99.979C16.8579 99.95 16.9239 99.9443 16.9851 99.9629L19.9649 100.967C19.9954 100.977 20.0237 100.993 20.0479 101.013C20.0721 101.034 20.0918 101.06 20.1056 101.089C20.1299 101.148 20.1299 101.214 20.1056 101.273L15.4078 115.25C15.3942 115.292 15.37 115.329 15.3377 115.358C15.3053 115.386 15.2659 115.406 15.2234 115.415ZM12.5493 114.018L15.0681 114.862L19.5912 101.346L17.0724 100.502L12.5493 114.018Z" fill="black"/>
<path d="M21.2425 99.9283L16.619 98.375L15.9282 100.431L20.5517 101.985L21.2425 99.9283Z" fill="black"/>
<path d="M20.5616 102.228H20.484L15.8589 100.675C15.8267 100.667 15.7967 100.652 15.7708 100.631C15.7449 100.61 15.7236 100.584 15.7084 100.554C15.6842 100.495 15.6842 100.429 15.7084 100.37L16.3976 98.3119C16.4126 98.2513 16.45 98.1987 16.5022 98.1645C16.5544 98.1303 16.6176 98.1171 16.6791 98.1275L21.2993 99.6805C21.3298 99.69 21.3581 99.7056 21.3823 99.7265C21.4065 99.7474 21.4262 99.773 21.44 99.8018C21.4643 99.8609 21.4643 99.9272 21.44 99.9862L20.7509 102.044C20.7405 102.09 20.7171 102.131 20.6835 102.164C20.65 102.197 20.6076 102.219 20.5616 102.228ZM16.2471 100.287L20.4112 101.685L20.945 100.093L16.781 98.6905L16.2471 100.287Z" fill="black"/>
<path d="M26.4837 103.402L23.5025 102.4L18.8071 116.377L21.7883 117.378L26.4837 103.402Z" fill="#7D7D7D"/>
<path d="M21.7833 117.623C21.7576 117.628 21.7313 117.628 21.7056 117.623L18.7258 116.623C18.6952 116.614 18.667 116.598 18.6428 116.577C18.6186 116.556 18.5989 116.531 18.585 116.502C18.5719 116.473 18.5651 116.441 18.5651 116.41C18.5651 116.378 18.5719 116.346 18.585 116.317L23.278 102.34C23.2875 102.31 23.3032 102.282 23.3241 102.257C23.3449 102.233 23.3706 102.214 23.3994 102.2C23.4283 102.186 23.4598 102.18 23.4916 102.18C23.5234 102.18 23.5548 102.186 23.5838 102.2L26.5636 103.199C26.5943 103.209 26.6227 103.224 26.6472 103.245C26.6718 103.265 26.6919 103.291 26.7064 103.319C26.7209 103.348 26.7295 103.379 26.7316 103.411C26.7338 103.443 26.7295 103.475 26.7189 103.505L22.0162 117.458C22.0005 117.507 21.9693 117.55 21.9273 117.579C21.8852 117.609 21.8347 117.624 21.7833 117.623ZM19.1043 116.225L21.628 117.075L26.1657 103.559L23.6469 102.709L19.1043 116.225Z" fill="black"/>
<path d="M27.8146 102.135L23.1911 100.582L22.5003 102.638L27.1238 104.192L27.8146 102.135Z" fill="black"/>
<path d="M27.1269 104.437H27.0493L22.4291 102.884C22.3985 102.874 22.3703 102.859 22.3461 102.838C22.3218 102.817 22.3022 102.791 22.2883 102.762C22.264 102.703 22.264 102.637 22.2883 102.578L22.9872 100.506C23.0116 100.447 23.0564 100.399 23.1134 100.37C23.1724 100.345 23.2387 100.345 23.2978 100.37L27.9228 101.923C27.9524 101.933 27.9795 101.949 28.0029 101.97C28.0262 101.991 28.0452 102.016 28.0587 102.044C28.083 102.103 28.083 102.169 28.0587 102.229L27.355 104.272C27.3389 104.32 27.3082 104.361 27.2673 104.391C27.2265 104.42 27.1774 104.436 27.1269 104.437ZM22.8125 102.495L26.9765 103.898L27.5103 102.301L23.3463 100.904L22.8125 102.495Z" fill="black"/>
<path d="M25.467 107.15L15.785 103.889L12.1773 114.599L21.8594 117.86L25.467 107.15Z" fill="black"/>
<path d="M21.7842 117.623C21.7586 117.627 21.7323 117.627 21.7066 117.623L12.0488 114.381C11.9889 114.359 11.9389 114.316 11.9081 114.26C11.884 114.199 11.884 114.131 11.9081 114.07L15.4994 103.393C15.52 103.332 15.5635 103.282 15.6207 103.253C15.6798 103.228 15.7461 103.228 15.8052 103.253L25.4678 106.494C25.5284 106.516 25.578 106.561 25.6061 106.619C25.6342 106.677 25.6385 106.744 25.6182 106.805L22.0269 117.482C22.0066 117.528 21.9722 117.567 21.9285 117.592C21.8849 117.617 21.8344 117.628 21.7842 117.623ZM12.4322 113.983L21.6532 117.074L25.0698 106.863L15.8488 103.772L12.4322 113.983Z" fill="black"/>
<path d="M12.9516 121.272L3.9393 118.244L8.71481 110.357L13.9028 112.1L12.9516 121.272Z" fill="#7D7D7D"/>
<path d="M12.9502 121.515H12.8726L3.86024 118.487C3.82605 118.475 3.79486 118.456 3.76887 118.43C3.74288 118.405 3.72271 118.375 3.7098 118.341C3.69427 118.308 3.68622 118.273 3.68622 118.237C3.68622 118.2 3.69427 118.165 3.7098 118.132L8.49016 110.241C8.5183 110.194 8.56162 110.159 8.61286 110.14C8.6641 110.122 8.72016 110.121 8.77165 110.139L13.9597 111.881C14.0125 111.899 14.0577 111.934 14.0878 111.981C14.1178 112.028 14.1308 112.083 14.1247 112.139L13.1541 121.306C13.1506 121.343 13.1387 121.378 13.1193 121.409C13.0999 121.44 13.0736 121.466 13.0424 121.486C13.0143 121.502 12.9827 121.512 12.9502 121.515ZM4.30188 118.118L12.7415 120.937L13.6442 112.26L8.82503 110.639L4.30188 118.118Z" fill="black"/>
<path d="M12.9517 121.275L3.9393 118.247L0.726095 127.811L9.73844 130.839L12.9517 121.275Z" fill="#636363"/>
<path d="M9.73826 131.081C9.71263 131.086 9.68624 131.086 9.66061 131.081L0.662853 128.038C0.602632 128.017 0.553083 127.973 0.524928 127.916C0.496774 127.859 0.492279 127.793 0.512406 127.732L3.7252 118.167C3.7355 118.137 3.75151 118.11 3.77233 118.087C3.79315 118.063 3.81836 118.044 3.84653 118.031C3.9056 118.007 3.97187 118.007 4.03095 118.031L13.0433 121.059C13.1035 121.08 13.153 121.124 13.1812 121.181C13.2093 121.239 13.2138 121.305 13.1937 121.365L9.98092 130.931C9.97139 130.961 9.95566 130.988 9.93475 131.011C9.91384 131.035 9.88823 131.054 9.85959 131.066C9.82151 131.083 9.77925 131.088 9.73826 131.081ZM1.03169 127.655L9.58297 130.528L12.6453 121.423L4.09404 118.55L1.03169 127.655Z" fill="black"/>
<path d="M18.3538 103.075L10.6158 100.476L7.40261 110.04L15.1406 112.64L18.3538 103.075Z" fill="#636363"/>
<path d="M15.1451 112.882H15.0675L7.30243 110.28C7.24154 110.26 7.19107 110.216 7.1617 110.159C7.13743 110.1 7.13743 110.034 7.1617 109.974L10.3696 100.399C10.3906 100.339 10.4344 100.289 10.4917 100.261C10.5489 100.233 10.6149 100.229 10.6754 100.249L18.4113 102.845C18.4713 102.867 18.5212 102.911 18.5521 102.967C18.5761 103.027 18.5761 103.095 18.5521 103.156L15.3393 112.717C15.3254 112.759 15.2999 112.797 15.2656 112.827C15.2313 112.856 15.1896 112.875 15.1451 112.882ZM7.71496 109.887L14.9947 112.314L18.0522 103.209L10.7724 100.783L7.71496 109.887Z" fill="black"/>
<path d="M26.1036 125.694L17.0912 122.666L21.8716 114.779L27.0596 116.522L26.1036 125.694Z" fill="#7D7D7D"/>
<path d="M26.102 125.936C26.0764 125.941 26.0501 125.941 26.0244 125.936L17.0121 122.879C16.9779 122.867 16.9467 122.848 16.9207 122.823C16.8947 122.797 16.8745 122.767 16.8616 122.733C16.8498 122.699 16.8458 122.662 16.85 122.626C16.8542 122.59 16.8664 122.555 16.8859 122.524L21.6614 114.638C21.6903 114.591 21.7342 114.554 21.7861 114.535C21.838 114.516 21.8949 114.514 21.9477 114.531L27.1357 116.278C27.1878 116.295 27.2324 116.329 27.2616 116.375C27.2909 116.422 27.303 116.477 27.2959 116.531L26.3253 125.703C26.3211 125.74 26.3089 125.774 26.2896 125.805C26.2703 125.837 26.2444 125.863 26.2136 125.883C26.1817 125.91 26.1432 125.928 26.102 125.936ZM17.4537 122.539L25.8982 125.363L26.8009 116.691L21.9817 115.07L17.4537 122.539Z" fill="black"/>
<path d="M26.1075 125.694L17.0951 122.666L13.8819 132.23L22.8943 135.258L26.1075 125.694Z" fill="#636363"/>
<path d="M22.8897 135.497H22.8121L13.7997 132.469C13.7395 132.448 13.69 132.404 13.6618 132.347C13.6337 132.289 13.6291 132.223 13.6493 132.163L16.8621 122.597C16.8716 122.567 16.8872 122.538 16.9081 122.514C16.929 122.49 16.9546 122.47 16.9834 122.456C17.0124 122.443 17.0438 122.437 17.0756 122.437C17.1074 122.437 17.1389 122.443 17.1678 122.456L26.1801 125.48C26.2409 125.502 26.2908 125.547 26.3197 125.604C26.3486 125.662 26.3542 125.729 26.3354 125.791L23.1226 135.351C23.1 135.413 23.0549 135.463 22.9965 135.492C22.9619 135.503 22.9251 135.505 22.8897 135.497ZM14.188 132.1L22.7392 134.973L25.7967 125.868L17.2455 122.995L14.188 132.1Z" fill="black"/>
<path d="M31.5111 107.492L23.7731 104.893L20.5599 114.457L28.2979 117.057L31.5111 107.492Z" fill="#636363"/>
<path d="M28.2971 117.302C28.2714 117.307 28.2451 117.307 28.2195 117.302L20.4835 114.701C20.453 114.691 20.4248 114.676 20.4005 114.655C20.3763 114.634 20.3567 114.608 20.3428 114.579C20.3185 114.52 20.3185 114.454 20.3428 114.395L23.5556 104.834C23.5756 104.773 23.619 104.722 23.6763 104.693C23.7337 104.664 23.8002 104.659 23.8613 104.679L31.6264 107.28C31.6873 107.301 31.7378 107.344 31.7671 107.402C31.7914 107.461 31.7914 107.527 31.7671 107.586L28.5543 117.152C28.535 117.202 28.499 117.245 28.4522 117.272C28.4054 117.299 28.3507 117.31 28.2971 117.302ZM20.8669 114.308L28.1467 116.734L31.209 107.634L23.9293 105.208L20.8669 114.308Z" fill="black"/>
<path d="M7.55446 99.8411C7.55446 99.8411 6.50618 101.569 6.81678 102.064C7.12738 102.559 10.1509 104.223 10.5828 104.35C11.0148 104.476 12.1892 103.864 12.1261 103.049C12.063 102.234 9.69956 100.521 8.97644 100.089C8.25332 99.6566 7.86506 99.5838 7.55446 99.8411Z" fill="white"/>
<path d="M10.708 104.607C10.6435 104.614 10.5784 104.614 10.5139 104.607C10.0286 104.476 6.96139 102.782 6.60711 102.214C6.25283 101.646 7.09243 100.171 7.34964 99.7389C7.36345 99.7148 7.38154 99.6934 7.40303 99.6758C7.88834 99.307 8.37366 99.4865 9.09678 99.8991C9.49474 100.132 12.2902 102.01 12.3678 103.058C12.3721 103.277 12.3226 103.493 12.2235 103.688C12.1245 103.882 11.979 104.05 11.8 104.175C11.4893 104.428 11.1079 104.579 10.708 104.607ZM7.7379 100.006C7.25258 100.845 6.8983 101.743 7.01963 101.947C7.2817 102.369 10.2179 104.005 10.6498 104.131C10.963 104.123 11.2629 104.003 11.4942 103.791C11.609 103.711 11.7037 103.605 11.7711 103.482C11.8384 103.359 11.8765 103.223 11.8825 103.083C11.8388 102.486 9.83932 100.884 8.85413 100.312C8.11645 99.8651 7.88835 99.8991 7.7379 100.006Z" fill="black"/>
<path d="M5.89535 103.258C5.89535 103.258 5.38577 105.199 5.8274 105.602C6.26904 106.005 9.64198 106.708 10.0933 106.699C10.5447 106.689 11.4862 105.762 11.195 105.015C10.9038 104.267 8.15692 103.282 7.31247 103.073C6.46802 102.865 6.11859 102.932 5.89535 103.258Z" fill="white"/>
<path d="M10.087 106.941C9.60172 106.941 6.16568 106.222 5.6658 105.781C5.16592 105.339 5.52991 103.689 5.6658 103.194C5.67507 103.167 5.68643 103.141 5.69978 103.116C6.03464 102.631 6.59276 102.655 7.38867 102.845C7.83517 102.951 11.0528 103.946 11.4314 104.927C11.4994 105.134 11.515 105.355 11.4769 105.57C11.4388 105.785 11.3482 105.988 11.213 106.159C11.0936 106.36 10.9334 106.533 10.7428 106.668C10.5521 106.802 10.3354 106.895 10.1064 106.941H10.087ZM6.11715 103.364C5.87449 104.335 5.8114 105.266 5.98611 105.417C6.35495 105.742 9.64054 106.475 10.087 106.455C10.3869 106.361 10.641 106.159 10.8004 105.888C10.8876 105.779 10.9483 105.651 10.9778 105.514C11.0073 105.378 11.0047 105.237 10.9703 105.101C10.7519 104.538 8.37387 103.582 7.26735 103.32C6.43745 103.121 6.22877 103.218 6.11715 103.364Z" fill="black"/>
<path d="M4.96651 106.654C4.96651 106.654 4.45693 108.595 4.89857 108.998C5.34021 109.401 8.71316 110.105 9.1645 110.095C9.61585 110.085 10.5574 109.158 10.2662 108.411C9.97498 107.664 7.23294 106.678 6.38364 106.47C5.53433 106.261 5.18976 106.329 4.96651 106.654Z" fill="white"/>
<path d="M9.16113 110.338C8.67581 110.338 5.23977 109.62 4.7399 109.178C4.24002 108.737 4.60401 107.087 4.7399 106.592C4.74889 106.564 4.76197 106.538 4.77872 106.514C5.10874 106.029 5.66685 106.053 6.46277 106.242C6.90926 106.349 10.1269 107.344 10.5055 108.324C10.5735 108.532 10.5891 108.753 10.551 108.968C10.5129 109.183 10.4223 109.385 10.2871 109.557C10.1677 109.757 10.0075 109.931 9.81688 110.065C9.62625 110.2 9.40945 110.293 9.18054 110.338H9.16113ZM5.19125 106.761C4.94859 107.732 4.88549 108.664 5.06021 108.814C5.42905 109.139 8.68552 109.853 9.15628 109.853C9.46137 109.764 9.72148 109.563 9.88425 109.29C9.97142 109.181 10.0321 109.053 10.0616 108.917C10.0911 108.78 10.0885 108.639 10.0541 108.504C9.83572 107.941 7.45767 106.985 6.35115 106.723C5.51641 106.519 5.30287 106.616 5.19125 106.761Z" fill="black"/>
<path d="M5.39981 109.926C5.39981 109.926 4.91449 111.867 5.33186 112.27C5.74923 112.673 9.14645 113.376 9.59779 113.372C10.0491 113.367 10.9907 112.435 10.7043 111.683C10.418 110.93 7.66624 109.955 6.82179 109.741C5.97734 109.528 5.62305 109.601 5.39981 109.926Z" fill="white"/>
<path d="M9.59201 113.615C9.10669 113.615 5.67065 112.891 5.17077 112.455C4.6709 112.018 5.03489 110.363 5.17077 109.868C5.17874 109.84 5.19191 109.813 5.2096 109.79C5.53962 109.305 6.09773 109.329 6.89365 109.518C7.34014 109.625 10.5578 110.615 10.9363 111.596C11.0043 111.804 11.02 112.026 10.9819 112.242C10.9438 112.458 10.8532 112.661 10.7179 112.833C10.5986 113.034 10.4384 113.207 10.2478 113.341C10.0571 113.476 9.84033 113.569 9.61142 113.615H9.59201ZM5.62212 110.033C5.37946 111.004 5.32122 111.94 5.49109 112.091C5.85993 112.411 9.12125 113.129 9.58715 113.129C9.88765 113.036 10.1422 112.833 10.3006 112.561C10.3878 112.451 10.4485 112.323 10.478 112.186C10.5074 112.049 10.5049 111.906 10.4704 111.77C10.252 111.212 7.87399 110.256 6.76747 109.989C5.94243 109.776 5.73375 109.887 5.62212 110.033Z" fill="black"/>
</svg>
