<svg width="122" height="143" viewBox="0 0 122 143" fill="none" xmlns="http://www.w3.org/2000/svg">
<path d="M22.5605 55.7862L24.3659 81.7555L13.1066 76.4995L10.2529 87.919C10.2529 87.919 34.4217 101.425 36.824 100.979C39.2263 100.532 33.2229 47.9872 33.2229 47.9872L22.5605 55.7862Z" fill="#FBD689"/>
<path d="M36.7161 101.217C33.6586 101.217 12.5716 89.4818 10.1353 88.1132C10.0884 88.0886 10.0514 88.0487 10.0302 88.0002C10.009 87.9516 10.005 87.8974 10.0188 87.8463L12.8676 76.4365C12.8763 76.4016 12.8927 76.3691 12.9155 76.3414C12.9383 76.3136 12.967 76.2912 12.9995 76.2759C13.032 76.2606 13.0675 76.2527 13.1035 76.2528C13.1394 76.2528 13.1749 76.2609 13.2073 76.2763L24.093 81.3527L22.3216 55.796C22.3174 55.755 22.3242 55.7136 22.3413 55.6761C22.3583 55.6386 22.385 55.6063 22.4186 55.5824L33.0956 47.7786C33.1298 47.7527 33.1704 47.7363 33.213 47.7312C33.2556 47.7261 33.2988 47.7324 33.3382 47.7494C33.3766 47.768 33.4096 47.796 33.4342 47.8308C33.4588 47.8656 33.4742 47.9061 33.479 47.9484C33.479 48.0795 34.9932 61.2364 36.1822 74.2768C38.6088 100.877 37.4003 101.105 36.8859 101.202L36.7161 101.217ZM10.5332 87.788C20.2396 93.1993 35.1048 101.042 36.7791 100.727C38.2594 99.654 35.2844 68.2541 33.0276 48.4192L22.8117 55.8882L24.6074 81.7216C24.6104 81.7642 24.6021 81.8068 24.5833 81.8451C24.5646 81.8834 24.5361 81.9162 24.5006 81.94C24.4634 81.9604 24.4217 81.9711 24.3793 81.9711C24.3369 81.9711 24.2952 81.9604 24.258 81.94L13.2656 76.8441L10.5332 87.788Z" fill="black"/>
<path d="M38.7895 118.431C38.7895 118.431 51.7523 113.976 56.819 109.725C61.8857 105.473 35.3438 54.0152 35.3438 54.0152C35.3438 54.0152 35.7514 101.217 38.7895 118.431Z" fill="#FBD689"/>
<path d="M38.789 118.678C38.7449 118.677 38.7017 118.665 38.6628 118.645C38.633 118.626 38.6076 118.601 38.5884 118.572C38.5691 118.543 38.5564 118.509 38.5512 118.475C35.5422 101.435 35.1054 54.4906 35.1006 54.0198C35.1001 53.9652 35.118 53.912 35.1515 53.8689C35.185 53.8257 35.232 53.7951 35.285 53.782C35.3386 53.7684 35.3952 53.7734 35.4456 53.7964C35.4959 53.8193 35.5368 53.8588 35.5617 53.9082C36.6488 56.0144 62.1279 105.58 56.9738 109.909C51.9314 114.141 39.0171 118.62 38.8667 118.645C38.8432 118.661 38.8169 118.672 38.789 118.678ZM35.5908 55.039C35.6684 61.9984 36.2605 102.309 38.988 118.13C40.871 117.465 52.0915 113.398 56.668 109.555C60.6088 106.22 43.2248 69.9333 35.5908 55.039Z" fill="black"/>
<path d="M93.0576 101.809L91.558 102.032C91.5637 102.106 91.5637 102.181 91.558 102.255C91.4415 104.196 81.0267 109.312 73.6693 112.088C72.0629 113.33 69.9081 113.961 67.2 113.961H67.1369C61.4636 114.509 50.5537 112.02 48.0882 110.321L45.4287 137.499C45.8558 137.712 46.2926 137.911 46.7342 138.11C52.4965 140.663 59.3201 141.941 67.2049 141.944C76.3094 141.944 84.0356 140.149 90.3835 136.557L90.5194 136.48C90.9222 136.247 91.3154 135.994 91.7085 135.771C92.1016 135.548 92.6354 135.174 93.0868 134.864L93.4993 134.577L94.4408 133.898L94.8776 133.563C95.1882 133.325 95.4939 133.078 95.79 132.84L96.1588 132.539C96.5713 132.194 96.979 131.845 97.3721 131.481C95.6929 119.464 93.0576 101.809 93.0576 101.809Z" fill="#737373"/>
<path d="M67.2193 142.202C59.3427 142.202 52.422 140.906 46.6468 138.348C46.2068 138.148 45.77 137.944 45.3364 137.737C45.288 137.713 45.2488 137.674 45.2248 137.625C45.2022 137.584 45.1937 137.536 45.2005 137.489L47.8601 110.312C47.8629 110.269 47.8771 110.229 47.9009 110.194C47.9248 110.159 47.9576 110.131 47.996 110.113C48.0323 110.092 48.0732 110.082 48.1149 110.082C48.1565 110.082 48.1974 110.092 48.2338 110.113C50.6603 111.763 61.5072 114.257 67.1271 113.714H67.2048C69.8546 113.714 71.9803 113.097 73.5381 111.889L73.6012 111.855C81.5556 108.856 91.2376 103.896 91.3347 102.236C91.3382 102.178 91.3382 102.12 91.3347 102.061C91.3263 101.998 91.343 101.935 91.3811 101.884C91.4192 101.833 91.4757 101.799 91.5385 101.79L93.0381 101.566C93.1017 101.558 93.166 101.574 93.2176 101.612C93.2692 101.65 93.304 101.707 93.3148 101.77C93.3148 101.945 95.9694 119.562 97.6438 131.457C97.6489 131.488 97.6476 131.52 97.6401 131.551C97.6326 131.582 97.619 131.611 97.6001 131.637L97.5516 131.68C97.2022 132.005 96.7993 132.35 96.3431 132.733L95.9743 133.034C95.6734 133.282 95.3677 133.52 95.0571 133.767L94.6154 134.102C94.3048 134.33 93.9894 134.558 93.6691 134.781L93.5332 134.878L93.2565 135.073C92.747 135.417 92.2859 135.718 91.8637 135.985C91.4415 136.252 91.0726 136.47 90.6698 136.698L90.5339 136.776C84.1568 140.382 76.3239 142.202 67.2193 142.202ZM45.6956 137.349C46.0741 137.528 46.4575 137.708 46.8458 137.878C52.5579 140.411 59.4106 141.692 67.229 141.692C76.2462 141.692 84.0016 139.892 90.2864 136.354L90.4223 136.276C90.8202 136.048 91.2134 135.815 91.6016 135.572C91.9899 135.33 92.4752 135.014 92.975 134.675L93.2468 134.485L93.3827 134.388C93.6982 134.165 94.0136 133.942 94.3194 133.709L94.7562 133.384C95.0619 133.146 95.3628 132.898 95.6637 132.661L96.0277 132.365C96.4402 132.015 96.8042 131.7 97.1391 131.394C95.5715 120.266 93.1837 104.216 92.8634 102.081L91.8297 102.236V102.265C91.6938 104.57 79.8569 110.03 73.8196 112.297C72.1695 113.559 69.9371 114.199 67.229 114.199H67.1805C61.5314 114.738 51.3204 112.408 48.3114 110.724L45.6956 137.349Z" fill="black"/>
<path d="M34.9359 70.2292C34.9359 70.2292 46.9426 99.5665 47.093 100.625C47.2435 101.683 45.904 108.336 47.8356 110.112C49.7671 111.889 62.662 114.859 68.146 113.82C73.6301 112.782 91.4412 104.774 91.5771 102.255C91.713 99.7364 73.931 50.5059 71.7083 44.5754C69.4855 38.6448 60.4392 36.5676 54.3582 37.1597C48.2772 37.7518 33.6012 41.6101 30.932 45.3179C28.2628 49.0257 34.9359 70.2292 34.9359 70.2292Z" fill="white"/>
<path d="M65.3506 114.281C59.0949 114.281 49.4177 111.908 47.6705 110.292C46.1466 108.885 46.5252 104.774 46.7533 102.318C46.8258 101.768 46.8582 101.213 46.8503 100.658C46.7193 99.7946 38.0418 78.465 34.7174 70.3214C34.4408 69.4478 28.0395 48.9675 30.7475 45.1966C33.5672 41.2752 48.7042 37.4897 54.3485 36.9462C60.2596 36.3687 69.6311 38.3342 71.946 44.5123C73.8582 49.6032 91.9896 99.649 91.844 102.294C91.679 105.104 73.4942 113.083 68.2188 114.082C67.2709 114.237 66.3108 114.304 65.3506 114.281ZM35.1639 70.1467C36.4112 73.1993 47.1852 99.552 47.3308 100.591C47.3487 101.183 47.3179 101.775 47.2386 102.362C47.0299 104.575 46.6513 108.671 48.0005 109.938C49.9418 111.729 62.7735 114.592 68.1023 113.582C74.1154 112.447 91.2034 104.454 91.3344 102.241C91.4751 99.8577 73.9795 51.331 71.4801 44.6627C69.2525 38.7224 60.1383 36.8394 54.3824 37.383C48.1219 37.9945 33.6691 41.9061 31.1261 45.4392C28.583 48.9723 34.9892 69.5983 35.1639 70.1467Z" fill="black"/>
<path d="M35.9695 42.945C35.9695 42.945 34.5135 56.4368 35.3774 59.2565C36.2412 62.0762 40.313 69.8219 40.313 69.8219C40.313 69.8219 47.1075 61.3288 48.4275 60.4407C49.7476 59.5526 62.0698 67.4098 62.0698 67.4098C62.0698 67.4098 62.5114 58.9605 60.7351 51.9913C58.9589 45.0222 55.8383 37.4561 54.8046 36.1215C53.7709 34.7869 53.766 39.6837 49.9077 42.945C46.0495 46.2064 35.9695 42.945 35.9695 42.945Z" fill="white"/>
<path d="M40.3134 70.0645C40.2728 70.06 40.234 70.0457 40.2002 70.0229C40.1664 70.0001 40.1386 69.9694 40.1192 69.9335C39.9542 69.618 36.0523 62.1345 35.169 59.3293C34.2858 56.5242 35.6883 43.4692 35.7514 42.916C35.7547 42.8806 35.7661 42.8465 35.7846 42.8162C35.8031 42.786 35.8282 42.7603 35.8582 42.7412C35.8892 42.7225 35.9236 42.7102 35.9595 42.7052C35.9954 42.7002 36.0319 42.7026 36.0669 42.7121C36.1639 42.7461 46.0644 45.8958 49.7722 42.7606C51.8785 40.9795 52.8006 38.7228 53.4072 37.2329C53.8052 36.2623 54.0284 35.7187 54.4361 35.6605C54.551 35.6626 54.6635 35.694 54.7629 35.7517C54.8622 35.8095 54.9452 35.8917 55.0039 35.9905C56.1201 37.4464 59.2456 45.1484 60.9781 51.9428C62.7447 58.8683 62.3273 67.3516 62.3225 67.439C62.319 67.4811 62.3053 67.5217 62.2825 67.5573C62.2596 67.5928 62.2283 67.6222 62.1914 67.6428C62.1545 67.6641 62.1127 67.6753 62.0701 67.6753C62.0275 67.6753 61.9857 67.6641 61.9488 67.6428C55.9648 63.8234 49.3306 60.1738 48.5735 60.6737C47.53 61.3288 42.8419 67.0507 40.5026 69.9626C40.4816 69.9936 40.4534 70.019 40.4205 70.0367C40.3875 70.0545 40.3508 70.064 40.3134 70.0645V70.0645ZM36.1833 43.2702C35.9746 45.2503 34.8196 56.6795 35.6107 59.1886C36.3775 61.6152 39.5806 67.8758 40.3571 69.3802C41.5801 67.8563 47.069 61.0571 48.292 60.2417C49.6217 59.3536 59.1388 65.2648 61.842 66.9779C61.9002 65.192 62.0264 58.0287 60.4977 52.0496C58.668 44.8718 55.5814 37.5241 54.6108 36.272C54.5186 36.1555 54.47 36.1409 54.47 36.1409C54.1946 36.531 53.9817 36.9616 53.8391 37.4173C53.2471 38.8733 52.2619 41.2707 50.0682 43.1295C46.4769 46.1821 37.8868 43.7798 36.1833 43.2702Z" fill="black"/>
<path d="M34.8779 45.2939C36.3795 48.7953 38.2574 52.1231 40.4785 55.2186C43.0809 58.763 46.1499 61.9398 49.6024 64.6628C49.6024 64.6628 53.7664 53.9373 54.8875 47.536C56.0086 41.1347 54.0867 34.7285 54.0867 34.7285C54.0867 34.7285 53.286 44.3329 49.9227 46.2548C46.5595 48.1766 34.8779 45.2939 34.8779 45.2939Z" fill="white"/>
<path d="M49.6017 64.9055C49.5494 64.9042 49.4987 64.8873 49.4561 64.857C45.9863 62.1155 42.8997 58.9212 40.2788 55.3594C38.0495 52.2451 36.162 48.8997 34.6491 45.3813C34.6337 45.3398 34.6298 45.2949 34.638 45.2515C34.6461 45.208 34.6661 45.1676 34.6955 45.1346C34.725 45.1016 34.763 45.0773 34.8052 45.0643C34.8475 45.0514 34.8926 45.0502 34.9355 45.0609C35.0519 45.0852 46.5831 47.8952 49.8007 46.0316C53.0184 44.168 53.8337 34.7917 53.8434 34.6946C53.8477 34.6389 53.8714 34.5865 53.9105 34.5466C53.9495 34.5066 54.0014 34.4817 54.0569 34.4762C54.1136 34.4691 54.171 34.4823 54.2189 34.5134C54.2669 34.5444 54.3023 34.5914 54.319 34.6461C54.319 34.7091 56.2603 41.1784 55.1246 47.5603C53.989 53.9422 49.8687 64.624 49.8298 64.7502C49.8166 64.7854 49.7951 64.817 49.7673 64.8423C49.7394 64.8676 49.706 64.8859 49.6697 64.8958L49.6017 64.9055ZM35.2849 45.6385C36.7671 48.9547 38.5731 52.1166 40.6768 55.0779C43.2001 58.5155 46.165 61.606 49.495 64.2698C50.1744 62.4741 53.6493 53.1997 54.6442 47.4924C55.4498 42.911 54.6442 38.2714 54.1589 36.0972C53.7997 38.844 52.7029 44.9299 50.024 46.4635C46.9859 48.2155 37.5319 46.182 35.2849 45.6385Z" fill="black"/>
<path d="M43.667 46.7936C40.7078 46.4859 37.7718 45.9849 34.8779 45.2939C36.3795 48.7954 38.2574 52.1232 40.4785 55.2186C40.8522 55.7428 41.2356 56.2475 41.6287 56.7474L48.2484 49.094L43.667 46.7936Z" fill="black"/>
<path d="M41.629 56.99C41.5936 56.9879 41.559 56.9786 41.5273 56.9627C41.4956 56.9469 41.4675 56.9248 41.4446 56.8977C40.9884 56.3202 40.6195 55.83 40.2847 55.3593C38.0553 52.245 36.1679 48.8997 34.655 45.3812C34.6395 45.3398 34.6357 45.2949 34.6438 45.2514C34.652 45.2079 34.6719 45.1675 34.7014 45.1345C34.7309 45.1015 34.7688 45.0773 34.8111 45.0643C34.8534 45.0513 34.8984 45.0501 34.9413 45.0609C37.8179 45.7462 40.7359 46.2439 43.677 46.5508C43.7075 46.5531 43.7371 46.5613 43.7644 46.5751L48.3506 48.8658C48.3833 48.8831 48.4116 48.9075 48.4336 48.9373C48.4556 48.967 48.4706 49.0013 48.4776 49.0376C48.4846 49.0739 48.4833 49.1113 48.4739 49.1471C48.4646 49.1829 48.4473 49.2161 48.4234 49.2443L41.8037 56.9026C41.7592 56.9536 41.6964 56.9849 41.629 56.99V56.99ZM35.2859 45.6384C36.7661 48.9557 38.5723 52.1177 40.6778 55.0778C40.9593 55.4806 41.2699 55.8931 41.6484 56.3639L47.8701 49.1618L43.6091 47.0313C40.8083 46.7417 38.0284 46.2765 35.2859 45.6384V45.6384Z" fill="black"/>
<path d="M54.0869 34.7285C54.0869 34.7285 58.9401 54.214 60.7358 68.8948C62.5314 83.5756 66.8119 127.016 66.8119 127.016C66.8119 127.016 80.1581 123.163 87.1272 118.12C94.0964 113.078 96.3191 109.671 96.3191 109.671C96.3191 109.671 84.9045 59.6835 84.9045 58.9604C84.9045 58.2372 86.0887 50.8022 86.0887 50.8022C86.0887 50.8022 106.254 41.3288 113.965 35.5293C121.677 29.7298 119.75 26.6334 116.042 25.1532C112.335 23.673 100.769 25.2988 94.3924 27.0945C88.0154 28.8902 84.754 30.0598 84.754 30.0598C84.754 30.0598 77.6393 29.4677 71.1118 30.9479C64.5843 32.4281 54.0869 34.7285 54.0869 34.7285Z" fill="#FBD689"/>
<path d="M66.8118 127.259C66.7639 127.258 66.7171 127.245 66.6759 127.22C66.647 127.199 66.6229 127.172 66.6053 127.141C66.5877 127.111 66.577 127.076 66.574 127.041C66.5303 126.609 62.2498 83.4301 60.493 68.924C58.7361 54.4179 53.8975 34.981 53.849 34.7868C53.8344 34.7231 53.8457 34.6563 53.8802 34.6008C53.9148 34.5453 53.9698 34.5058 54.0334 34.4908C54.1402 34.4908 64.6133 32.1613 71.0583 30.6956C77.2509 29.293 84.0502 29.725 84.72 29.7978C85.1567 29.6425 88.4375 28.4874 94.3292 26.8471C100.716 25.0611 112.388 23.4498 116.13 24.9058C118.153 25.7163 119.318 26.8762 119.503 28.269C119.774 30.3171 117.959 32.8213 114.111 35.7041C106.773 41.2076 87.9716 50.1616 86.3069 50.9479C85.8944 53.5394 85.147 58.378 85.147 58.941C85.2101 59.7855 92.6403 92.4278 96.5568 109.598C96.5645 109.63 96.5655 109.662 96.5597 109.694C96.5538 109.726 96.5412 109.756 96.5228 109.783C96.4306 109.923 94.1982 113.287 87.2679 118.3C80.3376 123.313 67.0156 127.191 66.8846 127.23C66.8632 127.246 66.8381 127.256 66.8118 127.259ZM54.378 34.913C54.9458 37.2037 59.3234 55.2186 60.9734 68.8851C62.6575 82.7506 66.6516 122.862 67.0253 126.701C68.9666 126.114 80.687 122.483 86.9864 117.926C93.2858 113.369 95.6687 110.161 96.0618 109.618C94.7806 104.027 84.6617 59.703 84.6617 58.9604C84.6617 58.2179 85.8022 51.0692 85.8507 50.7634C85.8564 50.7245 85.8718 50.6875 85.8955 50.6561C85.9193 50.6247 85.9506 50.5999 85.9866 50.5839C86.1856 50.4868 106.219 41.0377 113.82 35.3352C117.518 32.5641 119.265 30.2151 119.022 28.3515C118.857 27.1285 117.828 26.1288 115.95 25.3765C112.3 23.9206 100.784 25.5464 94.4602 27.3178C88.1366 29.0892 84.8704 30.2637 84.8364 30.2782C84.8026 30.2833 84.7683 30.2833 84.7345 30.2782C84.6666 30.2782 77.5761 29.7056 71.1457 31.1615C65.2636 32.5107 55.9747 34.5587 54.378 34.913Z" fill="black"/>
<path d="M64.3263 84.5802L63.5498 86.9825Z" fill="white"/>
<path d="M63.5499 87.2251H63.4771C63.4465 87.2157 63.4181 87.2003 63.3935 87.1797C63.369 87.1591 63.3489 87.1338 63.3344 87.1053C63.3199 87.0767 63.3113 87.0455 63.3091 87.0136C63.307 86.9816 63.3113 86.9496 63.3218 86.9193C63.6033 86.0506 63.8605 85.2547 64.0935 84.517C64.1031 84.4851 64.1188 84.4555 64.1398 84.4297C64.1608 84.4039 64.1867 84.3825 64.216 84.3667C64.2453 84.351 64.2774 84.3411 64.3105 84.3378C64.3436 84.3344 64.3771 84.3376 64.4089 84.3471C64.4408 84.3567 64.4705 84.3724 64.4963 84.3935C64.522 84.4145 64.5434 84.4404 64.5592 84.4697C64.575 84.499 64.5848 84.5311 64.5882 84.5642C64.5915 84.5973 64.5884 84.6307 64.5788 84.6626C64.341 85.4051 64.0935 86.1962 63.8023 87.0892C63.7801 87.1357 63.7437 87.1739 63.6983 87.1984C63.653 87.2228 63.601 87.2321 63.5499 87.2251Z" fill="black"/>
<path d="M64.9433 82.8332H64.8753C64.8144 82.8142 64.7635 82.7719 64.7335 82.7156C64.7036 82.6593 64.697 82.5934 64.7152 82.5323C65.7305 79.1849 66.4516 75.7553 66.87 72.2824C67.8406 65.3521 68.5492 54.5344 68.6365 53.1658L66.4817 51.7924C66.4531 51.7761 66.4281 51.7541 66.4083 51.7278C66.3884 51.7015 66.3741 51.6714 66.3663 51.6394C66.3584 51.6074 66.3572 51.5741 66.3626 51.5416C66.368 51.5092 66.38 51.4781 66.3978 51.4504C66.4157 51.4227 66.4389 51.3989 66.4662 51.3804C66.4936 51.362 66.5243 51.3493 66.5567 51.3432C66.5891 51.3371 66.6224 51.3376 66.6545 51.3447C66.6867 51.3518 66.7171 51.3655 66.7438 51.3847L69.0199 52.8407C69.0563 52.865 69.0857 52.8984 69.1053 52.9375C69.1248 52.9767 69.1339 53.0202 69.1315 53.0639C69.1315 53.1804 68.3696 64.9687 67.3504 72.3552C66.9355 75.8478 66.2145 79.2971 65.1956 82.6634C65.1792 82.7162 65.1453 82.7618 65.0994 82.7927C65.0535 82.8236 64.9984 82.8379 64.9433 82.8332Z" fill="black"/>
<path d="M65.3843 51.0351C65.3377 51.0358 65.292 51.0223 65.2533 50.9963L63.8653 50.113C63.8136 50.0799 63.7763 50.0285 63.761 49.9691C63.7457 49.9096 63.7535 49.8466 63.7828 49.7927C64.6661 48.1475 65.9764 45.4734 65.9764 44.8667C65.9764 44.7211 65.7143 43.7651 62.3705 37.6209C62.3552 37.5929 62.3456 37.5621 62.3422 37.5304C62.3388 37.4986 62.3417 37.4665 62.3507 37.4358C62.3597 37.4052 62.3747 37.3766 62.3947 37.3518C62.4148 37.3269 62.4395 37.3062 62.4676 37.2909C62.4956 37.2756 62.5264 37.266 62.5582 37.2626C62.5899 37.2592 62.622 37.2621 62.6527 37.2711C62.6833 37.2801 62.7119 37.2951 62.7368 37.3151C62.7616 37.3352 62.7823 37.36 62.7976 37.388C66.4617 44.1242 66.4617 44.6677 66.4617 44.8667C66.4617 45.7063 64.7923 48.9191 64.3166 49.8267L65.5154 50.5886C65.5694 50.6234 65.6073 50.6782 65.621 50.741C65.6346 50.8038 65.6228 50.8694 65.5882 50.9235C65.5669 50.9583 65.5369 50.9869 65.5012 51.0065C65.4654 51.0261 65.4251 51.036 65.3843 51.0351V51.0351Z" fill="black"/>
<path d="M61.1768 34.952L61.7834 36.0439Z" fill="white"/>
<path d="M61.7978 36.2864C61.7546 36.287 61.7121 36.2761 61.6745 36.2548C61.637 36.2334 61.6058 36.2025 61.5843 36.1651C61.2154 35.4905 60.9776 35.0683 60.9776 35.0683C60.9474 35.012 60.9402 34.9462 60.9574 34.8847C60.9746 34.8232 61.0148 34.7707 61.0698 34.7382C61.0978 34.7229 61.1286 34.7132 61.1604 34.7098C61.1922 34.7063 61.2243 34.7092 61.255 34.7182C61.2857 34.7272 61.3142 34.7422 61.3391 34.7623C61.364 34.7824 61.3846 34.8072 61.3998 34.8353C61.3998 34.8353 61.6376 35.2575 62.0065 35.9273C62.0227 35.9548 62.0332 35.9854 62.0373 36.0171C62.0415 36.0489 62.0392 36.0811 62.0306 36.1119C62.022 36.1427 62.0072 36.1715 61.9872 36.1964C61.9673 36.2214 61.9424 36.2421 61.9143 36.2573C61.8783 36.276 61.8384 36.286 61.7978 36.2864V36.2864Z" fill="black"/>
<path d="M73.7802 111.098C73.7277 111.098 73.6766 111.081 73.6346 111.049C73.5926 111.018 73.562 110.974 73.5473 110.923L72.5087 107.366C72.4915 107.307 72.4974 107.243 72.5254 107.188C72.5533 107.133 72.6011 107.091 72.6592 107.07C72.6592 107.07 73.8482 106.623 80.8125 103.959C83.466 102.967 85.9927 101.663 88.3397 100.076C88.3657 100.056 88.3956 100.042 88.4275 100.033C88.4593 100.025 88.4926 100.023 88.5251 100.028C88.5577 100.033 88.5889 100.045 88.6168 100.062C88.6447 100.08 88.6688 100.103 88.6876 100.13C88.7064 100.157 88.7195 100.187 88.7261 100.22C88.7327 100.252 88.7327 100.285 88.726 100.317C88.7193 100.35 88.7062 100.38 88.6873 100.407C88.6685 100.434 88.6443 100.457 88.6163 100.474C86.2356 102.082 83.6752 103.406 80.9872 104.42C75.5128 106.517 73.6055 107.24 73.0377 107.453L73.9549 110.584C75.6002 110.249 86.2868 107.88 91.3924 102.105C91.4149 102.082 91.4417 102.064 91.4713 102.052C91.5009 102.04 91.5326 102.033 91.5646 102.033C91.5967 102.033 91.6284 102.04 91.658 102.052C91.6875 102.064 91.7144 102.082 91.7369 102.105C91.7814 102.15 91.8063 102.211 91.8063 102.275C91.8063 102.338 91.7814 102.399 91.7369 102.445C86.1121 108.812 73.9307 111.103 73.7802 111.122V111.098Z" fill="black"/>
<path d="M90.9803 98.2517C90.6665 98.5671 90.3342 98.8637 89.9854 99.1398Z" fill="white"/>
<path d="M89.985 99.3823C89.9497 99.3827 89.9147 99.375 89.8827 99.3599C89.8508 99.3448 89.8227 99.3226 89.8006 99.295C89.7799 99.2702 89.7644 99.2416 89.7549 99.2108C89.7454 99.18 89.7421 99.1476 89.7453 99.1156C89.7485 99.0835 89.758 99.0524 89.7733 99.024C89.7886 98.9956 89.8095 98.9706 89.8346 98.9504C90.174 98.6808 90.498 98.3924 90.8052 98.0865C90.8496 98.0396 90.9109 98.0121 90.9755 98.0103C91.0401 98.0085 91.1028 98.0324 91.1498 98.0768C91.1968 98.1212 91.2242 98.1825 91.226 98.2471C91.2278 98.3117 91.2039 98.3744 91.1595 98.4214C90.8356 98.7412 90.4954 99.0441 90.1403 99.3289C90.0956 99.3629 90.0412 99.3816 89.985 99.3823V99.3823Z" fill="black"/>
<path d="M86.0879 51.0351C86.0508 51.0364 86.014 51.0281 85.9812 51.0108C85.9285 50.9846 85.8871 50.9401 85.8648 50.8856C85.8425 50.8312 85.8407 50.7704 85.8598 50.7148L88.5194 42.8429C88.5265 42.8094 88.5407 42.7778 88.5609 42.7501C88.5812 42.7224 88.6071 42.6994 88.6369 42.6824C88.6667 42.6655 88.6998 42.6551 88.7339 42.6518C88.768 42.6486 88.8025 42.6527 88.8349 42.6637C88.8674 42.6748 88.8971 42.6926 88.9222 42.7159C88.9473 42.7393 88.9671 42.7678 88.9804 42.7994C88.9937 42.831 89.0001 42.8651 88.9993 42.8993C88.9985 42.9336 88.9904 42.9673 88.9756 42.9983L86.9081 49.1278L92.1156 41.3288C92.1327 41.3019 92.1551 41.2788 92.1814 41.2608C92.2077 41.2427 92.2374 41.2302 92.2686 41.2239C92.2998 41.2175 92.332 41.2175 92.3633 41.2239C92.3945 41.2302 92.4242 41.2428 92.4504 41.2608C92.5036 41.2964 92.5406 41.3515 92.5533 41.4143C92.5661 41.477 92.5535 41.5422 92.5184 41.5957L86.2918 50.938C86.2677 50.9689 86.2367 50.9938 86.2013 51.0106C86.1659 51.0275 86.1271 51.0358 86.0879 51.0351V51.0351Z" fill="black"/>
<path d="M89.3303 41.4498C89.3047 41.4545 89.2784 41.4545 89.2527 41.4498C89.1925 41.4289 89.1429 41.385 89.1148 41.3278C89.0866 41.2706 89.0821 41.2046 89.1022 41.1441L89.7137 39.3241C89.7343 39.2598 89.7796 39.2063 89.8397 39.1753C89.8998 39.1444 89.9697 39.1385 90.034 39.1591C90.0984 39.1797 90.1519 39.2251 90.1829 39.2851C90.2138 39.3452 90.2196 39.4151 90.1991 39.4795L89.5827 41.2994C89.5622 41.3481 89.5267 41.389 89.4813 41.4161C89.4359 41.4432 89.383 41.455 89.3303 41.4498Z" fill="black"/>
<path d="M35.969 42.9446C35.969 42.9446 37.4541 69.9331 39.0848 83.1288C40.7154 96.3246 43.3847 128.948 43.3847 128.948C43.3847 128.948 38.1966 128.501 34.7849 124.347C32.881 122.082 31.1929 119.645 29.7424 117.067V87.7248C29.7424 86.5357 27.3692 73.0439 25.1465 66.3708C22.9237 59.6977 19.6624 51.9909 21.5891 48.7247C23.5158 45.4586 29.5968 40.5714 31.8196 39.989C34.0423 39.4067 35.8234 39.9793 35.969 42.9446Z" fill="#FBD689"/>
<path d="M43.3854 129.171C43.1671 129.171 38.047 128.685 34.6158 124.488C32.7052 122.214 31.0091 119.769 29.5491 117.183C29.5303 117.148 29.5203 117.108 29.52 117.067V87.7248C29.52 86.4824 27.0934 72.9663 24.9386 66.4486C24.5891 65.4051 24.2155 64.3374 23.8418 63.26C21.8132 57.4362 19.7166 51.4523 21.4152 48.6035C23.3565 45.3227 29.4375 40.3531 31.7913 39.7465C33.1598 39.3776 34.2178 39.4795 35.0137 40.0377C35.8097 40.5958 36.1785 41.5567 36.2465 42.9495C36.2465 43.2213 37.7509 70.0787 39.3622 83.1192C40.9734 96.1596 43.633 128.618 43.6621 128.943C43.6654 128.978 43.6606 129.014 43.648 129.048C43.6353 129.082 43.6153 129.112 43.5893 129.137C43.5598 129.157 43.5263 129.17 43.4911 129.176C43.4559 129.182 43.4199 129.18 43.3854 129.171V129.171ZM29.9859 117.038C31.4305 119.574 33.1002 121.974 34.9749 124.211C37.8237 127.676 41.9974 128.516 43.1185 128.681C42.8468 125.366 40.3716 95.5433 38.8429 83.1725C37.2316 70.1175 35.7466 43.2407 35.7272 42.9738C35.6689 41.7557 35.3195 40.9064 34.6934 40.4502C34.0674 39.994 33.1016 39.9066 31.8834 40.2318C29.8257 40.7802 23.7593 45.5703 21.7986 48.8704C20.231 51.5251 22.2839 57.4217 24.2786 63.1193C24.6522 64.1967 25.0308 65.2692 25.3754 66.3127C27.5641 72.8693 29.9859 86.4873 29.9859 87.7442V117.038Z" fill="black"/>
<path d="M35.1396 76.8393C35.9792 79.4552 36.7897 81.7847 37.4546 83.2746Z" fill="white"/>
<path d="M37.4547 83.5172C37.408 83.5171 37.3622 83.5039 37.3227 83.479C37.2832 83.4541 37.2516 83.4186 37.2314 83.3764C36.6248 82.0078 35.8434 79.8288 34.9068 76.912C34.8884 76.8502 34.8948 76.7837 34.9247 76.7266C34.9547 76.6695 35.0057 76.6263 35.0669 76.6063C35.0969 76.5965 35.1284 76.5927 35.1599 76.5953C35.1913 76.5978 35.2218 76.6065 35.2498 76.621C35.2778 76.6354 35.3027 76.6553 35.3229 76.6794C35.3432 76.7036 35.3584 76.7315 35.3678 76.7616C36.2996 79.6735 37.0761 81.8234 37.6779 83.1774C37.7026 83.2368 37.7032 83.3034 37.6796 83.3631C37.6561 83.4229 37.6102 83.4712 37.5517 83.4978C37.5213 83.5116 37.4881 83.5182 37.4547 83.5172V83.5172Z" fill="black"/>
<path d="M34.5668 75.2572C34.5149 75.2575 34.4643 75.2412 34.4223 75.2106C34.3804 75.18 34.3494 75.1368 34.3338 75.0873C32.3926 68.8073 30.4028 61.3723 30.1019 60.0425C29.6894 58.2517 31.9218 55.1893 32.5285 54.3837C31.9703 53.8984 30.2281 52.3599 29.7233 51.8552C29.5874 51.7193 29.3836 51.5106 29.835 48.0406C29.8434 47.977 29.8768 47.9192 29.9277 47.8801C29.9787 47.841 30.043 47.8237 30.1067 47.8319C30.1699 47.8416 30.2268 47.8752 30.2657 47.9259C30.3046 47.9765 30.3224 48.0403 30.3154 48.1037C29.9417 50.9622 30.0485 51.4524 30.0873 51.5349C30.6503 52.093 32.9992 54.1508 33.0235 54.1702C33.0706 54.2114 33.1 54.2693 33.1054 54.3317C33.1108 54.3942 33.0919 54.4563 33.0526 54.505C33.0235 54.539 30.165 58.1401 30.5775 59.9309C30.8832 61.2461 32.8633 68.6666 34.8046 74.9369C34.8228 74.998 34.8162 75.0638 34.7862 75.1202C34.7563 75.1765 34.7053 75.2187 34.6444 75.2377C34.6202 75.2497 34.5938 75.2563 34.5668 75.2572Z" fill="black"/>
<path d="M31.6706 38.1982C31.6706 38.1982 30.8892 42.4495 30.3359 46.1816Z" fill="white"/>
<path d="M30.3357 46.4247H30.3017C30.2385 46.414 30.182 46.3792 30.144 46.3276C30.1059 46.276 30.0894 46.2116 30.0979 46.1481C30.6463 42.4548 31.4276 38.1986 31.4325 38.155C31.4443 38.092 31.4805 38.0363 31.5332 37.9999C31.586 37.9635 31.6509 37.9495 31.714 37.9608C31.7772 37.9727 31.8334 38.0087 31.8705 38.0612C31.9077 38.1138 31.9229 38.1787 31.913 38.2423C31.913 38.286 31.1219 42.5325 30.5783 46.2209C30.5681 46.2779 30.5382 46.3295 30.4939 46.3667C30.4496 46.404 30.3936 46.4245 30.3357 46.4247V46.4247Z" fill="black"/>
<path d="M33.4022 106.992C33.3669 106.991 33.3323 106.983 33.3003 106.968L30.6796 105.735C30.629 105.704 30.5916 105.655 30.5746 105.598C30.5576 105.541 30.5621 105.48 30.5872 105.426C30.6124 105.372 30.6564 105.33 30.711 105.306C30.7656 105.282 30.8269 105.28 30.8834 105.298L33.5089 106.531C33.5666 106.559 33.6111 106.608 33.6329 106.667C33.6547 106.727 33.652 106.794 33.6254 106.852C33.6048 106.893 33.5731 106.929 33.5337 106.953C33.4943 106.978 33.4487 106.992 33.4022 106.992V106.992Z" fill="black"/>
<path d="M38.0461 109.171C38.0108 109.17 37.9762 109.162 37.9442 109.147L34.6197 107.589C34.5906 107.576 34.5644 107.556 34.5428 107.533C34.5211 107.509 34.5044 107.481 34.4935 107.451C34.4827 107.421 34.478 107.389 34.4797 107.356C34.4813 107.324 34.4894 107.293 34.5033 107.264C34.5163 107.235 34.535 107.209 34.5583 107.187C34.5816 107.166 34.609 107.149 34.6388 107.138C34.6687 107.127 34.7004 107.123 34.7322 107.124C34.7639 107.126 34.795 107.134 34.8236 107.148L37.8034 108.545V104.663L30.6887 101.751C30.6288 101.726 30.5811 101.679 30.5561 101.62C30.5311 101.56 30.5308 101.493 30.5552 101.433C30.5797 101.373 30.6269 101.325 30.6865 101.3C30.7461 101.275 30.8133 101.275 30.8731 101.299L38.1528 104.265C38.1972 104.283 38.2351 104.314 38.2619 104.354C38.2886 104.393 38.3031 104.44 38.3033 104.488V108.938C38.3032 108.979 38.293 109.019 38.2735 109.054C38.254 109.09 38.2258 109.12 38.1917 109.142C38.1471 109.166 38.0964 109.176 38.0461 109.171V109.171Z" fill="black"/>
<path d="M24.9136 25.1047L27.4469 31.3119C27.4469 31.3119 24.1516 27.8905 23.3897 30.9334C22.6278 33.9763 24.9136 37.524 26.4326 37.524C27.9517 37.524 29.7279 37.6502 29.7279 37.6502C29.7279 37.6502 35.0664 47.0265 38.3423 48.8124C41.6182 50.5984 46.0734 52.1077 48.864 50.5838C51.6545 49.06 53.1736 44.8814 54.0568 41.7123C54.9401 38.5431 54.314 29.0407 54.314 29.0407L49.7327 10.2686C49.7327 10.2686 52.8969 9.12813 52.8969 6.97333C52.8969 4.81853 45.5492 4.18762 45.5492 4.18762C45.5492 4.18762 48.4611 0.790403 44.7873 0.256555C41.1135 -0.277293 29.1989 6.84715 28.8204 7.09951C28.4418 7.35188 30.849 2.66372 27.8061 4.3138C24.7631 5.96387 21.2155 14.0686 21.5989 15.9614C21.9823 17.8541 24.9136 25.1047 24.9136 25.1047Z" fill="white"/>
<path d="M46.098 51.4425C43.1181 51.4425 39.7889 49.8652 38.2116 49.0159C35.0522 47.3124 30.2087 39.0087 29.5632 37.8827C29.1265 37.8536 27.6754 37.7663 26.4135 37.7663C25.8117 37.7663 25.1032 37.281 24.4723 36.4947C23.4385 35.1698 22.6232 32.918 23.1377 30.8748C23.3318 30.0934 23.7103 29.6227 24.2539 29.4771C25.0838 29.2587 26.1126 29.8847 26.8066 30.4477L24.6664 25.2111C24.5499 24.9151 21.7545 17.9314 21.3614 16.0435C20.9683 14.1556 24.4674 5.85188 27.6705 4.12415C28.447 3.70193 28.9809 3.63884 29.306 3.90576C29.8399 4.3474 29.539 5.43936 29.1507 6.60897V6.63809C31.456 5.2695 41.4147 -0.447525 44.8119 0.0280853C45.8699 0.17368 46.5299 0.571637 46.7774 1.21225C47.1462 2.18289 46.4183 3.40103 45.996 3.99312C47.7044 4.17754 53.1302 4.92007 53.1302 6.98267C53.1302 8.97246 50.7376 10.1227 50.0048 10.4236L54.5182 28.9723C54.5522 29.4043 55.1491 38.5962 54.261 41.7701C52.9021 46.6233 51.1647 49.5789 48.9516 50.7873C48.0698 51.24 47.0889 51.4652 46.098 51.4425V51.4425ZM24.6227 29.9139C24.5406 29.9129 24.4588 29.9243 24.3801 29.9478C24.0161 30.0449 23.7589 30.3943 23.6084 30.9913C23.1231 32.8791 23.8948 34.966 24.8557 36.1938C25.3847 36.8733 25.967 37.281 26.4135 37.281C27.9277 37.281 29.7088 37.4071 29.7283 37.4071C29.7673 37.4106 29.8048 37.4234 29.8378 37.4446C29.8707 37.4657 29.8981 37.4945 29.9175 37.5285C29.9709 37.6207 35.256 46.866 38.4397 48.5888C40.4877 49.6905 45.5932 52.0734 48.7284 50.3602C50.8201 49.2197 52.4799 46.3661 53.8048 41.6245C54.6735 38.5331 54.0572 29.1276 54.0523 29.0354L49.4952 10.3216C49.4809 10.2632 49.4889 10.2015 49.5176 10.1485C49.5463 10.0956 49.5937 10.0553 49.6505 10.0353C49.6796 10.0353 52.6546 8.92393 52.6546 6.9681C52.6546 5.56069 48.2867 4.658 45.5301 4.42019C45.4859 4.4164 45.4435 4.40052 45.4076 4.37427C45.3717 4.34802 45.3437 4.31243 45.3267 4.27137C45.3097 4.2303 45.3042 4.18535 45.311 4.14142C45.3178 4.09748 45.3365 4.05626 45.3651 4.02224C45.7437 3.57574 46.6609 2.22657 46.3358 1.36756C46.1611 0.882243 45.6321 0.610464 44.7585 0.493988C41.303 0.00867223 29.8641 6.69148 28.9614 7.28842C28.9138 7.31709 28.8593 7.33224 28.8037 7.33224C28.7481 7.33224 28.6936 7.31709 28.646 7.28842C28.4713 7.15738 28.5247 7.00208 28.7139 6.42455C28.9032 5.84703 29.3448 4.51241 29.0197 4.24063C28.9663 4.19695 28.7285 4.08048 27.9277 4.51726C24.9673 6.1188 21.5021 14.2236 21.8419 15.9125C22.2107 17.7712 25.0935 24.92 25.1226 24.9927L27.6559 31.1999C27.6775 31.2521 27.6801 31.31 27.6636 31.3639C27.647 31.4178 27.6122 31.4642 27.5651 31.4952C27.518 31.5262 27.4616 31.5398 27.4056 31.5338C27.3495 31.5277 27.2974 31.5024 27.258 31.462C26.8018 31.0155 25.5351 29.9139 24.6227 29.9139Z" fill="black"/>
<path d="M45.5492 4.19698C45.5492 4.19698 48.4611 0.799772 44.7873 0.265924C41.1135 -0.267924 29.1989 6.85652 28.8204 7.10888C28.4418 7.36124 30.849 2.67309 27.8061 4.32317C24.7631 5.97324 21.2155 14.078 21.5989 15.9708C21.9823 17.8635 24.8942 25.0947 24.8942 25.0947L27.4275 31.3019C27.4275 31.3019 30.3394 33.9663 29.33 31.9377C28.3205 29.909 26.287 25.3471 26.7918 24.7162C27.2965 24.0852 29.8347 23.0661 29.9609 21.6732C30.0871 20.2804 27.5343 16.2231 28.3157 15.2088C29.097 14.1945 39.8468 16.0969 41.7492 14.9564C43.6517 13.816 41.2396 11.0302 41.2396 11.0302L49.7327 10.2683C49.7327 10.2683 52.8969 9.1278 52.8969 6.97299C52.8969 4.81819 45.5492 4.19698 45.5492 4.19698Z" fill="#737373"/>
<path d="M29.4322 32.952C29.1701 32.952 28.6023 32.7141 27.2628 31.496C27.2365 31.4722 27.2164 31.4422 27.2046 31.4086L24.6664 25.2014C24.5499 24.9054 21.7545 17.9217 21.3614 16.0338C20.9683 14.1459 24.4674 5.84218 27.6705 4.11445C28.447 3.69222 28.9809 3.62913 29.306 3.89606C29.8399 4.3377 29.539 5.42966 29.1507 6.59927V6.62839C31.456 5.2695 41.4147 -0.447524 44.8119 0.0280859C45.8699 0.173681 46.5299 0.571638 46.7774 1.21226C47.1462 2.18289 46.4183 3.40103 45.996 3.99312C47.7044 4.17754 53.1302 4.92008 53.1302 6.98267C53.1302 9.28307 49.9368 10.4575 49.8009 10.5061H49.7427L41.7059 11.2389C42.1281 11.8213 42.8609 12.9909 42.6765 14.0052C42.6377 14.2503 42.5431 14.4832 42.4001 14.686C42.257 14.8888 42.0693 15.056 41.8514 15.1748C40.7935 15.8106 37.4254 15.5776 34.1689 15.3544C31.8928 15.1991 28.7722 14.9855 28.4907 15.3544C28.1413 15.8397 28.7916 17.4315 29.3157 18.7273C29.801 19.9115 30.2427 21.0326 30.1844 21.6926C30.0874 22.7506 28.8692 23.5417 27.8889 24.1774C27.5544 24.3707 27.2434 24.602 26.9619 24.8666C26.6853 25.2694 27.9035 28.589 29.5244 31.8309C29.738 32.2482 29.8933 32.6656 29.6215 32.8694C29.5699 32.9181 29.503 32.9472 29.4322 32.952V32.952ZM27.6317 31.1708C28.1321 31.6422 28.6803 32.0602 29.2672 32.4181C29.2238 32.2934 29.1719 32.1717 29.1119 32.0541C28.976 31.7872 25.8554 25.512 26.6028 24.5705C26.9147 24.2626 27.2655 23.9966 27.6462 23.7795C28.4907 23.2359 29.6457 22.4837 29.7185 21.6586C29.7719 21.1151 29.3206 19.9989 28.8838 18.9166C28.2286 17.2908 27.6074 15.7572 28.1218 15.0729C28.5441 14.5099 30.6067 14.6264 34.2223 14.8691C37.2555 15.0777 40.6964 15.3156 41.6233 14.7574C41.7803 14.6748 41.9159 14.5568 42.0195 14.4128C42.1231 14.2688 42.1919 14.1027 42.2203 13.9275C42.4047 12.7725 41.0701 11.2098 41.0555 11.1952C41.0272 11.1614 41.0085 11.1205 41.0017 11.0769C40.9949 11.0332 41 10.9886 41.0167 10.9477C41.0325 10.9056 41.0602 10.869 41.0964 10.8423C41.1325 10.8157 41.1757 10.8 41.2205 10.7973L49.665 10.0402C49.9708 9.92368 52.6449 8.83658 52.6449 6.98267C52.6449 5.57525 48.277 4.67256 45.5204 4.43476C45.4761 4.43097 45.4337 4.41508 45.3979 4.38883C45.362 4.36259 45.334 4.32699 45.317 4.28593C45.3 4.24486 45.2945 4.19991 45.3013 4.15598C45.3081 4.11205 45.3268 4.07082 45.3554 4.0368C45.734 3.59031 46.6512 2.24113 46.3261 1.38212C46.1513 0.896803 45.6223 0.625024 44.7488 0.508548C41.2933 0.0232318 29.8544 6.70604 28.9517 7.30298C28.9041 7.33165 28.8496 7.3468 28.794 7.3468C28.7384 7.3468 28.6839 7.33165 28.6363 7.30298C28.4616 7.17194 28.515 7.01664 28.7042 6.43911C28.8935 5.86159 29.3351 4.52697 29.01 4.25519C28.9566 4.21151 28.7188 4.09504 27.918 4.53182C24.9576 6.13337 21.4924 14.2382 21.8322 15.9271C22.201 17.7858 25.0838 24.9345 25.1129 25.0073L27.6317 31.1708Z" fill="black"/>
<path d="M47.1951 35.5049C47.1951 35.5049 46.0546 37.6597 44.2832 37.7859Z" fill="white"/>
<path d="M44.2827 38.0189C44.2183 38.0189 44.1566 37.9934 44.1111 37.9478C44.0656 37.9023 44.04 37.8406 44.04 37.7763C44.04 37.7119 44.0656 37.6502 44.1111 37.6047C44.1566 37.5592 44.2183 37.5336 44.2827 37.5336C45.8988 37.4171 46.9908 35.4031 47.0005 35.3837C47.0126 35.3516 47.0315 35.3225 47.0557 35.2982C47.08 35.274 47.1091 35.2552 47.1411 35.243C47.1732 35.2308 47.2075 35.2256 47.2417 35.2276C47.2759 35.2296 47.3093 35.2389 47.3397 35.2548C47.3701 35.2707 47.3968 35.2928 47.418 35.3198C47.4392 35.3467 47.4545 35.3778 47.4628 35.4111C47.4711 35.4444 47.4722 35.479 47.4661 35.5128C47.4601 35.5465 47.4469 35.5786 47.4276 35.6069C47.379 35.704 46.2046 37.883 44.3167 38.0335L44.2827 38.0189Z" fill="black"/>
<path d="M39.3382 29.6809C39.6924 30.4428 39.542 31.263 39.0033 31.5154C38.4646 31.7678 37.7415 31.3504 37.3872 30.5884C37.0329 29.8265 37.1834 29.0063 37.7221 28.7539C38.2608 28.5016 38.9887 28.9044 39.3382 29.6809Z" fill="black"/>
<path d="M48.6122 29.3304C49.1998 29.2368 49.5692 28.4893 49.4372 27.6608C49.3053 26.8323 48.7219 26.2365 48.1343 26.3301C47.5467 26.4237 47.1773 27.1712 47.3093 27.9997C47.4412 28.8282 48.0246 29.424 48.6122 29.3304Z" fill="black"/>
<path d="M44.2832 42.5905C45.5909 42.5643 46.8645 42.169 47.957 41.45Z" fill="white"/>
<path d="M44.2827 42.8331C44.2183 42.8331 44.1566 42.8075 44.1111 42.762C44.0656 42.7165 44.04 42.6548 44.04 42.5904C44.04 42.5261 44.0656 42.4644 44.1111 42.4188C44.1566 42.3733 44.2183 42.3478 44.2827 42.3478C45.5375 42.3196 46.7596 41.9414 47.8109 41.2558C47.8629 41.2184 47.9272 41.2026 47.9906 41.2116C48.0539 41.2207 48.1113 41.2539 48.1507 41.3043C48.1893 41.3558 48.2059 41.4205 48.1968 41.4843C48.1877 41.548 48.1536 41.6054 48.1021 41.6441C46.9688 42.3973 45.6433 42.8099 44.2827 42.8331Z" fill="black"/>
<path d="M33.0036 28.5016C32.903 28.5024 32.8046 28.4718 32.7221 28.4143C32.6175 28.34 32.5465 28.2274 32.5247 28.101C32.5028 27.9746 32.5319 27.8447 32.6056 27.7397C32.6881 27.6232 34.6439 24.9297 39.7398 26.5409C39.8006 26.5604 39.8571 26.5916 39.9059 26.6329C39.9547 26.6741 39.9949 26.7246 40.0241 26.7813C40.0534 26.8381 40.0713 26.9001 40.0766 26.9638C40.0819 27.0275 40.0747 27.0916 40.0552 27.1524C40.0358 27.2133 40.0046 27.2697 39.9633 27.3185C39.9221 27.3673 39.8716 27.4075 39.8148 27.4368C39.758 27.4661 39.696 27.4839 39.6324 27.4893C39.5687 27.4946 39.5046 27.4873 39.4437 27.4679C35.0759 26.0847 33.4646 28.2104 33.3967 28.2978C33.352 28.3605 33.2931 28.4117 33.2247 28.4471C33.1564 28.4826 33.0806 28.5013 33.0036 28.5016Z" fill="black"/>
<path d="M45.7829 26.0946C45.7363 26.102 45.6888 26.102 45.6422 26.0946C45.5809 26.0762 45.5238 26.046 45.4743 26.0055C45.4247 25.9651 45.3837 25.9152 45.3535 25.8589C45.3232 25.8025 45.3045 25.7407 45.2982 25.677C45.292 25.6134 45.2984 25.5491 45.317 25.4879C45.6682 24.4984 46.3064 23.636 47.1501 23.011C47.9939 22.386 49.0048 22.0267 50.0537 21.9791C50.1824 21.9694 50.3097 22.0113 50.4075 22.0955C50.5054 22.1797 50.5658 22.2993 50.5754 22.428C50.5851 22.5567 50.5432 22.684 50.459 22.7818C50.3748 22.8797 50.2552 22.9401 50.1265 22.9497C49.2716 22.9827 48.4458 23.2694 47.7544 23.7732C47.063 24.2771 46.5372 24.9754 46.244 25.7791C46.209 25.8728 46.1459 25.9534 46.0634 26.0098C45.9809 26.0663 45.8829 26.0959 45.7829 26.0946Z" fill="black"/>
<path d="M52.8975 23.0761C52.8975 23.0761 53.7856 21.0474 54.7999 22.3141C55.8142 23.5808 56.1928 26.119 55.5618 27.7642C54.9309 29.4094 54.5475 30.8072 54.5475 30.8072L54.2952 29.0309L52.8975 23.0761Z" fill="white"/>
<path d="M54.5469 31.0498C54.4911 31.0452 54.4385 31.0223 54.3972 30.9845C54.3559 30.9467 54.3283 30.8963 54.3188 30.8411L54.0665 29.0649L52.6785 23.1294C52.6593 23.0811 52.6593 23.0273 52.6785 22.979C52.7318 22.8577 53.2269 21.7657 53.9937 21.6638C54.1877 21.6487 54.3822 21.6857 54.5572 21.771C54.7321 21.8564 54.881 21.9869 54.9886 22.1491C56.0805 23.5177 56.4445 26.119 55.7845 27.837C55.1633 29.4531 54.7847 30.8411 54.7799 30.8557C54.7689 30.9097 54.7398 30.9583 54.6975 30.9936C54.6551 31.0289 54.602 31.0487 54.5469 31.0498V31.0498ZM53.1541 23.1052L54.5275 28.9775L54.6294 29.6861C54.8041 29.1425 55.0419 28.4339 55.3331 27.6769C55.9301 26.1287 55.5904 23.6924 54.61 22.4694C54.4207 22.2316 54.2315 22.12 54.0567 22.1443C53.6685 22.1976 53.2948 22.8091 53.1541 23.1052Z" fill="black"/>
<path d="M76.2161 13.1802C76.2161 13.1802 62.2826 10.6566 61.3897 10.6566C60.4967 10.6566 50.1109 12.559 48.5919 13.1899C47.0728 13.8208 35.5369 17.121 35.7892 17.8829C36.0416 18.6449 37.4393 18.8924 37.4393 18.8924C37.4393 18.8924 37.6917 20.0329 41.7489 20.5424C45.8062 21.052 55.3038 19.7805 55.4348 20.6686C55.4476 20.9718 55.3977 21.2744 55.2883 21.5575C55.179 21.8405 55.0124 22.098 54.7991 22.3139L55.9396 24.3425C55.9396 24.3425 60.123 23.7116 61.5158 22.6972C62.9087 21.6829 66.8543 18.5138 66.8543 18.5138L75.3425 19.1496L76.2161 13.1802Z" fill="white"/>
<path d="M55.9403 24.5851C55.8971 24.5857 55.8546 24.5748 55.817 24.5535C55.7795 24.5322 55.7483 24.5012 55.7267 24.4638L54.5863 22.4352C54.5606 22.3886 54.551 22.3348 54.5589 22.2822C54.5668 22.2296 54.5917 22.181 54.6299 22.144C54.993 21.7672 55.1965 21.2647 55.1978 20.7414C54.7901 20.4697 51.8976 20.6153 49.5681 20.7414C46.7921 20.8773 43.6472 21.0326 41.7157 20.79C38.3185 20.3677 37.4837 19.4893 37.2702 19.1156C36.8819 19.0283 35.8142 18.7225 35.5619 17.9654C35.5474 17.9225 35.5421 17.877 35.5463 17.8318C35.5505 17.7867 35.564 17.7429 35.5861 17.7034C35.8919 17.1016 38.8814 16.0678 45.0595 14.112C46.6659 13.6024 48.0539 13.1414 48.4955 12.9764C50.0097 12.3455 60.4537 10.4236 61.3904 10.4236C62.3271 10.4236 75.6878 12.8502 76.2605 12.9618C76.3224 12.9736 76.3774 13.0091 76.4136 13.0608C76.4499 13.1124 76.4646 13.1761 76.4546 13.2384L75.5665 19.1933C75.558 19.2538 75.5266 19.3087 75.4787 19.3467C75.4308 19.3846 75.3701 19.4027 75.3093 19.3971L66.9181 18.7711C66.3649 19.2175 62.9337 21.9741 61.6573 22.9011C60.2353 23.9397 56.149 24.5657 55.9743 24.5948L55.9403 24.5851ZM55.0958 22.3478L56.0665 24.0756C56.8527 23.9494 60.1965 23.3573 61.371 22.4983C62.7444 21.5276 66.6464 18.3585 66.6852 18.3246C66.7332 18.2863 66.7938 18.2673 66.8551 18.2712L75.1054 18.8875L75.9256 13.3889C71.0724 12.5056 62.0504 10.8992 61.3661 10.8992C60.444 10.8992 50.1505 12.7968 48.6605 13.418C48.1752 13.6073 46.8649 14.0295 45.1808 14.5634C42.1719 15.534 36.6199 17.2763 36.0278 17.8732C36.2559 18.3585 37.1246 18.5963 37.4595 18.6546C37.5062 18.6649 37.5492 18.6881 37.5835 18.7216C37.6178 18.755 37.6421 18.7974 37.6536 18.8438V18.8438C37.6536 18.8438 38.0273 19.8145 41.7545 20.2998C43.6424 20.5376 46.763 20.3823 49.5196 20.2464C54.0767 20.0183 55.5569 19.9989 55.6491 20.6347C55.6762 20.9427 55.6413 21.2531 55.5462 21.5474C55.4512 21.8416 55.298 22.1138 55.0958 22.3478V22.3478Z" fill="black"/>
<path d="M45.2971 14.9661C45.2971 14.9661 39.5947 17.3927 38.7065 17.878C37.8184 18.3633 40.3517 19.3971 41.8756 19.1447C43.3995 18.8923 49.2233 16.6065 50.126 16.3541C51.0287 16.1018 55.0665 17.1161 57.9833 17.4946C59.835 17.7733 61.7277 17.5103 63.4334 16.7375" fill="white"/>
<path d="M41.3659 19.4311C40.1138 19.4311 38.5171 18.8681 38.3084 18.2857C38.2654 18.1672 38.2702 18.0366 38.3218 17.9215C38.3735 17.8065 38.4679 17.716 38.585 17.6694C39.4731 17.1598 44.9669 14.84 45.1999 14.7575C45.2295 14.7448 45.2613 14.7381 45.2935 14.7378C45.3257 14.7375 45.3577 14.7437 45.3875 14.7559C45.4173 14.7681 45.4444 14.7861 45.4672 14.8088C45.4899 14.8316 45.508 14.8587 45.5202 14.8885C45.543 14.9479 45.5422 15.0137 45.5178 15.0725C45.4934 15.1312 45.4473 15.1783 45.3891 15.204C45.3309 15.2282 39.6915 17.6305 38.8277 18.1159C38.8022 18.1277 38.7792 18.1442 38.7597 18.1644C38.8325 18.441 40.5602 19.135 41.8318 18.9312C42.8364 18.7662 45.8842 17.65 47.8982 16.9123C48.9319 16.5337 49.7473 16.2377 50.0433 16.1503C50.616 15.9902 52.0719 16.2425 54.4112 16.6745C55.6342 16.9026 56.896 17.1598 58.0074 17.286C59.8113 17.5583 61.6554 17.3021 63.3167 16.5483C63.374 16.5195 63.4404 16.5146 63.5013 16.5346C63.5623 16.5546 63.6128 16.5979 63.6419 16.6551C63.6568 16.6833 63.6659 16.7143 63.6686 16.7461C63.6713 16.7779 63.6675 16.81 63.6576 16.8403C63.6476 16.8707 63.6316 16.8987 63.6106 16.9227C63.5895 16.9468 63.5639 16.9663 63.5351 16.9802C61.7754 17.7741 59.8227 18.0388 57.9152 17.7422C56.7941 17.5966 55.5225 17.3588 54.2898 17.1307C52.499 16.7958 50.65 16.4512 50.1598 16.592C49.8783 16.6745 49.0678 16.9705 48.0487 17.3442C45.8939 18.1304 42.9431 19.2127 41.8949 19.3874C41.72 19.4163 41.5431 19.4309 41.3659 19.4311Z" fill="black"/>
<path d="M110.553 33.457C107.33 34.1668 103.991 34.1668 100.769 33.457C95.4303 32.268 81.3561 25.2988 81.3561 25.2988L71.7178 22.484L73.9308 11.2392C73.9308 11.2392 98.25 14.2045 105.069 16.7233C111.887 19.2421 121.822 25.0271 121.526 27.1042C121.23 29.1814 115.746 33.6269 115.746 33.6269" fill="#FBD689"/>
<path d="M105.661 34.2189C103.998 34.2233 102.339 34.0459 100.715 33.6899C95.4106 32.5105 81.8121 25.8035 81.2345 25.5171L71.6398 22.7169C71.582 22.6989 71.5327 22.6603 71.5014 22.6084C71.4701 22.5565 71.4589 22.495 71.47 22.4354L73.6927 11.1663C73.7045 11.1063 73.7386 11.0529 73.7881 11.0169C73.8376 10.9809 73.8989 10.9649 73.9596 10.9722C74.2023 11.0013 98.3856 13.9715 105.151 16.4708C111.8 18.9265 122.098 24.794 121.768 27.1138C121.462 29.2589 116.124 33.6074 115.896 33.7918C115.871 33.8119 115.842 33.8268 115.812 33.8359C115.781 33.8449 115.749 33.8478 115.717 33.8444C115.685 33.8411 115.655 33.8314 115.627 33.8162C115.599 33.8009 115.574 33.7802 115.554 33.7554C115.534 33.7305 115.519 33.702 115.51 33.6713C115.501 33.6407 115.498 33.6085 115.501 33.5768C115.504 33.545 115.514 33.5142 115.529 33.4861C115.545 33.4581 115.565 33.4333 115.59 33.4132C117.095 32.1951 121.055 28.6717 121.288 27.0459C121.53 25.3376 112.387 19.6642 104.986 16.927C98.6137 14.5733 76.5949 11.7875 74.1247 11.4818L71.9893 22.3092L81.4141 25.0658C81.5937 25.1532 95.5708 32.0495 100.827 33.2191C104.013 33.9145 107.312 33.9145 110.499 33.2191C110.563 33.203 110.632 33.2131 110.688 33.2473C110.745 33.2814 110.786 33.3367 110.802 33.4011C110.819 33.4654 110.808 33.5336 110.774 33.5904C110.74 33.6473 110.685 33.6883 110.62 33.7044C108.992 34.0654 107.328 34.238 105.661 34.2189V34.2189Z" fill="black"/>
<path d="M40.1434 89.6468C33.5577 89.6468 27.1661 82.4253 26.8506 82.0613C26.8251 82.0383 26.8048 82.0101 26.791 81.9787C26.7771 81.9472 26.7702 81.9131 26.7705 81.8788C26.7709 81.8444 26.7785 81.8105 26.7929 81.7793C26.8074 81.7481 26.8283 81.7203 26.8542 81.6978C26.8802 81.6753 26.9107 81.6585 26.9436 81.6487C26.9765 81.6388 27.0112 81.6361 27.0453 81.6406C27.0793 81.6452 27.1121 81.6569 27.1413 81.6751C27.1705 81.6932 27.1955 81.7173 27.2146 81.7459C27.302 81.843 36.1056 91.7919 43.3805 88.4675C50.6554 85.1431 54.4506 63.4009 54.4894 63.1825C54.5012 63.1193 54.5372 63.0631 54.5898 63.026C54.6423 62.9888 54.7073 62.9736 54.7709 62.9836C54.8341 62.9954 54.8903 63.0314 54.9274 63.084C54.9646 63.1365 54.9798 63.2015 54.9699 63.265C54.8146 64.1677 51.1407 85.4586 43.5843 88.9092C42.5047 89.4024 41.3304 89.6542 40.1434 89.6468Z" fill="black"/>
<path d="M30.5294 82.479C21.75 82.479 15.1982 74.4275 15.1303 74.3402C15.0906 74.2899 15.0724 74.226 15.0797 74.1623C15.087 74.0987 15.1191 74.0405 15.1691 74.0005C15.1938 73.9802 15.2222 73.9651 15.2528 73.9561C15.2834 73.947 15.3155 73.9442 15.3472 73.9478C15.3789 73.9515 15.4095 73.9614 15.4373 73.9771C15.4651 73.9928 15.4894 74.014 15.5088 74.0393C15.5816 74.1267 22.6042 82.775 31.7524 81.9402C41.1044 81.1055 44.0697 70.016 43.9823 65.0852C43.9823 65.0212 44.007 64.9597 44.0514 64.9135C44.0957 64.8674 44.1562 64.8402 44.2201 64.8377C44.2834 64.8399 44.3437 64.8654 44.3894 64.9093C44.435 64.9532 44.4629 65.0124 44.4677 65.0755C44.555 70.1519 41.4878 81.5763 31.796 82.4256C31.369 82.4644 30.9467 82.479 30.5294 82.479Z" fill="black"/>
<path d="M19.4069 68.6616L16.4258 67.6601L11.7304 81.6364L14.7115 82.6379L19.4069 68.6616Z" fill="#7D7D7D"/>
<path d="M14.7231 82.8817C14.6974 82.8863 14.6711 82.8863 14.6455 82.8817L11.6656 81.8819C11.6351 81.8725 11.6068 81.8568 11.5826 81.8359C11.5584 81.8151 11.5388 81.7894 11.5249 81.7606C11.5008 81.6998 11.5008 81.6322 11.5249 81.5714L16.1791 67.5845C16.2001 67.5242 16.2437 67.4743 16.3007 67.4454C16.3577 67.4164 16.4237 67.4106 16.4848 67.4292L19.4646 68.4338C19.4952 68.4433 19.5234 68.459 19.5476 68.4799C19.5719 68.5007 19.5915 68.5264 19.6054 68.5552C19.6297 68.6142 19.6297 68.6805 19.6054 68.7396L14.9075 82.7167C14.894 82.758 14.8698 82.7949 14.8374 82.8239C14.805 82.8529 14.7656 82.8728 14.7231 82.8817V82.8817ZM12.049 81.484L14.5678 82.3284L19.091 68.8124L16.5722 67.9679L12.049 81.484Z" fill="black"/>
<path d="M20.7426 67.395L16.1191 65.8417L15.4283 67.8981L20.0518 69.4514L20.7426 67.395Z" fill="black"/>
<path d="M20.0618 69.6955H19.9841L15.3591 68.1425C15.3269 68.134 15.2969 68.1187 15.271 68.0978C15.2451 68.0769 15.2238 68.0508 15.2086 68.0212C15.1844 67.9621 15.1844 67.8959 15.2086 67.8368L15.8978 65.779C15.9128 65.7185 15.9502 65.6658 16.0024 65.6316C16.0546 65.5974 16.1177 65.5842 16.1793 65.5946L20.7995 67.1476C20.83 67.1571 20.8583 67.1728 20.8825 67.1937C20.9067 67.2145 20.9263 67.2402 20.9402 67.269C20.9645 67.328 20.9645 67.3943 20.9402 67.4534L20.2511 69.5111C20.2407 69.5569 20.2173 69.5986 20.1837 69.6314C20.1501 69.6641 20.1078 69.6864 20.0618 69.6955ZM15.7473 67.7543L19.9113 69.152L20.4452 67.5602L16.2812 66.1576L15.7473 67.7543Z" fill="black"/>
<path d="M25.984 70.8691L23.0029 69.8676L18.3075 83.8438L21.2887 84.8454L25.984 70.8691Z" fill="#7D7D7D"/>
<path d="M21.2836 85.0901C21.2579 85.0947 21.2316 85.0947 21.2059 85.0901L18.2261 84.0903C18.1956 84.0808 18.1673 84.0652 18.1431 84.0443C18.1189 84.0234 18.0992 83.9978 18.0854 83.969C18.0722 83.94 18.0654 83.9086 18.0654 83.8768C18.0654 83.845 18.0722 83.8135 18.0854 83.7846L22.7784 69.8075C22.7879 69.7769 22.8035 69.7487 22.8244 69.7245C22.8453 69.7003 22.8709 69.6806 22.8997 69.6667C22.9287 69.6536 22.9601 69.6468 22.9919 69.6468C23.0237 69.6468 23.0552 69.6536 23.0841 69.6667L26.064 70.6665C26.0946 70.6758 26.123 70.6912 26.1476 70.7118C26.1721 70.7324 26.1922 70.7577 26.2067 70.7863C26.2212 70.8148 26.2298 70.846 26.232 70.878C26.2341 70.9099 26.2298 70.942 26.2193 70.9722L21.5166 84.9251C21.5008 84.9741 21.4696 85.0167 21.4276 85.0464C21.3856 85.0762 21.3351 85.0915 21.2836 85.0901ZM18.6047 83.6924L21.1283 84.5417L25.666 71.0256L23.1472 70.1763L18.6047 83.6924Z" fill="black"/>
<path d="M27.3149 69.6025L22.6914 68.0492L22.0005 70.1056L26.624 71.6589L27.3149 69.6025Z" fill="black"/>
<path d="M26.6273 71.9038H26.5497L21.9295 70.3508C21.8989 70.3414 21.8707 70.3257 21.8465 70.3048C21.8222 70.2839 21.8026 70.2583 21.7887 70.2295C21.7644 70.1704 21.7644 70.1042 21.7887 70.0451L22.4876 67.9728C22.512 67.9139 22.5568 67.8657 22.6138 67.8369C22.6728 67.8126 22.7391 67.8126 22.7982 67.8369L27.4232 69.3899C27.4528 69.4002 27.4799 69.4162 27.5033 69.4371C27.5266 69.4579 27.5456 69.4831 27.5591 69.5112C27.5834 69.5703 27.5834 69.6366 27.5591 69.6957L26.8554 71.7388C26.8393 71.7866 26.8086 71.8282 26.7677 71.8578C26.7269 71.8874 26.6778 71.9035 26.6273 71.9038V71.9038ZM22.3129 69.9626L26.4769 71.3651L27.0107 69.7685L22.8467 68.3707L22.3129 69.9626Z" fill="black"/>
<path d="M24.9672 74.6171L15.2852 71.3557L11.6775 82.0659L21.3596 85.3273L24.9672 74.6171Z" fill="black"/>
<path d="M21.2839 85.0898C21.2582 85.0945 21.2319 85.0945 21.2062 85.0898L11.5484 81.8479C11.4885 81.8256 11.4386 81.7826 11.4077 81.7266C11.3836 81.6658 11.3836 81.5981 11.4077 81.5373L14.999 70.8604C15.0197 70.7995 15.0632 70.749 15.1204 70.7196C15.1794 70.6953 15.2457 70.6953 15.3048 70.7196L24.9674 73.9615C25.028 73.9835 25.0776 74.0283 25.1057 74.0863C25.1338 74.1443 25.1382 74.211 25.1179 74.2721L21.5265 84.9491C21.5062 84.9952 21.4718 85.0337 21.4282 85.059C21.3846 85.0843 21.334 85.0951 21.2839 85.0898ZM11.9318 81.45L21.1528 84.5414L24.5695 74.3304L15.3485 71.2389L11.9318 81.45Z" fill="black"/>
<path d="M12.4518 88.7392L3.43945 85.7109L8.21496 77.8245L13.403 79.5668L12.4518 88.7392Z" fill="#7D7D7D"/>
<path d="M12.4505 88.9819H12.3729L3.36055 85.9536C3.32636 85.9418 3.29517 85.9226 3.26917 85.8974C3.24318 85.8723 3.22302 85.8417 3.2101 85.808C3.19458 85.7754 3.18652 85.7397 3.18652 85.7036C3.18652 85.6675 3.19458 85.6319 3.2101 85.5993L7.99047 77.708C8.01861 77.6614 8.06192 77.6258 8.11316 77.6072C8.1644 77.5887 8.22046 77.5883 8.27195 77.6061L13.46 79.3484C13.5128 79.3659 13.558 79.401 13.5881 79.4478C13.6181 79.4946 13.6311 79.5503 13.625 79.6056L12.6544 88.7732C12.6509 88.8098 12.639 88.845 12.6196 88.8761C12.6002 88.9073 12.5739 88.9335 12.5427 88.9528C12.5146 88.9693 12.4831 88.9792 12.4505 88.9819V88.9819ZM3.80219 85.5847L12.2418 88.4044L13.1445 79.7269L8.32534 78.106L3.80219 85.5847Z" fill="black"/>
<path d="M12.4518 88.7411L3.43945 85.7134L0.226247 95.2778L9.2386 98.3055L12.4518 88.7411Z" fill="#636363"/>
<path d="M9.23826 98.5475C9.21263 98.5526 9.18624 98.5526 9.16061 98.5475L0.162853 95.5045C0.102632 95.4836 0.0530827 95.4397 0.0249284 95.3825C-0.00322584 95.3253 -0.00772118 95.2593 0.012406 95.1988L3.2252 85.6332C3.2355 85.6037 3.25151 85.5765 3.27233 85.5532C3.29315 85.5299 3.31836 85.5109 3.34653 85.4973C3.4056 85.4731 3.47187 85.4731 3.53095 85.4973L12.5433 88.5257C12.6035 88.5467 12.653 88.5905 12.6812 88.6477C12.7093 88.7049 12.7138 88.7709 12.6937 88.8314L9.48092 98.397C9.47139 98.4269 9.45566 98.4545 9.43475 98.4779C9.41384 98.5013 9.38823 98.5201 9.35959 98.5329C9.32151 98.5498 9.27925 98.5548 9.23826 98.5475V98.5475ZM0.53169 95.1211L9.08297 97.9942L12.1453 88.8897L3.59404 86.0166L0.53169 95.1211Z" fill="black"/>
<path d="M17.8542 70.5422L10.1162 67.9426L6.90301 77.507L14.641 80.1066L17.8542 70.5422Z" fill="#636363"/>
<path d="M14.6452 80.3484H14.5676L6.8025 77.7471C6.7416 77.7265 6.69113 77.6829 6.66176 77.6258C6.63749 77.5667 6.63749 77.5004 6.66176 77.4413L9.8697 67.866C9.89067 67.8058 9.93451 67.7563 9.99172 67.7281C10.0489 67.7 10.1149 67.6955 10.1754 67.7156L17.9114 70.312C17.9713 70.3343 18.0213 70.3774 18.0521 70.4334C18.0762 70.4942 18.0762 70.5618 18.0521 70.6226L14.8393 80.1834C14.8255 80.2262 14.8 80.2643 14.7657 80.2934C14.7314 80.3225 14.6897 80.3416 14.6452 80.3484ZM7.21502 77.354L14.4948 79.7806L17.5522 70.676L10.2725 68.2494L7.21502 77.354Z" fill="black"/>
<path d="M25.6031 93.1607L16.5908 90.1323L21.3712 82.2459L26.5592 83.9882L25.6031 93.1607Z" fill="#7D7D7D"/>
<path d="M25.6023 93.403C25.5766 93.4076 25.5503 93.4076 25.5247 93.403L16.5123 90.3455C16.4781 90.3337 16.4469 90.3146 16.4209 90.2894C16.395 90.2643 16.3748 90.2337 16.3619 90.1999C16.35 90.1655 16.3461 90.1289 16.3503 90.0928C16.3545 90.0567 16.3667 90.022 16.3861 89.9912L21.1617 82.1048C21.1905 82.0576 21.2345 82.0213 21.2864 82.002C21.3383 81.9826 21.3952 81.9812 21.448 81.9981L26.636 83.7452C26.6881 83.7618 26.7326 83.7962 26.7619 83.8423C26.7912 83.8885 26.8033 83.9434 26.7962 83.9976L25.8255 93.1701C25.8214 93.2064 25.8092 93.2413 25.7899 93.2724C25.7706 93.3034 25.7446 93.3298 25.7139 93.3496C25.682 93.3768 25.6435 93.3951 25.6023 93.403V93.403ZM16.954 90.0058L25.3985 92.8303L26.3011 84.1577L21.482 82.5368L16.954 90.0058Z" fill="black"/>
<path d="M25.6071 93.1602L16.5947 90.1325L13.3815 99.6969L22.3939 102.725L25.6071 93.1602Z" fill="#636363"/>
<path d="M22.3895 102.964H22.3119L13.2996 99.9355C13.2394 99.9145 13.1898 99.8707 13.1617 99.8134C13.1335 99.7562 13.129 99.6902 13.1491 99.6297L16.3619 90.0641C16.3714 90.0336 16.3871 90.0054 16.4079 89.9811C16.4288 89.9569 16.4545 89.9373 16.4832 89.9234C16.5122 89.9103 16.5437 89.9035 16.5755 89.9035C16.6073 89.9035 16.6387 89.9103 16.6677 89.9234L25.68 92.9469C25.7407 92.969 25.7907 93.0135 25.8196 93.0713C25.8485 93.129 25.8541 93.1957 25.8353 93.2575L22.6225 102.818C22.5998 102.879 22.5547 102.93 22.4963 102.959C22.4618 102.97 22.4249 102.972 22.3895 102.964ZM13.6878 99.5666L22.2391 102.44L25.2966 93.3352L16.7453 90.4621L13.6878 99.5666Z" fill="black"/>
<path d="M31.0115 74.9588L23.2734 72.3591L20.0602 81.9235L27.7983 84.5232L31.0115 74.9588Z" fill="#636363"/>
<path d="M27.7968 84.7691C27.7711 84.7737 27.7448 84.7737 27.7191 84.7691L19.9832 82.1678C19.9526 82.1583 19.9244 82.1426 19.9002 82.1218C19.876 82.1009 19.8563 82.0753 19.8424 82.0465C19.8182 81.9874 19.8182 81.9211 19.8424 81.862L23.0552 72.3013C23.0752 72.2402 23.1186 72.1895 23.176 72.1604C23.2333 72.1313 23.2998 72.1261 23.361 72.146L31.126 74.7473C31.1869 74.7679 31.2374 74.8114 31.2668 74.8686C31.291 74.9277 31.291 74.994 31.2668 75.0531L28.054 84.6186C28.0347 84.6693 27.9986 84.7118 27.9519 84.7391C27.9051 84.7665 27.8504 84.7771 27.7968 84.7691V84.7691ZM20.3666 81.7747L27.6463 84.2013L30.7087 75.1016L23.4289 72.675L20.3666 81.7747Z" fill="black"/>
<path d="M7.054 67.3079C7.054 67.3079 6.00572 69.0356 6.31632 69.5307C6.62692 70.0257 9.65045 71.6903 10.0824 71.8165C10.5143 71.9427 11.6888 71.3312 11.6257 70.5159C11.5626 69.7005 9.1991 67.9874 8.47598 67.5554C7.75286 67.1235 7.3646 67.0507 7.054 67.3079Z" fill="white"/>
<path d="M10.2083 72.0736C10.1438 72.0811 10.0787 72.0811 10.0142 72.0736C9.52887 71.9426 6.46167 70.2488 6.10739 69.681C5.7531 69.1132 6.5927 67.6379 6.84992 67.2059C6.86372 67.1818 6.88182 67.1604 6.9033 67.1428C7.38862 66.774 7.87394 66.9535 8.59706 67.3661C8.99502 67.599 11.7904 69.4772 11.8681 70.5255C11.8724 70.7439 11.8228 70.9599 11.7238 71.1546C11.6248 71.3493 11.4793 71.5166 11.3003 71.6417C10.9896 71.895 10.6082 72.0458 10.2083 72.0736ZM7.23817 67.4728C6.75286 68.3124 6.39858 69.2103 6.51991 69.4141C6.78198 69.8363 9.71814 71.4718 10.1501 71.598C10.4633 71.5902 10.7631 71.4696 10.9945 71.2583C11.1093 71.1779 11.204 71.0722 11.2713 70.9493C11.3387 70.8265 11.3768 70.6897 11.3828 70.5497C11.3391 69.9528 9.33959 68.3513 8.3544 67.7786C7.61672 67.3321 7.38862 67.3661 7.23817 67.4728V67.4728Z" fill="black"/>
<path d="M5.3955 70.7243C5.3955 70.7243 4.88592 72.6656 5.32756 73.0684C5.76919 73.4712 9.14214 74.1749 9.59348 74.1652C10.0448 74.1555 10.9863 73.2285 10.6952 72.4811C10.404 71.7338 7.65707 70.7486 6.81262 70.5399C5.96817 70.3312 5.61874 70.3991 5.3955 70.7243Z" fill="white"/>
<path d="M9.58694 74.408C9.10162 74.408 5.66558 73.6897 5.16571 73.2481C4.66583 72.8064 5.02982 71.1563 5.16571 70.6613C5.17498 70.6346 5.18634 70.6086 5.19968 70.5837C5.53455 70.0983 6.09266 70.1226 6.88858 70.3119C7.33507 70.4187 10.5527 71.4136 10.9313 72.3939C10.9993 72.6014 11.0149 72.8226 10.9768 73.0377C10.9387 73.2527 10.8481 73.455 10.7129 73.6266C10.5935 73.8271 10.4333 74.0003 10.2427 74.1349C10.0521 74.2695 9.83526 74.3626 9.60636 74.408H9.58694ZM5.61706 70.8312C5.3744 71.8018 5.31131 72.7336 5.48602 72.8841C5.85486 73.2092 9.14045 73.9421 9.58694 73.9226C9.88676 73.8281 10.1409 73.6258 10.3004 73.3548C10.3875 73.2458 10.4482 73.1181 10.4777 72.9817C10.5072 72.8453 10.5046 72.7039 10.4702 72.5686C10.2518 72.0056 7.87377 71.0496 6.76725 70.7875C5.93736 70.5885 5.72868 70.6856 5.61706 70.8312V70.8312Z" fill="black"/>
<path d="M4.46679 74.1214C4.46679 74.1214 3.95721 76.0626 4.39884 76.4654C4.84048 76.8682 8.21343 77.5719 8.66478 77.5622C9.11612 77.5525 10.0576 76.6256 9.76644 75.8782C9.47525 75.1308 6.73321 74.1456 5.88391 73.9369C5.03461 73.7282 4.69003 73.7962 4.46679 74.1214Z" fill="white"/>
<path d="M8.66116 77.805C8.17584 77.805 4.7398 77.0867 4.23993 76.6451C3.74005 76.2034 4.10404 74.5534 4.23993 74.0583C4.24892 74.0307 4.262 74.0045 4.27875 73.9807C4.60877 73.4954 5.16688 73.5196 5.9628 73.7089C6.40929 73.8157 9.62694 74.8106 10.0055 75.7909C10.0735 75.9985 10.0892 76.2196 10.0511 76.4347C10.013 76.6498 9.92229 76.8521 9.7871 77.0236C9.66773 77.2241 9.50754 77.3973 9.31691 77.532C9.12628 77.6666 8.90948 77.7596 8.68058 77.805H8.66116ZM4.69128 74.2282C4.44862 75.1988 4.38552 76.1306 4.56024 76.2811C4.92908 76.6063 8.18555 77.3197 8.65631 77.3197C8.96141 77.2308 9.22151 77.0296 9.38428 76.7567C9.47145 76.6477 9.53215 76.52 9.56163 76.3836C9.5911 76.2471 9.58854 76.1058 9.55415 75.9705C9.33575 75.4075 6.9577 74.4515 5.85118 74.1894C5.01644 73.9855 4.8029 74.0826 4.69128 74.2282V74.2282Z" fill="black"/>
<path d="M4.89944 77.3924C4.89944 77.3924 4.41412 79.3337 4.8315 79.7365C5.24887 80.1393 8.64608 80.843 9.09743 80.8381C9.54877 80.8333 10.4903 79.9015 10.2039 79.1492C9.91761 78.397 7.16587 77.4215 6.32142 77.208C5.47697 76.9944 5.12268 77.0672 4.89944 77.3924Z" fill="white"/>
<path d="M9.09182 81.0811C8.60651 81.0811 5.17047 80.358 4.67059 79.9212C4.17072 79.4844 4.5347 77.8295 4.67059 77.3344C4.67855 77.3064 4.69172 77.28 4.70942 77.2568C5.03943 76.7715 5.59755 76.7957 6.39347 76.985C6.83996 77.0918 10.0576 78.0818 10.4362 79.0622C10.5042 79.2705 10.5198 79.4924 10.4817 79.7083C10.4436 79.9241 10.353 80.1272 10.2178 80.2997C10.0984 80.5002 9.9382 80.6734 9.74757 80.808C9.55694 80.9427 9.34014 81.0357 9.11124 81.0811H9.09182ZM5.12194 77.4994C4.87928 78.4701 4.82104 79.4067 4.9909 79.5572C5.35974 79.8775 8.62107 80.5958 9.08697 80.5958C9.38746 80.5025 9.64203 80.2998 9.80039 80.0279C9.88763 79.918 9.94834 79.7895 9.9778 79.6523C10.0073 79.5151 10.0047 79.3729 9.97025 79.2369C9.75186 78.6788 7.37381 77.7227 6.26729 77.4558C5.44225 77.2422 5.23356 77.3539 5.12194 77.4994V77.4994Z" fill="black"/>
</svg>
