<svg width="297" height="296" viewBox="0 0 297 296" fill="none" xmlns="http://www.w3.org/2000/svg">
<path d="M49.6389 265.373C49.5299 263.265 47.3192 259.061 47.3192 259.055C47.3192 259.048 44.993 261.355 44.8649 261.522C43.3782 263.444 41.6608 267.975 43.1475 270.211C43.4103 270.575 43.7467 270.88 44.135 271.106C44.5232 271.332 44.9546 271.474 45.4011 271.522C45.8477 271.57 46.2994 271.524 46.727 271.387C47.1545 271.249 47.5484 271.023 47.8831 270.724C49.3441 269.5 49.7286 267.18 49.6389 265.373Z" fill="#263238"/>
<path d="M29.1715 221.939C29.1715 221.894 25.9675 222.58 25.7624 222.644C23.4747 223.407 19.5017 226.239 19.5338 228.943C19.552 229.393 19.6651 229.835 19.8656 230.238C20.066 230.642 20.3494 230.999 20.6971 231.285C21.0449 231.572 21.4492 231.782 21.8836 231.902C22.3181 232.022 22.7729 232.049 23.2184 231.981C25.1408 231.763 26.7108 230.058 27.6335 228.488C28.6973 226.668 29.1715 221.946 29.1715 221.939Z" fill="#263238"/>
<path d="M7.46116 216.928C8.39674 219.491 13.1195 220.683 15.5353 220.581C15.7404 220.581 18.9829 220.055 18.9636 220.01V219.959C19.707 220.158 20.508 220.356 21.3859 220.561C23.0071 220.927 24.8526 221.33 26.884 221.625C29.0678 221.966 31.2694 222.18 33.4779 222.266C35.9541 222.374 38.4349 222.264 40.892 221.939H40.9817C40.264 222.279 38.2967 223.298 38.1558 223.394C36.15 224.739 33.0678 228.52 33.8111 231.115C33.9475 231.543 34.1723 231.937 34.4708 232.272C34.7693 232.608 35.1349 232.876 35.5439 233.061C35.9529 233.246 36.3962 233.343 36.845 233.346C37.2939 233.348 37.7382 233.256 38.1494 233.076C39.9244 232.371 41.0138 230.289 41.488 228.546C42.0262 226.585 41.3214 222.234 41.2637 221.888C43.7455 221.489 46.1986 220.928 48.6073 220.209C50.0171 219.792 51.4269 219.331 52.8302 218.857C52.2215 219.171 51.6768 219.453 51.6063 219.498C49.6006 220.843 46.5183 224.624 47.268 227.219C47.4045 227.647 47.6292 228.041 47.9277 228.376C48.2262 228.712 48.5918 228.98 49.0008 229.165C49.4098 229.35 49.8531 229.447 50.302 229.45C50.7508 229.452 51.1952 229.36 51.6063 229.18C53.3749 228.469 54.4643 226.386 54.9449 224.65C55.4255 222.913 54.9 219.158 54.7462 218.178L56.3611 217.614C58.9243 216.691 61.4875 215.762 64.0507 214.929C64.9479 214.634 65.845 214.378 66.7357 214.115L65.6784 214.679C63.6727 216.024 60.5904 219.805 61.3337 222.401C61.4695 222.829 61.6937 223.224 61.9919 223.559C62.2901 223.895 62.6556 224.165 63.0647 224.35C63.4738 224.536 63.9173 224.633 64.3665 224.636C64.8157 224.639 65.2604 224.548 65.672 224.368C67.447 223.656 68.5364 221.574 69.0106 219.831C69.4848 218.088 69.0106 214.704 68.844 213.538C69.7667 213.301 70.6895 213.058 71.593 212.865C72.2338 212.75 72.8042 212.596 73.4321 212.513L75.2777 212.237C76.4567 212.103 77.6743 211.955 78.8341 211.853C79.6351 211.776 80.3977 211.718 81.1731 211.661C80.2759 211.943 78.533 212.532 78.3984 212.596C76.5077 213.567 74.8989 215.008 73.7269 216.781C73.5025 216.88 73.2879 217 73.0861 217.139C72.713 217.389 72.3965 217.714 72.157 218.093C71.9174 218.472 71.7602 218.898 71.6956 219.342C71.631 219.786 71.6603 220.239 71.7817 220.671C71.9032 221.102 72.1139 221.504 72.4004 221.849C74.1883 223.881 79.0328 223.317 81.2436 222.356C81.3717 222.298 82.7238 221.523 83.5633 221.016C83.1147 221.388 82.6726 221.74 82.2112 222.131C81.3012 222.894 80.4169 223.676 79.4557 224.522C79.0071 224.945 78.5522 225.367 78.0972 225.803C77.6422 226.239 77.2001 226.72 76.7387 227.181C75.707 228.27 74.7138 229.43 73.7333 230.622C73.0925 229.821 70.6575 227.027 69.0298 226.233C67.4022 225.438 65.1209 224.88 63.4227 225.746C63.0151 225.935 62.6519 226.208 62.3566 226.547C62.0614 226.885 61.8407 227.283 61.7089 227.712C61.5772 228.142 61.5373 228.595 61.5919 229.041C61.6465 229.487 61.7943 229.916 62.0258 230.302C63.4868 232.577 68.3634 232.756 70.6959 232.134C70.8433 232.096 72.4645 231.494 73.3552 231.103C72.7721 231.82 72.189 232.538 71.6251 233.281C69.991 235.435 68.421 237.665 66.819 239.888C66.332 240.567 65.8386 241.24 65.3516 241.913C65.1145 241.625 62.3206 238.241 60.4943 237.351C58.873 236.556 56.5918 235.998 54.8872 236.864C54.4801 237.053 54.1175 237.327 53.8229 237.666C53.5283 238.005 53.3083 238.402 53.1772 238.832C53.0461 239.262 53.0068 239.714 53.0618 240.16C53.1168 240.606 53.265 241.035 53.4967 241.42C54.9577 243.695 59.8342 243.874 62.1668 243.252C62.3398 243.207 64.6787 242.298 65.2619 242.035C64.1789 243.521 63.0895 244.989 61.9553 246.392C60.4332 248.299 58.787 250.104 57.0275 251.794C56.9186 251.66 54.0157 248.116 52.151 247.2C50.5297 246.412 48.2485 245.854 46.5439 246.719C46.1377 246.909 45.7759 247.182 45.482 247.521C45.188 247.859 44.9684 248.256 44.8373 248.685C44.7062 249.114 44.6666 249.565 44.7211 250.01C44.7755 250.456 44.9228 250.884 45.1534 251.269C46.6144 253.55 51.4845 253.723 53.8171 253.108C53.9709 253.069 55.7395 252.371 56.5918 252.025L56.6751 252.153C54.8649 253.823 52.9067 255.324 50.8245 256.639C49.6903 257.369 48.5689 258.01 47.4603 258.606C46.9861 257.888 44.7881 254.639 43.1989 253.633C41.6097 252.627 39.463 251.865 37.6752 252.538C37.2508 252.682 36.8616 252.914 36.5326 253.219C36.2036 253.523 35.9422 253.894 35.7652 254.306C35.5882 254.717 35.4997 255.162 35.5053 255.61C35.5108 256.058 35.6104 256.501 35.7976 256.908C36.9959 259.33 41.8212 260.041 44.205 259.689C44.3395 259.689 45.634 259.324 46.576 259.048C46.0761 259.311 45.5571 259.586 45.0701 259.83C43.2374 260.734 41.5008 261.458 39.9436 262.079C39.0657 262.425 38.2647 262.72 37.5086 262.996C36.6819 262.534 33.3113 260.721 31.4658 260.561C29.6202 260.4 27.339 260.714 26.0638 262.131C25.753 262.454 25.5137 262.84 25.3615 263.262C25.2093 263.684 25.1475 264.134 25.1801 264.582C25.2127 265.029 25.3391 265.465 25.5509 265.861C25.7627 266.257 26.0554 266.603 26.4098 266.879C28.5885 268.474 33.2023 266.879 35.1568 265.469C35.3234 265.347 37.72 263.124 37.72 263.105H37.6688C38.3993 262.861 39.1811 262.592 40.0269 262.278C41.5841 261.682 43.3335 260.996 45.1982 260.131C47.2099 259.209 49.1675 258.174 51.0616 257.03C53.1857 255.757 55.1929 254.299 57.0595 252.672L57.1236 252.608C56.7135 253.287 55.637 255.223 55.5729 255.383C54.6437 257.606 54.1567 262.432 56.2137 264.22C56.5637 264.501 56.9692 264.706 57.4036 264.821C57.838 264.936 58.2918 264.958 58.7354 264.886C59.1789 264.814 59.6024 264.65 59.9783 264.404C60.3542 264.157 60.6741 263.835 60.9172 263.457C62.0066 261.887 61.7631 259.548 61.1992 257.837C60.5583 255.915 57.5786 252.659 57.3543 252.403C59.2115 250.698 60.954 248.872 62.5705 246.937C63.5189 245.816 64.4352 244.656 65.3452 243.477C65.0119 244.073 64.7044 244.611 64.7044 244.694C63.7752 246.918 63.2882 251.775 65.3452 253.531C65.6948 253.813 66.0999 254.018 66.5341 254.134C66.9682 254.249 67.4218 254.272 67.8654 254.2C68.3089 254.129 68.7325 253.965 69.1086 253.72C69.4848 253.474 69.805 253.152 70.0487 252.775C71.1316 251.205 70.8946 248.866 70.3306 247.148C69.7667 245.431 67.2676 242.592 66.5947 241.862L67.6328 240.497C69.2669 238.312 70.8946 236.12 72.5542 234.025C73.1438 233.281 73.7461 232.577 74.3485 231.865C74.0473 232.397 73.8038 232.852 73.7718 232.923C72.8426 235.153 72.3556 240.003 74.4126 241.759C74.7622 242.041 75.1673 242.247 75.6015 242.362C76.0356 242.477 76.4892 242.5 76.9328 242.429C77.3763 242.358 77.7999 242.194 78.176 241.948C78.5522 241.703 78.8724 241.381 79.1161 241.003C80.199 239.433 79.962 237.094 79.398 235.377C78.8341 233.659 76.5785 231.103 75.7839 230.218C76.4247 229.513 77.0655 228.802 77.7063 228.149C78.1613 227.706 78.5714 227.251 79.0456 226.835L80.4361 225.585C81.3461 224.823 82.2817 224.028 83.1852 223.304C83.826 222.798 84.422 222.33 85.0307 221.849C84.4412 222.58 83.3134 224.035 83.2365 224.163C81.9549 226.226 80.763 230.949 82.5252 232.999C82.8283 233.331 83.1976 233.594 83.6092 233.774C84.0208 233.953 84.4654 234.043 84.9143 234.04C85.3632 234.036 85.8064 233.938 86.215 233.752C86.6236 233.567 86.9886 233.297 87.2864 232.961C88.6 231.577 88.7154 229.225 88.4206 227.45C88.0938 225.489 85.742 221.965 85.4473 221.523C86.4597 220.741 87.453 219.985 88.395 219.286C91.6438 216.883 94.4442 215.006 96.4307 213.711L95.6104 212.071L95.4823 212.16C93.4958 213.513 90.689 215.486 87.4338 218.011C86.4021 218.799 85.3127 219.671 84.2297 220.574C83.2132 219.657 82.1433 218.801 81.0257 218.011C81.7498 216.089 81.737 212.148 81.7306 211.641C83.0122 211.539 84.2554 211.462 85.428 211.404C89.4587 211.193 92.8293 211.167 95.2003 211.18L94.3032 209.379C91.9835 209.431 88.914 209.54 85.3319 209.802C84.0503 209.898 82.6533 210.02 81.2307 210.161C81.0962 209.661 80.0004 205.56 78.7444 204.016C77.6038 202.619 75.7647 201.158 73.8551 201.228C73.4062 201.23 72.9628 201.326 72.5535 201.51C72.1442 201.695 71.7782 201.963 71.4791 202.297C71.1801 202.632 70.9547 203.026 70.8176 203.453C70.6804 203.881 70.6346 204.332 70.6831 204.778C71.0548 207.457 75.4058 209.661 77.7832 210.078C77.9242 210.078 79.4749 210.2 80.4554 210.244C79.8787 210.309 79.3147 210.36 78.7188 210.43C77.5333 210.558 76.3606 210.725 75.0982 210.898L73.2591 211.218C72.6183 211.315 71.9775 211.488 71.3687 211.622C69.9013 211.962 68.4339 212.378 66.96 212.833C66.8447 211.802 66.3769 208.136 65.4541 206.573C64.5313 205.009 62.9421 203.298 61.0454 203.074C60.6013 203.008 60.1484 203.036 59.7159 203.156C59.2835 203.277 58.8811 203.486 58.5349 203.772C58.1887 204.058 57.9064 204.413 57.7064 204.815C57.5063 205.217 57.3929 205.656 57.3735 206.105C57.3351 208.809 61.3017 211.648 63.5894 212.423C63.7303 212.468 65.4349 212.84 66.3769 213.026C65.4926 213.301 64.6147 213.577 63.7303 213.884C61.1671 214.781 58.6039 215.775 56.0791 216.749L53.7402 217.627C53.7017 217.255 53.2339 212.891 52.2086 211.142C51.2923 209.591 49.6967 207.861 47.7999 207.643C47.3559 207.577 46.9029 207.605 46.4705 207.725C46.038 207.845 45.6356 208.055 45.2894 208.341C44.9432 208.627 44.661 208.982 44.4609 209.384C44.2608 209.786 44.1474 210.225 44.1281 210.674C44.0896 213.378 48.0562 216.217 50.3375 216.986C50.5105 217.043 52.9648 217.575 53.5928 217.678C51.8754 218.319 50.1517 218.959 48.4663 219.491C46.1447 220.239 43.7774 220.836 41.379 221.279C41.379 221.106 40.8984 216.55 39.8411 214.756C38.9247 213.205 37.3291 211.475 35.4323 211.257C34.9883 211.191 34.5354 211.219 34.1029 211.339C33.6704 211.46 33.2681 211.669 32.9219 211.955C32.5757 212.241 32.2934 212.596 32.0934 212.998C31.8933 213.4 31.7799 213.839 31.7605 214.288C31.7221 216.992 35.6887 219.831 37.9763 220.6C38.1237 220.651 39.9949 221.055 40.8856 221.241V221.394C38.4591 221.774 36.0037 221.937 33.5484 221.881C32.2027 221.881 30.9083 221.779 29.6523 221.664C29.6523 220.805 29.6138 216.883 28.8449 215.166C28.0759 213.448 26.7046 211.635 24.8462 211.206C24.4075 211.077 23.9464 211.044 23.4938 211.108C23.0412 211.173 22.6076 211.333 22.2222 211.579C21.8367 211.825 21.5083 212.15 21.2591 212.534C21.0099 212.917 20.8455 213.349 20.7771 213.801C20.4439 216.486 24.0773 219.741 26.2624 220.76C26.3842 220.818 27.653 221.247 28.5885 221.542C28.0246 221.484 27.4351 221.433 26.8968 221.362C24.8655 221.112 23.052 220.754 21.3987 220.427C20.4695 220.228 19.6365 220.036 18.8355 219.844C18.3997 219.004 16.5862 215.634 15.138 214.487C13.6898 213.34 11.6136 212.333 9.76807 212.808C9.33594 212.91 8.92974 213.1 8.57524 213.368C8.22074 213.635 7.92567 213.973 7.70876 214.361C7.49185 214.748 7.35784 215.176 7.31521 215.618C7.27259 216.06 7.32229 216.506 7.46116 216.928V216.928Z" fill="#263238"/>
<path d="M34.9325 182.998C36.6242 181.716 38.8606 177.538 38.867 177.538C38.8734 177.538 35.663 176.897 35.4515 176.897C33.0421 176.737 28.2873 177.833 27.2877 180.345C27.1331 180.767 27.069 181.216 27.0996 181.664C27.1301 182.113 27.2545 182.549 27.4648 182.946C27.6751 183.343 27.9666 183.692 28.3202 183.969C28.6739 184.246 29.0819 184.446 29.5177 184.555C31.3504 185.061 33.4714 184.081 34.9325 182.998Z" fill="#263238"/>
<path d="M59.4433 141.71C59.4881 141.71 57.1236 139.403 56.957 139.281C55.0345 137.814 50.4656 136.077 48.2484 137.647C47.8868 137.914 47.5854 138.254 47.3637 138.645C47.1419 139.035 47.0049 139.468 46.9613 139.916C46.9178 140.363 46.9689 140.814 47.1111 141.24C47.2534 141.666 47.4836 142.058 47.787 142.389C49.0238 143.838 51.3499 144.203 53.1506 144.094C55.2588 143.953 59.4433 141.71 59.4433 141.71Z" fill="#263238"/>
<path d="M51.4141 120.916C49.8377 123.114 51.4781 127.709 52.9135 129.65C53.0417 129.817 55.2845 132.214 55.3102 132.169V132.124C55.5601 132.848 55.842 133.623 56.1624 134.469C56.8032 136.02 57.444 137.763 58.3668 139.596C59.3024 141.6 60.3551 143.547 61.5196 145.427C62.8178 147.54 64.2995 149.534 65.9475 151.387L66.0052 151.444C65.3259 151.047 63.3779 149.99 63.2177 149.919C60.9813 149.016 56.124 148.58 54.3874 150.65C54.1088 151.002 53.9076 151.41 53.7968 151.845C53.6859 152.281 53.668 152.735 53.7442 153.178C53.8203 153.621 53.9888 154.043 54.2388 154.417C54.4887 154.79 54.8144 155.107 55.1948 155.347C56.7776 156.417 59.1101 156.148 60.8211 155.571C62.7435 154.93 65.9475 151.893 66.2103 151.656C67.9372 153.484 69.7825 155.196 71.734 156.782C72.8682 157.718 74.0345 158.628 75.22 159.518C74.6176 159.192 74.0794 158.878 73.9961 158.878C71.7596 157.968 66.9023 157.532 65.1722 159.608C64.8944 159.96 64.6936 160.367 64.583 160.802C64.4723 161.236 64.4541 161.689 64.5296 162.132C64.6051 162.574 64.7726 162.995 65.0213 163.368C65.27 163.742 65.5942 164.059 65.9732 164.299C67.556 165.369 69.8885 165.106 71.5994 164.523C73.3104 163.94 76.1235 161.415 76.854 160.742C77.309 161.076 77.764 161.422 78.2254 161.755C80.4233 163.376 82.6341 164.959 84.7488 166.619C85.4921 167.195 86.2034 167.791 86.9211 168.387C86.3892 168.092 85.9343 167.855 85.8638 167.823C83.6274 166.92 78.7701 166.478 77.0335 168.554C76.756 168.906 76.5557 169.313 76.4455 169.748C76.3353 170.183 76.3176 170.637 76.3938 171.079C76.4699 171.521 76.638 171.942 76.8873 172.315C77.1366 172.688 77.4615 173.005 77.8409 173.244C79.4173 174.315 81.7562 174.052 83.4608 173.469C85.1653 172.886 87.7093 170.604 88.5872 169.803C89.3049 170.444 90.0226 171.085 90.6826 171.726C91.1312 172.174 91.5862 172.578 92.0091 173.052L93.2907 174.43C94.0661 175.334 94.8671 176.256 95.5976 177.16C96.1103 177.801 96.5909 178.384 97.0715 178.986C96.3345 178.403 94.8735 177.288 94.7389 177.211C92.8756 176.192 90.7815 175.669 88.6577 175.692C88.454 175.569 88.2395 175.464 88.0169 175.378C87.6009 175.209 87.154 175.129 86.7051 175.143C86.2562 175.157 85.8153 175.266 85.411 175.462C85.0068 175.658 84.6482 175.936 84.3586 176.279C84.069 176.623 83.8548 177.023 83.7299 177.455C83.0506 180.069 86.229 183.767 88.2732 185.061C88.3886 185.138 89.7855 185.824 90.6762 186.234L88.9973 185.74C87.8567 185.413 86.7096 185.099 85.4729 184.792L83.653 184.388C83.0122 184.234 82.3714 184.157 81.7306 184.036C80.2439 183.792 78.7316 183.619 77.2001 183.472C77.482 182.472 78.4496 178.909 78.1933 177.115C77.937 175.321 77.1232 173.123 75.4571 172.2C75.0721 171.97 74.643 171.823 74.1976 171.769C73.7522 171.715 73.3004 171.755 72.8715 171.887C72.4426 172.018 72.0462 172.239 71.7078 172.533C71.3695 172.828 71.0968 173.19 70.9074 173.597C69.8372 176.083 72.4197 180.216 74.2396 181.806C74.3549 181.902 75.7839 182.895 76.5849 183.427C75.6621 183.35 74.7458 183.267 73.8102 183.215C71.1124 183.068 68.3762 183.01 65.6463 182.933L63.1472 182.857C63.2497 182.498 64.4929 178.288 64.2045 176.276C63.9546 174.494 63.1344 172.29 61.4683 171.361C61.0833 171.13 60.6542 170.983 60.2088 170.929C59.7634 170.875 59.3116 170.915 58.8827 171.047C58.4538 171.179 58.0574 171.399 57.719 171.694C57.3807 171.988 57.108 172.351 56.9186 172.757C55.8484 175.244 58.4309 179.377 60.2508 180.966C60.3853 181.088 62.4487 182.511 62.9934 182.85C61.1607 182.786 59.328 182.703 57.5273 182.549C55.0975 182.358 52.6828 182.006 50.299 181.498C50.3503 181.331 51.6576 176.942 51.3692 174.885C51.1193 173.097 50.2991 170.893 48.633 169.964C48.2473 169.732 47.8173 169.585 47.3709 169.531C46.9245 169.477 46.4717 169.517 46.042 169.649C45.6122 169.782 45.2151 170.003 44.8766 170.299C44.538 170.595 44.2655 170.959 44.0768 171.367C43.0131 173.847 45.5955 177.986 47.409 179.576C47.5308 179.678 49.1071 180.768 49.8633 181.267L49.8056 181.408C47.4185 180.833 45.0875 180.046 42.8401 179.057C41.5969 178.525 40.437 177.948 39.322 177.365C39.6489 176.57 41.1099 172.931 41.0522 171.053C40.9945 169.175 40.4114 166.965 38.8735 165.862C38.5159 165.591 38.1053 165.397 37.6682 165.295C37.2311 165.192 36.7773 165.182 36.3363 165.266C35.8952 165.35 35.4767 165.526 35.1079 165.782C34.7392 166.038 34.4283 166.369 34.1956 166.753C32.8563 169.105 34.971 173.501 36.605 175.276C36.6947 175.378 37.7072 176.256 38.4505 176.891C37.9507 176.622 37.4317 176.346 36.9575 176.077C35.1824 175.071 33.6125 174.039 32.2347 173.11C31.4529 172.578 30.7609 172.078 30.1137 171.61C30.0304 170.662 29.6459 166.856 28.7423 165.241C27.8388 163.626 26.3073 161.902 24.4169 161.64C23.9742 161.563 23.5204 161.581 23.085 161.691C22.6495 161.801 22.2421 162.002 21.8892 162.28C21.5363 162.558 21.2458 162.907 21.0365 163.304C20.8273 163.702 20.704 164.139 20.6746 164.587C20.5721 167.291 24.4746 170.213 26.743 171.04C26.9417 171.111 30.1329 171.873 30.1329 171.828V171.771C30.7737 172.238 31.4145 172.732 32.1386 173.251C33.5035 174.212 35.0479 175.282 36.8165 176.333C38.7022 177.49 40.6559 178.532 42.667 179.454C44.9103 180.505 47.2437 181.353 49.639 181.985H49.7287C48.9341 182.024 46.7298 182.216 46.5631 182.248C44.1922 182.728 39.8988 185.042 39.5976 187.727C39.5597 188.174 39.6165 188.625 39.7641 189.049C39.9118 189.474 40.1471 189.862 40.4547 190.19C40.7622 190.518 41.1353 190.777 41.5496 190.951C41.9638 191.125 42.4101 191.21 42.8593 191.2C44.7817 191.2 46.5696 189.713 47.6717 188.284C48.9534 186.676 49.9338 182.382 50.0107 182.043C52.4636 182.635 54.9533 183.064 57.4633 183.324C58.9243 183.485 60.4046 183.594 61.8848 183.69L60.5071 183.818C58.1425 184.298 53.8491 186.612 53.5415 189.297C53.5037 189.744 53.5604 190.195 53.7081 190.619C53.8557 191.044 54.091 191.432 54.3986 191.76C54.7062 192.087 55.0792 192.347 55.4935 192.521C55.9078 192.695 56.354 192.78 56.8032 192.77C58.7256 192.77 60.5135 191.283 61.6221 189.854C62.7307 188.425 63.6791 184.766 63.9098 183.799L65.6207 183.895C68.3506 184.023 71.074 184.145 73.7397 184.343C74.6817 184.414 75.6045 184.516 76.5272 184.619C75.9249 184.67 75.4122 184.721 75.3353 184.734C72.9708 185.215 68.6774 187.528 68.3762 190.213C68.3383 190.661 68.3951 191.111 68.5427 191.536C68.6904 191.96 68.9257 192.349 69.2332 192.676C69.5408 193.004 69.9139 193.263 70.3282 193.437C70.7424 193.611 71.1887 193.696 71.6379 193.686C73.5603 193.686 75.3482 192.2 76.4503 190.771C77.5525 189.342 78.4112 186.035 78.6996 184.888C79.6416 185.023 80.622 185.151 81.4935 185.317C82.1343 185.452 82.7174 185.529 83.3326 185.695L85.1461 186.144C86.2867 186.471 87.4658 186.785 88.5744 187.15C89.3434 187.381 90.0739 187.624 90.8108 187.861C89.8752 187.778 88.0425 187.663 87.8887 187.669C85.4793 187.778 80.8847 189.418 80.1991 192.027C80.0937 192.463 80.0814 192.918 80.163 193.36C80.2445 193.801 80.4182 194.221 80.6726 194.592C80.927 194.962 81.2566 195.275 81.6398 195.51C82.0229 195.745 82.4513 195.896 82.8969 195.955C84.7808 196.262 86.7929 195.045 88.1002 193.802C89.542 192.43 91.144 188.515 91.3427 188.034C92.5602 188.432 93.7393 188.829 94.8479 189.226C98.6543 190.572 101.781 191.834 103.967 192.757L104.87 191.161L104.723 191.104C102.486 190.213 99.2758 188.996 95.3669 187.707C94.1302 187.297 92.8037 186.887 91.4388 186.477C91.6184 185.126 91.719 183.765 91.74 182.402C93.7265 181.934 96.9946 179.71 97.4175 179.415C98.2121 180.422 98.9747 181.408 99.686 182.344C102.121 185.548 104.024 188.348 105.344 190.322L106.331 188.566C104.992 186.644 103.185 184.189 100.955 181.37C100.147 180.345 99.2694 179.268 98.3531 178.166C98.6991 177.775 101.48 174.565 102.051 172.661C102.57 170.931 102.755 168.592 101.628 167.048C101.375 166.676 101.047 166.362 100.664 166.125C100.282 165.889 99.8545 165.735 99.4091 165.675C98.9636 165.614 98.5105 165.648 98.0791 165.775C97.6476 165.901 97.2476 166.116 96.9049 166.407C94.8991 168.214 95.5079 173.052 96.4948 175.257C96.5524 175.385 97.3406 176.724 97.8533 177.564C97.4752 177.115 97.1163 176.679 96.7254 176.224C95.9565 175.321 95.1619 174.436 94.3096 173.488L93.028 172.142C92.6051 171.687 92.0988 171.252 91.631 170.803C90.5288 169.778 89.3626 168.797 88.1643 167.83C88.9525 167.157 91.7271 164.715 92.5025 163.081C93.2779 161.447 93.7841 159.16 92.9319 157.468C92.738 157.063 92.4611 156.703 92.1191 156.412C91.7772 156.121 91.3779 155.905 90.9471 155.778C90.5162 155.651 90.0635 155.616 89.6184 155.675C89.1732 155.735 88.7455 155.887 88.3629 156.122C86.1009 157.609 85.9727 162.479 86.6135 164.811C86.6584 164.952 87.3056 166.574 87.6773 167.452C86.9531 166.881 86.2354 166.305 85.4793 165.747C83.307 164.139 81.0641 162.581 78.8277 161.012L76.7836 159.563C77.0719 159.326 80.4297 156.494 81.2692 154.661C82.0446 153.033 82.5508 150.746 81.6921 149.054C81.4981 148.65 81.2215 148.291 80.88 148C80.5386 147.71 80.14 147.494 79.7099 147.367C79.2799 147.24 78.828 147.205 78.3836 147.264C77.9391 147.323 77.5119 147.474 77.1296 147.708C74.8676 149.189 74.7394 154.065 75.3802 156.391C75.425 156.564 76.3606 158.897 76.6298 159.474C75.1367 158.41 73.6564 157.333 72.2402 156.212C70.3179 154.71 68.4962 153.083 66.787 151.342C66.9216 151.233 70.4396 148.298 71.3303 146.42C72.1057 144.793 72.6119 142.499 71.7596 140.807C71.5657 140.402 71.2888 140.042 70.9469 139.751C70.605 139.46 70.2056 139.244 69.7748 139.117C69.344 138.99 68.8913 138.955 68.4461 139.014C68.001 139.074 67.5732 139.226 67.1907 139.461C64.9286 140.948 64.8005 145.818 65.4413 148.151C65.4797 148.298 66.191 150.073 66.5499 150.912L66.4217 150.996C64.759 149.196 63.258 147.253 61.9361 145.19C61.1927 144.062 60.5455 142.947 59.9368 141.839C60.6481 141.364 63.8713 139.134 64.8646 137.532C65.8578 135.93 66.5947 133.784 65.9091 132.002C65.7609 131.578 65.5251 131.19 65.217 130.862C64.9089 130.535 64.5355 130.277 64.1209 130.103C63.7063 129.93 63.2599 129.845 62.8107 129.856C62.3614 129.866 61.9193 129.971 61.5132 130.163C59.1037 131.387 58.4373 136.219 58.8218 138.603C58.8218 138.731 59.1998 140.025 59.4626 140.967C59.1934 140.467 58.9115 139.955 58.6616 139.468C57.7388 137.641 57.0019 135.918 56.3611 134.386C56.0022 133.508 55.7203 132.707 55.4191 131.957C55.8741 131.124 57.6491 127.734 57.7901 125.895C57.931 124.056 57.5978 121.769 56.1688 120.506C55.8406 120.198 55.4511 119.962 55.0257 119.815C54.6003 119.667 54.1485 119.611 53.6998 119.649C53.2512 119.688 52.8158 119.821 52.4219 120.039C52.028 120.257 51.6846 120.556 51.4141 120.916V120.916Z" fill="#263238"/>
<path d="M258.394 181.318C256.703 180.037 254.46 175.865 254.46 175.859C254.46 175.852 257.664 175.218 257.875 175.218C260.285 175.051 265.033 176.154 266.039 178.666C266.193 179.087 266.256 179.536 266.225 179.984C266.194 180.431 266.069 180.867 265.859 181.263C265.649 181.66 265.358 182.007 265.005 182.284C264.651 182.561 264.244 182.76 263.809 182.869C261.97 183.382 259.836 182.401 258.394 181.318Z" fill="#263238"/>
<path d="M233.877 140.031C233.839 140.031 236.203 137.731 236.37 137.603C238.292 136.135 242.855 134.399 245.078 135.975C245.44 136.242 245.741 136.582 245.963 136.972C246.185 137.363 246.322 137.796 246.365 138.243C246.409 138.691 246.358 139.142 246.216 139.568C246.073 139.994 245.843 140.386 245.54 140.717C244.297 142.165 241.977 142.524 240.176 142.415C238.062 142.287 233.883 140.038 233.877 140.031Z" fill="#263238"/>
<path d="M241.894 119.244C243.463 121.442 241.829 126.03 240.388 127.971C240.266 128.138 238.023 130.535 237.997 130.496V130.445C237.741 131.175 237.466 131.951 237.139 132.79C236.498 134.341 235.857 136.09 234.941 137.917C234.002 139.922 232.947 141.871 231.782 143.754C230.489 145.867 229.009 147.86 227.36 149.708C227.34 149.731 227.319 149.752 227.296 149.772C227.982 149.368 229.93 148.311 230.083 148.247C232.32 147.337 237.177 146.901 238.914 148.977C239.191 149.33 239.392 149.737 239.502 150.172C239.612 150.607 239.63 151.06 239.553 151.502C239.477 151.944 239.309 152.365 239.06 152.739C238.811 153.112 238.486 153.428 238.106 153.668C236.53 154.738 234.191 154.475 232.486 153.892C230.564 153.251 227.36 150.22 227.091 149.977C225.367 151.818 223.524 153.543 221.574 155.142C220.439 156.077 219.267 156.981 218.081 157.878C218.684 157.551 219.228 157.237 219.305 157.237C221.542 156.327 226.399 155.891 228.135 157.961C228.414 158.314 228.615 158.721 228.726 159.157C228.837 159.593 228.855 160.047 228.779 160.49C228.702 160.933 228.534 161.355 228.284 161.728C228.034 162.102 227.708 162.419 227.328 162.658C225.752 163.728 223.413 163.466 221.708 162.883C220.004 162.299 217.184 159.775 216.454 159.095C215.992 159.435 215.544 159.781 215.082 160.114C212.878 161.729 210.673 163.318 208.559 164.972C207.809 165.555 207.098 166.151 206.38 166.74C206.918 166.452 207.367 166.208 207.444 166.183C209.68 165.273 214.537 164.837 216.274 166.907C216.553 167.26 216.754 167.667 216.865 168.103C216.976 168.538 216.993 168.992 216.917 169.435C216.841 169.878 216.673 170.3 216.423 170.674C216.173 171.048 215.847 171.364 215.467 171.604C213.884 172.674 211.551 172.411 209.84 171.828C208.129 171.245 205.592 168.964 204.714 168.163C204.003 168.804 203.285 169.444 202.619 170.085C202.176 170.534 201.721 170.937 201.298 171.412C200.876 171.886 200.453 172.334 200.017 172.783C199.248 173.687 198.447 174.616 197.71 175.513C197.197 176.154 196.723 176.737 196.236 177.346C196.973 176.756 198.44 175.647 198.569 175.571C200.435 174.551 202.53 174.026 204.656 174.045C204.859 173.922 205.074 173.819 205.297 173.738C205.713 173.568 206.159 173.488 206.608 173.502C207.056 173.516 207.497 173.624 207.901 173.819C208.305 174.014 208.664 174.292 208.954 174.634C209.244 174.977 209.458 175.377 209.584 175.808C210.263 178.429 207.085 182.126 205.047 183.42C204.925 183.497 203.528 184.177 202.638 184.593C203.202 184.426 203.74 184.26 204.317 184.1C205.464 183.766 206.611 183.459 207.841 183.151L209.667 182.741C210.27 182.594 210.949 182.517 211.59 182.395C213.07 182.152 214.589 181.972 216.12 181.831C215.832 180.832 214.839 177.269 215.121 175.474C215.403 173.68 216.191 171.482 217.863 170.553C218.249 170.323 218.678 170.176 219.124 170.123C219.57 170.069 220.022 170.11 220.45 170.242C220.879 170.374 221.276 170.595 221.614 170.891C221.952 171.186 222.224 171.549 222.413 171.956C223.477 174.436 220.901 178.576 219.081 180.165C218.965 180.261 217.53 181.254 216.735 181.786C217.658 181.703 218.575 181.62 219.51 181.568C222.208 181.427 224.944 181.363 227.668 181.293C228.507 181.293 229.34 181.242 230.173 181.21C230.064 180.857 228.827 176.641 229.109 174.635C229.366 172.847 230.18 170.643 231.852 169.714C232.237 169.483 232.667 169.337 233.113 169.283C233.558 169.23 234.01 169.27 234.439 169.403C234.868 169.535 235.265 169.756 235.603 170.051C235.941 170.347 236.213 170.71 236.402 171.117C237.472 173.597 234.89 177.736 233.07 179.326C232.929 179.441 230.865 180.87 230.321 181.203C232.16 181.139 233.986 181.062 235.787 180.908C238.217 180.708 240.631 180.35 243.015 179.838C242.964 179.678 241.65 175.282 241.938 173.225C242.195 171.444 243.009 169.239 244.681 168.31C245.066 168.08 245.495 167.933 245.941 167.879C246.386 167.825 246.838 167.865 247.267 167.997C247.695 168.128 248.092 168.349 248.43 168.643C248.769 168.938 249.041 169.3 249.231 169.707C250.301 172.193 247.718 176.327 245.899 177.916C245.777 178.025 244.207 179.108 243.444 179.608C243.468 179.653 243.49 179.7 243.508 179.749C245.895 179.173 248.227 178.386 250.474 177.397C251.717 176.871 252.877 176.295 253.992 175.711C253.659 174.917 252.198 171.277 252.255 169.393C252.313 167.509 252.896 165.311 254.44 164.209C254.798 163.937 255.209 163.744 255.646 163.641C256.083 163.539 256.537 163.529 256.978 163.613C257.419 163.697 257.837 163.873 258.206 164.129C258.575 164.385 258.886 164.716 259.118 165.1C260.451 167.451 258.337 171.847 256.709 173.622C256.619 173.719 255.607 174.603 254.857 175.237C255.357 174.962 255.876 174.693 256.35 174.423C258.132 173.411 259.695 172.379 261.079 171.457C261.855 170.918 262.553 170.425 263.2 169.951C263.284 169.002 263.668 165.196 264.565 163.581C265.462 161.966 267.007 160.249 268.897 159.986C269.339 159.91 269.793 159.927 270.228 160.037C270.663 160.147 271.07 160.347 271.423 160.624C271.775 160.902 272.066 161.25 272.276 161.647C272.485 162.043 272.609 162.48 272.639 162.927C272.736 165.632 268.839 168.56 266.565 169.387C266.372 169.457 263.175 170.22 263.181 170.169C263.179 170.149 263.179 170.13 263.181 170.111C262.54 170.579 261.899 171.072 261.169 171.598C259.81 172.559 258.26 173.629 256.497 174.68C254.607 175.829 252.654 176.871 250.647 177.801C248.397 178.851 246.057 179.698 243.656 180.332C243.628 180.335 243.6 180.335 243.572 180.332C244.361 180.377 246.571 180.569 246.738 180.601C249.103 181.075 253.396 183.395 253.697 186.08C253.734 186.526 253.677 186.976 253.529 187.399C253.381 187.822 253.146 188.21 252.84 188.536C252.533 188.863 252.161 189.122 251.748 189.296C251.335 189.47 250.89 189.555 250.442 189.546C248.519 189.546 246.725 188.06 245.623 186.637C244.38 185.029 243.367 180.735 243.284 180.389C240.832 180.986 238.342 181.414 235.831 181.671C234.37 181.825 232.897 181.94 231.416 182.03C232.096 182.088 232.698 182.145 232.794 182.164C235.159 182.639 239.452 184.958 239.753 187.643C239.79 188.091 239.733 188.54 239.585 188.964C239.436 189.388 239.201 189.775 238.894 190.102C238.586 190.429 238.213 190.688 237.8 190.861C237.386 191.035 236.94 191.12 236.492 191.11C234.569 191.11 232.781 189.623 231.679 188.201C230.577 186.778 229.622 183.106 229.385 182.139C228.815 182.171 228.251 182.209 227.68 182.235C224.951 182.369 222.227 182.491 219.555 182.69C218.619 182.76 217.69 182.863 216.768 182.965C217.408 183.017 217.883 183.062 217.959 183.081C220.33 183.555 224.624 185.875 224.925 188.56C224.962 189.007 224.904 189.457 224.756 189.88C224.608 190.304 224.373 190.692 224.065 191.019C223.758 191.345 223.385 191.604 222.971 191.778C222.558 191.951 222.112 192.036 221.663 192.026C219.741 192.026 217.953 190.54 216.851 189.117C215.749 187.695 214.884 184.382 214.602 183.235C213.653 183.363 212.711 183.491 211.801 183.664C211.16 183.792 210.577 183.875 209.969 184.042L208.155 184.491C207.014 184.817 205.829 185.131 204.727 185.49C203.951 185.727 203.221 185.964 202.484 186.201C203.42 186.125 205.259 186.003 205.412 186.009C207.822 186.125 212.416 187.759 213.102 190.373C213.206 190.81 213.218 191.263 213.136 191.704C213.054 192.145 212.88 192.564 212.626 192.934C212.371 193.304 212.042 193.616 211.66 193.85C211.277 194.085 210.849 194.236 210.404 194.295C208.52 194.609 206.515 193.385 205.201 192.148C203.766 190.777 202.157 186.855 201.965 186.381C200.747 186.785 199.562 187.182 198.46 187.573C194.647 188.919 191.526 190.187 189.341 191.104L188.437 189.508L188.585 189.45C190.821 188.566 194.025 187.349 197.941 186.061C199.171 185.65 200.504 185.234 201.869 184.824C201.689 183.472 201.586 182.111 201.561 180.748C199.581 180.28 196.307 178.057 195.89 177.768C195.089 178.775 194.326 179.755 193.622 180.697C191.187 183.901 189.277 186.695 187.963 188.669L186.989 186.887C188.329 184.965 190.136 182.504 192.366 179.684C193.167 178.659 194.051 177.583 194.961 176.48C194.621 176.09 191.834 172.886 191.263 170.976C190.744 169.252 190.565 166.907 191.693 165.369C191.946 164.998 192.273 164.685 192.655 164.449C193.037 164.213 193.464 164.06 193.908 163.999C194.353 163.939 194.805 163.973 195.236 164.098C195.667 164.224 196.067 164.438 196.409 164.728C198.421 166.535 197.812 171.373 196.826 173.578C196.762 173.712 195.973 175.051 195.461 175.884C195.839 175.442 196.198 175 196.589 174.545C197.364 173.642 198.158 172.764 199.011 171.815C199.434 171.367 199.869 170.918 200.292 170.47C200.715 170.021 201.215 169.579 201.683 169.13C202.785 168.105 203.951 167.118 205.15 166.157C204.362 165.484 201.593 163.043 200.811 161.402C200.03 159.762 199.53 157.487 200.382 155.795C200.576 155.39 200.853 155.03 201.195 154.739C201.537 154.448 201.936 154.232 202.367 154.105C202.798 153.978 203.25 153.943 203.696 154.003C204.141 154.062 204.569 154.214 204.951 154.45C207.213 155.93 207.341 160.806 206.7 163.132C206.662 163.28 206.015 164.895 205.637 165.779C206.367 165.202 207.085 164.626 207.835 164.074C210.007 162.466 212.256 160.902 214.493 159.339C215.178 158.858 215.851 158.371 216.53 157.891C216.248 157.647 212.891 154.821 212.045 152.989C211.269 151.361 210.763 149.067 211.615 147.375C211.809 146.97 212.086 146.61 212.428 146.319C212.77 146.028 213.169 145.812 213.6 145.685C214.031 145.558 214.484 145.523 214.929 145.582C215.374 145.642 215.802 145.794 216.184 146.029C218.446 147.516 218.575 152.386 217.934 154.719C217.883 154.892 216.947 157.218 216.652 157.801C218.152 156.731 219.632 155.654 221.048 154.539C222.968 153.034 224.789 151.407 226.501 149.669C226.367 149.56 222.849 146.619 221.958 144.741C221.183 143.114 220.644 140.826 221.529 139.134C221.723 138.729 221.999 138.369 222.341 138.078C222.683 137.787 223.083 137.571 223.514 137.444C223.944 137.317 224.397 137.282 224.842 137.342C225.287 137.401 225.715 137.553 226.098 137.789C228.36 139.269 228.488 144.145 227.847 146.472C227.802 146.625 227.091 148.394 226.732 149.233L226.86 149.317C228.527 147.522 230.028 145.581 231.346 143.517C232.089 142.39 232.743 141.268 233.352 140.166C232.64 139.685 229.411 137.455 228.424 135.853C227.437 134.251 226.687 132.105 227.379 130.323C227.527 129.899 227.763 129.511 228.071 129.183C228.379 128.856 228.753 128.598 229.167 128.424C229.582 128.251 230.028 128.166 230.478 128.177C230.927 128.187 231.369 128.292 231.775 128.484C234.185 129.714 234.845 134.546 234.467 136.93C234.467 137.058 234.088 138.352 233.826 139.294C234.088 138.788 234.377 138.276 234.62 137.789C235.55 135.969 236.286 134.245 236.927 132.707C237.28 131.835 237.568 131.034 237.863 130.285C237.414 129.452 235.633 126.062 235.492 124.216C235.351 122.371 235.684 120.09 237.12 118.827C237.448 118.516 237.84 118.278 238.267 118.129C238.695 117.98 239.149 117.923 239.6 117.963C240.051 118.002 240.489 118.136 240.884 118.357C241.279 118.578 241.623 118.88 241.894 119.244V119.244Z" fill="#263238"/>
<path d="M277.618 218.069C275.875 219.35 273.53 223.541 273.53 223.548C273.53 223.554 276.773 224.252 276.984 224.265C279.432 224.477 284.276 223.439 285.314 220.901C285.478 220.476 285.551 220.021 285.527 219.566C285.504 219.111 285.385 218.666 285.178 218.26C284.972 217.854 284.682 217.495 284.328 217.209C283.974 216.922 283.563 216.713 283.123 216.595C281.303 216.031 279.118 217.005 277.618 218.069Z" fill="#263238"/>
<path d="M252.05 259.593C252.006 259.593 254.37 261.97 254.537 262.098C256.459 263.617 261.073 265.424 263.354 263.899C263.727 263.635 264.039 263.296 264.271 262.903C264.504 262.51 264.651 262.073 264.703 261.619C264.755 261.166 264.71 260.706 264.573 260.271C264.436 259.836 264.208 259.434 263.905 259.093C262.669 257.6 260.317 257.171 258.484 257.273C256.337 257.376 252.057 259.586 252.05 259.593Z" fill="#263238"/>
<path d="M259.843 280.842C261.477 278.631 259.887 273.941 258.465 271.948C258.337 271.775 256.1 269.301 256.075 269.346L256.043 269.397C255.799 268.654 255.53 267.859 255.216 267.001C254.626 265.411 253.934 263.63 253.069 261.733C252.147 259.684 251.107 257.69 249.955 255.761C248.677 253.592 247.208 251.542 245.565 249.635L245.501 249.571C246.187 249.987 248.148 251.096 248.308 251.166C250.564 252.121 255.491 252.647 257.279 250.57C257.568 250.217 257.778 249.807 257.898 249.367C258.018 248.927 258.044 248.467 257.975 248.016C257.905 247.566 257.742 247.134 257.495 246.751C257.248 246.367 256.924 246.04 256.542 245.79C254.953 244.675 252.576 244.906 250.833 245.47C248.866 246.11 245.553 249.116 245.29 249.359C243.572 247.459 241.729 245.676 239.772 244.021C238.632 243.054 237.459 242.099 236.274 241.183C236.876 241.529 237.421 241.823 237.504 241.862C239.76 242.823 244.687 243.349 246.475 241.272C246.765 240.919 246.976 240.51 247.097 240.069C247.217 239.629 247.243 239.169 247.174 238.718C247.104 238.267 246.94 237.835 246.693 237.452C246.446 237.068 246.121 236.741 245.738 236.492C244.149 235.377 241.772 235.608 240.029 236.165C238.286 236.723 235.383 239.254 234.633 239.927C234.172 239.574 233.717 239.215 233.255 238.869C231.045 237.19 228.834 235.524 226.713 233.826C225.963 233.224 225.245 232.609 224.528 231.993C225.066 232.295 225.527 232.551 225.598 232.583C227.853 233.538 232.781 234.063 234.569 231.987C234.857 231.634 235.068 231.224 235.188 230.784C235.308 230.344 235.334 229.884 235.264 229.433C235.195 228.982 235.032 228.551 234.785 228.168C234.538 227.784 234.214 227.457 233.832 227.207C232.243 226.092 229.866 226.322 228.123 226.886C226.38 227.45 223.759 229.725 222.862 230.52C222.144 229.879 221.426 229.238 220.766 228.552C220.324 228.091 219.863 227.674 219.446 227.187L218.164 225.771C217.396 224.842 216.595 223.887 215.864 222.958C215.351 222.317 214.877 221.676 214.397 221.08C215.133 221.683 216.601 222.836 216.735 222.92C218.613 223.982 220.73 224.549 222.887 224.566C223.09 224.694 223.304 224.802 223.528 224.887C223.947 225.067 224.4 225.157 224.856 225.151C225.312 225.145 225.762 225.042 226.176 224.851C226.59 224.659 226.959 224.382 227.259 224.039C227.559 223.695 227.784 223.292 227.918 222.856C228.648 220.209 225.483 216.403 223.432 215.051C223.31 214.974 221.9 214.256 221.01 213.82L222.708 214.352C223.861 214.704 225.021 215.025 226.271 215.371L228.11 215.813C228.751 215.98 229.391 216.069 230.032 216.204C231.538 216.473 233.07 216.678 234.627 216.845C234.319 217.857 233.275 221.459 233.505 223.285C233.736 225.111 234.524 227.354 236.203 228.322C236.59 228.563 237.023 228.721 237.475 228.784C237.927 228.847 238.387 228.815 238.825 228.688C239.263 228.562 239.67 228.345 240.019 228.051C240.367 227.757 240.65 227.393 240.849 226.982C241.977 224.477 239.426 220.228 237.6 218.588C237.491 218.485 236.049 217.454 235.248 216.902C236.184 216.999 237.113 217.095 238.062 217.165C240.798 217.351 243.579 217.46 246.347 217.582L248.91 217.71C248.801 218.069 247.469 222.324 247.725 224.368C247.949 226.188 248.744 228.437 250.423 229.411C250.81 229.651 251.244 229.808 251.696 229.87C252.147 229.932 252.607 229.899 253.045 229.772C253.483 229.645 253.889 229.428 254.238 229.134C254.587 228.84 254.87 228.476 255.069 228.065C256.196 225.56 253.646 221.311 251.826 219.671C251.685 219.549 249.615 218.069 249.064 217.716C250.929 217.812 252.787 217.921 254.614 218.107C257.078 218.347 259.525 218.745 261.938 219.299C261.887 219.466 260.477 223.906 260.74 226.002C260.964 227.815 261.759 230.071 263.437 231.039C263.825 231.28 264.258 231.437 264.71 231.5C265.162 231.563 265.622 231.53 266.061 231.403C266.499 231.276 266.906 231.058 267.254 230.763C267.603 230.469 267.885 230.104 268.083 229.693C269.211 227.187 266.661 222.945 264.834 221.298C264.719 221.196 263.136 220.062 262.374 219.543C262.398 219.497 262.419 219.45 262.438 219.402C264.858 220.022 267.218 220.861 269.487 221.907C270.768 222.465 271.909 223.067 273.03 223.682C272.684 224.477 271.14 228.168 271.166 230.09C271.191 232.013 271.736 234.243 273.293 235.396C273.652 235.678 274.066 235.881 274.508 235.993C274.95 236.105 275.411 236.122 275.861 236.044C276.31 235.966 276.739 235.795 277.118 235.541C277.496 235.287 277.818 234.956 278.061 234.569C279.458 232.198 277.381 227.7 275.754 225.867C275.664 225.771 274.652 224.855 273.908 224.201C274.408 224.483 274.933 224.772 275.408 225.053C277.196 226.104 278.772 227.181 280.156 228.142C280.944 228.7 281.636 229.212 282.29 229.706C282.354 230.667 282.681 234.544 283.572 236.197C284.462 237.85 285.994 239.625 287.903 239.92C288.351 240.006 288.812 239.997 289.257 239.893C289.701 239.789 290.118 239.592 290.481 239.316C290.843 239.039 291.144 238.689 291.362 238.289C291.581 237.888 291.712 237.446 291.748 236.992C291.896 234.249 287.987 231.224 285.693 230.334C285.494 230.263 282.264 229.43 282.264 229.481V229.539C281.624 229.059 280.983 228.546 280.252 228.001C278.881 227.002 277.324 225.893 275.555 224.797C273.653 223.597 271.685 222.506 269.66 221.529C267.394 220.428 265.035 219.532 262.611 218.85H262.521C263.322 218.85 265.571 218.665 265.725 218.639C268.141 218.19 272.537 215.909 272.889 213.186C272.935 212.732 272.885 212.274 272.742 211.84C272.599 211.407 272.366 211.009 272.059 210.672C271.752 210.334 271.378 210.066 270.96 209.883C270.542 209.7 270.09 209.607 269.634 209.61C267.712 209.552 265.84 211.058 264.7 212.487C263.418 214.102 262.303 218.44 262.22 218.786C259.737 218.155 257.216 217.688 254.671 217.389C253.191 217.204 251.691 217.069 250.186 216.947L251.583 216.838C253.998 216.39 258.394 214.109 258.747 211.385C258.793 210.931 258.742 210.473 258.599 210.04C258.456 209.607 258.224 209.208 257.917 208.871C257.61 208.534 257.235 208.265 256.817 208.082C256.399 207.899 255.948 207.806 255.491 207.809C253.569 207.752 251.698 209.258 250.551 210.687C249.404 212.116 248.379 215.813 248.122 216.8L246.392 216.678C243.624 216.499 240.855 216.326 238.151 216.082C237.196 215.992 236.261 215.871 235.325 215.755C235.966 215.711 236.46 215.672 236.536 215.659C238.952 215.211 243.348 212.929 243.701 210.206C243.747 209.752 243.696 209.294 243.553 208.861C243.41 208.427 243.178 208.029 242.871 207.692C242.564 207.355 242.189 207.086 241.771 206.903C241.353 206.72 240.901 206.627 240.445 206.63C238.523 206.579 236.652 208.079 235.505 209.508C234.358 210.937 233.435 214.288 233.127 215.448C232.166 215.294 231.205 215.147 230.289 214.961C229.648 214.82 229.052 214.724 228.437 214.551L226.598 214.064C225.444 213.711 224.252 213.359 223.131 212.987C222.355 212.737 221.618 212.481 220.869 212.225C221.817 212.327 223.682 212.474 223.836 212.468C226.29 212.398 230.981 210.808 231.743 208.168C231.858 207.727 231.878 207.266 231.803 206.816C231.728 206.366 231.558 205.937 231.306 205.557C231.054 205.176 230.725 204.854 230.34 204.609C229.955 204.365 229.522 204.204 229.071 204.138C227.149 203.792 225.098 204.996 223.752 206.239C222.266 207.604 220.548 211.558 220.362 212.058C219.132 211.629 217.94 211.206 216.819 210.776C212.974 209.347 209.828 208.008 207.617 207.034L206.675 208.642L206.829 208.707C209.078 209.642 212.32 210.93 216.268 212.308C217.517 212.744 218.831 213.186 220.241 213.622C220.035 214.991 219.908 216.371 219.863 217.755C217.838 218.197 214.48 220.401 214.051 220.69C213.256 219.658 212.5 218.645 211.795 217.678C209.379 214.365 207.482 211.513 206.181 209.488L205.207 211.238C206.534 213.16 208.328 215.723 210.545 218.639C211.346 219.69 212.224 220.799 213.109 221.933C212.75 222.324 209.872 225.534 209.264 227.457C208.713 229.206 208.488 231.583 209.61 233.166C209.86 233.547 210.188 233.871 210.572 234.118C210.956 234.364 211.388 234.526 211.838 234.594C212.289 234.663 212.75 234.635 213.189 234.514C213.629 234.393 214.038 234.18 214.39 233.89C216.46 232.09 215.922 227.162 214.954 224.919C214.896 224.791 214.121 223.413 213.615 222.554C213.986 223.016 214.345 223.464 214.736 223.932C215.505 224.868 216.293 225.771 217.146 226.752L218.427 228.142C218.844 228.61 219.35 229.059 219.818 229.526C220.92 230.584 222.093 231.603 223.291 232.602C222.477 233.275 219.619 235.704 218.805 237.357C217.991 239.01 217.408 241.311 218.273 243.047C218.464 243.462 218.739 243.832 219.082 244.134C219.424 244.435 219.827 244.661 220.262 244.797C220.698 244.933 221.157 244.976 221.611 244.923C222.064 244.87 222.501 244.722 222.894 244.489C225.213 243.022 225.457 238.081 224.816 235.697C224.778 235.55 224.175 233.89 223.778 232.993C224.508 233.589 225.226 234.185 225.982 234.762C228.161 236.434 230.417 238.055 232.66 239.683C233.352 240.177 234.031 240.683 234.71 241.189C234.415 241.426 230.961 244.239 230.045 246.091C229.231 247.732 228.648 250.045 229.52 251.782C229.709 252.196 229.984 252.566 230.326 252.868C230.668 253.169 231.07 253.395 231.505 253.531C231.94 253.667 232.399 253.71 232.852 253.657C233.305 253.604 233.741 253.456 234.133 253.223C236.453 251.756 236.665 246.815 236.056 244.431C236.011 244.252 235.095 241.868 234.832 241.279C236.338 242.387 237.824 243.502 239.241 244.662C241.166 246.221 242.987 247.904 244.694 249.699C244.559 249.808 240.939 252.736 240.003 254.627C239.189 256.267 238.606 258.587 239.471 260.317C239.662 260.732 239.937 261.102 240.28 261.404C240.622 261.705 241.025 261.931 241.46 262.067C241.896 262.203 242.355 262.246 242.809 262.193C243.262 262.14 243.699 261.992 244.092 261.759C246.411 260.291 246.623 255.351 246.014 252.967C245.975 252.813 245.283 251 244.937 250.147L245.066 250.064C246.736 251.914 248.238 253.911 249.551 256.03C250.288 257.19 250.929 258.337 251.525 259.465C250.794 259.939 247.481 262.15 246.45 263.758C245.418 265.367 244.63 267.539 245.303 269.359C245.447 269.791 245.68 270.188 245.987 270.524C246.295 270.86 246.67 271.127 247.088 271.308C247.505 271.49 247.957 271.581 248.412 271.576C248.867 271.572 249.317 271.471 249.731 271.281C252.198 270.077 252.935 265.181 252.608 262.752C252.608 262.624 252.249 261.304 251.967 260.343C252.23 260.855 252.505 261.381 252.749 261.881C253.659 263.745 254.383 265.514 255.004 267.078C255.35 267.975 255.645 268.789 255.921 269.557C255.447 270.397 253.582 273.812 253.409 275.677C253.236 277.542 253.537 279.874 254.972 281.182C255.301 281.507 255.695 281.758 256.128 281.919C256.561 282.08 257.023 282.146 257.484 282.114C257.945 282.082 258.394 281.952 258.801 281.732C259.207 281.513 259.563 281.21 259.843 280.842V280.842Z" fill="#263238"/>
<path d="M228.385 21.8088H69.3757V269.775H228.385V21.8088Z" fill="white" stroke="#263238" stroke-miterlimit="10"/>
<path d="M224.47 27.9097H73.2845V263.675H224.47V27.9097Z" fill="#263238" stroke="#263238" stroke-miterlimit="10"/>
<path d="M216.05 34.5227H81.7048V207.97H216.05V34.5227Z" fill="white" stroke="#263238" stroke-miterlimit="10"/>
<path d="M155.931 111.07C155.931 111.07 153.928 124.797 155.931 127.378C157.934 129.958 162.509 131.953 169.088 133.956C175.667 135.959 179.957 131.661 186.243 138.817C192.529 145.973 197.69 164.269 201.118 169.992C204.547 175.716 208.56 184.582 209.452 191.191C210.345 197.799 207.449 201.482 201.726 202.345C196.003 203.208 185.973 189.188 184.856 187.185C183.738 185.182 178.24 178.581 178.24 178.581C178.24 178.581 175.089 201.753 175.089 202.893C175.089 204.033 175.374 207.754 175.374 207.754H93.0028C93.0028 207.754 99.2964 173.435 101.007 161.418C102.717 149.401 101.869 141.397 108.733 137.107C115.597 132.816 121.89 133.964 126.466 132.531C131.042 131.098 133.9 129.958 134.192 127.385C134.485 124.812 134.477 112.795 134.477 112.795L155.931 111.07Z" fill="#89CBFB" stroke="#263238" stroke-linecap="round" stroke-linejoin="round"/>
<path d="M197.45 180.914C200.166 181.796 202.829 182.836 205.424 184.027C209.122 185.775 210.487 190.028 209.925 195.317C209.362 200.605 205.642 204.663 200.173 203.103C194.705 201.543 191.802 197.102 191.607 193.561C191.412 190.021 189.829 182.077 197.45 180.914Z" fill="#ECECE9" stroke="#263238" stroke-linecap="round" stroke-linejoin="round"/>
<path d="M139.623 150.571C126.751 150.114 118.402 142.185 113.414 134.924C118.432 133.244 122.955 133.649 126.466 132.553C131.042 131.121 133.9 129.981 134.192 127.408C134.485 124.835 134.477 112.818 134.477 112.818L155.931 111.1C155.931 111.1 153.928 124.827 155.931 127.408C157.934 129.988 162.509 131.983 169.088 133.986C171.968 134.856 174.406 134.526 176.777 134.481C172.914 138.697 159.651 151.284 139.623 150.571Z" fill="#ECECE9" stroke="#263238" stroke-linecap="round" stroke-linejoin="round"/>
<path d="M134.44 121.414C136.054 122.975 137.841 124.346 139.766 125.502C143.201 127.438 149.082 125.72 150.8 123.574C151.64 122.524 153.373 120.454 155.226 117.963C155.488 114.34 155.976 111.1 155.976 111.1L134.522 112.818C134.522 112.818 134.477 117.326 134.44 121.414Z" fill="#263238" stroke="#263238" stroke-linecap="round" stroke-linejoin="round"/>
<path d="M199.956 155.8C199.956 155.8 188.276 171.178 187.106 177.606C185.936 184.035 182.238 199.585 182.238 199.585C182.238 199.585 170.948 204.453 163.747 204.648C156.546 204.843 144.086 203.673 144.086 203.673C144.086 203.673 152.068 183.082 155.181 172.738C158.294 162.394 159.074 156.58 159.074 156.58C159.074 156.58 176.792 158.913 186.911 156.58L202.094 153.077L199.956 155.8Z" fill="white" stroke="#263238" stroke-linecap="round" stroke-linejoin="round"/>
<path d="M199.401 188.04C199.401 188.04 197.975 170.037 196.258 169.452C194.54 168.867 184.256 167.449 181.383 168.019C178.51 168.589 177.632 169.737 179.957 170.307C182.283 170.877 186.243 171.455 187.961 171.74C189.901 172.201 191.812 172.775 193.685 173.458C193.685 173.458 187.391 174.313 184.818 174.313C182.245 174.313 176.237 176.886 175.952 178.063C175.783 178.743 175.885 179.461 176.237 180.066C176.086 180.657 176.101 181.277 176.282 181.859C176.567 183.007 183.386 182.437 185.103 182.722C186.821 183.007 190.249 183.832 190.249 183.832C190.249 183.832 180.242 183.262 180.242 185.265C180.242 187.267 184.526 186.975 186.243 186.975C188.323 187.204 190.302 187.995 191.967 189.263C192.822 190.125 192.537 194.611 195.11 195.474C196.213 195.907 197.368 196.194 198.546 196.329" fill="#ECECE9"/>
<path d="M199.401 188.04C199.401 188.04 197.975 170.037 196.258 169.452C194.54 168.867 184.256 167.449 181.383 168.019C178.51 168.589 177.632 169.737 179.957 170.307C182.283 170.877 186.243 171.455 187.961 171.74C189.901 172.201 191.812 172.775 193.685 173.458C193.685 173.458 187.391 174.313 184.818 174.313C182.245 174.313 176.237 176.886 175.952 178.063C175.783 178.743 175.885 179.461 176.237 180.066C176.086 180.657 176.101 181.277 176.282 181.859C176.567 183.007 183.386 182.437 185.103 182.722C186.821 183.007 190.249 183.832 190.249 183.832C190.249 183.832 180.242 183.262 180.242 185.265C180.242 187.267 184.526 186.975 186.243 186.975C188.323 187.204 190.302 187.995 191.967 189.263C192.822 190.125 192.537 194.611 195.11 195.474C196.213 195.907 197.368 196.194 198.546 196.329" stroke="#263238" stroke-linecap="round" stroke-linejoin="round"/>
<path d="M176.237 180.036C176.237 180.036 187.676 177.456 193.4 180.321" stroke="#263238" stroke-linecap="round" stroke-linejoin="round"/>
<path d="M114.186 164.591C114.186 164.591 109.611 180.606 110.473 186.345C111.336 192.083 113.901 198.64 114.186 199.502C114.471 200.365 113.181 207.146 113.181 207.146" stroke="#263238" stroke-linecap="round" stroke-linejoin="round"/>
<path d="M104.757 75.9189C107.33 73.3459 104.757 71.9132 105.042 69.0552C105.327 66.1972 108.185 64.7645 109.618 64.1944C111.051 63.6243 110.473 62.1916 110.766 59.041C111.058 55.8905 114.479 54.7503 116.767 53.8952C119.055 53.04 117.629 51.6448 118.77 49.3194C119.91 46.994 126.211 47.6016 126.211 47.6016C126.211 47.6016 127.636 45.0287 129.354 45.0287C131.072 45.0287 132.212 47.3166 134.5 45.3137C136.788 43.3109 138.79 42.4557 141.941 43.5959C142.958 44.0009 144.004 44.3318 145.069 44.5861C146.137 44.3329 147.185 44.002 148.205 43.5959C151.348 42.4557 153.35 43.3109 155.638 45.3137C157.926 47.3166 159.074 45.0287 160.792 45.0287C162.509 45.0287 163.935 47.6016 163.935 47.6016C163.935 47.6016 170.228 47.0315 171.376 49.3194C172.524 51.6073 171.083 53.0325 173.371 53.8952C175.659 54.7578 179.095 55.898 179.372 59.041C179.65 62.1841 179.087 63.6168 180.52 64.1944C181.953 64.772 184.811 66.1897 185.096 69.0552C185.381 71.9207 182.845 73.3459 185.381 75.9189C187.916 78.4918 190.527 80.4946 188.239 82.2124C185.951 83.9302 183.663 84.5003 183.948 87.0732C184.233 89.6462 187.099 92.7967 184.811 94.2219C182.523 95.6472 180.235 95.6547 180.235 98.2276C180.235 100.801 181.09 104.521 178.517 105.091C175.944 105.661 172.224 105.091 172.224 106.809C172.224 108.527 171.938 111.67 167.933 111.1C163.927 110.53 162.502 109.382 161.639 111.67C160.777 113.958 158.781 115.42 156.493 115.105C154.206 114.79 151.055 114.535 149.052 116.246C148.065 117.014 146.888 117.501 145.647 117.656V117.753C145.452 117.753 145.257 117.753 145.061 117.753C144.866 117.753 144.671 117.753 144.476 117.753V117.656C143.236 117.499 142.06 117.012 141.071 116.246C139.068 114.535 135.925 114.82 133.637 115.105C131.349 115.39 129.346 113.958 128.491 111.67C127.636 109.382 126.203 110.53 122.198 111.1C118.192 111.67 117.907 108.527 117.907 106.809C117.907 105.091 114.156 105.669 111.613 105.091C109.07 104.514 109.896 100.801 109.896 98.2276C109.896 95.6547 107.645 95.6547 105.32 94.2219C102.994 92.7892 105.89 89.6462 106.175 87.0732C106.46 84.5003 104.172 83.9302 101.884 82.2124C99.5964 80.4946 102.184 78.4918 104.757 75.9189Z" fill="#263238" stroke="#263238" stroke-linecap="round" stroke-linejoin="round"/>
<path d="M127.689 91.7245C127.689 91.7245 124.433 86.8411 122.475 89.1215C120.517 91.4019 121.178 97.2604 123.78 100.193C126.383 103.126 129.309 102.144 129.309 102.144" fill="#ECECE9"/>
<path d="M127.689 91.7245C127.689 91.7245 124.433 86.8411 122.475 89.1215C120.517 91.4019 121.178 97.2604 123.78 100.193C126.383 103.126 129.309 102.144 129.309 102.144" stroke="#263238" stroke-linecap="round" stroke-linejoin="round"/>
<path d="M162.502 91.4765C162.502 91.4765 166.305 86.9758 167.978 89.4962C169.651 92.0166 168.315 97.7476 165.39 100.336C162.464 102.923 159.667 101.633 159.667 101.633" fill="#ECECE9"/>
<path d="M162.502 91.4765C162.502 91.4765 166.305 86.9758 167.978 89.4962C169.651 92.0166 168.315 97.7476 165.39 100.336C162.464 102.923 159.667 101.633 159.667 101.633" stroke="#263238" stroke-linecap="round" stroke-linejoin="round"/>
<path d="M161.144 79.9246C160.57 80.4456 159.887 80.8313 159.144 81.0533C158.402 81.2753 157.619 81.3279 156.853 81.2074C155.435 81.0015 154.06 80.5683 152.78 79.9246C152.78 79.9246 150.207 81.6424 148.279 80.9973C146.352 80.3522 144.199 79.7071 144.199 79.7071C142.788 80.5726 141.106 80.8803 139.48 80.5697C136.48 80.1347 135.617 79.4971 135.617 79.4971C135.617 79.4971 133.899 80.9973 132.189 80.9973C131.113 80.9936 130.038 80.9209 128.971 80.7798C128.501 81.0129 127.993 81.1579 127.471 81.2074H125.971C125.971 81.2074 125.333 94.0795 127.471 103.306C129.609 112.533 137.973 119.396 141.416 121.309C144.859 123.222 150.74 121.527 152.458 119.381C154.175 117.236 159.651 110.8 162.209 105.219C164.767 99.638 165.645 83.3377 165.645 82.265C165.645 81.1924 162.194 82.4976 161.144 79.9246Z" fill="#ECECE9" stroke="#263238" stroke-linecap="round" stroke-linejoin="round"/>
<path d="M149.037 87.4334C148.745 87.5577 148.498 87.7676 148.328 88.0355C148.158 88.3034 148.073 88.6166 148.084 88.9337C148.159 91.3641 148.52 97.14 150.207 98.1527C152.353 99.4354 162.367 100.403 164.797 98.7903C166.08 97.9352 168.87 90.4264 167.798 88.2886C166.725 86.1507 157.619 83.9078 149.037 87.4334Z" stroke="#263238" stroke-linecap="round" stroke-linejoin="round"/>
<path d="M142.414 87.4334C142.706 87.5577 142.953 87.7676 143.123 88.0355C143.293 88.3034 143.378 88.6166 143.366 88.9337C143.291 91.3641 142.931 97.14 141.243 98.1527C139.098 99.4354 129.084 100.403 126.653 98.7903C125.371 97.9352 122.58 90.4264 123.653 88.2886C124.726 86.1507 133.832 83.9078 142.414 87.4334Z" stroke="#263238" stroke-linecap="round" stroke-linejoin="round"/>
<path d="M149.037 87.4337C149.037 87.4337 145.062 86.5711 142.481 87.8613" stroke="#263238" stroke-linecap="round" stroke-linejoin="round"/>
<path d="M147.634 90.0068H143.554" stroke="#263238" stroke-linecap="round" stroke-linejoin="round"/>
<path d="M154.07 94.3793C154.783 94.3793 155.361 93.3214 155.361 92.0165C155.361 90.7115 154.783 89.6536 154.07 89.6536C153.358 89.6536 152.78 90.7115 152.78 92.0165C152.78 93.3214 153.358 94.3793 154.07 94.3793Z" fill="#263238"/>
<path d="M136.662 94.7819C137.374 94.7819 137.952 93.724 137.952 92.419C137.952 91.1141 137.374 90.0562 136.662 90.0562C135.949 90.0562 135.372 91.1141 135.372 92.419C135.372 93.724 135.949 94.7819 136.662 94.7819Z" fill="#263238"/>
<path d="M147.192 94.7246C147.192 94.7246 146.974 97.7251 148.047 98.7978C149.12 99.8705 150.402 100.733 148.902 101.798C147.402 102.863 146.119 103.726 143.974 101.798" stroke="#263238" stroke-linecap="round" stroke-linejoin="round"/>
<path d="M151.063 106.307C151.063 106.307 145.699 108.887 140.981 105.452" stroke="#263238" stroke-linecap="round" stroke-linejoin="round"/>
<path d="M158.144 88.5061C157.295 87.8718 156.302 87.4605 155.253 87.3098C154.205 87.1591 153.135 87.2738 152.143 87.6435" stroke="#263238" stroke-linecap="round" stroke-linejoin="round"/>
<path d="M140.553 88.2887C140.553 88.2887 135.617 85.7158 132.827 89.7889" stroke="#263238" stroke-linecap="round" stroke-linejoin="round"/>
<path d="M115.936 167.546L114.353 188.59L119.89 180.311L124.67 188.642L121.966 166.572L115.936 167.546Z" fill="#263238" stroke="#263238" stroke-miterlimit="10"/>
<path d="M127.381 159.588L127.836 156.358L124.946 154.839L123.414 151.962L120.178 152.43L117.243 151.001L114.911 153.282L111.694 153.852L111.149 157.069L108.875 159.421L110.329 162.343L109.874 165.579L112.764 167.098L114.296 169.975L117.532 169.507L120.467 170.936L122.799 168.655L126.016 168.085L126.567 164.868L128.836 162.516L127.381 159.588Z" fill="white" stroke="#263238" stroke-miterlimit="10"/>
<path d="M124.51 164.982C126.717 161.861 125.976 157.542 122.855 155.335C119.734 153.129 115.415 153.87 113.208 156.991C111.002 160.112 111.743 164.431 114.864 166.637C117.985 168.844 122.304 168.103 124.51 164.982Z" fill="white" stroke="#263238" stroke-miterlimit="10"/>
<path d="M201.817 219.927H95.937V251.679H201.817V219.927Z" fill="#636363"/>
<g opacity="0.2">
<path d="M193.903 219.927H178.575L146.83 251.679H162.152L193.903 219.927Z" fill="white"/>
<path d="M99.0001 251.679H105.171L136.917 219.927H130.746L99.0001 251.679Z" fill="white"/>
</g>
<path d="M107.529 242.746V234.416H110.733V235.281H108.67V238.03H110.368V238.85H108.695V241.894H110.778V242.721L107.529 242.746Z" fill="white"/>
<path d="M111.605 242.746V236.825H112.624V237.389C112.798 237.176 113.017 237.004 113.264 236.883C113.495 236.776 113.747 236.722 114.001 236.722C114.209 236.718 114.414 236.774 114.591 236.883C114.787 237.021 114.922 237.23 114.969 237.466C115.154 237.228 115.391 237.036 115.661 236.902C115.904 236.782 116.172 236.721 116.443 236.722C116.627 236.721 116.808 236.767 116.968 236.857C117.134 236.965 117.265 237.119 117.346 237.299C117.451 237.55 117.499 237.822 117.487 238.094V242.746H116.488V238.151C116.51 237.949 116.46 237.744 116.347 237.575C116.299 237.524 116.242 237.485 116.177 237.459C116.113 237.434 116.044 237.423 115.975 237.427C115.809 237.429 115.645 237.473 115.501 237.555C115.329 237.642 115.177 237.762 115.052 237.908V242.733H114.046V238.151C114.071 237.948 114.021 237.743 113.905 237.575C113.858 237.524 113.8 237.485 113.736 237.459C113.672 237.434 113.602 237.423 113.533 237.427C113.369 237.428 113.208 237.472 113.066 237.555C112.894 237.645 112.74 237.765 112.611 237.908V242.733L111.605 242.746Z" fill="white"/>
<path d="M118.577 244.694V236.825H119.679V237.293C119.814 237.14 119.972 237.008 120.147 236.902C120.343 236.793 120.564 236.738 120.787 236.742C121.052 236.726 121.313 236.811 121.518 236.979C121.699 237.146 121.838 237.355 121.922 237.588C122.01 237.825 122.068 238.073 122.095 238.325C122.123 238.537 122.138 238.751 122.14 238.965V240.401C122.139 240.799 122.099 241.196 122.018 241.586C121.953 241.923 121.798 242.235 121.569 242.49C121.449 242.606 121.306 242.696 121.15 242.755C120.993 242.813 120.826 242.839 120.659 242.829C120.46 242.834 120.263 242.778 120.095 242.669C119.936 242.567 119.79 242.447 119.66 242.31V244.694H118.577ZM120.467 241.971C120.548 241.977 120.63 241.961 120.702 241.924C120.775 241.886 120.835 241.829 120.877 241.759C120.971 241.583 121.024 241.388 121.031 241.189C121.031 240.952 121.063 240.689 121.063 240.401V238.965C121.062 238.738 121.047 238.511 121.018 238.286C121.004 238.107 120.945 237.935 120.845 237.786C120.795 237.723 120.73 237.673 120.657 237.641C120.583 237.608 120.502 237.595 120.422 237.6C120.28 237.601 120.14 237.634 120.012 237.697C119.89 237.749 119.778 237.82 119.679 237.908V241.702C119.785 241.781 119.902 241.845 120.025 241.894C120.164 241.956 120.314 241.991 120.467 241.996V241.971Z" fill="white"/>
<path d="M123.255 242.746V234.416H124.35V242.746H123.255Z" fill="white"/>
<path d="M127.131 242.829C126.767 242.848 126.405 242.757 126.093 242.567C125.837 242.377 125.648 242.109 125.555 241.804C125.443 241.428 125.389 241.037 125.395 240.644V238.927C125.389 238.534 125.443 238.143 125.555 237.767C125.648 237.462 125.837 237.194 126.093 237.004C126.405 236.814 126.767 236.723 127.131 236.742C127.494 236.723 127.854 236.814 128.163 237.004C128.416 237.196 128.602 237.463 128.695 237.767C128.807 238.143 128.861 238.534 128.855 238.927V240.644C128.861 241.037 128.807 241.428 128.695 241.804C128.602 242.108 128.416 242.375 128.163 242.567C127.854 242.757 127.494 242.848 127.131 242.829V242.829ZM127.131 242.022C127.215 242.031 127.299 242.018 127.376 241.986C127.453 241.953 127.521 241.902 127.574 241.836C127.671 241.692 127.724 241.523 127.727 241.349C127.727 241.15 127.727 240.939 127.727 240.708V238.85C127.727 238.626 127.727 238.414 127.727 238.209C127.722 238.036 127.669 237.867 127.574 237.722C127.523 237.654 127.455 237.601 127.378 237.567C127.3 237.534 127.215 237.521 127.131 237.53C127.046 237.522 126.959 237.535 126.88 237.568C126.8 237.602 126.73 237.655 126.676 237.722C126.581 237.867 126.528 238.036 126.523 238.209C126.523 238.408 126.523 238.619 126.523 238.85V240.715C126.523 240.933 126.523 241.144 126.523 241.356C126.526 241.529 126.579 241.699 126.676 241.843C126.735 241.902 126.806 241.947 126.886 241.974C126.965 242 127.049 242.008 127.131 241.996V242.022Z" fill="white"/>
<path d="M129.765 244.233V243.393C129.979 243.396 130.193 243.385 130.406 243.361C130.53 243.35 130.648 243.303 130.746 243.227C130.782 243.191 130.81 243.148 130.828 243.1C130.845 243.053 130.852 243.002 130.848 242.951C130.834 242.813 130.811 242.676 130.778 242.541C130.726 242.327 130.675 242.103 130.624 241.868L129.432 236.825H130.541L131.342 241.253L132.111 236.825H133.219L131.803 243.079C131.756 243.333 131.639 243.569 131.463 243.758C131.284 243.932 131.063 244.057 130.823 244.124C130.52 244.204 130.207 244.241 129.893 244.233H129.765Z" fill="white"/>
<path d="M135.513 242.829C135.135 242.851 134.76 242.758 134.437 242.56C134.175 242.361 133.99 242.078 133.911 241.759C133.807 241.34 133.757 240.909 133.764 240.478V239.119C133.756 238.687 133.807 238.256 133.918 237.838C133.999 237.518 134.189 237.237 134.456 237.043C134.774 236.852 135.142 236.761 135.513 236.78C135.906 236.747 136.297 236.856 136.615 237.088C136.867 237.321 137.032 237.633 137.083 237.972C137.166 238.431 137.205 238.897 137.198 239.363V239.843H134.86V241.035C134.857 241.231 134.878 241.427 134.924 241.618C134.959 241.75 135.035 241.866 135.142 241.952C135.255 242.028 135.389 242.066 135.526 242.06C135.593 242.066 135.66 242.058 135.724 242.037C135.788 242.017 135.847 241.983 135.898 241.939C135.993 241.851 136.056 241.733 136.077 241.606C136.107 241.434 136.122 241.26 136.122 241.086V240.715H137.186V240.939C137.213 241.435 137.08 241.927 136.808 242.342C136.647 242.522 136.446 242.66 136.22 242.745C135.995 242.83 135.752 242.859 135.513 242.829ZM134.872 239.209H136.154V238.677C136.159 238.462 136.144 238.248 136.109 238.036C136.093 237.896 136.035 237.764 135.943 237.658C135.887 237.611 135.823 237.576 135.753 237.554C135.684 237.532 135.611 237.524 135.539 237.53C135.394 237.524 135.252 237.567 135.135 237.652C135.025 237.764 134.957 237.911 134.943 238.068C134.905 238.336 134.888 238.606 134.892 238.876L134.872 239.209Z" fill="white"/>
<path d="M139.845 242.83C139.467 242.852 139.092 242.758 138.769 242.56C138.505 242.363 138.319 242.08 138.243 241.759C138.133 241.341 138.081 240.91 138.089 240.478V239.119C138.08 238.687 138.134 238.255 138.25 237.838C138.328 237.519 138.516 237.237 138.781 237.043C139.103 236.854 139.473 236.763 139.845 236.78C140.237 236.748 140.628 236.857 140.947 237.088C141.199 237.321 141.364 237.633 141.415 237.972C141.496 238.431 141.532 238.897 141.524 239.363V239.843H139.204V241.035C139.198 241.232 139.22 241.428 139.268 241.618C139.299 241.752 139.376 241.87 139.486 241.952C139.6 242.028 139.734 242.066 139.871 242.061C140.006 242.071 140.139 242.027 140.242 241.939C140.332 241.848 140.392 241.732 140.415 241.606C140.451 241.435 140.468 241.261 140.467 241.087V240.715H141.53V240.939C141.558 241.435 141.425 241.927 141.152 242.343C140.99 242.524 140.787 242.663 140.559 242.747C140.331 242.832 140.086 242.86 139.845 242.83V242.83ZM139.204 239.209H140.486V238.677C140.487 238.463 140.472 238.248 140.441 238.036C140.425 237.896 140.367 237.764 140.274 237.658C140.161 237.566 140.017 237.52 139.871 237.53C139.724 237.523 139.579 237.565 139.461 237.652C139.355 237.767 139.29 237.913 139.275 238.068C139.234 238.335 139.217 238.606 139.224 238.876L139.204 239.209Z" fill="white"/>
<path d="M146.484 242.829C146.121 242.848 145.761 242.757 145.452 242.567C145.192 242.381 145.002 242.112 144.914 241.804C144.799 241.429 144.745 241.037 144.754 240.644V238.927C144.745 238.534 144.799 238.143 144.914 237.767C145.002 237.459 145.192 237.191 145.452 237.005C145.769 236.832 146.123 236.742 146.484 236.742C146.844 236.742 147.199 236.832 147.515 237.005C147.772 237.193 147.959 237.461 148.047 237.767C148.162 238.143 148.216 238.534 148.208 238.927V240.644C148.216 241.037 148.162 241.429 148.047 241.804C147.959 242.11 147.772 242.378 147.515 242.567C147.206 242.757 146.846 242.849 146.484 242.829V242.829ZM146.484 242.022C146.568 242.031 146.653 242.018 146.731 241.986C146.81 241.953 146.879 241.902 146.932 241.836C147.024 241.69 147.077 241.522 147.086 241.349C147.086 241.151 147.086 240.939 147.086 240.708V238.85C147.086 238.626 147.086 238.414 147.086 238.209C147.075 238.037 147.022 237.87 146.932 237.722C146.88 237.655 146.812 237.601 146.733 237.568C146.655 237.534 146.569 237.521 146.484 237.53C146.399 237.522 146.313 237.535 146.235 237.569C146.156 237.602 146.088 237.655 146.035 237.722C145.94 237.868 145.885 238.036 145.875 238.209C145.875 238.408 145.875 238.619 145.875 238.85V240.715C145.875 240.933 145.875 241.144 145.875 241.356C145.883 241.53 145.938 241.698 146.035 241.843C146.092 241.902 146.163 241.947 146.241 241.974C146.319 242.001 146.402 242.008 146.484 241.996V242.022Z" fill="white"/>
<path d="M149.56 242.746V237.62H148.855V236.812H149.56V236.505C149.556 236.186 149.586 235.868 149.649 235.556C149.689 235.305 149.819 235.077 150.015 234.916C150.26 234.758 150.55 234.684 150.841 234.704H151.207L151.559 234.762V235.588H151.38H151.174C151.093 235.576 151.011 235.59 150.938 235.628C150.865 235.666 150.807 235.726 150.771 235.8C150.708 235.979 150.68 236.168 150.687 236.357V236.851H151.585V237.658H150.687V242.785L149.56 242.746Z" fill="white"/>
<path d="M156.083 242.83C155.824 242.842 155.567 242.782 155.34 242.657C155.153 242.541 155.009 242.368 154.93 242.163C154.84 241.924 154.797 241.669 154.802 241.413V237.569H154.161V236.844H154.802V235.108H155.897V236.844H156.852V237.569H155.897V241.356C155.882 241.53 155.923 241.705 156.013 241.856C156.068 241.911 156.136 241.954 156.21 241.979C156.285 242.005 156.364 242.013 156.442 242.003H156.634H156.839V242.817L156.461 242.862L156.083 242.83Z" fill="white"/>
<path d="M157.691 242.746V234.416H158.787V237.415C158.979 237.223 159.194 237.058 159.428 236.921C159.679 236.782 159.962 236.711 160.248 236.716C160.346 236.708 160.444 236.72 160.537 236.752C160.63 236.784 160.715 236.835 160.786 236.902C160.917 237.028 161.01 237.188 161.056 237.363C161.107 237.547 161.133 237.737 161.133 237.927V242.721H160.037V238.235C160.045 238.065 160.012 237.896 159.941 237.742C159.901 237.679 159.844 237.63 159.777 237.6C159.71 237.569 159.636 237.558 159.563 237.569C159.42 237.572 159.282 237.612 159.159 237.684C159.017 237.762 158.884 237.854 158.762 237.959V242.714L157.691 242.746Z" fill="white"/>
<path d="M163.862 242.829C163.485 242.851 163.109 242.758 162.786 242.56C162.523 242.363 162.337 242.079 162.26 241.759C162.153 241.341 162.103 240.91 162.113 240.478V239.119C162.105 238.687 162.157 238.256 162.267 237.838C162.348 237.518 162.538 237.237 162.805 237.043C163.124 236.852 163.492 236.761 163.862 236.78C164.255 236.747 164.646 236.856 164.965 237.088C165.216 237.321 165.381 237.633 165.432 237.972C165.516 238.431 165.554 238.897 165.548 239.363V239.843H163.209V241.035C163.203 241.232 163.224 241.428 163.273 241.618C163.304 241.752 163.381 241.87 163.491 241.952C163.604 242.028 163.739 242.066 163.875 242.06C163.942 242.066 164.01 242.058 164.074 242.037C164.137 242.017 164.196 241.983 164.247 241.939C164.342 241.851 164.405 241.733 164.426 241.606C164.456 241.434 164.471 241.26 164.471 241.086V240.715H165.535V240.939C165.562 241.435 165.43 241.927 165.157 242.342C164.996 242.522 164.794 242.659 164.569 242.744C164.344 242.829 164.101 242.858 163.862 242.829V242.829ZM163.222 239.209H164.503V238.677C164.508 238.462 164.493 238.248 164.458 238.036C164.443 237.896 164.385 237.764 164.292 237.658C164.236 237.611 164.172 237.576 164.103 237.554C164.033 237.532 163.961 237.524 163.888 237.53C163.744 237.524 163.601 237.567 163.484 237.652C163.374 237.764 163.307 237.911 163.292 238.068C163.254 238.336 163.237 238.606 163.241 238.876L163.222 239.209Z" fill="white"/>
<path d="M168.957 242.746L169.111 234.416H170.251L171.719 241.157L173.193 234.416H174.32L174.474 242.746H173.545L173.449 236.723L172.046 242.746H171.405L170.008 236.723L169.918 242.746H168.957Z" fill="white"/>
<path d="M177.287 242.829C176.923 242.848 176.561 242.757 176.249 242.567C175.993 242.377 175.804 242.11 175.711 241.804C175.596 241.429 175.542 241.037 175.551 240.644V238.927C175.542 238.534 175.596 238.143 175.711 237.767C175.804 237.462 175.993 237.194 176.249 237.004C176.561 236.814 176.923 236.723 177.287 236.742C177.648 236.723 178.006 236.814 178.313 237.004C178.569 237.194 178.758 237.462 178.851 237.767C178.96 238.144 179.012 238.535 179.005 238.927V240.644C179.012 241.036 178.96 241.427 178.851 241.804C178.758 242.11 178.569 242.377 178.313 242.567C178.006 242.757 177.648 242.849 177.287 242.829V242.829ZM177.287 242.022C177.371 242.031 177.455 242.018 177.532 241.986C177.609 241.953 177.677 241.902 177.729 241.836C177.827 241.692 177.88 241.523 177.883 241.349C177.883 241.15 177.883 240.939 177.883 240.708V238.85C177.883 238.626 177.883 238.414 177.883 238.209C177.878 238.036 177.825 237.867 177.729 237.722C177.679 237.655 177.611 237.601 177.534 237.568C177.456 237.534 177.371 237.521 177.287 237.53C177.201 237.522 177.115 237.535 177.036 237.568C176.956 237.602 176.886 237.655 176.832 237.722C176.738 237.868 176.682 238.036 176.672 238.209C176.672 238.408 176.672 238.619 176.672 238.85V240.715C176.672 240.933 176.672 241.144 176.672 241.356C176.68 241.529 176.736 241.698 176.832 241.843C176.891 241.902 176.962 241.947 177.041 241.974C177.121 242 177.205 242.008 177.287 241.996V242.022Z" fill="white"/>
<path d="M180.011 242.746V236.825H181.107V237.408C181.301 237.226 181.516 237.067 181.747 236.934C181.99 236.804 182.261 236.738 182.536 236.742C182.635 236.734 182.735 236.747 182.83 236.779C182.924 236.811 183.012 236.861 183.087 236.928C183.213 237.056 183.304 237.215 183.349 237.389C183.401 237.572 183.427 237.762 183.426 237.953V242.746H182.33V238.26C182.337 238.091 182.307 237.923 182.241 237.767C182.199 237.705 182.141 237.656 182.073 237.625C182.005 237.595 181.93 237.584 181.856 237.594C181.721 237.599 181.589 237.636 181.472 237.703C181.336 237.779 181.208 237.867 181.087 237.966V242.74L180.011 242.746Z" fill="white"/>
<path d="M186.092 242.83C185.829 242.837 185.569 242.77 185.342 242.637C185.155 242.522 185.011 242.349 184.932 242.144C184.843 241.904 184.799 241.65 184.804 241.394V237.549H184.163V236.825H184.804V235.089H185.9V236.825H186.855V237.549H185.9V241.356C185.885 241.53 185.925 241.705 186.015 241.856C186.071 241.911 186.139 241.952 186.213 241.978C186.287 242.003 186.366 242.012 186.444 242.003H186.637H186.842V242.817L186.464 242.862L186.092 242.83Z" fill="white"/>
<path d="M187.7 242.746V234.416H188.796V237.415C188.988 237.223 189.203 237.058 189.437 236.921C189.69 236.782 189.975 236.711 190.264 236.716C190.36 236.709 190.458 236.721 190.549 236.753C190.641 236.785 190.725 236.836 190.796 236.902C190.926 237.028 191.019 237.188 191.065 237.363C191.116 237.547 191.142 237.737 191.142 237.927V242.721H190.046V238.235C190.054 238.065 190.021 237.896 189.95 237.742C189.91 237.679 189.853 237.63 189.786 237.6C189.719 237.569 189.645 237.558 189.572 237.569C189.429 237.572 189.291 237.612 189.168 237.684C189.026 237.762 188.893 237.854 188.771 237.959V242.714L187.7 242.746Z" fill="white"/>
<path d="M135.814 223.054L136.859 226.258H140.223L137.5 228.238L138.544 231.436L135.814 229.462L133.091 231.436L134.136 228.238L131.412 226.258H134.776L135.814 223.054Z" fill="white"/>
<path d="M149.348 223.054L150.386 226.258H153.757L151.027 228.238L152.072 231.436L149.348 229.462L146.625 231.436L147.663 228.238L144.94 226.258H148.304L149.348 223.054Z" fill="white"/>
<path d="M162.876 223.054L163.92 226.258H167.284L164.561 228.238L165.599 231.436L162.876 229.462L160.152 231.436L161.19 228.238L158.467 226.258H161.838L162.876 223.054Z" fill="white"/>
<path d="M197.255 226.277C198.104 226.277 198.793 225.589 198.793 224.739C198.793 223.89 198.104 223.201 197.255 223.201C196.405 223.201 195.717 223.89 195.717 224.739C195.717 225.589 196.405 226.277 197.255 226.277Z" fill="white"/>
<path d="M197.255 248.866C198.104 248.866 198.793 248.177 198.793 247.328C198.793 246.478 198.104 245.79 197.255 245.79C196.405 245.79 195.717 246.478 195.717 247.328C195.717 248.177 196.405 248.866 197.255 248.866Z" fill="white"/>
<path d="M100.109 226.277C100.958 226.277 101.647 225.589 101.647 224.739C101.647 223.89 100.958 223.201 100.109 223.201C99.2594 223.201 98.5708 223.89 98.5708 224.739C98.5708 225.589 99.2594 226.277 100.109 226.277Z" fill="white"/>
<path d="M100.109 248.866C100.958 248.866 101.647 248.177 101.647 247.328C101.647 246.478 100.958 245.79 100.109 245.79C99.2594 245.79 98.5708 246.478 98.5708 247.328C98.5708 248.177 99.2594 248.866 100.109 248.866Z" fill="white"/>
<path d="M208.155 46.9221L183.971 74.8997" stroke="#263238" stroke-miterlimit="10"/>
<path d="M214.146 39.9888L210.962 43.667" stroke="#263238" stroke-miterlimit="10"/>
<path d="M188.309 101.275L183.542 106.799" stroke="#263238" stroke-miterlimit="10"/>
<path d="M196.954 91.2788L190.116 99.1928" stroke="#263238" stroke-miterlimit="10"/>
<path d="M103.122 189.657L89.7101 205.171" stroke="#263238" stroke-miterlimit="10"/>
<path d="M40.8472 135.623L38.803 141.762C38.803 141.762 49.0559 145.344 53.6376 138.692L53.125 133.066C53.125 133.066 44.9419 141.268 40.8472 135.623Z" fill="#BDBDBD"/>
<path d="M189.713 285.526L187.669 291.665C187.669 291.665 197.921 295.247 202.503 288.596L201.991 282.969C201.991 282.969 193.808 291.153 189.713 285.526Z" fill="#BDBDBD"/>
<path d="M243.656 158.282L242.374 162.094C242.374 162.094 248.725 164.318 251.583 160.172L251.262 156.673C251.262 156.673 246.219 161.774 243.656 158.282Z" fill="#BDBDBD"/>
<path d="M254.684 46.1147L252.627 52.2536C252.627 52.2536 262.88 55.8357 267.462 49.1841L266.949 43.5579C266.949 43.5579 258.779 51.741 254.684 46.1147Z" fill="#BDBDBD"/>
<path d="M52.0035 44.3911L47.2231 40.04C47.2231 40.04 39.8026 47.9412 44.0191 54.8427L49.3762 56.6561C49.3762 56.6561 45.2045 45.8586 52.0035 44.3911Z" fill="#BDBDBD"/>
<path d="M268.91 217.306L264.123 212.948C264.123 212.948 256.709 220.856 260.919 227.758L266.276 229.565C266.276 229.565 262.111 218.767 268.91 217.306Z" fill="#BDBDBD"/>
<path d="M186.291 43.5964L182.773 40.3923C182.773 40.3923 177.326 46.2044 180.421 51.286L184.355 52.6189C184.355 52.6189 181.292 44.6729 186.291 43.5964Z" fill="#BDBDBD"/>
<path d="M28.7295 186.836L25.2114 183.632C25.2114 183.632 19.7582 189.444 22.8597 194.526L26.7942 195.858C26.7942 195.858 23.7312 187.912 28.7295 186.836Z" fill="#BDBDBD"/>
<path d="M53.5415 249.045L48.7547 244.688C48.7547 244.688 41.3406 252.595 45.5507 259.497L50.9014 261.31C50.9014 261.31 46.7361 250.487 53.5415 249.045Z" fill="#BDBDBD"/>
<path d="M26.2558 81.5386L21.4754 77.1812C21.4754 77.1812 14.0549 85.0887 18.2714 91.9902L23.6285 93.7972C23.6285 93.7972 19.4569 82.9997 26.2558 81.5386Z" fill="#89CBFB"/>
<path d="M256.978 105.582L252.191 101.224C252.191 101.224 244.771 109.132 248.987 116.033L254.338 117.84C254.338 117.84 250.173 107.043 256.978 105.582Z" fill="#89CBFB"/>
<path d="M281.797 198.678L285.642 193.487C285.642 193.487 277.042 186.894 270.589 191.77L269.307 197.275C269.307 197.275 279.663 192.058 281.797 198.678Z" fill="#89CBFB"/>
<path d="M101.833 279.285L96.7766 283.316C96.7766 283.316 103.409 291.89 110.874 288.82L113.508 283.822C113.508 283.822 102.204 286.212 101.833 279.285Z" fill="#89CBFB"/>
<path d="M84.9538 105.402L81.7882 107.927C81.7882 107.927 85.9406 113.297 90.6249 111.374L92.2782 108.247C92.2782 108.247 85.1845 109.753 84.9538 105.402Z" fill="#89CBFB"/>
<path d="M130.009 5.39144L125.978 4.94287C125.978 4.94287 125.126 11.6777 129.823 13.6258L133.181 12.5877C133.181 12.5877 127.093 8.63391 130.009 5.39144Z" fill="#89CBFB"/>
<path d="M267.103 274.479L263.079 274.03C263.079 274.03 262.226 280.765 266.923 282.713L270.3 281.662C270.3 281.662 264.194 277.721 267.103 274.479Z" fill="#89CBFB"/>
<path d="M13.1195 275.786L9.12085 275.318C9.12085 275.318 8.26858 282.053 12.9657 284.001L16.3427 282.95C16.3427 282.95 10.2038 279.029 13.1195 275.786Z" fill="#89CBFB"/>
<path d="M49.5428 99.3147L42.385 102.897L48.0113 108.01L49.5428 99.3147Z" fill="#BDBDBD"/>
<path d="M51.5037 288.737L57.0146 294.549L60.2699 287.679L51.5037 288.737Z" fill="#BDBDBD"/>
<path d="M253.268 11.146L258.779 16.9517L262.034 10.0823L253.268 11.146Z" fill="#BDBDBD"/>
<path d="M256.562 255.581L256.401 247.578L249.365 250.468L256.562 255.581Z" fill="#89CBFB"/>
<path d="M49.0687 200.606L48.9021 192.603L41.8724 195.493L49.0687 200.606Z" fill="#89CBFB"/>
<path d="M103.294 54.8104L103.133 46.8003L96.0974 49.6967L103.294 54.8104Z" fill="#89CBFB"/>
<path d="M41.5776 8.56982L34.2916 11.8956L39.7385 17.2079L41.5776 8.56982Z" fill="#89CBFB"/>
<path d="M275.658 81.4104L275.491 73.4067L268.461 76.2968L275.658 81.4104Z" fill="#89CBFB"/>
</svg>
