<svg width="104" height="61" viewBox="0 0 104 61" fill="none" xmlns="http://www.w3.org/2000/svg">
<path fill-rule="evenodd" clip-rule="evenodd" d="M73.375 52.7188C73.375 53.3735 73.1149 54.0014 72.6519 54.4644C72.1889 54.9274 71.561 55.1875 70.9062 55.1875H31.4062C30.7515 55.1875 30.1236 54.9274 29.6606 54.4644C29.1976 54.0014 28.9375 53.3735 28.9375 52.7188V8.28125C28.9375 7.6265 29.1976 6.99856 29.6606 6.53558C30.1236 6.0726 30.7515 5.8125 31.4062 5.8125H70.9062C71.561 5.8125 72.1889 6.0726 72.6519 6.53558C73.1149 6.99856 73.375 7.6265 73.375 8.28125V18.1562C73.375 18.811 73.6351 19.4389 74.0981 19.9019C74.5611 20.3649 75.189 20.625 75.8438 20.625C76.4985 20.625 77.1264 20.3649 77.5894 19.9019C78.0524 19.4389 78.3125 18.811 78.3125 18.1562V8.28125C78.3125 6.31699 77.5322 4.43318 76.1433 3.04424C74.7543 1.6553 72.8705 0.875 70.9062 0.875H31.4062C29.442 0.875 27.5582 1.6553 26.1692 3.04424C24.7803 4.43318 24 6.31699 24 8.28125V52.7188C24 54.683 24.7803 56.5668 26.1692 57.9558C27.5582 59.3447 29.442 60.125 31.4062 60.125H70.9062C72.8705 60.125 74.7543 59.3447 76.1433 57.9558C77.5322 56.5668 78.3125 54.683 78.3125 52.7188V42.8438C78.3125 42.189 78.0524 41.5611 77.5894 41.0981C77.1264 40.6351 76.4985 40.375 75.8438 40.375C75.189 40.375 74.5611 40.6351 74.0981 41.0981C73.6351 41.5611 73.375 42.189 73.375 42.8438V52.7188Z" fill="white"/>
<path fill-rule="evenodd" clip-rule="evenodd" d="M102.279 32.2478C102.509 32.0185 102.691 31.7461 102.816 31.4461C102.94 31.1462 103.004 30.8247 103.004 30.4999C103.004 30.1752 102.94 29.8537 102.816 29.5538C102.691 29.2538 102.509 28.9814 102.279 28.7521L87.4666 13.9396C87.0031 13.476 86.3743 13.2156 85.7188 13.2156C85.0632 13.2156 84.4344 13.476 83.9709 13.9396C83.5073 14.4031 83.2469 15.0319 83.2469 15.6874C83.2469 16.343 83.5073 16.9718 83.9709 17.4353L94.5717 28.0312H51.1562C50.5015 28.0312 49.8736 28.2913 49.4106 28.7543C48.9476 29.2173 48.6875 29.8452 48.6875 30.4999C48.6875 31.1547 48.9476 31.7826 49.4106 32.2456C49.8736 32.7086 50.5015 32.9687 51.1562 32.9687H94.5717L83.9709 43.5646C83.5073 44.0281 83.2469 44.6569 83.2469 45.3124C83.2469 45.968 83.5073 46.5968 83.9709 47.0603C84.4344 47.5239 85.0632 47.7843 85.7188 47.7843C86.3743 47.7843 87.0031 47.5239 87.4666 47.0603L102.279 32.2478V32.2478Z" fill="white"/>
</svg>
