<svg width="95" height="61" viewBox="0 0 95 61" fill="none" xmlns="http://www.w3.org/2000/svg">
<path fill-rule="evenodd" clip-rule="evenodd" d="M25.625 8.28125C25.625 7.6265 25.8851 6.99856 26.3481 6.53558C26.8111 6.0726 27.439 5.8125 28.0938 5.8125H67.5938C68.2485 5.8125 68.8764 6.0726 69.3394 6.53558C69.8024 6.99856 70.0625 7.6265 70.0625 8.28125V52.7188C70.0625 53.3735 69.8024 54.0014 69.3394 54.4644C68.8764 54.9274 68.2485 55.1875 67.5938 55.1875H28.0938C27.439 55.1875 26.8111 54.9274 26.3481 54.4644C25.8851 54.0014 25.625 53.3735 25.625 52.7188V42.8438C25.625 42.189 25.3649 41.5611 24.9019 41.0981C24.4389 40.6351 23.811 40.375 23.1562 40.375C22.5015 40.375 21.8736 40.6351 21.4106 41.0981C20.9476 41.5611 20.6875 42.189 20.6875 42.8438V52.7188C20.6875 54.683 21.4678 56.5668 22.8567 57.9558C24.2457 59.3447 26.1295 60.125 28.0938 60.125H67.5938C69.558 60.125 71.4418 59.3447 72.8308 57.9558C74.2197 56.5668 75 54.683 75 52.7188V8.28125C75 6.31699 74.2197 4.43318 72.8308 3.04424C71.4418 1.6553 69.558 0.875 67.5938 0.875H28.0938C26.1295 0.875 24.2457 1.6553 22.8567 3.04424C21.4678 4.43318 20.6875 6.31699 20.6875 8.28125V18.1562C20.6875 18.811 20.9476 19.4389 21.4106 19.9019C21.8736 20.3649 22.5015 20.625 23.1562 20.625C23.811 20.625 24.4389 20.3649 24.9019 19.9019C25.3649 19.4389 25.625 18.811 25.625 18.1562V8.28125Z" fill="white"/>
<path fill-rule="evenodd" clip-rule="evenodd" d="M54.5291 32.2478C54.759 32.0185 54.9414 31.7461 55.0659 31.4461C55.1903 31.1462 55.2544 30.8247 55.2544 30.4999C55.2544 30.1752 55.1903 29.8537 55.0659 29.5538C54.9414 29.2538 54.759 28.9814 54.5291 28.7521L39.7166 13.9396C39.4871 13.71 39.2146 13.528 38.9147 13.4037C38.6148 13.2795 38.2934 13.2156 37.9688 13.2156C37.6441 13.2156 37.3227 13.2795 37.0228 13.4037C36.7229 13.528 36.4504 13.71 36.2209 13.9396C35.9913 14.1691 35.8093 14.4416 35.685 14.7415C35.5608 15.0414 35.4969 15.3628 35.4969 15.6874C35.4969 16.0121 35.5608 16.3335 35.685 16.6334C35.8093 16.9333 35.9913 17.2058 36.2209 17.4353L46.8217 28.0312H3.40625C2.7515 28.0312 2.12356 28.2913 1.66058 28.7543C1.1976 29.2173 0.9375 29.8452 0.9375 30.4999C0.9375 31.1547 1.1976 31.7826 1.66058 32.2456C2.12356 32.7086 2.7515 32.9687 3.40625 32.9687H46.8217L36.2209 43.5646C35.9913 43.7941 35.8093 44.0666 35.685 44.3665C35.5608 44.6664 35.4969 44.9878 35.4969 45.3124C35.4969 45.6371 35.5608 45.9585 35.685 46.2584C35.8093 46.5583 35.9913 46.8308 36.2209 47.0603C36.4504 47.2899 36.7229 47.4719 37.0228 47.5962C37.3227 47.7204 37.6441 47.7843 37.9688 47.7843C38.2934 47.7843 38.6148 47.7204 38.9147 47.5962C39.2146 47.4719 39.4871 47.2899 39.7166 47.0603L54.5291 32.2478V32.2478Z" fill="white"/>
</svg>
