<svg width="140" height="159" viewBox="0 0 140 159" fill="none" xmlns="http://www.w3.org/2000/svg">
<path d="M176.718 31.8304C175.223 31.0182 174.55 31.6958 174.007 31.0181C173.464 30.3405 175.502 28.5765 171.431 26.8125C171.431 26.8125 171.162 23.0204 165.601 22.8809C160.04 22.7414 161.535 26.678 160.045 27.6297C158.555 28.5815 158.146 27.0866 156.656 28.0333C155.166 28.9801 155.839 30.8786 154.623 31.1527C153.407 31.4268 151.758 29.9319 150.263 30.8936C148.768 31.8553 148.768 32.6576 148.096 32.6576C147.423 32.6576 146.063 32.1144 145.25 32.6576C144.438 33.2007 143.486 33.8784 143.486 33.8784H177.784C177.784 33.8784 178.208 32.6426 176.718 31.8304Z" fill="white"/>
<path d="M155.56 43.1219C154.768 42.6884 154.409 43.0472 154.125 42.6884C153.841 42.3296 154.913 41.3978 152.76 40.461C152.76 40.461 152.615 38.4678 149.67 38.3831C146.726 38.2984 147.518 40.3763 146.731 40.8746C145.943 41.3729 145.734 40.5856 144.937 41.0889C144.139 41.5922 144.503 42.5838 143.855 42.7382C143.208 42.8927 142.36 42.0954 141.558 42.5987C140.756 43.102 140.771 43.5305 140.412 43.5305C140.053 43.5305 139.336 43.2415 138.917 43.5305C138.499 43.8196 137.985 44.1783 137.985 44.1783H156.148C156.193 43.961 156.158 43.7349 156.05 43.5411C155.942 43.3472 155.769 43.1985 155.56 43.1219V43.1219Z" fill="white"/>
<path d="M32.7489 42.2847C31.9616 41.8562 31.5978 42.215 31.3138 41.8562C31.0297 41.4974 32.1011 40.5656 29.9484 39.6288C29.9484 39.6288 29.8039 37.6356 26.8639 37.5509C23.924 37.4662 24.7063 39.5441 23.919 40.0424C23.1317 40.5407 22.9224 39.7534 22.1251 40.2567C21.3278 40.7599 21.6916 41.7516 21.0488 41.906C20.406 42.0605 19.5539 41.2632 18.7516 41.7665C17.9494 42.2698 17.9593 42.6983 17.6005 42.6983C17.2418 42.6983 16.5242 42.4093 16.1056 42.6983C15.6871 42.9873 15.1738 43.3461 15.1738 43.3461H33.3369C33.3818 43.1281 33.3471 42.9013 33.2393 42.7066C33.1314 42.5119 32.9575 42.3623 32.7489 42.2847V42.2847Z" fill="white"/>
<path d="M117.245 18.2019C115.163 17.0658 114.216 18.0126 113.458 17.0658C112.701 16.119 115.541 13.6574 109.861 11.1958C109.861 11.1958 109.482 5.8939 101.718 5.71451C93.9549 5.53512 96.0378 11.0164 93.9549 12.3419C91.872 13.6674 91.304 11.5845 89.2211 12.91C87.1382 14.2354 88.0849 16.8964 86.3807 17.2651C84.6766 17.6338 82.3943 15.5609 80.3214 16.8864C78.2485 18.2119 78.2385 19.348 77.2918 19.348C76.345 19.348 74.4514 18.5906 73.3054 19.348C72.1593 20.1054 70.8438 21.0522 70.8438 21.0522H118.75C118.75 21.0522 119.328 19.338 117.245 18.2019Z" fill="white"/>
<path d="M101.13 48.9172C103.662 47.6764 106.432 45.2398 107.798 40.4461C108.929 36.4996 108.455 32.9417 106.432 30.1512C105.414 28.7846 104.112 27.6538 102.617 26.836C101.121 26.0181 99.4671 25.5326 97.7669 25.4124C97.7304 25.4097 97.6936 25.4145 97.659 25.4264C97.6243 25.4384 97.5925 25.4574 97.5654 25.4821C97.5384 25.5068 97.5167 25.5368 97.5016 25.5703C97.4866 25.6037 97.4785 25.6398 97.4779 25.6765C97.4766 25.7131 97.4825 25.7497 97.4953 25.7841C97.5081 25.8184 97.5275 25.8499 97.5525 25.8768C97.5775 25.9036 97.6076 25.9253 97.6409 25.9405C97.6743 25.9557 97.7103 25.9642 97.747 25.9655C99.3633 26.0812 100.936 26.5439 102.357 27.3221C103.779 28.1003 105.016 29.1757 105.984 30.4751C107.902 33.1211 108.346 36.5145 107.27 40.2966C106.675 42.572 105.5 44.6544 103.861 46.341C105.002 44.804 105.75 43.0111 106.039 41.1188C106.647 37.6307 106.014 34.7605 104.16 32.558C103.441 31.718 102.589 31.001 101.639 30.4353C96.2621 25.3576 85.9024 25.3177 79.6089 30.1163C72.1842 35.7721 70.4152 42.8429 62.6418 52.7392C54.8683 62.6354 46.736 69.6814 34.3632 69.6814C21.9904 69.6814 16.2151 91.4172 30.8253 97.9599C45.4355 104.503 72.1842 106.431 84.557 100.79C96.9298 95.1495 103.647 94.427 113.189 78.865C121.511 65.3511 111.181 49.9088 101.13 48.9172ZM103.737 32.9317C105.481 34.9997 106.069 37.7304 105.496 41.0391C104.818 44.9109 102.919 47.0187 101.071 48.2196C102.755 46.3011 107.195 40.3415 104.001 33.6642C103.802 33.2631 103.581 32.8737 103.338 32.4982C103.472 32.6377 103.607 32.7773 103.737 32.9317V32.9317Z" fill="#263238"/>
<path d="M31.1689 96.4103C32.3511 96.967 33.5982 97.3738 34.8813 97.6211" stroke="white" stroke-linecap="round" stroke-linejoin="round"/>
<path d="M94.1786 50.1082C94.1786 50.1082 98.165 40.4412 91.8615 36.2355C86.719 32.8072 80.5102 39.1805 78.6216 44.4326C76.7331 49.6846 73.1403 58.9381 62.6461 64.4044C52.1519 69.8708 25.8567 72.6015 24.3867 84.167C23.6342 90.0669 26.3799 93.4454 29.26 95.3439" stroke="white" stroke-linecap="round" stroke-linejoin="round"/>
<path d="M100.642 39.3998C100.695 38.4008 100.57 37.4004 100.273 36.4449" stroke="white" stroke-linecap="round" stroke-linejoin="round"/>
<path d="M94.1787 50.1082C95.9626 48.0602 98.8876 45.3594 100.099 42.0009" stroke="white" stroke-linecap="round" stroke-linejoin="round"/>
<path d="M93.3373 49.6896C93.3373 49.6896 91.6531 40.6504 86.8195 41.4925C81.986 42.3347 84.7167 47.3775 84.7167 47.3775" stroke="white" stroke-linecap="round" stroke-linejoin="round"/>
<path d="M99.4355 52.8438C99.4355 52.8438 116.876 60.6223 115.625 71.1315" stroke="white" stroke-linecap="round" stroke-linejoin="round"/>
<path d="M108.106 81.7203C107.338 82.7482 106.475 83.7024 105.53 84.5706" stroke="white" stroke-linecap="round" stroke-linejoin="round"/>
<path d="M104.688 55.8088C104.688 55.8088 115.437 68.1417 109.517 79.5079" stroke="white" stroke-linecap="round" stroke-linejoin="round"/>
<path d="M76.743 66.4225C76.743 66.4225 75.3527 64.0257 74.3412 66.2979C73.3296 68.5702 77.3708 73.8671 78.1283 72.9851C78.8857 72.1031 76.743 66.4225 76.743 66.4225Z" fill="#574B8C"/>
<path opacity="0.5" d="M76.743 66.4225C76.743 66.4225 75.3527 64.0257 74.3412 66.2979C73.3296 68.5702 77.3708 73.8671 78.1283 72.9851C78.8857 72.1031 76.743 66.4225 76.743 66.4225Z" fill="white"/>
<path d="M76.743 66.4225C76.743 66.4225 75.3527 64.0257 74.3412 66.2979C73.3296 68.5702 77.3708 73.8671 78.1283 72.9851C78.8857 72.1031 76.743 66.4225 76.743 66.4225Z" stroke="#263238" stroke-linecap="round" stroke-linejoin="round"/>
<path d="M34.5273 157.726C34.5273 157.726 35.7183 153.271 37.6118 145.822C39.5054 138.372 51.1008 91.9206 58.077 84.2119C65.0532 76.5032 67.9184 83.9578 75.2434 86.8629C82.5684 89.768 84.3324 90.1417 84.3324 90.1417C84.3324 90.1417 85.8273 90.3958 90.5163 92.9222C95.2053 95.4486 97.2085 96.3306 101.374 97.5913C105.54 98.852 110.967 101.757 108.316 110.467C105.665 119.178 98.4393 132.442 97.941 141.786C97.4427 151.129 99.9691 157.731 99.9691 157.731" fill="white"/>
<path d="M62.5622 90.0968C70.535 91.801 76.983 105.275 76.983 105.275L88.7479 95.9767C88.8027 95.8073 88.7479 94.148 88.5834 91.9206C85.4292 90.341 84.3379 90.1516 84.3379 90.1516C84.3379 90.1516 82.569 89.7729 75.2489 86.8728C67.9289 83.9727 65.0039 76.5181 58.0775 84.2119C56.9165 85.4975 55.6259 87.8694 54.2705 90.9589C56.8587 89.7468 59.78 89.4431 62.5622 90.0968V90.0968Z" fill="#574B8C"/>
<path opacity="0.5" d="M62.5622 90.0968C70.535 91.801 76.983 105.275 76.983 105.275L88.7479 95.9767C88.8027 95.8073 88.7479 94.148 88.5834 91.9206C85.4292 90.341 84.3379 90.1516 84.3379 90.1516C84.3379 90.1516 82.569 89.7729 75.2489 86.8728C67.9289 83.9727 65.0039 76.5181 58.0775 84.2119C56.9165 85.4975 55.6259 87.8694 54.2705 90.9589C56.8587 89.7468 59.78 89.4431 62.5622 90.0968V90.0968Z" fill="white"/>
<path d="M101.644 112.69C101.644 112.69 102.167 116.103 100.857 123.194C99.5462 130.285 96.6561 141.048 92.9786 146.828C89.3012 152.609 87.7266 151.811 87.7266 151.811C87.7266 151.811 90.0885 140.52 93.5019 134.48C96.9152 128.441 101.121 116.895 101.644 112.69Z" fill="#574B8C"/>
<path opacity="0.5" d="M101.644 112.69C101.644 112.69 102.167 116.103 100.857 123.194C99.5462 130.285 96.6561 141.048 92.9786 146.828C89.3012 152.609 87.7266 151.811 87.7266 151.811C87.7266 151.811 90.0885 140.52 93.5019 134.48C96.9152 128.441 101.121 116.895 101.644 112.69Z" fill="white"/>
<path d="M34.5273 157.726C34.5273 157.726 35.7183 153.271 37.6118 145.822C39.5054 138.372 51.1008 91.9206 58.077 84.2119C65.0532 76.5032 67.9184 83.9578 75.2434 86.8629C82.5684 89.768 84.3324 90.1417 84.3324 90.1417C84.3324 90.1417 85.8273 90.3958 90.5163 92.9222C95.2053 95.4486 97.2085 96.3306 101.374 97.5913C105.54 98.852 110.967 101.757 108.316 110.467C105.665 119.178 98.4393 132.442 97.941 141.786C97.4427 151.129 99.9691 157.731 99.9691 157.731" stroke="#263238" stroke-linecap="round" stroke-linejoin="round"/>
<path d="M49.96 158C49.96 158 58.1869 145.318 63.8675 136.229C69.5481 127.14 71.3121 116.661 73.3352 104.418C75.3583 92.1747 79.5191 89.2697 82.3046 89.6484C85.0901 90.0271 92.6593 93.3109 93.6659 94.6961C94.6724 96.0814 96.0677 97.2225 95.8135 104.921C95.5594 112.62 93.038 122.471 88.7426 131.431C84.4473 140.39 79.0059 146.2 77.0127 150.486C75.0195 154.771 74.6158 157.557 74.6158 157.557" fill="#574B8C"/>
<path d="M76.9628 105.275L88.7276 95.9768C88.7824 95.8024 88.6977 94.0683 88.5532 91.7562C86.2062 90.7297 83.6699 89.8377 82.2946 89.6484C79.8529 89.3145 76.3399 91.522 74.1523 100.382C75.1825 101.957 76.1209 103.591 76.9628 105.275V105.275Z" fill="#574B8C"/>
<path opacity="0.3" d="M76.9628 105.275L88.7276 95.9768C88.7824 95.8024 88.6977 94.0683 88.5532 91.7562C86.2062 90.7297 83.6699 89.8377 82.2946 89.6484C79.8529 89.3145 76.3399 91.522 74.1523 100.382C75.1825 101.957 76.1209 103.591 76.9628 105.275V105.275Z" fill="black"/>
<path d="M49.96 158C49.96 158 58.1869 145.318 63.8675 136.229C69.5481 127.14 71.3121 116.661 73.3352 104.418C75.3583 92.1747 79.5191 89.2697 82.3046 89.6484C85.0901 90.0271 92.6593 93.3109 93.6659 94.6961C94.6724 96.0814 96.0677 97.2225 95.8135 104.921C95.5594 112.62 93.038 122.471 88.7426 131.431C84.4473 140.39 79.0059 146.2 77.0127 150.486C75.0195 154.771 74.6158 157.557 74.6158 157.557" stroke="#263238" stroke-linecap="round" stroke-linejoin="round"/>
<path d="M101.988 110.123C101.33 122.86 93.4568 133.299 89.6199 145.104C88.4269 148.633 87.5693 152.267 87.0586 155.957" stroke="#263238" stroke-linecap="round" stroke-linejoin="round"/>
<path d="M98.5794 137.869C98.5794 137.869 97.1942 140.022 91.7627 139.523" stroke="#263238" stroke-linecap="round" stroke-linejoin="round"/>
<path d="M80.7793 79.6773C80.7793 79.6773 82.2742 82.3283 80.7793 88.0089C79.2844 93.6895 74.72 107.193 76.7431 116.282C78.7662 125.371 82.2941 127.14 86.7091 123.986C91.124 120.832 94.0291 113.382 95.1802 104.672C96.3312 95.9618 92.5292 95.2044 94.2982 89.7729C96.0671 84.3414 96.4458 76.5181 96.4458 76.5181C96.4458 76.5181 91.0144 79.6773 87.1027 80.1806C83.1911 80.6839 80.7793 79.6773 80.7793 79.6773Z" fill="white"/>
<path d="M95.7092 76.9217C94.1047 77.7888 90.1432 79.787 87.0936 80.1806C83.1819 80.6789 80.7801 79.6823 80.7801 79.6823C80.7801 79.6823 82.275 82.3333 80.7801 88.0139C79.6091 92.4189 76.6143 101.528 76.2705 109.63C76.8834 105.569 78.0694 101.906 79.1756 101.906C81.0044 101.906 84.8861 105.33 84.8861 104.398C84.8861 103.466 83.2866 102.111 82.6039 101.408C81.9212 100.706 87.1733 96.1511 90.5767 90.899C92.6665 87.5879 94.499 84.1212 96.058 80.5294C96.1377 79.8368 96.1975 79.2039 96.2474 78.6558L95.7092 76.9217Z" fill="#574B8C"/>
<path d="M81.6475 125.167C82.7537 125.611 83.9745 125.476 85.29 124.843C85.6887 123.019 85.3399 121.3 84.6572 119.262C83.7901 116.656 82.9181 122.382 81.6475 125.167Z" fill="#574B8C"/>
<g opacity="0.5">
<path opacity="0.5" d="M95.7092 76.9217C94.1047 77.7888 90.1432 79.787 87.0936 80.1806C83.1819 80.6789 80.7801 79.6823 80.7801 79.6823C80.7801 79.6823 82.275 82.3333 80.7801 88.0139C79.6091 92.4189 76.6143 101.528 76.2705 109.63C76.8834 105.569 78.0694 101.906 79.1756 101.906C81.0044 101.906 84.8861 105.33 84.8861 104.398C84.8861 103.466 83.2866 102.111 82.6039 101.408C81.9212 100.706 87.1733 96.1511 90.5767 90.899C92.6665 87.5879 94.499 84.1212 96.058 80.5294C96.1377 79.8368 96.1975 79.2039 96.2474 78.6558L95.7092 76.9217Z" fill="white"/>
<path opacity="0.5" d="M81.6475 125.167C82.7537 125.611 83.9745 125.476 85.29 124.843C85.6887 123.019 85.3399 121.3 84.6572 119.262C83.7901 116.656 82.9181 122.382 81.6475 125.167Z" fill="white"/>
</g>
<path d="M80.7793 79.6773C80.7793 79.6773 82.2742 82.3283 80.7793 88.0089C79.2844 93.6895 74.72 107.193 76.7431 116.282C78.7662 125.371 82.2941 127.14 86.7091 123.986C91.124 120.832 94.0291 113.382 95.1802 104.672C96.3312 95.9618 92.5292 95.2044 94.2982 89.7729C96.0671 84.3414 96.4458 76.5181 96.4458 76.5181C96.4458 76.5181 91.0144 79.6773 87.1027 80.1806C83.1911 80.6839 80.7793 79.6773 80.7793 79.6773Z" stroke="#263238" stroke-linecap="round" stroke-linejoin="round"/>
<path d="M100.224 64.4044C100.224 64.4044 100.722 58.5942 97.5726 54.3038C94.4234 50.0135 88.9869 48.2445 82.9276 50.6413C76.8683 53.0381 76.2354 59.1124 76.365 63.7715C76.4945 68.4306 78.0044 76.7722 79.6438 79.6773C81.2832 82.5823 84.1883 85.9857 88.4836 85.1038C92.779 84.2218 97.453 78.287 98.5792 75.636C99.1759 74.3386 99.6416 72.9848 99.9695 71.5948C99.9695 71.5948 104.135 69.198 104.26 66.1683C104.384 63.1387 102.496 59.8599 100.224 64.4044Z" fill="white"/>
<path d="M89.2655 83.9777C86.6395 84.5807 84.6213 81.3517 86.8438 79.1293C89.0662 76.9068 89.4698 76.2989 89.8734 74.6844C90.277 73.0699 88.2589 75.4917 86.4401 75.4917C84.6213 75.4917 84.0134 73.4735 84.0134 73.4735C84.0134 73.4735 83.0168 69.228 85.1994 66.0439C87.3819 62.8598 85.1994 63.7766 83.8141 62.3166C82.4288 60.8566 83.8141 61.7535 85.8073 59.7952C87.8005 57.8369 85.1994 55.3105 88.234 53.2725C91.2687 51.2344 95.2999 52.4652 95.2999 52.4652L95.4245 52.0765C92.2204 49.4804 87.7656 48.718 82.9022 50.6414C76.8429 53.0432 76.21 59.1125 76.3396 63.7716C76.4692 68.4307 77.979 76.7723 79.6184 79.6774C81.2578 82.5825 84.1629 85.9859 88.4583 85.1039C91.1291 84.5557 93.9396 82.0443 95.9726 79.5877C94.0542 81.0876 91.2537 83.5143 89.2655 83.9777Z" fill="#574B8C"/>
<path opacity="0.5" d="M89.2655 83.9777C86.6395 84.5807 84.6213 81.3517 86.8438 79.1293C89.0662 76.9068 89.4698 76.2989 89.8734 74.6844C90.277 73.0699 88.2589 75.4917 86.4401 75.4917C84.6213 75.4917 84.0134 73.4735 84.0134 73.4735C84.0134 73.4735 83.0168 69.228 85.1994 66.0439C87.3819 62.8598 85.1994 63.7766 83.8141 62.3166C82.4288 60.8566 83.8141 61.7535 85.8073 59.7952C87.8005 57.8369 85.1994 55.3105 88.234 53.2725C91.2687 51.2344 95.2999 52.4652 95.2999 52.4652L95.4245 52.0765C92.2204 49.4804 87.7656 48.718 82.9022 50.6414C76.8429 53.0432 76.21 59.1125 76.3396 63.7716C76.4692 68.4307 77.979 76.7723 79.6184 79.6774C81.2578 82.5825 84.1629 85.9859 88.4583 85.1039C91.1291 84.5557 93.9396 82.0443 95.9726 79.5877C94.0542 81.0876 91.2537 83.5143 89.2655 83.9777Z" fill="white"/>
<path d="M100.224 64.4044C100.224 64.4044 100.722 58.5942 97.5726 54.3038C94.4234 50.0135 88.9869 48.2445 82.9276 50.6413C76.8683 53.0381 76.2354 59.1124 76.365 63.7715C76.4945 68.4306 78.0044 76.7722 79.6438 79.6773C81.2832 82.5823 84.1883 85.9857 88.4836 85.1038C92.779 84.2218 97.453 78.287 98.5792 75.636C99.1759 74.3386 99.6416 72.9848 99.9695 71.5948C99.9695 71.5948 104.135 69.198 104.26 66.1683C104.384 63.1387 102.496 59.8599 100.224 64.4044Z" stroke="#263238" stroke-linecap="round" stroke-linejoin="round"/>
<path d="M84.1883 58.5943C84.1883 58.5943 83.8096 63.2683 82.2948 64.1503C80.78 65.0323 76.8683 66.298 75.2289 65.0323C73.5895 63.7666 71.8205 59.4813 73.0812 58.4697C74.3419 57.4582 81.1587 56.1975 82.2948 56.1975C83.4309 56.1975 84.1883 57.209 84.1883 58.5943Z" fill="white"/>
<path d="M74.8203 64.6537C74.9463 64.7904 75.083 64.9171 75.2289 65.0324C76.8683 66.2931 80.78 65.0324 82.2948 64.1504C83.8096 63.2684 84.1883 58.5943 84.1883 58.5943C84.1907 58.2725 84.1471 57.952 84.0588 57.6426C77.9148 59.6158 75.6525 62.7502 74.8203 64.6537Z" fill="#574B8C"/>
<path d="M84.1883 58.5943C84.1883 58.5943 83.8096 63.2683 82.2948 64.1503C80.78 65.0323 76.8683 66.298 75.2289 65.0323C73.5895 63.7666 71.8205 59.4813 73.0812 58.4697C74.3419 57.4582 81.1587 56.1975 82.2948 56.1975C83.4309 56.1975 84.1883 57.209 84.1883 58.5943Z" stroke="#263238" stroke-linecap="round" stroke-linejoin="round"/>
<path d="M88.7025 57.9266C88.7025 57.9266 90.033 62.4113 91.6923 62.9743C93.3516 63.5374 97.4427 63.9709 98.7881 62.3863C100.133 60.8017 100.986 56.2523 99.5455 55.5198C98.1054 54.7873 91.1691 54.9567 90.0778 55.1909C88.9865 55.4251 88.4185 56.5662 88.7025 57.9266Z" fill="white"/>
<path d="M98.7935 62.3863C99.8798 61.1206 100.642 57.9016 100.144 56.3369C94.5729 56.3868 91.0898 58.5544 89.4404 59.9247C89.9836 61.2053 90.7908 62.6703 91.6977 62.9743C93.3621 63.5274 97.4431 63.9609 98.7935 62.3863Z" fill="#574B8C"/>
<path d="M88.7025 57.9266C88.7025 57.9266 90.033 62.4113 91.6923 62.9743C93.3516 63.5374 97.4427 63.9709 98.7881 62.3863C100.133 60.8017 100.986 56.2523 99.5455 55.5198C98.1054 54.7873 91.1691 54.9567 90.0778 55.1909C88.9865 55.4251 88.4185 56.5662 88.7025 57.9266Z" stroke="#263238" stroke-linecap="round" stroke-linejoin="round"/>
<path d="M84.3174 57.5876C84.8046 56.9428 85.5178 56.5062 86.3137 56.3657C87.1096 56.2252 87.9292 56.3911 88.6077 56.8302" stroke="#263238" stroke-linecap="round" stroke-linejoin="round"/>
<path d="M86.2116 57.9016C86.2116 57.9016 86.969 58.5294 85.8329 59.7951C84.6967 61.0608 83.436 61.4345 83.8397 62.3165C84.2433 63.1985 85.9873 63.8114 86.366 64.21" stroke="#263238" stroke-linecap="round" stroke-linejoin="round"/>
<path d="M94.9218 67.0504C94.9218 67.0504 94.7923 67.6833 91.7626 67.18C88.7329 66.6767 87.8509 65.1868 85.2 66.0439C82.549 66.9009 81.6671 68.3161 81.0342 68.5653L80.4014 68.8194C80.4014 68.8194 82.8032 72.1032 84.1884 74.3754C85.5737 76.6477 87.4772 76.6477 88.9721 75.7408C90.467 74.8339 93.2625 70.3143 93.7708 69.3027L94.9218 67.0504Z" fill="#263238" stroke="#263238" stroke-linecap="round" stroke-linejoin="round"/>
<path d="M94.0347 67.8077C94.0347 67.8077 92.9135 68.5701 90.6812 68.1964C88.4488 67.8227 87.801 66.7015 85.8477 67.3592C83.8943 68.017 82.8878 68.5103 82.4243 68.6947C82.0673 68.8617 81.7325 69.0726 81.4277 69.3226C82.3622 70.3429 83.2074 71.4415 83.9541 72.6064C84.9507 74.2806 87.3774 74.6593 88.4936 74.0066C89.6098 73.3538 91.8123 70.5185 92.186 69.776C92.5598 69.0335 94.0347 67.8077 94.0347 67.8077Z" fill="white" stroke="#263238" stroke-linecap="round" stroke-linejoin="round"/>
<path d="M72.1988 86.4941C71.8201 86.3645 70.4298 82.3283 64.8738 80.4348C59.3177 78.5412 56.1635 81.9297 53.4129 86.7432C50.6623 91.5568 47.6077 100.252 45.4401 104.543C43.2725 108.833 39.1416 111.618 38.9971 117.169C38.8526 122.721 41.3989 126.139 44.5531 125.88C47.7074 125.621 50.2337 122.093 54.9028 115.655C59.5719 109.217 64.1164 97.8553 64.1164 97.8553" fill="white"/>
<path d="M72.1992 86.4941C71.8205 86.3645 70.4303 82.3283 64.8742 80.4348C59.3182 78.5412 56.1689 81.9297 53.4133 86.7432C52.1593 89.033 51.0363 91.3921 50.0498 93.8091C53.8319 90.4755 57.8283 89.0803 62.5671 90.0968C64.4786 90.5807 66.2479 91.5115 67.7295 92.8125L72.1992 86.4941Z" fill="#574B8C"/>
<path opacity="0.5" d="M72.1992 86.4941C71.8205 86.3645 70.4303 82.3283 64.8742 80.4348C59.3182 78.5412 56.1689 81.9297 53.4133 86.7432C52.1593 89.033 51.0363 91.3921 50.0498 93.8091C53.8319 90.4755 57.8283 89.0803 62.5671 90.0968C64.4786 90.5807 66.2479 91.5115 67.7295 92.8125L72.1992 86.4941Z" fill="white"/>
<path d="M72.1988 86.4941C71.8201 86.3645 70.4298 82.3283 64.8738 80.4348C59.3177 78.5412 56.1635 81.9297 53.4129 86.7432C50.6623 91.5568 47.6077 100.252 45.4401 104.543C43.2725 108.833 39.1416 111.618 38.9971 117.169C38.8526 122.721 41.3989 126.139 44.5531 125.88C47.7074 125.621 50.2337 122.093 54.9028 115.655C59.5719 109.217 64.1164 97.8553 64.1164 97.8553" stroke="#263238" stroke-linecap="round" stroke-linejoin="round"/>
<path d="M55.5857 114.678C54.6819 113.074 53.6539 111.543 52.5112 110.099C50.6551 107.684 48.0598 105.942 45.1214 105.141C42.9089 109.092 39.1418 111.868 39.0122 117.155C38.8877 122.706 41.414 126.124 44.5683 125.865C47.7225 125.606 50.2489 122.078 54.918 115.64C55.1322 115.341 55.3565 115.012 55.5857 114.678Z" fill="white" stroke="#263238" stroke-linecap="round" stroke-linejoin="round"/>
<path d="M61.8539 29.8125H40.3821C39.7574 29.8125 39.251 30.3189 39.251 30.9436V70.3393C39.251 70.964 39.7574 71.4704 40.3821 71.4704H61.8539C62.4786 71.4704 62.985 70.964 62.985 70.3393V30.9436C62.985 30.3189 62.4786 29.8125 61.8539 29.8125Z" fill="#574B8C" stroke="#263238" stroke-linecap="round" stroke-linejoin="round"/>
<path d="M61.9189 52.3556V55.5248" stroke="white" stroke-linecap="round" stroke-linejoin="round"/>
<path d="M58.7451 30.819H60.7882C61.0881 30.819 61.3759 30.9381 61.588 31.1503C61.8001 31.3624 61.9193 31.6501 61.9193 31.9501V50.0882" stroke="white" stroke-linecap="round" stroke-linejoin="round"/>
<path d="M53.9863 30.819H56.2536" stroke="white" stroke-linecap="round" stroke-linejoin="round"/>
<path d="M45.8145 34.3819C45.8135 33.9819 45.6937 33.5913 45.4702 33.2595C45.2467 32.9278 44.9297 32.6699 44.5594 32.5187C44.1891 32.3675 43.7822 32.3297 43.3904 32.4102C42.9986 32.4907 42.6395 32.6858 42.3588 32.9707C42.0781 33.2556 41.8884 33.6175 41.8138 34.0105C41.7391 34.4035 41.783 34.8097 41.9397 35.1778C42.0964 35.5458 42.3589 35.8589 42.694 36.0774C43.029 36.2959 43.4214 36.4099 43.8213 36.405C44.0856 36.405 44.3473 36.3525 44.5911 36.2505C44.8349 36.1484 45.0559 35.9989 45.2414 35.8107C45.4269 35.6224 45.5731 35.3991 45.6715 35.1539C45.7699 34.9086 45.8185 34.6462 45.8145 34.3819Z" fill="#263238"/>
<path d="M41.0206 47.8659C41.0206 47.8659 36.4761 53.6711 33.1923 56.5762C29.9085 59.4813 32.0562 61.7037 33.1923 64.1055C34.3285 66.5073 36.3466 79.4233 36.9794 83.9678C37.6123 88.5123 35.34 103.157 34.7072 111.489C34.0743 119.82 39.3762 127.14 41.9026 128.401C44.429 129.662 46.0684 127.903 48.9735 122.093C51.8786 116.283 49.3522 109.844 47.7078 102.659C46.0634 95.4735 43.0388 83.7236 43.0388 83.7236C43.0388 83.7236 45.6897 82.9662 45.9438 80.4448C46.198 77.9234 45.1864 74.0068 45.1864 74.0068C45.1864 74.0068 52.8852 74.1313 55.9148 73.6281C58.9445 73.1248 62.2233 72.3624 59.951 71.8591C57.6788 71.3558 55.6607 71.8591 51.1162 71.605C48.2433 71.3917 45.4649 70.4855 43.0188 68.964C45.1586 67.9552 47.4813 67.3924 49.8455 67.3096C53.224 67.1551 56.9264 68.0371 58.9445 67.6086C60.843 67.2099 62.2034 66.5671 61.436 65.8097C60.6686 65.0523 59.2783 65.3114 56.453 64.8131C54.7787 64.5291 52.1427 63.0242 49.6512 63.0143C47.4543 63.0445 45.2729 63.3885 43.1733 64.0358C42.675 64.0358 46.3674 60.732 47.8822 60.3533C49.3971 59.9746 54.5345 61.8881 56.6822 61.8881C58.8299 61.8881 61.3513 61.1307 61.4759 60.2487C61.6004 59.3667 62.3628 58.983 59.4577 58.8584C56.5526 58.7339 52.2623 57.0895 49.7409 56.2075C47.2195 55.3255 45.4455 56.0829 43.9307 56.8403C42.4159 57.5977 38.6288 58.983 38.6288 58.983L43.4723 52.6945C43.4723 52.6945 48.7293 54.9468 51.759 54.8172C54.7887 54.6877 58.4512 52.545 57.1855 51.9171C55.9198 51.2893 53.1493 51.663 48.4752 50.2727C43.8011 48.8825 42.7846 46.4757 41.0206 47.8659Z" fill="white"/>
<path d="M33.1923 64.1054C34.3285 66.5022 36.3466 79.4232 36.9794 83.9677C37.6123 88.5122 35.34 103.157 34.7072 111.489C34.0743 119.82 39.3762 127.14 41.9026 128.401C44.3144 129.607 45.9239 128.037 48.5948 122.83C48.2659 123.194 47.8772 123.597 47.4138 124.061C44.6732 126.807 42.6152 127.26 40.5622 120.862C38.5092 114.464 39.6453 93.2161 39.1919 86.8179C38.9286 82.706 39.0053 78.5793 39.4211 74.48C39.4211 74.48 39.2517 70.2146 35.9928 65.3412C32.7339 60.4678 33.1923 56.5761 33.1923 56.5761C29.9085 59.4812 32.0562 61.7036 33.1923 64.1054Z" fill="#574B8C"/>
<path opacity="0.5" d="M33.1923 64.1054C34.3285 66.5022 36.3466 79.4232 36.9794 83.9677C37.6123 88.5122 35.34 103.157 34.7072 111.489C34.0743 119.82 39.3762 127.14 41.9026 128.401C44.3144 129.607 45.9239 128.037 48.5948 122.83C48.2659 123.194 47.8772 123.597 47.4138 124.061C44.6732 126.807 42.6152 127.26 40.5622 120.862C38.5092 114.464 39.6453 93.2161 39.1919 86.8179C38.9286 82.706 39.0053 78.5793 39.4211 74.48C39.4211 74.48 39.2517 70.2146 35.9928 65.3412C32.7339 60.4678 33.1923 56.5761 33.1923 56.5761C29.9085 59.4812 32.0562 61.7036 33.1923 64.1054Z" fill="white"/>
<path d="M41.0206 47.8659C41.0206 47.8659 36.4761 53.6711 33.1923 56.5762C29.9085 59.4813 32.0562 61.7037 33.1923 64.1055C34.3285 66.5073 36.3466 79.4233 36.9794 83.9678C37.6123 88.5123 35.34 103.157 34.7072 111.489C34.0743 119.82 39.3762 127.14 41.9026 128.401C44.429 129.662 46.0684 127.903 48.9735 122.093C51.8786 116.283 49.3522 109.844 47.7078 102.659C46.0634 95.4735 43.0388 83.7236 43.0388 83.7236C43.0388 83.7236 45.6897 82.9662 45.9438 80.4448C46.198 77.9234 45.1864 74.0068 45.1864 74.0068C45.1864 74.0068 52.8852 74.1313 55.9148 73.6281C58.9445 73.1248 62.2233 72.3624 59.951 71.8591C57.6788 71.3558 55.6607 71.8591 51.1162 71.605C48.2433 71.3917 45.4649 70.4855 43.0188 68.964C45.1586 67.9552 47.4813 67.3924 49.8455 67.3096C53.224 67.1551 56.9264 68.0371 58.9445 67.6086C60.843 67.2099 62.2034 66.5671 61.436 65.8097C60.6686 65.0523 59.2783 65.3114 56.453 64.8131C54.7787 64.5291 52.1427 63.0242 49.6512 63.0143C47.4543 63.0445 45.2729 63.3885 43.1733 64.0358C42.675 64.0358 46.3674 60.732 47.8822 60.3533C49.3971 59.9746 54.5345 61.8881 56.6822 61.8881C58.8299 61.8881 61.3513 61.1307 61.4759 60.2487C61.6004 59.3667 62.3628 58.983 59.4577 58.8584C56.5526 58.7339 52.2623 57.0895 49.7409 56.2075C47.2195 55.3255 45.4455 56.0829 43.9307 56.8403C42.4159 57.5977 38.6288 58.983 38.6288 58.983L43.4723 52.6945C43.4723 52.6945 48.7293 54.9468 51.759 54.8172C54.7887 54.6877 58.4512 52.545 57.1855 51.9171C55.9198 51.2893 53.1493 51.663 48.4752 50.2727C43.8011 48.8825 42.7846 46.4757 41.0206 47.8659Z" stroke="#263238" stroke-linecap="round" stroke-linejoin="round"/>
<path d="M45.1867 73.9967H41.7783" stroke="#263238" stroke-linecap="round" stroke-linejoin="round"/>
</svg>
