<svg width="195" height="180" viewBox="0 0 195 180" fill="none" xmlns="http://www.w3.org/2000/svg">
<path d="M182.342 108.196H110.63V1H194V108.196H182.342Z" stroke="black" stroke-miterlimit="10"/>
<path d="M190.98 4.88574H113.657V104.31H190.98V4.88574Z" fill="white" stroke="black" stroke-miterlimit="10"/>
<path d="M147.098 70.4764V65.1777H149.745V62.5121H147.107C147.107 61.6267 147.107 60.7366 147.107 59.8512H152.415V57.2042H155.067V59.8373H157.728V54.5154H165.701V57.1624H168.339V54.5154H165.692V51.8452H160.375V46.5697H152.397V49.2214H147.107V54.5386H149.74V57.1903H147.093V59.8466H144.442V57.1856H136.473V54.5386H144.442V33.2697H147.107C147.107 35.8287 147.107 38.3876 147.107 40.9465V41.234H149.763V35.9353H152.41V41.2432H155.081V43.8903H168.367V46.5419H171.028V49.2167H168.381V51.8823H171.018V57.2042H173.684V62.5168H171.046V67.8201H173.647V70.4764H178.955V73.128H171.018V78.436H168.367V75.7843H163.036V73.128H160.384V70.4764H165.673V67.8201H152.42V70.4624H147.098V70.4764ZM163.036 62.5029V59.8605H160.398V62.4982H163.045V65.1452H168.339V62.5029H163.036ZM157.714 62.5029H155.104V65.1313H157.732L157.714 62.5029ZM163.05 49.1843H165.678V46.5512H163.05V49.1843Z" fill="black"/>
<path d="M123.182 41.2248V22.6447H141.757V41.2248H123.182ZM125.847 25.3102V38.5731H139.105V25.3102H125.847Z" fill="black"/>
<path d="M178.969 41.2296H160.394V22.6541H178.969V41.2296ZM176.317 25.3104H163.059V38.5687H176.317V25.3104Z" fill="black"/>
<path d="M123.187 59.8514H141.767V78.4316H123.187V59.8514ZM139.11 62.517H125.847V75.7799H139.11V62.517Z" fill="black"/>
<path d="M147.092 33.27V27.9527H144.44V22.6494H157.703V27.9435H155.103V30.6044H157.731V35.9077H155.084V33.27H152.414V30.6183H149.762V33.2607H147.087L147.092 33.27ZM149.758 27.9342H152.391V25.3103H149.758V27.9342Z" fill="black"/>
<path d="M136.459 46.5515V49.2077H141.767V51.8594H133.807V57.172H123.191V51.8872H125.82V54.5157H131.151V46.5515H136.464H136.459Z" fill="black"/>
<path d="M147.087 70.4715V73.1278H149.744V75.7794H152.391V78.4357H144.44V70.4761H147.078L147.087 70.4715Z" fill="black"/>
<path d="M131.151 46.5513H125.838V49.1983H123.191V43.9136H131.142V46.556L131.151 46.5513Z" fill="black"/>
<path d="M178.968 51.8592H176.335V46.5605H173.684V43.9088H178.968V51.8592Z" fill="black"/>
<path d="M136.463 46.5606V43.9136H141.761V46.5513H136.458L136.463 46.5606Z" fill="black"/>
<path d="M173.674 57.1902V54.5432H176.312V57.181H173.646L173.674 57.1902Z" fill="black"/>
<path d="M176.34 59.856H178.968V62.4891H176.34V59.856Z" fill="black"/>
<path d="M155.066 41.2431V38.5961H157.709V41.2339H155.062L155.066 41.2431Z" fill="black"/>
<path d="M147.097 65.1779H144.44V62.5262H147.078V65.1779H147.097Z" fill="black"/>
<path d="M173.674 67.8201V65.1777H176.312V67.8155H173.674V67.8201Z" fill="black"/>
<path d="M171.008 49.2171H173.646V51.8688H171.008V49.2032V49.2171Z" fill="black"/>
<path d="M157.709 75.7797H155.076V73.1512H157.709V75.7797Z" fill="black"/>
<path d="M163.035 75.7843V78.4313H160.397V75.7936H163.044L163.035 75.7843Z" fill="black"/>
<path d="M178.968 78.4406H176.34V75.8075H178.968V78.4406Z" fill="black"/>
<path d="M157.727 54.5157H155.104V51.878H157.746V54.5157H157.727Z" fill="black"/>
<path d="M136.445 35.9121H128.499V27.9664H136.445V35.9121Z" fill="black"/>
<path d="M165.705 35.9073V27.9616H173.646V35.9073H165.705Z" fill="black"/>
<path d="M128.499 73.1188V65.1777H136.445V73.1234L128.499 73.1188Z" fill="black"/>
<path d="M130.9 16.3494H119.265V29.1858" stroke="#FBD689" stroke-width="2" stroke-miterlimit="10"/>
<path d="M173.216 16.3494H184.847V29.1858" stroke="#FBD689" stroke-width="2" stroke-miterlimit="10"/>
<path d="M130.9 83.9477H119.265V71.1113" stroke="#FBD689" stroke-width="2" stroke-miterlimit="10"/>
<path d="M173.216 83.9477H184.847V71.1113" stroke="#FBD689" stroke-width="2" stroke-miterlimit="10"/>
<path d="M22.5605 88.3194L24.3659 114.289L13.1066 109.033L10.2529 120.452C10.2529 120.452 34.4217 133.958 36.824 133.512C39.2263 133.066 33.2229 80.5203 33.2229 80.5203L22.5605 88.3194Z" fill="#FBD689"/>
<path d="M36.7161 133.75C33.6586 133.75 12.5716 122.015 10.1353 120.646C10.0884 120.622 10.0514 120.582 10.0302 120.533C10.009 120.485 10.005 120.431 10.0188 120.379L12.8676 108.97C12.8763 108.935 12.8927 108.902 12.9155 108.875C12.9383 108.847 12.967 108.824 12.9995 108.809C13.032 108.794 13.0675 108.786 13.1035 108.786C13.1394 108.786 13.1749 108.794 13.2073 108.809L24.093 113.886L22.3216 88.3291C22.3174 88.2881 22.3242 88.2468 22.3413 88.2092C22.3583 88.1717 22.385 88.1394 22.4186 88.1156L33.0956 80.3117C33.1298 80.2858 33.1704 80.2695 33.213 80.2644C33.2556 80.2592 33.2988 80.2655 33.3382 80.2826C33.3766 80.3012 33.4096 80.3292 33.4342 80.364C33.4588 80.3988 33.4742 80.4392 33.479 80.4816C33.479 80.6126 34.9932 93.7695 36.1822 106.81C38.6088 133.41 37.4003 133.638 36.8859 133.735L36.7161 133.75ZM10.5332 120.321C20.2396 125.732 35.1048 133.575 36.7791 133.26C38.2594 132.187 35.2844 100.787 33.0276 80.9523L22.8117 88.4213L24.6074 114.255C24.6104 114.297 24.6021 114.34 24.5833 114.378C24.5646 114.417 24.5361 114.449 24.5006 114.473C24.4634 114.493 24.4217 114.504 24.3793 114.504C24.3369 114.504 24.2952 114.493 24.258 114.473L13.2656 109.377L10.5332 120.321Z" fill="black"/>
<path d="M38.7895 150.964C38.7895 150.964 51.7523 146.509 56.819 142.258C61.8857 138.006 35.3438 86.5483 35.3438 86.5483C35.3438 86.5483 35.7514 133.75 38.7895 150.964Z" fill="#FBD689"/>
<path d="M38.789 151.212C38.7449 151.21 38.7017 151.199 38.6628 151.178C38.633 151.159 38.6076 151.134 38.5884 151.105C38.5691 151.076 38.5564 151.042 38.5512 151.008C35.5422 133.968 35.1054 87.0237 35.1006 86.5529C35.1001 86.4983 35.118 86.4451 35.1515 86.402C35.185 86.3588 35.232 86.3282 35.285 86.3151C35.3386 86.3015 35.3952 86.3066 35.4456 86.3295C35.4959 86.3524 35.5368 86.3919 35.5617 86.4413C36.6488 88.5476 62.1279 138.113 56.9738 142.442C51.9314 146.674 39.0171 151.153 38.8667 151.178C38.8432 151.194 38.8169 151.205 38.789 151.212ZM35.5908 87.5721C35.6684 94.5315 36.2605 134.842 38.988 150.663C40.871 149.998 52.0915 145.931 56.668 142.088C60.6088 138.754 43.2248 102.466 35.5908 87.5721Z" fill="black"/>
<path d="M93.0576 134.342L91.558 134.565C91.5637 134.639 91.5637 134.714 91.558 134.788C91.4415 136.73 81.0267 141.845 73.6693 144.621C72.0629 145.863 69.9081 146.494 67.2 146.494H67.1369C61.4636 147.043 50.5537 144.553 48.0882 142.854L45.4287 170.032C45.8558 170.245 46.2926 170.444 46.7342 170.643C52.4965 173.196 59.3201 174.474 67.2049 174.477C76.3094 174.477 84.0356 172.682 90.3835 169.09L90.5194 169.013C90.9222 168.78 91.3154 168.527 91.7085 168.304C92.1016 168.081 92.6354 167.707 93.0868 167.397L93.4993 167.11L94.4408 166.431L94.8776 166.096C95.1882 165.858 95.4939 165.611 95.79 165.373L96.1588 165.072C96.5713 164.727 96.979 164.378 97.3721 164.014C95.6929 151.998 93.0576 134.342 93.0576 134.342Z" fill="#737373"/>
<path d="M67.2193 174.735C59.3427 174.735 52.422 173.439 46.6468 170.882C46.2068 170.681 45.77 170.477 45.3364 170.27C45.288 170.246 45.2488 170.207 45.2248 170.158C45.2022 170.117 45.1937 170.069 45.2005 170.023L47.8601 142.845C47.8629 142.803 47.8771 142.762 47.9009 142.727C47.9248 142.692 47.9576 142.664 47.996 142.646C48.0323 142.625 48.0732 142.615 48.1149 142.615C48.1565 142.615 48.1974 142.625 48.2338 142.646C50.6603 144.296 61.5072 146.79 67.1271 146.247H67.2048C69.8546 146.247 71.9803 145.631 73.5381 144.422L73.6012 144.388C81.5556 141.389 91.2376 136.429 91.3347 134.769C91.3382 134.711 91.3382 134.653 91.3347 134.594C91.3263 134.532 91.343 134.468 91.3811 134.417C91.4192 134.366 91.4757 134.332 91.5385 134.323L93.0381 134.099C93.1017 134.091 93.166 134.108 93.2176 134.146C93.2692 134.184 93.304 134.24 93.3148 134.303C93.3148 134.478 95.9694 152.095 97.6438 163.99C97.6489 164.021 97.6476 164.053 97.6401 164.084C97.6326 164.115 97.619 164.144 97.6001 164.17L97.5516 164.213C97.2022 164.538 96.7993 164.883 96.3431 165.266L95.9743 165.567C95.6734 165.815 95.3677 166.053 95.0571 166.3L94.6154 166.635C94.3048 166.863 93.9894 167.091 93.6691 167.314L93.5332 167.412L93.2565 167.606C92.747 167.95 92.2859 168.251 91.8637 168.518C91.4415 168.785 91.0726 169.003 90.6698 169.232L90.5339 169.309C84.1568 172.915 76.3239 174.735 67.2193 174.735ZM45.6956 169.882C46.0741 170.061 46.4575 170.241 46.8458 170.411C52.5579 172.944 59.4106 174.225 67.229 174.225C76.2462 174.225 84.0016 172.425 90.2864 168.887L90.4223 168.809C90.8202 168.581 91.2134 168.348 91.6016 168.106C91.9899 167.863 92.4752 167.547 92.975 167.208L93.2468 167.018L93.3827 166.921C93.6982 166.698 94.0136 166.475 94.3194 166.242L94.7562 165.917C95.0619 165.679 95.3628 165.431 95.6637 165.194L96.0277 164.898C96.4402 164.548 96.8042 164.233 97.1391 163.927C95.5715 152.799 93.1837 136.749 92.8634 134.614L91.8297 134.769V134.798C91.6938 137.104 79.8569 142.563 73.8196 144.83C72.1695 146.092 69.9371 146.732 67.229 146.732H67.1805C61.5314 147.271 51.3204 144.941 48.3114 143.257L45.6956 169.882Z" fill="black"/>
<path d="M34.9359 102.762C34.9359 102.762 46.9426 132.1 47.093 133.158C47.2435 134.216 45.904 140.869 47.8356 142.646C49.7671 144.422 62.662 147.392 68.146 146.353C73.6301 145.315 91.4412 137.307 91.5771 134.788C91.713 132.27 73.931 83.0391 71.7083 77.1085C69.4855 71.178 60.4392 69.1008 54.3582 69.6929C48.2772 70.285 33.6012 74.1432 30.932 77.8511C28.2628 81.5589 34.9359 102.762 34.9359 102.762Z" fill="white"/>
<path d="M65.3506 146.814C59.0949 146.814 49.4177 144.441 47.6705 142.825C46.1466 141.418 46.5252 137.307 46.7533 134.851C46.8258 134.301 46.8582 133.747 46.8503 133.192C46.7193 132.328 38.0418 110.998 34.7174 102.855C34.4408 101.981 28.0395 81.5006 30.7475 77.7297C33.5672 73.8084 48.7042 70.0229 54.3485 69.4794C60.2596 68.9018 69.6311 70.8674 71.946 77.0454C73.8582 82.1364 91.9896 132.182 91.844 134.827C91.679 137.637 73.4942 145.616 68.2188 146.615C67.2709 146.77 66.3108 146.837 65.3506 146.814ZM35.1639 102.68C36.4112 105.732 47.1852 132.085 47.3308 133.124C47.3487 133.716 47.3179 134.308 47.2386 134.895C47.0299 137.108 46.6513 141.204 48.0005 142.471C49.9418 144.262 62.7735 147.125 68.1023 146.116C74.1154 144.98 91.2034 136.987 91.3344 134.774C91.4751 132.391 73.9795 83.8641 71.4801 77.1959C69.2525 71.2556 60.1383 69.3726 54.3824 69.9161C48.1219 70.5276 33.6691 74.4393 31.1261 77.9724C28.583 81.5055 34.9892 102.131 35.1639 102.68Z" fill="black"/>
<path d="M35.9695 75.4782C35.9695 75.4782 34.5135 88.97 35.3774 91.7896C36.2412 94.6093 40.313 102.355 40.313 102.355C40.313 102.355 47.1075 93.862 48.4275 92.9738C49.7476 92.0857 62.0698 99.943 62.0698 99.943C62.0698 99.943 62.5114 91.4936 60.7351 84.5245C58.9589 77.5553 55.8383 69.9892 54.8046 68.6546C53.7709 67.32 53.766 72.2168 49.9077 75.4782C46.0495 78.7395 35.9695 75.4782 35.9695 75.4782Z" fill="white"/>
<path d="M40.3134 102.598C40.2728 102.593 40.234 102.579 40.2002 102.556C40.1664 102.533 40.1386 102.503 40.1192 102.467C39.9542 102.151 36.0523 94.6676 35.169 91.8625C34.2858 89.0573 35.6883 76.0023 35.7514 75.4491C35.7547 75.4137 35.7661 75.3796 35.7846 75.3494C35.8031 75.3191 35.8282 75.2934 35.8582 75.2744C35.8892 75.2556 35.9236 75.2433 35.9595 75.2383C35.9954 75.2333 36.0319 75.2357 36.0669 75.2452C36.1639 75.2792 46.0644 78.4289 49.7722 75.2938C51.8785 73.5127 52.8006 71.2559 53.4072 69.766C53.8052 68.7954 54.0284 68.2518 54.4361 68.1936C54.551 68.1957 54.6635 68.2271 54.7629 68.2848C54.8622 68.3426 54.9452 68.4248 55.0039 68.5236C56.1201 69.9796 59.2456 77.6815 60.9781 84.476C62.7447 91.4014 62.3273 99.8847 62.3225 99.9721C62.319 100.014 62.3053 100.055 62.2825 100.09C62.2596 100.126 62.2283 100.155 62.1914 100.176C62.1545 100.197 62.1127 100.208 62.0701 100.208C62.0275 100.208 61.9857 100.197 61.9488 100.176C55.9648 96.3565 49.3306 92.7069 48.5735 93.2068C47.53 93.862 42.8419 99.5838 40.5026 102.496C40.4816 102.527 40.4534 102.552 40.4205 102.57C40.3875 102.588 40.3508 102.597 40.3134 102.598V102.598ZM36.1833 75.8034C35.9746 77.7834 34.8196 89.2126 35.6107 91.7217C36.3775 94.1483 39.5806 100.409 40.3571 101.913C41.5801 100.389 47.069 93.5902 48.292 92.7749C49.6217 91.8867 59.1388 97.7979 61.842 99.5111C61.9002 97.7251 62.0264 90.5618 60.4977 84.5827C58.668 77.4049 55.5814 70.0572 54.6108 68.8051C54.5186 68.6886 54.47 68.6741 54.47 68.6741C54.1946 69.0641 53.9817 69.4947 53.8391 69.9504C53.2471 71.4064 52.2619 73.8039 50.0682 75.6626C46.4769 78.7153 37.8868 76.3129 36.1833 75.8034Z" fill="black"/>
<path d="M34.8779 77.827C36.3795 81.3285 38.2574 84.6563 40.4785 87.7517C43.0809 91.2961 46.1499 94.4729 49.6024 97.196C49.6024 97.196 53.7664 86.4705 54.8875 80.0692C56.0086 73.6678 54.0867 67.2617 54.0867 67.2617C54.0867 67.2617 53.286 76.8661 49.9227 78.7879C46.5595 80.7098 34.8779 77.827 34.8779 77.827Z" fill="white"/>
<path d="M49.6017 97.4386C49.5494 97.4373 49.4987 97.4204 49.4561 97.3901C45.9863 94.6486 42.8997 91.4543 40.2788 87.8925C38.0495 84.7782 36.162 81.4329 34.6491 77.9144C34.6337 77.8729 34.6298 77.828 34.638 77.7846C34.6461 77.7411 34.6661 77.7007 34.6955 77.6677C34.725 77.6347 34.763 77.6104 34.8052 77.5974C34.8475 77.5845 34.8926 77.5833 34.9355 77.5941C35.0519 77.6183 46.5831 80.4283 49.8007 78.5647C53.0184 76.7011 53.8337 67.3248 53.8434 67.2277C53.8477 67.172 53.8714 67.1196 53.9105 67.0797C53.9495 67.0398 54.0014 67.0148 54.0569 67.0093C54.1136 67.0022 54.171 67.0154 54.2189 67.0465C54.2669 67.0775 54.3023 67.1245 54.319 67.1792C54.319 67.2423 56.2603 73.7115 55.1246 80.0934C53.989 86.4753 49.8687 97.1571 49.8298 97.2833C49.8166 97.3185 49.7951 97.3501 49.7673 97.3754C49.7394 97.4007 49.706 97.4191 49.6697 97.4289L49.6017 97.4386ZM35.2849 78.1716C36.7671 81.4879 38.5731 84.6497 40.6768 87.611C43.2001 91.0486 46.165 94.1391 49.495 96.8029C50.1744 95.0072 53.6493 85.7328 54.6442 80.0255C55.4498 75.4441 54.6442 70.8045 54.1589 68.6303C53.7997 71.3772 52.7029 77.463 50.024 78.9966C46.9859 80.7486 37.5319 78.7151 35.2849 78.1716Z" fill="black"/>
<path d="M43.667 79.3267C40.7078 79.019 37.7718 78.5181 34.8779 77.8271C36.3795 81.3286 38.2574 84.6564 40.4785 87.7518C40.8522 88.2759 41.2356 88.7807 41.6287 89.2806L48.2484 81.6271L43.667 79.3267Z" fill="black"/>
<path d="M41.629 89.5231C41.5936 89.521 41.559 89.5117 41.5273 89.4959C41.4956 89.48 41.4675 89.4579 41.4446 89.4309C40.9884 88.8534 40.6195 88.3632 40.2847 87.8924C38.0553 84.7782 36.1679 81.4328 34.655 77.9143C34.6395 77.8729 34.6357 77.828 34.6438 77.7845C34.652 77.7411 34.6719 77.7006 34.7014 77.6677C34.7309 77.6347 34.7688 77.6104 34.8111 77.5974C34.8534 77.5844 34.8984 77.5833 34.9413 77.594C37.8179 78.2794 40.7359 78.7771 43.677 79.0839C43.7075 79.0862 43.7371 79.0945 43.7644 79.1082L48.3506 81.3989C48.3833 81.4162 48.4116 81.4407 48.4336 81.4704C48.4556 81.5002 48.4706 81.5344 48.4776 81.5708C48.4846 81.6071 48.4833 81.6445 48.4739 81.6802C48.4646 81.716 48.4473 81.7492 48.4234 81.7774L41.8037 89.4357C41.7592 89.4867 41.6964 89.5181 41.629 89.5231V89.5231ZM35.2859 78.1715C36.7661 81.4888 38.5723 84.6508 40.6778 87.6109C40.9593 88.0138 41.2699 88.4263 41.6484 88.897L47.8701 81.6949L43.6091 79.5644C40.8083 79.2749 38.0284 78.8097 35.2859 78.1715V78.1715Z" fill="black"/>
<path d="M54.0869 67.2616C54.0869 67.2616 58.9401 86.7471 60.7358 101.428C62.5314 116.109 66.8119 159.549 66.8119 159.549C66.8119 159.549 80.1581 155.696 87.1272 150.654C94.0964 145.611 96.3191 142.204 96.3191 142.204C96.3191 142.204 84.9045 92.2166 84.9045 91.4935C84.9045 90.7703 86.0887 83.3353 86.0887 83.3353C86.0887 83.3353 106.254 73.8619 113.965 68.0624C121.677 62.2629 119.75 59.1666 116.042 57.6863C112.335 56.2061 100.769 57.8319 94.3924 59.6276C88.0154 61.4233 84.754 62.5929 84.754 62.5929C84.754 62.5929 77.6393 62.0008 71.1118 63.481C64.5843 64.9612 54.0869 67.2616 54.0869 67.2616Z" fill="#FBD689"/>
<path d="M66.8118 159.792C66.7639 159.791 66.7171 159.778 66.6759 159.753C66.647 159.732 66.6229 159.706 66.6053 159.675C66.5877 159.644 66.577 159.609 66.574 159.574C66.5303 159.142 62.2498 115.963 60.493 101.457C58.7361 86.951 53.8975 67.5141 53.849 67.3199C53.8344 67.2562 53.8457 67.1894 53.8802 67.1339C53.9148 67.0785 53.9698 67.0389 54.0334 67.0239C54.1402 67.0239 64.6133 64.6944 71.0583 63.2287C77.2509 61.8262 84.0502 62.2581 84.72 62.3309C85.1567 62.1756 88.4375 61.0205 94.3292 59.3802C100.716 57.5942 112.388 55.983 116.13 57.4389C118.153 58.2494 119.318 59.4093 119.503 60.8021C119.774 62.8502 117.959 65.3544 114.111 68.2372C106.773 73.7407 87.9716 82.6948 86.3069 83.481C85.8944 86.0726 85.147 90.9112 85.147 91.4741C85.2101 92.3186 92.6403 124.961 96.5568 142.131C96.5645 142.163 96.5655 142.195 96.5597 142.227C96.5538 142.259 96.5412 142.289 96.5228 142.316C96.4306 142.457 94.1982 145.82 87.2679 150.833C80.3376 155.846 67.0156 159.724 66.8846 159.763C66.8632 159.779 66.8381 159.789 66.8118 159.792ZM54.378 67.4461C54.9458 69.7368 59.3234 87.7517 60.9734 101.418C62.6575 115.284 66.6516 155.395 67.0253 159.234C68.9666 158.647 80.687 155.017 86.9864 150.459C93.2858 145.902 95.6687 142.694 96.0618 142.151C94.7806 136.56 84.6617 92.2361 84.6617 91.4935C84.6617 90.751 85.8022 83.6023 85.8507 83.2965C85.8564 83.2576 85.8718 83.2207 85.8955 83.1893C85.9193 83.1579 85.9506 83.133 85.9866 83.117C86.1856 83.0199 106.219 73.5708 113.82 67.8683C117.518 65.0972 119.265 62.7483 119.022 60.8846C118.857 59.6616 117.828 58.6619 115.95 57.9097C112.3 56.4537 100.784 58.0795 94.4602 59.8509C88.1366 61.6223 84.8704 62.7968 84.8364 62.8114C84.8026 62.8164 84.7683 62.8164 84.7345 62.8114C84.6666 62.8114 77.5761 62.2387 71.1457 63.6946C65.2636 65.0438 55.9747 67.0918 54.378 67.4461Z" fill="black"/>
<path d="M64.3263 117.113L63.5498 119.516Z" fill="white"/>
<path d="M63.5499 119.758H63.4771C63.4465 119.749 63.4181 119.733 63.3935 119.713C63.369 119.692 63.3489 119.667 63.3344 119.638C63.3199 119.61 63.3113 119.579 63.3091 119.547C63.307 119.515 63.3113 119.483 63.3218 119.452C63.6033 118.584 63.8605 117.788 64.0935 117.05C64.1031 117.018 64.1188 116.989 64.1398 116.963C64.1608 116.937 64.1867 116.916 64.216 116.9C64.2453 116.884 64.2774 116.874 64.3105 116.871C64.3436 116.868 64.3771 116.871 64.4089 116.88C64.4408 116.89 64.4705 116.906 64.4963 116.927C64.522 116.948 64.5434 116.974 64.5592 117.003C64.575 117.032 64.5848 117.064 64.5882 117.097C64.5915 117.13 64.5884 117.164 64.5788 117.196C64.341 117.938 64.0935 118.729 63.8023 119.622C63.7801 119.669 63.7437 119.707 63.6983 119.731C63.653 119.756 63.601 119.765 63.5499 119.758Z" fill="black"/>
<path d="M64.9433 115.366H64.8753C64.8144 115.347 64.7635 115.305 64.7335 115.249C64.7036 115.192 64.697 115.127 64.7152 115.065C65.7305 111.718 66.4516 108.288 66.87 104.816C67.8406 97.8852 68.5492 87.0675 68.6365 85.699L66.4817 84.3255C66.4531 84.3092 66.4281 84.2872 66.4083 84.2609C66.3884 84.2346 66.3741 84.2045 66.3663 84.1725C66.3584 84.1405 66.3572 84.1073 66.3626 84.0748C66.368 84.0423 66.38 84.0112 66.3978 83.9835C66.4157 83.9558 66.4389 83.932 66.4662 83.9136C66.4936 83.8951 66.5243 83.8825 66.5567 83.8763C66.5891 83.8702 66.6224 83.8707 66.6545 83.8778C66.6867 83.885 66.7171 83.8986 66.7438 83.9178L69.0199 85.3738C69.0563 85.3981 69.0857 85.4315 69.1053 85.4706C69.1248 85.5098 69.1339 85.5533 69.1315 85.597C69.1315 85.7135 68.3696 97.5018 67.3504 104.888C66.9355 108.381 66.2145 111.83 65.1956 115.196C65.1792 115.249 65.1453 115.295 65.0994 115.326C65.0535 115.357 64.9984 115.371 64.9433 115.366Z" fill="black"/>
<path d="M65.3843 83.5682C65.3377 83.569 65.292 83.5554 65.2533 83.5294L63.8653 82.6461C63.8136 82.6131 63.7763 82.5616 63.761 82.5022C63.7457 82.4428 63.7535 82.3798 63.7828 82.3258C64.6661 80.6806 65.9764 78.0065 65.9764 77.3999C65.9764 77.2543 65.7143 76.2982 62.3705 70.1541C62.3552 70.126 62.3456 70.0953 62.3422 70.0635C62.3388 70.0317 62.3417 69.9996 62.3507 69.969C62.3597 69.9383 62.3747 69.9098 62.3947 69.8849C62.4148 69.86 62.4395 69.8394 62.4676 69.8241C62.4956 69.8088 62.5264 69.7992 62.5582 69.7958C62.5899 69.7924 62.622 69.7952 62.6527 69.8043C62.6833 69.8133 62.7119 69.8282 62.7368 69.8483C62.7616 69.8683 62.7823 69.8931 62.7976 69.9211C66.4617 76.6573 66.4617 77.2009 66.4617 77.3999C66.4617 78.2395 64.7923 81.4523 64.3166 82.3598L65.5154 83.1217C65.5694 83.1566 65.6073 83.2114 65.621 83.2741C65.6346 83.3369 65.6228 83.4025 65.5882 83.4566C65.5669 83.4914 65.5369 83.5201 65.5012 83.5397C65.4654 83.5592 65.4251 83.5691 65.3843 83.5682V83.5682Z" fill="black"/>
<path d="M61.1768 67.4851L61.7834 68.5771Z" fill="white"/>
<path d="M61.7978 68.8196C61.7546 68.8202 61.7121 68.8093 61.6745 68.7879C61.637 68.7666 61.6058 68.7356 61.5843 68.6983C61.2154 68.0237 60.9776 67.6014 60.9776 67.6014C60.9474 67.5452 60.9402 67.4794 60.9574 67.4179C60.9746 67.3564 61.0148 67.3039 61.0698 67.2714C61.0978 67.256 61.1286 67.2464 61.1604 67.2429C61.1922 67.2395 61.2243 67.2424 61.255 67.2514C61.2857 67.2604 61.3142 67.2754 61.3391 67.2955C61.364 67.3156 61.3846 67.3404 61.3998 67.3685C61.3998 67.3685 61.6376 67.7907 62.0065 68.4604C62.0227 68.488 62.0332 68.5186 62.0373 68.5503C62.0415 68.582 62.0392 68.6143 62.0306 68.6451C62.022 68.6759 62.0072 68.7046 61.9872 68.7296C61.9673 68.7546 61.9424 68.7753 61.9143 68.7905C61.8783 68.8092 61.8384 68.8192 61.7978 68.8196V68.8196Z" fill="black"/>
<path d="M73.7802 143.631C73.7277 143.631 73.6766 143.614 73.6346 143.583C73.5926 143.551 73.562 143.507 73.5473 143.456L72.5087 139.899C72.4915 139.84 72.4974 139.776 72.5254 139.721C72.5533 139.666 72.6011 139.624 72.6592 139.603C72.6592 139.603 73.8482 139.157 80.8125 136.492C83.466 135.5 85.9927 134.196 88.3397 132.61C88.3657 132.589 88.3956 132.575 88.4275 132.566C88.4593 132.558 88.4926 132.557 88.5251 132.562C88.5577 132.566 88.5889 132.578 88.6168 132.595C88.6447 132.613 88.6688 132.636 88.6876 132.663C88.7064 132.69 88.7195 132.72 88.7261 132.753C88.7327 132.785 88.7327 132.818 88.726 132.851C88.7193 132.883 88.7062 132.913 88.6873 132.94C88.6685 132.967 88.6443 132.99 88.6163 133.008C86.2356 134.615 83.6752 135.94 80.9872 136.953C75.5128 139.05 73.6055 139.773 73.0377 139.986L73.9549 143.117C75.6002 142.782 86.2868 140.413 91.3924 134.638C91.4149 134.615 91.4417 134.597 91.4713 134.585C91.5009 134.573 91.5326 134.566 91.5646 134.566C91.5967 134.566 91.6284 134.573 91.658 134.585C91.6875 134.597 91.7144 134.615 91.7369 134.638C91.7814 134.684 91.8063 134.745 91.8063 134.808C91.8063 134.872 91.7814 134.933 91.7369 134.978C86.1121 141.345 73.9307 143.636 73.7802 143.655V143.631Z" fill="black"/>
<path d="M90.9803 130.785C90.6665 131.1 90.3342 131.397 89.9854 131.673Z" fill="white"/>
<path d="M89.985 131.915C89.9497 131.916 89.9147 131.908 89.8827 131.893C89.8508 131.878 89.8227 131.856 89.8006 131.828C89.7799 131.803 89.7644 131.775 89.7549 131.744C89.7454 131.713 89.7421 131.681 89.7453 131.649C89.7485 131.617 89.758 131.586 89.7733 131.557C89.7886 131.529 89.8095 131.504 89.8346 131.484C90.174 131.214 90.498 130.926 90.8052 130.62C90.8496 130.573 90.9109 130.545 90.9755 130.543C91.0401 130.542 91.1028 130.566 91.1498 130.61C91.1968 130.654 91.2242 130.716 91.226 130.78C91.2278 130.845 91.2039 130.908 91.1595 130.955C90.8356 131.274 90.4954 131.577 90.1403 131.862C90.0956 131.896 90.0412 131.915 89.985 131.915V131.915Z" fill="black"/>
<path d="M86.0879 83.5682C86.0508 83.5696 86.014 83.5612 85.9812 83.544C85.9285 83.5177 85.8871 83.4732 85.8648 83.4188C85.8425 83.3643 85.8407 83.3036 85.8598 83.2479L88.5194 75.3761C88.5265 75.3426 88.5407 75.3109 88.5609 75.2832C88.5812 75.2556 88.6071 75.2325 88.6369 75.2156C88.6667 75.1987 88.6998 75.1882 88.7339 75.185C88.768 75.1818 88.8025 75.1858 88.8349 75.1969C88.8674 75.2079 88.8971 75.2257 88.9222 75.2491C88.9473 75.2725 88.9671 75.3009 88.9804 75.3325C88.9937 75.3641 89.0001 75.3982 88.9993 75.4325C88.9985 75.4668 88.9904 75.5005 88.9756 75.5314L86.9081 81.661L92.1156 73.8619C92.1327 73.8351 92.1551 73.8119 92.1814 73.7939C92.2077 73.7759 92.2374 73.7633 92.2686 73.757C92.2998 73.7507 92.332 73.7507 92.3633 73.757C92.3945 73.7634 92.4242 73.7759 92.4504 73.794C92.5036 73.8296 92.5406 73.8847 92.5533 73.9474C92.5661 74.0101 92.5535 74.0753 92.5184 74.1288L86.2918 83.4712C86.2677 83.5021 86.2367 83.5269 86.2013 83.5438C86.1659 83.5606 86.1271 83.569 86.0879 83.5682V83.5682Z" fill="black"/>
<path d="M89.3303 73.983C89.3047 73.9876 89.2784 73.9876 89.2527 73.983C89.1925 73.962 89.1429 73.9182 89.1148 73.861C89.0866 73.8037 89.0821 73.7377 89.1022 73.6772L89.7137 71.8573C89.7343 71.7929 89.7796 71.7394 89.8397 71.7085C89.8998 71.6775 89.9697 71.6717 90.034 71.6923C90.0984 71.7129 90.1519 71.7582 90.1829 71.8183C90.2138 71.8783 90.2196 71.9483 90.1991 72.0126L89.5827 73.8325C89.5622 73.8813 89.5267 73.9222 89.4813 73.9493C89.4359 73.9763 89.383 73.9882 89.3303 73.983Z" fill="black"/>
<path d="M35.969 75.4778C35.969 75.4778 37.4541 102.466 39.0848 115.662C40.7154 128.858 43.3847 161.481 43.3847 161.481C43.3847 161.481 38.1966 161.034 34.7849 156.88C32.881 154.616 31.1929 152.178 29.7424 149.6V120.258C29.7424 119.069 27.3692 105.577 25.1465 98.904C22.9237 92.2309 19.6624 84.5241 21.5891 81.2579C23.5158 77.9917 29.5968 73.1046 31.8196 72.5222C34.0423 71.9398 35.8234 72.5125 35.969 75.4778Z" fill="#FBD689"/>
<path d="M43.3854 161.704C43.1671 161.704 38.047 161.219 34.6158 157.021C32.7052 154.747 31.0091 152.302 29.5491 149.717C29.5303 149.681 29.5203 149.641 29.52 149.6V120.258C29.52 119.016 27.0934 105.5 24.9386 98.9817C24.5891 97.9383 24.2155 96.8706 23.8418 95.7932C21.8132 89.9694 19.7166 83.9855 21.4152 81.1367C23.3565 77.8559 29.4375 72.8863 31.7913 72.2796C33.1598 71.9108 34.2178 72.0127 35.0137 72.5708C35.8097 73.1289 36.1785 74.0899 36.2465 75.4827C36.2465 75.7545 37.7509 102.612 39.3622 115.652C40.9734 128.693 43.633 161.151 43.6621 161.476C43.6654 161.512 43.6606 161.548 43.648 161.581C43.6353 161.615 43.6153 161.645 43.5893 161.67C43.5598 161.69 43.5263 161.703 43.4911 161.709C43.4559 161.715 43.4199 161.713 43.3854 161.704V161.704ZM29.9859 149.571C31.4305 152.107 33.1002 154.507 34.9749 156.744C37.8237 160.209 41.9974 161.049 43.1185 161.214C42.8468 157.899 40.3716 128.076 38.8429 115.706C37.2316 102.651 35.7466 75.7739 35.7272 75.507C35.6689 74.2888 35.3195 73.4395 34.6934 72.9833C34.0674 72.5271 33.1016 72.4398 31.8834 72.765C29.8257 73.3134 23.7593 78.1034 21.7986 81.4036C20.231 84.0583 22.2839 89.9548 24.2786 95.6525C24.6522 96.7299 25.0308 97.8024 25.3754 98.8458C27.5641 105.402 29.9859 119.02 29.9859 120.277V149.571Z" fill="black"/>
<path d="M35.1396 109.372C35.9792 111.988 36.7897 114.318 37.4546 115.808Z" fill="white"/>
<path d="M37.4547 116.05C37.408 116.05 37.3622 116.037 37.3227 116.012C37.2832 115.987 37.2516 115.952 37.2314 115.91C36.6248 114.541 35.8434 112.362 34.9068 109.445C34.8884 109.383 34.8948 109.317 34.9247 109.26C34.9547 109.203 35.0057 109.159 35.0669 109.139C35.0969 109.13 35.1284 109.126 35.1599 109.128C35.1913 109.131 35.2218 109.14 35.2498 109.154C35.2778 109.169 35.3027 109.188 35.3229 109.213C35.3432 109.237 35.3584 109.265 35.3678 109.295C36.2996 112.207 37.0761 114.357 37.6779 115.711C37.7026 115.77 37.7032 115.836 37.6796 115.896C37.6561 115.956 37.6102 116.004 37.5517 116.031C37.5213 116.045 37.4881 116.051 37.4547 116.05V116.05Z" fill="black"/>
<path d="M34.5668 107.79C34.5149 107.791 34.4643 107.774 34.4223 107.744C34.3804 107.713 34.3494 107.67 34.3338 107.62C32.3926 101.34 30.4028 93.9054 30.1019 92.5756C29.6894 90.7848 31.9218 87.7224 32.5285 86.9168C31.9703 86.4315 30.2281 84.8931 29.7233 84.3883C29.5874 84.2524 29.3836 84.0438 29.835 80.5737C29.8434 80.5101 29.8768 80.4524 29.9277 80.4132C29.9787 80.3741 30.043 80.3568 30.1067 80.3651C30.1699 80.3747 30.2268 80.4084 30.2657 80.459C30.3046 80.5096 30.3224 80.5734 30.3154 80.6368C29.9417 83.4954 30.0485 83.9855 30.0873 84.068C30.6503 84.6261 32.9992 86.6839 33.0235 86.7033C33.0706 86.7446 33.1 86.8024 33.1054 86.8649C33.1108 86.9273 33.0919 86.9894 33.0526 87.0382C33.0235 87.0721 30.165 90.6732 30.5775 92.464C30.8832 93.7792 32.8633 101.2 34.8046 107.47C34.8228 107.531 34.8162 107.597 34.7862 107.653C34.7563 107.71 34.7053 107.752 34.6444 107.771C34.6202 107.783 34.5938 107.789 34.5668 107.79Z" fill="black"/>
<path d="M31.6706 70.7313C31.6706 70.7313 30.8892 74.9827 30.3359 78.7148Z" fill="white"/>
<path d="M30.3357 78.9579H30.3017C30.2385 78.9471 30.182 78.9123 30.144 78.8607C30.1059 78.8091 30.0894 78.7448 30.0979 78.6812C30.6463 74.988 31.4276 70.7318 31.4325 70.6881C31.4443 70.6251 31.4805 70.5694 31.5332 70.533C31.586 70.4966 31.6509 70.4826 31.714 70.4939C31.7772 70.5058 31.8334 70.5418 31.8705 70.5944C31.9077 70.6469 31.9229 70.7119 31.913 70.7754C31.913 70.8191 31.1219 75.0656 30.5783 78.754C30.5681 78.811 30.5382 78.8626 30.4939 78.8999C30.4496 78.9371 30.3936 78.9576 30.3357 78.9579V78.9579Z" fill="black"/>
<path d="M33.4022 139.525C33.3669 139.524 33.3323 139.516 33.3003 139.501L30.6796 138.268C30.629 138.237 30.5916 138.188 30.5746 138.131C30.5576 138.074 30.5621 138.013 30.5872 137.959C30.6124 137.906 30.6564 137.863 30.711 137.839C30.7656 137.816 30.8269 137.813 30.8834 137.832L33.5089 139.064C33.5666 139.092 33.6111 139.141 33.6329 139.201C33.6547 139.261 33.652 139.327 33.6254 139.385C33.6048 139.426 33.5731 139.462 33.5337 139.487C33.4943 139.511 33.4487 139.525 33.4022 139.525V139.525Z" fill="black"/>
<path d="M38.0461 141.704C38.0108 141.703 37.9762 141.695 37.9442 141.68L34.6197 140.122C34.5906 140.109 34.5644 140.09 34.5428 140.066C34.5211 140.042 34.5044 140.014 34.4935 139.984C34.4827 139.954 34.478 139.922 34.4797 139.89C34.4813 139.857 34.4894 139.826 34.5033 139.797C34.5163 139.768 34.535 139.742 34.5583 139.72C34.5816 139.699 34.609 139.682 34.6388 139.671C34.6687 139.66 34.7004 139.656 34.7322 139.657C34.7639 139.659 34.795 139.667 34.8236 139.681L37.8034 141.078V137.196L30.6887 134.284C30.6288 134.259 30.5811 134.212 30.5561 134.153C30.5311 134.093 30.5308 134.026 30.5552 133.966C30.5797 133.906 30.6269 133.858 30.6865 133.833C30.7461 133.808 30.8133 133.808 30.8731 133.833L38.1528 136.798C38.1972 136.816 38.2351 136.847 38.2619 136.887C38.2886 136.926 38.3031 136.973 38.3033 137.021V141.471C38.3032 141.512 38.293 141.552 38.2735 141.588C38.254 141.623 38.2258 141.653 38.1917 141.675C38.1471 141.699 38.0964 141.709 38.0461 141.704V141.704Z" fill="black"/>
<path d="M24.9136 57.6379L27.4469 63.8451C27.4469 63.8451 24.1516 60.4236 23.3897 63.4666C22.6278 66.5095 24.9136 70.0572 26.4326 70.0572C27.9517 70.0572 29.7279 70.1833 29.7279 70.1833C29.7279 70.1833 35.0664 79.5596 38.3423 81.3456C41.6182 83.1316 46.0734 84.6409 48.864 83.117C51.6545 81.5931 53.1736 77.4145 54.0568 74.2454C54.9401 71.0763 54.314 61.5738 54.314 61.5738L49.7327 42.8018C49.7327 42.8018 52.8969 41.6613 52.8969 39.5065C52.8969 37.3517 45.5492 36.7208 45.5492 36.7208C45.5492 36.7208 48.4611 33.3236 44.7873 32.7897C41.1135 32.2559 29.1989 39.3803 28.8204 39.6327C28.4418 39.885 30.849 35.1969 27.8061 36.847C24.7631 38.497 21.2155 46.6018 21.5989 48.4946C21.9823 50.3873 24.9136 57.6379 24.9136 57.6379Z" fill="white"/>
<path d="M46.098 83.9756C43.1181 83.9756 39.7889 82.3983 38.2116 81.549C35.0522 79.8456 30.2087 71.5418 29.5632 70.4159C29.1265 70.3868 27.6754 70.2994 26.4135 70.2994C25.8117 70.2994 25.1032 69.8141 24.4723 69.0279C23.4385 67.703 22.6232 65.4511 23.1377 63.4079C23.3318 62.6266 23.7103 62.1558 24.2539 62.0102C25.0838 61.7918 26.1126 62.4179 26.8066 62.9808L24.6664 57.7443C24.5499 57.4482 21.7545 50.4645 21.3614 48.5767C20.9683 46.6888 24.4674 38.385 27.6705 36.6573C28.447 36.2351 28.9809 36.172 29.306 36.4389C29.8399 36.8805 29.539 37.9725 29.1507 39.1421V39.1712C31.456 37.8026 41.4147 32.0856 44.8119 32.5612C45.8699 32.7068 46.5299 33.1048 46.7774 33.7454C47.1462 34.716 46.4183 35.9342 45.996 36.5263C47.7044 36.7107 53.1302 37.4532 53.1302 39.5158C53.1302 41.5056 50.7376 42.6558 50.0048 42.9567L54.5182 61.5055C54.5522 61.9374 55.1491 71.1293 54.261 74.3033C52.9021 79.1564 51.1647 82.112 48.9516 83.3205C48.0698 83.7731 47.0889 83.9983 46.098 83.9756V83.9756ZM24.6227 62.447C24.5406 62.446 24.4588 62.4575 24.3801 62.481C24.0161 62.578 23.7589 62.9275 23.6084 63.5244C23.1231 65.4123 23.8948 67.4991 24.8557 68.727C25.3847 69.4064 25.967 69.8141 26.4135 69.8141C27.9277 69.8141 29.7088 69.9403 29.7283 69.9403C29.7673 69.9437 29.8048 69.9566 29.8378 69.9777C29.8707 69.9988 29.8981 70.0276 29.9175 70.0616C29.9709 70.1538 35.256 79.3991 38.4397 81.122C40.4877 82.2236 45.5932 84.6065 48.7284 82.8934C50.8201 81.7529 52.4799 78.8992 53.8048 74.1577C54.6735 71.0662 54.0572 61.6608 54.0523 61.5686L49.4952 42.8548C49.4809 42.7963 49.4889 42.7346 49.5176 42.6817C49.5463 42.6288 49.5937 42.5884 49.6505 42.5684C49.6796 42.5684 52.6546 41.4571 52.6546 39.5012C52.6546 38.0938 48.2867 37.1911 45.5301 36.9533C45.4859 36.9495 45.4435 36.9337 45.4076 36.9074C45.3717 36.8812 45.3437 36.8456 45.3267 36.8045C45.3097 36.7634 45.3042 36.7185 45.311 36.6746C45.3178 36.6306 45.3365 36.5894 45.3651 36.5554C45.7437 36.1089 46.6609 34.7597 46.3358 33.9007C46.1611 33.4154 45.6321 33.1436 44.7585 33.0271C41.303 32.5418 29.8641 39.2246 28.9614 39.8216C28.9138 39.8502 28.8593 39.8654 28.8037 39.8654C28.7481 39.8654 28.6936 39.8502 28.646 39.8216C28.4713 39.6905 28.5247 39.5352 28.7139 38.9577C28.9032 38.3802 29.3448 37.0455 29.0197 36.7738C28.9663 36.7301 28.7285 36.6136 27.9277 37.0504C24.9673 38.6519 21.5021 46.7567 21.8419 48.4456C22.2107 50.3044 25.0935 57.4531 25.1226 57.5259L27.6559 63.7331C27.6775 63.7852 27.6801 63.8432 27.6636 63.897C27.647 63.9509 27.6122 63.9973 27.5651 64.0283C27.518 64.0593 27.4616 64.073 27.4056 64.0669C27.3495 64.0609 27.2974 64.0355 27.258 63.9952C26.8018 63.5487 25.5351 62.447 24.6227 62.447Z" fill="black"/>
<path d="M45.5492 36.7301C45.5492 36.7301 48.4611 33.3329 44.7873 32.7991C41.1135 32.2652 29.1989 39.3897 28.8204 39.642C28.4418 39.8944 30.849 35.2062 27.8061 36.8563C24.7631 38.5064 21.2155 46.6112 21.5989 48.5039C21.9823 50.3966 24.8942 57.6278 24.8942 57.6278L27.4275 63.835C27.4275 63.835 30.3394 66.4994 29.33 64.4708C28.3205 62.4422 26.287 57.8802 26.7918 57.2493C27.2965 56.6184 29.8347 55.5992 29.9609 54.2064C30.0871 52.8135 27.5343 48.7563 28.3157 47.7419C29.097 46.7276 39.8468 48.6301 41.7492 47.4896C43.6517 46.3491 41.2396 43.5634 41.2396 43.5634L49.7327 42.8014C49.7327 42.8014 52.8969 41.6609 52.8969 39.5061C52.8969 37.3513 45.5492 36.7301 45.5492 36.7301Z" fill="#737373"/>
<path d="M29.4322 65.4851C29.1701 65.4851 28.6023 65.2473 27.2628 64.0291C27.2365 64.0053 27.2164 63.9753 27.2046 63.9418L24.6664 57.7346C24.5499 57.4385 21.7545 50.4548 21.3614 48.567C20.9683 46.6791 24.4674 38.3753 27.6705 36.6476C28.447 36.2254 28.9809 36.1623 29.306 36.4292C29.8399 36.8708 29.539 37.9628 29.1507 39.1324V39.1615C31.456 37.8026 41.4147 32.0856 44.8119 32.5612C45.8699 32.7068 46.5299 33.1048 46.7774 33.7454C47.1462 34.716 46.4183 35.9342 45.996 36.5263C47.7044 36.7107 53.1302 37.4532 53.1302 39.5158C53.1302 41.8162 49.9368 42.9907 49.8009 43.0392H49.7427L41.7059 43.772C42.1281 44.3544 42.8609 45.524 42.6765 46.5383C42.6377 46.7834 42.5431 47.0164 42.4001 47.2191C42.257 47.4219 42.0693 47.5892 41.8514 47.708C40.7935 48.3437 37.4254 48.1108 34.1689 47.8875C31.8928 47.7322 28.7722 47.5187 28.4907 47.8875C28.1413 48.3728 28.7916 49.9647 29.3157 51.2605C29.801 52.4446 30.2427 53.5657 30.1844 54.2257C30.0874 55.2837 28.8692 56.0748 27.8889 56.7106C27.5544 56.9039 27.2434 57.1351 26.9619 57.3997C26.6853 57.8025 27.9035 61.1221 29.5244 64.364C29.738 64.7814 29.8933 65.1988 29.6215 65.4026C29.5699 65.4512 29.503 65.4804 29.4322 65.4851V65.4851ZM27.6317 63.704C28.1321 64.1753 28.6803 64.5933 29.2672 64.9512C29.2238 64.8265 29.1719 64.7049 29.1119 64.5873C28.976 64.3203 25.8554 58.0452 26.6028 57.1037C26.9147 56.7957 27.2655 56.5298 27.6462 56.3126C28.4907 55.7691 29.6457 55.0168 29.7185 54.1918C29.7719 53.6482 29.3206 52.532 28.8838 51.4497C28.2286 49.8239 27.6074 48.2903 28.1218 47.606C28.5441 47.0431 30.6067 47.1595 34.2223 47.4022C37.2555 47.6109 40.6964 47.8487 41.6233 47.2906C41.7803 47.2079 41.9159 47.0899 42.0195 46.9459C42.1231 46.8019 42.1919 46.6358 42.2203 46.4607C42.4047 45.3056 41.0701 43.7429 41.0555 43.7284C41.0272 43.6945 41.0085 43.6536 41.0017 43.61C40.9949 43.5664 41 43.5217 41.0167 43.4808C41.0325 43.4388 41.0602 43.4022 41.0964 43.3755C41.1325 43.3488 41.1757 43.3331 41.2205 43.3304L49.665 42.5733C49.9708 42.4568 52.6449 41.3697 52.6449 39.5158C52.6449 38.1084 48.277 37.2057 45.5204 36.9679C45.4761 36.9641 45.4337 36.9482 45.3979 36.922C45.362 36.8957 45.334 36.8601 45.317 36.8191C45.3 36.778 45.2945 36.7331 45.3013 36.6891C45.3081 36.6452 45.3268 36.604 45.3554 36.5699C45.734 36.1235 46.6512 34.7743 46.3261 33.9153C46.1513 33.4299 45.6223 33.1582 44.7488 33.0417C41.2933 32.5564 29.8544 39.2392 28.9517 39.8361C28.9041 39.8648 28.8496 39.8799 28.794 39.8799C28.7384 39.8799 28.6839 39.8648 28.6363 39.8361C28.4616 39.7051 28.515 39.5498 28.7042 38.9723C28.8935 38.3947 29.3351 37.0601 29.01 36.7883C28.9566 36.7447 28.7188 36.6282 27.918 37.065C24.9576 38.6665 21.4924 46.7713 21.8322 48.4602C22.201 50.319 25.0838 57.4677 25.1129 57.5405L27.6317 63.704Z" fill="black"/>
<path d="M47.1951 68.038C47.1951 68.038 46.0546 70.1928 44.2832 70.319Z" fill="white"/>
<path d="M44.2827 70.5521C44.2183 70.5521 44.1566 70.5265 44.1111 70.481C44.0656 70.4355 44.04 70.3738 44.04 70.3094C44.04 70.245 44.0656 70.1833 44.1111 70.1378C44.1566 70.0923 44.2183 70.0667 44.2827 70.0667C45.8988 69.9503 46.9908 67.9362 47.0005 67.9168C47.0126 67.8847 47.0315 67.8556 47.0557 67.8314C47.08 67.8071 47.1091 67.7883 47.1411 67.7761C47.1732 67.764 47.2075 67.7587 47.2417 67.7607C47.2759 67.7628 47.3093 67.772 47.3397 67.7879C47.3701 67.8038 47.3968 67.8259 47.418 67.8529C47.4392 67.8798 47.4545 67.911 47.4628 67.9442C47.4711 67.9775 47.4722 68.0122 47.4661 68.0459C47.4601 68.0797 47.4469 68.1117 47.4276 68.14C47.379 68.2371 46.2046 70.4162 44.3167 70.5666L44.2827 70.5521Z" fill="black"/>
<path d="M39.3382 62.214C39.6924 62.976 39.542 63.7962 39.0033 64.0485C38.4646 64.3009 37.7415 63.8835 37.3872 63.1216C37.0329 62.3596 37.1834 61.5395 37.7221 61.2871C38.2608 61.0347 38.9887 61.4375 39.3382 62.214Z" fill="black"/>
<path d="M48.6122 61.8635C49.1998 61.7699 49.5692 61.0224 49.4372 60.1939C49.3053 59.3654 48.7219 58.7696 48.1343 58.8632C47.5467 58.9568 47.1773 59.7043 47.3093 60.5328C47.4412 61.3613 48.0246 61.9571 48.6122 61.8635Z" fill="black"/>
<path d="M44.2832 75.1236C45.5909 75.0975 46.8645 74.7021 47.957 73.9831Z" fill="white"/>
<path d="M44.2827 75.3662C44.2183 75.3662 44.1566 75.3407 44.1111 75.2952C44.0656 75.2497 44.04 75.1879 44.04 75.1236C44.04 75.0592 44.0656 74.9975 44.1111 74.952C44.1566 74.9065 44.2183 74.8809 44.2827 74.8809C45.5375 74.8528 46.7596 74.4746 47.8109 73.789C47.8629 73.7516 47.9272 73.7357 47.9906 73.7448C48.0539 73.7538 48.1113 73.7871 48.1507 73.8375C48.1893 73.889 48.2059 73.9537 48.1968 74.0174C48.1877 74.0811 48.1536 74.1386 48.1021 74.1772C46.9688 74.9304 45.6433 75.3431 44.2827 75.3662Z" fill="black"/>
<path d="M33.0036 61.0348C32.903 61.0355 32.8046 61.005 32.7221 60.9474C32.6175 60.8732 32.5465 60.7606 32.5247 60.6342C32.5028 60.5078 32.5319 60.3778 32.6056 60.2728C32.6881 60.1564 34.6439 57.4629 39.7398 59.0741C39.8006 59.0935 39.8571 59.1248 39.9059 59.166C39.9547 59.2073 39.9949 59.2577 40.0241 59.3145C40.0534 59.3713 40.0713 59.4333 40.0766 59.497C40.0819 59.5606 40.0747 59.6247 40.0552 59.6856C40.0358 59.7465 40.0046 59.8029 39.9633 59.8517C39.9221 59.9005 39.8716 59.9407 39.8148 59.97C39.758 59.9993 39.696 60.0171 39.6324 60.0224C39.5687 60.0278 39.5046 60.0205 39.4437 60.0011C35.0759 58.6179 33.4646 60.7436 33.3967 60.8309C33.352 60.8937 33.2931 60.9449 33.2247 60.9803C33.1564 61.0158 33.0806 61.0344 33.0036 61.0348Z" fill="black"/>
<path d="M45.7829 58.6277C45.7363 58.6351 45.6888 58.6351 45.6422 58.6277C45.5809 58.6094 45.5238 58.5791 45.4743 58.5387C45.4247 58.4982 45.3837 58.4484 45.3535 58.392C45.3232 58.3356 45.3045 58.2738 45.2982 58.2102C45.292 58.1465 45.2984 58.0822 45.317 58.0211C45.6682 57.0315 46.3064 56.1691 47.1501 55.5441C47.9939 54.9191 49.0048 54.5599 50.0537 54.5122C50.1824 54.5026 50.3097 54.5444 50.4075 54.6286C50.5054 54.7128 50.5658 54.8324 50.5754 54.9611C50.5851 55.0899 50.5432 55.2171 50.459 55.315C50.3748 55.4128 50.2552 55.4732 50.1265 55.4829C49.2716 55.5158 48.4458 55.8025 47.7544 56.3064C47.063 56.8103 46.5372 57.5085 46.244 58.3123C46.209 58.4059 46.1459 58.4865 46.0634 58.543C45.9809 58.5994 45.8829 58.629 45.7829 58.6277Z" fill="black"/>
<path d="M52.8975 55.6092C52.8975 55.6092 53.7856 53.5806 54.7999 54.8473C55.8142 56.114 56.1928 58.6522 55.5618 60.2974C54.9309 61.9426 54.5475 63.3403 54.5475 63.3403L54.2952 61.5641L52.8975 55.6092Z" fill="white"/>
<path d="M54.5469 63.583C54.4911 63.5784 54.4385 63.5554 54.3972 63.5176C54.3559 63.4799 54.3283 63.4294 54.3188 63.3743L54.0665 61.598L52.6785 55.6626C52.6593 55.6143 52.6593 55.5605 52.6785 55.5122C52.7318 55.3908 53.2269 54.2989 53.9937 54.197C54.1877 54.1819 54.3822 54.2189 54.5572 54.3042C54.7321 54.3895 54.881 54.5201 54.9886 54.6823C56.0805 56.0509 56.4445 58.6522 55.7845 60.3702C55.1633 61.9863 54.7847 63.3743 54.7799 63.3888C54.7689 63.4428 54.7398 63.4915 54.6975 63.5268C54.6551 63.5621 54.602 63.5819 54.5469 63.583V63.583ZM53.1541 55.6383L54.5275 61.5107L54.6294 62.2192C54.8041 61.6757 55.0419 60.9671 55.3331 60.21C55.9301 58.6619 55.5904 56.2256 54.61 55.0026C54.4207 54.7648 54.2315 54.6532 54.0567 54.6774C53.6685 54.7308 53.2948 55.3423 53.1541 55.6383Z" fill="black"/>
<path d="M76.2161 45.7133C76.2161 45.7133 62.2826 43.1897 61.3897 43.1897C60.4967 43.1897 50.1109 45.0921 48.5919 45.723C47.0728 46.354 35.5369 49.6541 35.7892 50.4161C36.0416 51.178 37.4393 51.4255 37.4393 51.4255C37.4393 51.4255 37.6917 52.566 41.7489 53.0756C45.8062 53.5852 55.3038 52.3136 55.4348 53.2018C55.4476 53.505 55.3977 53.8075 55.2883 54.0906C55.179 54.3737 55.0124 54.6312 54.7991 54.847L55.9396 56.8756C55.9396 56.8756 60.123 56.2447 61.5158 55.2304C62.9087 54.2161 66.8543 51.047 66.8543 51.047L75.3425 51.6827L76.2161 45.7133Z" fill="white"/>
<path d="M55.9403 57.1183C55.8971 57.1189 55.8546 57.108 55.817 57.0867C55.7795 57.0653 55.7483 57.0344 55.7267 56.997L54.5863 54.9684C54.5606 54.9218 54.551 54.868 54.5589 54.8154C54.5668 54.7628 54.5917 54.7142 54.6299 54.6772C54.993 54.3004 55.1965 53.7979 55.1978 53.2746C54.7901 53.0028 51.8976 53.1484 49.5681 53.2746C46.7921 53.4105 43.6472 53.5658 41.7157 53.3231C38.3185 52.9009 37.4837 52.0225 37.2702 51.6488C36.8819 51.5614 35.8142 51.2557 35.5619 50.4986C35.5474 50.4556 35.5421 50.4101 35.5463 50.365C35.5505 50.3199 35.564 50.2761 35.5861 50.2365C35.8919 49.6347 38.8814 48.601 45.0595 46.6452C46.6659 46.1356 48.0539 45.6746 48.4955 45.5096C50.0097 44.8786 60.4537 42.9568 61.3904 42.9568C62.3271 42.9568 75.6878 45.3834 76.2605 45.495C76.3224 45.5068 76.3774 45.5423 76.4136 45.594C76.4499 45.6456 76.4646 45.7093 76.4546 45.7716L75.5665 51.7265C75.558 51.787 75.5266 51.8419 75.4787 51.8799C75.4308 51.9178 75.3701 51.9359 75.3093 51.9303L66.9181 51.3042C66.3649 51.7507 62.9337 54.5073 61.6573 55.4343C60.2353 56.4728 56.149 57.0989 55.9743 57.128L55.9403 57.1183ZM55.0958 54.881L56.0665 56.6087C56.8527 56.4825 60.1965 55.8905 61.371 55.0315C62.7444 54.0608 66.6464 50.8917 66.6852 50.8577C66.7332 50.8195 66.7938 50.8005 66.8551 50.8044L75.1054 51.4207L75.9256 45.9221C71.0724 45.0388 62.0504 43.4324 61.3661 43.4324C60.444 43.4324 50.1505 45.33 48.6605 45.9512C48.1752 46.1405 46.8649 46.5627 45.1808 47.0965C42.1719 48.0672 36.6199 49.8095 36.0278 50.4064C36.2559 50.8917 37.1246 51.1295 37.4595 51.1877C37.5062 51.1981 37.5492 51.2213 37.5835 51.2547C37.6178 51.2882 37.6421 51.3305 37.6536 51.377V51.377C37.6536 51.377 38.0273 52.3477 41.7545 52.833C43.6424 53.0708 46.763 52.9155 49.5196 52.7796C54.0767 52.5515 55.5569 52.5321 55.6491 53.1678C55.6762 53.4759 55.6413 53.7863 55.5462 54.0805C55.4512 54.3748 55.298 54.647 55.0958 54.881V54.881Z" fill="black"/>
<path d="M45.2971 47.4993C45.2971 47.4993 39.5947 49.9258 38.7065 50.4112C37.8184 50.8965 40.3517 51.9302 41.8756 51.6778C43.3995 51.4255 49.2233 49.1396 50.126 48.8873C51.0287 48.6349 55.0665 49.6492 57.9833 50.0278C59.835 50.3064 61.7277 50.0435 63.4334 49.2707" fill="white"/>
<path d="M41.3659 51.9642C40.1138 51.9642 38.5171 51.4013 38.3084 50.8189C38.2654 50.7003 38.2702 50.5697 38.3218 50.4547C38.3735 50.3396 38.4679 50.2492 38.585 50.2025C39.4731 49.6929 44.9669 47.3731 45.1999 47.2906C45.2295 47.2779 45.2613 47.2712 45.2935 47.2709C45.3257 47.2707 45.3577 47.2768 45.3875 47.289C45.4173 47.3012 45.4444 47.3192 45.4672 47.342C45.4899 47.3648 45.508 47.3918 45.5202 47.4217C45.543 47.481 45.5422 47.5469 45.5178 47.6056C45.4934 47.6643 45.4473 47.7114 45.3891 47.7371C45.3309 47.7614 39.6915 50.1637 38.8277 50.649C38.8022 50.6609 38.7792 50.6773 38.7597 50.6975C38.8325 50.9742 40.5602 51.6682 41.8318 51.4643C42.8364 51.2993 45.8842 50.1831 47.8982 49.4454C48.9319 49.0669 49.7473 48.7708 50.0433 48.6835C50.616 48.5233 52.0719 48.7757 54.4112 49.2076C55.6342 49.4357 56.896 49.6929 58.0074 49.8191C59.8113 50.0915 61.6554 49.8352 63.3167 49.0814C63.374 49.0527 63.4404 49.0477 63.5013 49.0677C63.5623 49.0877 63.6128 49.1311 63.6419 49.1882C63.6568 49.2165 63.6659 49.2474 63.6686 49.2792C63.6713 49.3111 63.6675 49.3431 63.6576 49.3735C63.6476 49.4038 63.6316 49.4318 63.6106 49.4559C63.5895 49.4799 63.5639 49.4995 63.5351 49.5134C61.7754 50.3072 59.8227 50.572 57.9152 50.2753C56.7941 50.1297 55.5225 49.8919 54.2898 49.6638C52.499 49.3289 50.65 48.9844 50.1598 49.1251C49.8783 49.2076 49.0678 49.5037 48.0487 49.8774C45.8939 50.6636 42.9431 51.7458 41.8949 51.9205C41.72 51.9494 41.5431 51.9641 41.3659 51.9642Z" fill="black"/>
<path d="M110.553 65.9902C107.33 66.7 103.991 66.7 100.769 65.9902C95.4303 64.8011 81.3561 57.832 81.3561 57.832L71.7178 55.0172L73.9308 43.7724C73.9308 43.7724 98.25 46.7377 105.069 49.2565C111.887 51.7753 121.822 57.5602 121.526 59.6374C121.23 61.7145 115.746 66.16 115.746 66.16" fill="#FBD689"/>
<path d="M105.661 66.752C103.998 66.7564 102.339 66.579 100.715 66.223C95.4106 65.0436 81.8121 58.3366 81.2345 58.0502L71.6398 55.25C71.582 55.232 71.5327 55.1934 71.5014 55.1415C71.4701 55.0896 71.4589 55.0281 71.47 54.9685L73.6927 43.6994C73.7045 43.6394 73.7386 43.586 73.7881 43.55C73.8376 43.514 73.8989 43.498 73.9596 43.5053C74.2023 43.5344 98.3856 46.5046 105.151 49.004C111.8 51.4597 122.098 57.3271 121.768 59.6469C121.462 61.792 116.124 66.1405 115.896 66.3249C115.871 66.345 115.842 66.3599 115.812 66.369C115.781 66.378 115.749 66.3809 115.717 66.3775C115.685 66.3742 115.655 66.3646 115.627 66.3493C115.599 66.334 115.574 66.3133 115.554 66.2885C115.534 66.2636 115.519 66.2351 115.51 66.2044C115.501 66.1738 115.498 66.1416 115.501 66.1099C115.504 66.0781 115.514 66.0473 115.529 66.0192C115.545 65.9912 115.565 65.9664 115.59 65.9463C117.095 64.7282 121.055 61.2048 121.288 59.579C121.53 57.8707 112.387 52.1973 104.986 49.4602C98.6137 47.1064 76.5949 44.3207 74.1247 44.0149L71.9893 54.8423L81.4141 57.5989C81.5937 57.6863 95.5708 64.5826 100.827 65.7522C104.013 66.4476 107.312 66.4476 110.499 65.7522C110.563 65.7361 110.632 65.7463 110.688 65.7804C110.745 65.8145 110.786 65.8698 110.802 65.9342C110.819 65.9986 110.808 66.0667 110.774 66.1236C110.74 66.1804 110.685 66.2214 110.62 66.2375C108.992 66.5985 107.328 66.7711 105.661 66.752V66.752Z" fill="black"/>
<path d="M40.1434 122.18C33.5577 122.18 27.1661 114.958 26.8506 114.594C26.8251 114.571 26.8048 114.543 26.791 114.512C26.7771 114.48 26.7702 114.446 26.7705 114.412C26.7709 114.378 26.7785 114.344 26.7929 114.312C26.8074 114.281 26.8283 114.253 26.8542 114.231C26.8802 114.208 26.9107 114.192 26.9436 114.182C26.9765 114.172 27.0112 114.169 27.0453 114.174C27.0793 114.178 27.1121 114.19 27.1413 114.208C27.1705 114.226 27.1955 114.25 27.2146 114.279C27.302 114.376 36.1056 124.325 43.3805 121.001C50.6554 117.676 54.4506 95.9341 54.4894 95.7157C54.5012 95.6524 54.5372 95.5963 54.5898 95.5591C54.6423 95.522 54.7073 95.5068 54.7709 95.5167C54.8341 95.5285 54.8903 95.5646 54.9274 95.6171C54.9646 95.6697 54.9798 95.7346 54.9699 95.7982C54.8146 96.7009 51.1407 117.992 43.5843 121.442C42.5047 121.936 41.3304 122.187 40.1434 122.18Z" fill="black"/>
<path d="M30.5294 115.012C21.75 115.012 15.1982 106.961 15.1303 106.873C15.0906 106.823 15.0724 106.759 15.0797 106.695C15.087 106.632 15.1191 106.574 15.1691 106.534C15.1938 106.513 15.2222 106.498 15.2528 106.489C15.2834 106.48 15.3155 106.477 15.3472 106.481C15.3789 106.485 15.4095 106.495 15.4373 106.51C15.4651 106.526 15.4894 106.547 15.5088 106.572C15.5816 106.66 22.6042 115.308 31.7524 114.473C41.1044 113.639 44.0697 102.549 43.9823 97.6184C43.9823 97.5544 44.007 97.4928 44.0514 97.4467C44.0957 97.4005 44.1562 97.3734 44.2201 97.3708C44.2834 97.3731 44.3437 97.3985 44.3894 97.4424C44.435 97.4863 44.4629 97.5455 44.4677 97.6086C44.555 102.685 41.4878 114.109 31.796 114.959C31.369 114.998 30.9467 115.012 30.5294 115.012Z" fill="black"/>
<path d="M19.4069 101.195L16.4258 100.193L11.7304 114.17L14.7115 115.171L19.4069 101.195Z" fill="#7D7D7D"/>
<path d="M14.7231 115.415C14.6974 115.419 14.6711 115.419 14.6455 115.415L11.6656 114.415C11.6351 114.406 11.6068 114.39 11.5826 114.369C11.5584 114.348 11.5388 114.323 11.5249 114.294C11.5008 114.233 11.5008 114.165 11.5249 114.104L16.1791 100.118C16.2001 100.057 16.2437 100.007 16.3007 99.9785C16.3577 99.9495 16.4237 99.9438 16.4848 99.9624L19.4646 100.967C19.4952 100.976 19.5234 100.992 19.5476 101.013C19.5719 101.034 19.5915 101.06 19.6054 101.088C19.6297 101.147 19.6297 101.214 19.6054 101.273L14.9075 115.25C14.894 115.291 14.8698 115.328 14.8374 115.357C14.805 115.386 14.7656 115.406 14.7231 115.415V115.415ZM12.049 114.017L14.5678 114.862L19.091 101.346L16.5722 100.501L12.049 114.017Z" fill="black"/>
<path d="M20.7426 99.9281L16.1191 98.3748L15.4283 100.431L20.0518 101.985L20.7426 99.9281Z" fill="black"/>
<path d="M20.0618 102.229H19.9841L15.3591 100.676C15.3269 100.667 15.2969 100.652 15.271 100.631C15.2451 100.61 15.2238 100.584 15.2086 100.554C15.1844 100.495 15.1844 100.429 15.2086 100.37L15.8978 98.3122C15.9128 98.2516 15.9502 98.1989 16.0024 98.1647C16.0546 98.1305 16.1177 98.1173 16.1793 98.1277L20.7995 99.6807C20.83 99.6902 20.8583 99.7059 20.8825 99.7268C20.9067 99.7476 20.9263 99.7733 20.9402 99.8021C20.9645 99.8611 20.9645 99.9274 20.9402 99.9865L20.2511 102.044C20.2407 102.09 20.2173 102.132 20.1837 102.164C20.1501 102.197 20.1078 102.219 20.0618 102.229ZM15.7473 100.287L19.9113 101.685L20.4452 100.093L16.2812 98.6907L15.7473 100.287Z" fill="black"/>
<path d="M25.984 103.402L23.0029 102.401L18.3075 116.377L21.2887 117.378L25.984 103.402Z" fill="#7D7D7D"/>
<path d="M21.2836 117.623C21.2579 117.628 21.2316 117.628 21.2059 117.623L18.2261 116.623C18.1956 116.614 18.1673 116.598 18.1431 116.577C18.1189 116.557 18.0992 116.531 18.0854 116.502C18.0722 116.473 18.0654 116.442 18.0654 116.41C18.0654 116.378 18.0722 116.347 18.0854 116.318L22.7784 102.341C22.7879 102.31 22.8035 102.282 22.8244 102.258C22.8453 102.233 22.8709 102.214 22.8997 102.2C22.9287 102.187 22.9601 102.18 22.9919 102.18C23.0237 102.18 23.0552 102.187 23.0841 102.2L26.064 103.2C26.0946 103.209 26.123 103.224 26.1476 103.245C26.1721 103.266 26.1922 103.291 26.2067 103.319C26.2212 103.348 26.2298 103.379 26.232 103.411C26.2341 103.443 26.2298 103.475 26.2193 103.505L21.5166 117.458C21.5008 117.507 21.4696 117.55 21.4276 117.58C21.3856 117.609 21.3351 117.625 21.2836 117.623ZM18.6047 116.226L21.1283 117.075L25.666 103.559L23.1472 102.709L18.6047 116.226Z" fill="black"/>
<path d="M27.3149 102.136L22.6914 100.582L22.0005 102.639L26.624 104.192L27.3149 102.136Z" fill="black"/>
<path d="M26.6273 104.437H26.5497L21.9295 102.884C21.8989 102.874 21.8707 102.859 21.8465 102.838C21.8222 102.817 21.8026 102.791 21.7887 102.763C21.7644 102.704 21.7644 102.637 21.7887 102.578L22.4876 100.506C22.512 100.447 22.5568 100.399 22.6138 100.37C22.6728 100.346 22.7391 100.346 22.7982 100.37L27.4232 101.923C27.4528 101.933 27.4799 101.949 27.5033 101.97C27.5266 101.991 27.5456 102.016 27.5591 102.044C27.5834 102.103 27.5834 102.17 27.5591 102.229L26.8554 104.272C26.8393 104.32 26.8086 104.361 26.7677 104.391C26.7269 104.42 26.6778 104.437 26.6273 104.437V104.437ZM22.3129 102.496L26.4769 103.898L27.0107 102.302L22.8467 100.904L22.3129 102.496Z" fill="black"/>
<path d="M24.9672 107.15L15.2852 103.889L11.6775 114.599L21.3596 117.86L24.9672 107.15Z" fill="black"/>
<path d="M21.2839 117.623C21.2582 117.628 21.2319 117.628 21.2062 117.623L11.5484 114.381C11.4885 114.359 11.4386 114.316 11.4077 114.26C11.3836 114.199 11.3836 114.131 11.4077 114.07L14.999 103.394C15.0197 103.333 15.0632 103.282 15.1204 103.253C15.1794 103.228 15.2457 103.228 15.3048 103.253L24.9674 106.495C25.028 106.517 25.0776 106.561 25.1057 106.619C25.1338 106.677 25.1382 106.744 25.1179 106.805L21.5265 117.482C21.5062 117.528 21.4718 117.567 21.4282 117.592C21.3846 117.617 21.334 117.628 21.2839 117.623ZM11.9318 113.983L21.1528 117.075L24.5695 106.864L15.3485 103.772L11.9318 113.983Z" fill="black"/>
<path d="M12.4518 121.272L3.43945 118.244L8.21496 110.358L13.403 112.1L12.4518 121.272Z" fill="#7D7D7D"/>
<path d="M12.4505 121.515H12.3729L3.36055 118.487C3.32636 118.475 3.29517 118.456 3.26917 118.431C3.24318 118.405 3.22302 118.375 3.2101 118.341C3.19458 118.309 3.18652 118.273 3.18652 118.237C3.18652 118.201 3.19458 118.165 3.2101 118.132L7.99047 110.241C8.01861 110.194 8.06192 110.159 8.11316 110.14C8.1644 110.122 8.22046 110.121 8.27195 110.139L13.46 111.882C13.5128 111.899 13.558 111.934 13.5881 111.981C13.6181 112.028 13.6311 112.083 13.625 112.139L12.6544 121.306C12.6509 121.343 12.639 121.378 12.6196 121.409C12.6002 121.44 12.5739 121.467 12.5427 121.486C12.5146 121.502 12.4831 121.512 12.4505 121.515V121.515ZM3.80219 118.118L12.2418 120.938L13.1445 112.26L8.32534 110.639L3.80219 118.118Z" fill="black"/>
<path d="M12.4518 121.274L3.43945 118.247L0.226247 127.811L9.2386 130.839L12.4518 121.274Z" fill="#636363"/>
<path d="M9.23826 131.081C9.21263 131.086 9.18624 131.086 9.16061 131.081L0.162853 128.038C0.102632 128.017 0.0530827 127.973 0.0249284 127.916C-0.00322584 127.858 -0.00772118 127.792 0.012406 127.732L3.2252 118.166C3.2355 118.137 3.25151 118.11 3.27233 118.086C3.29315 118.063 3.31836 118.044 3.34653 118.03C3.4056 118.006 3.47187 118.006 3.53095 118.03L12.5433 121.059C12.6035 121.08 12.653 121.124 12.6812 121.181C12.7093 121.238 12.7138 121.304 12.6937 121.365L9.48092 130.93C9.47139 130.96 9.45566 130.988 9.43475 131.011C9.41384 131.034 9.38823 131.053 9.35959 131.066C9.32151 131.083 9.27925 131.088 9.23826 131.081V131.081ZM0.53169 127.654L9.08297 130.527L12.1453 121.423L3.59404 118.55L0.53169 127.654Z" fill="black"/>
<path d="M17.8542 103.075L10.1162 100.476L6.90301 110.04L14.641 112.64L17.8542 103.075Z" fill="#636363"/>
<path d="M14.6452 112.882H14.5676L6.8025 110.28C6.7416 110.26 6.69113 110.216 6.66176 110.159C6.63749 110.1 6.63749 110.034 6.66176 109.974L9.8697 100.399C9.89067 100.339 9.93451 100.289 9.99172 100.261C10.0489 100.233 10.1149 100.229 10.1754 100.249L17.9114 102.845C17.9713 102.867 18.0213 102.911 18.0521 102.967C18.0762 103.027 18.0762 103.095 18.0521 103.156L14.8393 112.717C14.8255 112.759 14.8 112.797 14.7657 112.827C14.7314 112.856 14.6897 112.875 14.6452 112.882ZM7.21502 109.887L14.4948 112.314L17.5522 103.209L10.2725 100.783L7.21502 109.887Z" fill="black"/>
<path d="M25.6031 125.694L16.5908 122.665L21.3712 114.779L26.5592 116.521L25.6031 125.694Z" fill="#7D7D7D"/>
<path d="M25.6023 125.936C25.5766 125.941 25.5503 125.941 25.5247 125.936L16.5123 122.879C16.4781 122.867 16.4469 122.848 16.4209 122.823C16.395 122.797 16.3748 122.767 16.3619 122.733C16.35 122.699 16.3461 122.662 16.3503 122.626C16.3545 122.59 16.3667 122.555 16.3861 122.524L21.1617 114.638C21.1905 114.591 21.2345 114.554 21.2864 114.535C21.3383 114.516 21.3952 114.514 21.448 114.531L26.636 116.278C26.6881 116.295 26.7326 116.329 26.7619 116.375C26.7912 116.422 26.8033 116.477 26.7962 116.531L25.8255 125.703C25.8214 125.74 25.8092 125.774 25.7899 125.805C25.7706 125.837 25.7446 125.863 25.7139 125.883C25.682 125.91 25.6435 125.928 25.6023 125.936V125.936ZM16.954 122.539L25.3985 125.363L26.3011 116.691L21.482 115.07L16.954 122.539Z" fill="black"/>
<path d="M25.6071 125.693L16.5947 122.666L13.3815 132.23L22.3939 135.258L25.6071 125.693Z" fill="#636363"/>
<path d="M22.3895 135.497H22.3119L13.2996 132.469C13.2394 132.448 13.1898 132.404 13.1617 132.347C13.1335 132.289 13.129 132.223 13.1491 132.163L16.3619 122.597C16.3714 122.567 16.3871 122.538 16.4079 122.514C16.4288 122.49 16.4545 122.47 16.4832 122.457C16.5122 122.443 16.5437 122.437 16.5755 122.437C16.6073 122.437 16.6387 122.443 16.6677 122.457L25.68 125.48C25.7407 125.502 25.7907 125.547 25.8196 125.604C25.8485 125.662 25.8541 125.729 25.8353 125.791L22.6225 135.351C22.5998 135.413 22.5547 135.463 22.4963 135.492C22.4618 135.503 22.4249 135.505 22.3895 135.497ZM13.6878 132.1L22.2391 134.973L25.2966 125.868L16.7453 122.995L13.6878 132.1Z" fill="black"/>
<path d="M31.0115 107.492L23.2734 104.892L20.0602 114.457L27.7983 117.056L31.0115 107.492Z" fill="#636363"/>
<path d="M27.7968 117.302C27.7711 117.307 27.7448 117.307 27.7191 117.302L19.9832 114.701C19.9526 114.691 19.9244 114.676 19.9002 114.655C19.876 114.634 19.8563 114.608 19.8424 114.58C19.8182 114.521 19.8182 114.454 19.8424 114.395L23.0552 104.834C23.0752 104.773 23.1186 104.723 23.176 104.694C23.2333 104.664 23.2998 104.659 23.361 104.679L31.126 107.28C31.1869 107.301 31.2374 107.345 31.2668 107.402C31.291 107.461 31.291 107.527 31.2668 107.586L28.054 117.152C28.0347 117.202 27.9986 117.245 27.9519 117.272C27.9051 117.3 27.8504 117.31 27.7968 117.302V117.302ZM20.3666 114.308L27.6463 116.734L30.7087 107.635L23.4289 105.208L20.3666 114.308Z" fill="black"/>
<path d="M7.054 99.8411C7.054 99.8411 6.00572 101.569 6.31632 102.064C6.62692 102.559 9.65045 104.223 10.0824 104.35C10.5143 104.476 11.6888 103.864 11.6257 103.049C11.5626 102.234 9.1991 100.521 8.47598 100.089C7.75286 99.6566 7.3646 99.5838 7.054 99.8411Z" fill="white"/>
<path d="M10.2083 104.607C10.1438 104.614 10.0787 104.614 10.0142 104.607C9.52887 104.476 6.46167 102.782 6.10739 102.214C5.7531 101.646 6.5927 100.171 6.84992 99.739C6.86372 99.7149 6.88182 99.6935 6.9033 99.6759C7.38862 99.3071 7.87394 99.4867 8.59706 99.8992C8.99502 100.132 11.7904 102.01 11.8681 103.059C11.8724 103.277 11.8228 103.493 11.7238 103.688C11.6248 103.882 11.4793 104.05 11.3003 104.175C10.9896 104.428 10.6082 104.579 10.2083 104.607ZM7.23817 100.006C6.75286 100.846 6.39858 101.743 6.51991 101.947C6.78198 102.369 9.71814 104.005 10.1501 104.131C10.4633 104.123 10.7631 104.003 10.9945 103.791C11.1093 103.711 11.204 103.605 11.2713 103.482C11.3387 103.36 11.3768 103.223 11.3828 103.083C11.3391 102.486 9.33959 100.884 8.3544 100.312C7.61672 99.8652 7.38862 99.8992 7.23817 100.006V100.006Z" fill="black"/>
<path d="M5.3955 103.257C5.3955 103.257 4.88592 105.199 5.32756 105.602C5.76919 106.004 9.14214 106.708 9.59348 106.698C10.0448 106.689 10.9863 105.762 10.6952 105.014C10.404 104.267 7.65707 103.282 6.81262 103.073C5.96817 102.864 5.61874 102.932 5.3955 103.257Z" fill="white"/>
<path d="M9.58694 106.941C9.10162 106.941 5.66558 106.223 5.16571 105.781C4.66583 105.34 5.02982 103.689 5.16571 103.194C5.17498 103.168 5.18634 103.142 5.19968 103.117C5.53455 102.631 6.09266 102.656 6.88858 102.845C7.33507 102.952 10.5527 103.947 10.9313 104.927C10.9993 105.135 11.0149 105.356 10.9768 105.571C10.9387 105.786 10.8481 105.988 10.7129 106.16C10.5935 106.36 10.4333 106.533 10.2427 106.668C10.0521 106.803 9.83526 106.896 9.60636 106.941H9.58694ZM5.61706 103.364C5.3744 104.335 5.31131 105.267 5.48602 105.417C5.85486 105.742 9.14045 106.475 9.58694 106.456C9.88676 106.361 10.1409 106.159 10.3004 105.888C10.3875 105.779 10.4482 105.651 10.4777 105.515C10.5072 105.378 10.5046 105.237 10.4702 105.102C10.2518 104.539 7.87377 103.583 6.76725 103.321C5.93736 103.122 5.72868 103.219 5.61706 103.364V103.364Z" fill="black"/>
<path d="M4.46679 106.655C4.46679 106.655 3.95721 108.596 4.39884 108.999C4.84048 109.401 8.21343 110.105 8.66478 110.095C9.11612 110.086 10.0576 109.159 9.76644 108.411C9.47525 107.664 6.73321 106.679 5.88391 106.47C5.03461 106.261 4.69003 106.329 4.46679 106.655Z" fill="white"/>
<path d="M8.66116 110.338C8.17584 110.338 4.7398 109.62 4.23993 109.178C3.74005 108.737 4.10404 107.087 4.23993 106.592C4.24892 106.564 4.262 106.538 4.27875 106.514C4.60877 106.029 5.16688 106.053 5.9628 106.242C6.40929 106.349 9.62694 107.344 10.0055 108.324C10.0735 108.532 10.0892 108.753 10.0511 108.968C10.013 109.183 9.92229 109.385 9.7871 109.557C9.66773 109.757 9.50754 109.931 9.31691 110.065C9.12628 110.2 8.90948 110.293 8.68058 110.338H8.66116ZM4.69128 106.761C4.44862 107.732 4.38552 108.664 4.56024 108.814C4.92908 109.139 8.18555 109.853 8.65631 109.853C8.96141 109.764 9.22151 109.563 9.38428 109.29C9.47145 109.181 9.53215 109.053 9.56163 108.917C9.5911 108.78 9.58854 108.639 9.55415 108.504C9.33575 107.941 6.9577 106.985 5.85118 106.723C5.01644 106.519 4.8029 106.616 4.69128 106.761V106.761Z" fill="black"/>
<path d="M4.89944 109.926C4.89944 109.926 4.41412 111.867 4.8315 112.27C5.24887 112.672 8.64608 113.376 9.09743 113.371C9.54877 113.366 10.4903 112.435 10.2039 111.682C9.91761 110.93 7.16587 109.955 6.32142 109.741C5.47697 109.528 5.12268 109.6 4.89944 109.926Z" fill="white"/>
<path d="M9.09182 113.614C8.60651 113.614 5.17047 112.891 4.67059 112.454C4.17072 112.018 4.5347 110.363 4.67059 109.868C4.67855 109.839 4.69172 109.813 4.70942 109.79C5.03943 109.305 5.59755 109.329 6.39347 109.518C6.83996 109.625 10.0576 110.615 10.4362 111.595C10.5042 111.804 10.5198 112.026 10.4817 112.241C10.4436 112.457 10.353 112.66 10.2178 112.833C10.0984 113.033 9.9382 113.207 9.74757 113.341C9.55694 113.476 9.34014 113.569 9.11124 113.614H9.09182ZM5.12194 110.033C4.87928 111.003 4.82104 111.94 4.9909 112.09C5.35974 112.411 8.62107 113.129 9.08697 113.129C9.38746 113.036 9.64203 112.833 9.80039 112.561C9.88763 112.451 9.94834 112.323 9.9778 112.185C10.0073 112.048 10.0047 111.906 9.97025 111.77C9.75186 111.212 7.37381 110.256 6.26729 109.989C5.44225 109.775 5.23356 109.887 5.12194 110.033V110.033Z" fill="black"/>
</svg>
